<svg width="472" height="234" viewBox="0 0 472 234" fill="none" xmlns="http://www.w3.org/2000/svg">
<path d="M376.6 221C379 217.6 379.9 214.8 379.9 212.6C382.4 214.1 380.9 219.4 380.9 219.4C381.5 217.9 382.8 216 382.6 214.7C383.8 215.6 384.1 219.5 383.7 221.4C388.7 211.7 387.8 204.6 387.9 204.5C389.4 204.9 392.1 213.9 392.3 215.8C392.4 216.8 392.3 218 392.9 218.5C394.2 216 394.8 213.1 394.6 211.1C394.9 211.7 395.3 213 395.7 213.6C397.3 210.3 397.9 205.3 397.7 203.8C398.8 204.7 399.6 208.1 399.8 209.8C400.1 211.6 400.4 214.4 399.9 216.8C401.6 213.9 402.4 208.6 402.9 203.9C403.8 205.8 404.5 207.5 404.5 212.8C404.5 213.7 404.2 215.4 404.5 216C405.7 213.1 406.5 209.2 406.4 208C407.6 208.6 407.2 216 406.9 218.2C408.3 214.5 409.2 210.7 409 207.9C410 212 408.7 218.3 408 224.1L367.5 225.3C365.8 225.4 363.5 226.1 362.4 225.4C373.1 221.2 371.3 202.8 371.3 202.8C372.8 208.8 377 212.8 376.6 221Z" fill="#B7B029"/>
<path d="M435 220.5C433.8 217.9 433.6 215.7 434 213.9C431.8 215.3 431.9 219.5 431.9 219.5C431.7 218.3 431.1 216.8 431.4 215.8C430.3 216.6 429.3 219.8 429.3 221.3C427.2 213.8 429.2 208 429.2 207.9C427.9 208.3 424.2 215.8 423.7 217.3C423.4 218.1 423.3 219.1 422.8 219.5C422.3 217.5 422.3 215.3 422.8 213.7C422.4 214.2 421.9 215.3 421.5 215.8C420.8 213.2 421.3 209.2 421.7 208C420.6 208.8 419.4 211.6 418.9 213C418.3 214.5 417.6 216.7 417.6 218.7C416.8 216.5 417.1 212.2 417.7 208.5C416.7 210.1 415.8 211.5 414.8 215.8C414.6 216.5 414.6 217.8 414.2 218.4C413.8 216.1 413.9 213.1 414.2 212C413.1 212.6 412.1 218.5 411.9 220.3C411.5 217.4 411.5 214.4 412.2 212.2C410.7 215.6 410.5 220.6 410 225.3L441.4 223.4C442.7 223.4 444.4 223.8 445.4 223.2C437.8 220.5 442.7 205.6 442.7 205.6C440.2 210.4 436.2 214 435 220.5Z" fill="#B7B029"/>
<path d="M346.4 218.6C347 217.7 348.3 215.1 349 214.2C349.1 215.4 348.9 216.9 348.6 218.2C348.9 217.8 349.9 217 350.1 216.6C350.2 217.1 350.4 217.4 350.5 217.9C351.2 217.2 352.1 216.8 352.7 215.8C352.8 216.4 353.2 217.6 353.2 218.4C353.6 217.7 354 217.3 354.4 216.5C354.1 217.6 354 218.8 353.7 219.9C357.7 212.6 357.2 213.5 361.9 206.6C360.1 211.9 360.8 210.8 359.8 217.4C361.1 216.7 361.5 214.6 361.7 212.9C362.7 214.4 362.8 217.2 363 219.5C364.9 217.7 364.9 213.7 365.2 211.4C367.2 214.5 368.7 219.3 366.7 224.8L342.6 225C343.5 222.2 345.2 220.4 346.4 218.6Z" fill="#B7B029"/>
<path d="M217.1 219.9C215.2 216.8 214.5 214.2 214.7 212.2C212.3 213.5 213.3 218.4 213.3 218.4C212.9 217 211.8 215.3 212 214.1C210.9 214.9 210.3 218.5 210.5 220.2C206.6 211.3 207.9 204.9 207.9 204.8C206.5 205.2 203.5 213.4 203.2 215.1C203 216 203.1 217.1 202.5 217.6C201.5 215.3 201.1 212.7 201.5 210.9C201.1 211.4 200.7 212.7 200.4 213.2C199.1 210.2 199 205.6 199.2 204.2C198.1 205 197.2 208.1 196.9 209.7C196.5 211.4 196 213.9 196.4 216.1C195.1 213.4 194.6 208.6 194.6 204.3C193.7 206 193 207.6 192.5 212.4C192.4 213.2 192.6 214.7 192.3 215.3C191.4 212.6 190.9 209.1 191.2 208C190 208.5 189.9 215.3 190.1 217.3C189.1 214 188.5 210.4 188.9 207.9C187.7 211.7 188.5 217.4 188.7 222.7L225.3 223.8C226.8 223.9 228.9 224.5 229.9 223.9C220.5 220 223.3 203.3 223.3 203.3C221.3 208.8 217.3 212.5 217.1 219.9Z" fill="#B7B029"/>
<path d="M164.2 219.5C165.5 217.2 165.8 215.1 165.6 213.5C167.5 214.7 167.1 218.6 167.1 218.6C167.3 217.5 168 216.2 167.8 215.2C168.7 215.9 169.4 218.9 169.4 220.2C171.8 213.3 170.4 208 170.4 208C171.5 208.4 174.4 215.2 174.8 216.6C175 217.3 175 218.2 175.5 218.6C176.1 216.8 176.2 214.7 175.8 213.3C176.1 213.7 176.5 214.8 176.8 215.3C177.6 212.9 177.4 209.3 177.1 208.2C178 209 178.9 211.5 179.3 212.8C179.7 214.2 180.3 216.2 180.1 218C181 216 180.9 212.1 180.7 208.7C181.5 210.1 182.2 211.4 182.9 215.4C183 216.1 183 217.3 183.3 217.7C183.8 215.6 183.9 212.8 183.7 211.9C184.6 212.4 185.2 217.9 185.2 219.5C185.7 216.9 185.9 214.1 185.5 212.1C186.7 215.2 186.5 219.8 186.7 224L158.4 222.3C157.2 222.3 155.7 222.6 154.8 222.1C161.9 219.7 158.5 206 158.5 206C160.1 210.3 163.5 213.6 164.2 219.5Z" fill="#B7B029"/>
<path d="M244.6 217.8C244.1 217 243.1 214.6 242.5 213.8C242.3 214.9 242.5 216.2 242.6 217.5C242.4 217.1 241.5 216.4 241.3 216C241.2 216.4 241 216.7 240.9 217.2C240.3 216.5 239.5 216.2 239.1 215.2C239 215.7 238.5 216.9 238.4 217.5C238.1 216.9 237.7 216.5 237.5 215.7C237.7 216.7 237.8 217.8 237.9 218.8C234.8 212.1 235.1 213 231.4 206.7C232.7 211.6 232.1 210.6 232.6 216.5C231.4 215.9 231.2 213.9 231.1 212.4C230.1 213.8 229.8 216.3 229.5 218.4C227.9 216.8 228.2 213.1 228.1 211C226 213.8 224.4 218.3 225.9 223.2L247.7 223.4C246.9 221.1 245.6 219.4 244.6 217.8Z" fill="#B7B029"/>
<path d="M417.9 221.6C437.9 221.6 430.9 214.3 430.9 214.3C430.9 214.3 436.4 212.6 436.1 208.7C435.8 204.8 431.9 206.5 431.9 206.5C431.9 206.5 435.8 201.7 431.9 199.8C428 197.8 425.9 198.1 425.9 198.1C425.9 198.1 439 190.8 439 185.2C439 179.6 436.6 177.6 436.6 177.6C436.6 177.6 442.3 173.4 439.6 168.9C436.9 164.4 431.9 164.1 431.9 164.1C431.9 164.1 436.1 161.6 434.6 158.2C433.1 154.8 430.1 156.5 430.1 156.5C430.1 156.5 435.2 153.4 432.5 148.9C429.8 144.4 424.2 145.5 424.2 145.5C424.2 145.5 429 142.7 424.2 139.6C419.4 136.5 414.7 137.1 414.7 137.1C414.7 137.1 421.6 126.7 416.2 124.5C410.8 122.3 407 127.3 407 127.3C407 127.3 408.2 121.1 402.8 123.1C397.4 125.1 397.1 130.7 397.1 130.7C397.1 130.7 394.7 126.2 390.2 128.7C385.7 131.2 386.3 136 386.3 136C386.3 136 385.7 133.2 381.5 134.6C377.3 136 376.7 140.8 376.7 140.8C376.7 140.8 375.2 134.9 370.4 137.2C365.6 139.4 363 152 363 152C363 152 365.1 147 360.9 146.7C356.7 146.4 354.9 153.4 354.9 153.4C354.9 153.4 354.3 147.5 350.1 149.5C345.9 151.5 348.3 161.3 348.3 161.3C348.3 161.3 344.4 156.3 341.4 157.4C338.4 158.5 339.3 165 339.3 165C339.3 165 333.3 164.2 330.7 168.6C328 173.1 331 176.7 331 176.7C331 176.7 326.8 177.5 325.9 180.6C325 183.7 328.3 184.8 328.3 184.8C328.3 184.8 322 185.9 322 190.7C322 195.5 328.6 196 328.6 196C328.6 196 322.9 199.6 323.2 203.6C323.5 207.5 329.5 207 329.5 207C329.5 207 325.6 209 325.9 212C326.2 215.1 332.2 216.5 332.2 216.5C332.2 216.5 329.2 219.8 330.4 221.5C346.1 221.6 417.9 221.6 417.9 221.6Z" fill="#B7B029"/>
<path d="M325.3 206.3C330 197.7 334.1 188.7 334.3 179.2C334.4 175 333.8 170.8 332.8 166.6C335.7 164.5 339.5 165 339.5 165C339.5 165 338.6 158.6 341.6 157.4C344.6 156.3 348.5 161.3 348.5 161.3C348.5 161.3 346.1 151.5 350.3 149.5C354.5 147.5 355.1 153.4 355.1 153.4C355.1 153.4 356.4 148.3 359.4 147C357.4 153.8 357 161.1 358.4 168C358.7 169.3 359 170.7 359.7 171.8C361.1 174.2 363.8 175.8 366.5 176.8C370 178.2 374.6 178.7 377.3 176.2C378.2 175.4 378.8 174.4 379.5 173.5C382.1 170.6 386.4 169.7 390.4 169C390.4 169.6 390.4 170.1 390.5 170.7C385.1 171.5 380.9 175.9 379.3 180.8C377.7 185.7 378.4 191 380 195.9C372.2 199.8 364.5 203.7 356.7 207.7C350.5 210.8 343.9 214 336.9 213.4C333.3 213.1 329.6 211.8 326.1 211.7C326 208.8 329.7 206.9 329.7 206.9C329.7 206.9 327.1 207.3 325.3 206.3Z" fill="#A0961C"/>
<path d="M322.2 190.8C322.2 186 328.5 184.9 328.5 184.9C328.5 184.9 325.2 183.8 326.1 180.7C326.4 179.7 327 179 327.7 178.4C327.3 179.4 327.5 180.6 329.3 182.1C333.7 185.6 338.5 185.5 338.5 185.5C338.5 185.5 330.6 195.2 335.7 197.9C340.8 200.6 345.2 196 345.2 196C345.2 196 343.4 202 348.9 200.6C354.4 199.2 355.3 193.6 355.3 193.6C355.3 193.6 357.2 198.3 361.9 196.2C366.6 194.1 366.5 189.3 366.5 189.3C366.5 189.3 366.8 192.1 371.1 191.1C375.4 190.1 376.5 185.4 376.5 185.4C376.5 185.4 377.4 191.4 382.3 189.6C386 188.3 389.2 181 390.6 177.5C390.3 178.9 390.4 180.7 392.8 181.1C396.9 181.8 399.5 175 399.5 175C399.5 175 399.5 180.9 403.8 179.4C408.2 177.8 406.8 167.9 406.8 167.9C406.8 167.9 410.1 173.3 413.2 172.5C416.3 171.7 416.1 165.2 416.1 165.2C416.1 165.2 421.9 166.6 425.1 162.4C428.2 158.2 425.7 154.3 425.7 154.3C425.7 154.3 429.9 153.9 431.2 150.9C432.2 148.6 430.4 147.2 429.7 146.7C430.7 147.2 431.7 148 432.4 149.3C435.1 153.8 430 156.9 430 156.9C430 156.9 433 155.2 434.5 158.6C436 162 431.8 164.5 431.8 164.5C431.8 164.5 436.9 164.8 439.5 169.3C442.2 173.8 436.5 178 436.5 178C436.5 178 438.9 180 438.9 185.6C438.9 191.2 425.8 198.5 425.8 198.5C425.8 198.5 427.9 198.2 431.8 200.2C435.7 202.2 431.8 206.9 431.8 206.9C431.8 206.9 435.7 205.2 436 209.1C436.3 213 430.8 214.7 430.8 214.7C430.8 214.7 437.8 222 417.8 222C417.8 222 346 222 330.5 222C329.2 220.2 332.3 217 332.3 217C332.3 217 326.3 215.6 326 212.5C325.7 209.4 329.6 207.5 329.6 207.5C329.6 207.5 323.6 208.1 323.3 204.1C323 200.2 328.7 196.5 328.7 196.5C328.7 196.5 322.2 195.6 322.2 190.8Z" fill="#A0961C"/>
<path d="M307.9 220.2C309.9 217.1 310.3 214.6 309.6 212.6C313.4 213.9 313.1 218.7 313.1 218.7C313.4 217.3 314.5 215.6 313.9 214.4C315.7 215.2 317.4 218.8 317.5 220.5C321 211.7 317.6 205.3 317.6 205.2C319.7 205.6 326 213.7 326.9 215.4C327.3 216.3 327.6 217.4 328.5 217.9C329.4 215.6 329.3 213 328.4 211.2C329 211.7 330 213 330.6 213.5C331.7 210.5 330.8 206 330.2 204.6C332 205.4 334 208.5 334.9 210.1C335.8 211.7 337.2 214.2 337.2 216.5C338.5 213.9 337.9 209 337 204.8C338.7 206.5 340.2 208 342 212.9C342.3 213.7 342.4 215.2 343.1 215.8C343.8 213.2 343.6 209.7 343 208.5C344.8 209 346.6 215.7 346.9 217.8C347.5 214.5 347.5 211 346.4 208.5C349 212.2 349.3 217.9 350.2 223.2L297.4 224.3C295.2 224.4 292.4 225 290.7 224.4C303.5 220.6 295.2 204 295.2 204C299.1 209.2 305.8 212.9 307.9 220.2Z" fill="#B7B029"/>
<path d="M384.5 219.8C382.1 217.5 381.1 215.5 381.1 213.9C378.6 215.1 380.2 218.9 380.2 218.9C379.6 217.8 378.2 216.5 378.4 215.5C377.2 216.2 377 219.1 377.3 220.5C372.1 213.7 373 208.5 372.9 208.4C371.4 208.8 368.8 215.5 368.7 217C368.6 217.7 368.8 218.6 368.2 219C366.9 217.2 366.2 215.2 366.4 213.7C366.1 214.1 365.7 215.2 365.4 215.6C363.7 213.3 363.1 209.7 363.2 208.5C362.1 209.3 361.4 211.7 361.1 213.1C360.8 214.4 360.5 216.5 361.1 218.3C359.4 216.3 358.4 212.4 358 209.1C357.2 210.5 356.5 211.8 356.5 215.7C356.5 216.4 356.9 217.6 356.5 218C355.2 216 354.4 213.2 354.5 212.2C353.3 212.7 353.8 218.1 354.1 219.7C352.7 217.1 351.7 214.3 351.9 212.3C351 215.4 352.3 219.9 353.1 224.1L393.8 222.4C395.5 222.4 397.9 222.7 399 222.2C388.2 219.8 389.8 206.2 389.8 206.2C388.2 210.7 384 213.9 384.5 219.8Z" fill="#B7B029"/>
<path d="M267.4 218.1C267.9 217.3 268.8 215 269.5 214.2C270 215.3 270.1 216.6 270.2 217.8C270.4 217.4 271.5 216.7 271.7 216.4C271.9 216.8 272.4 217.1 272.6 217.6C273.2 216.9 274.3 216.6 274.8 215.7C275.1 216.2 276.1 217.3 276.3 218C276.6 217.4 277.1 217 277.2 216.3C277.2 217.3 277.3 218.4 277.4 219.4C280.3 212.8 280 213.6 283.9 207.4C283.2 212.2 283.8 211.2 284.6 217.1C286.1 216.5 285.9 214.6 285.7 213C287.5 214.4 288.5 216.9 289.4 219C291.3 217.4 290.1 213.8 289.7 211.7C293.4 214.5 296.8 218.9 295.9 223.8L264.3 224C264.9 221.3 266.4 219.7 267.4 218.1Z" fill="#B7B029"/>
<path d="M166.9 82.7C169.8 83.2 171.1 83.9 171.8 83.9C172.5 83.9 174.8 84.4 175.4 83.6C176 82.7 175.7 78.7 174.5 78.7C173.3 78.7 170.6 80 167.2 81.2C164.9 82 166.9 82.7 166.9 82.7Z" fill="#FF9566"/>
<path d="M173.3 83.8C175.2 84.1 180.8 85.5 181.3 85C181.8 84.5 174.2 81.9 174.2 81.9L173.3 83.8Z" fill="#FF9566"/>
<path d="M168.6 81C170.6 79 171.8 77.5 172.5 77.6C173.2 77.7 171.4 81.3 171.4 81.3L168.6 81Z" fill="#FF9566"/>
<path d="M174.1 81.9C176 81.6 181.9 81.1 182.4 80.4C182.8 79.6 174.8 79.5 174.8 79.5L174.1 81.9Z" fill="#FF9566"/>
<path d="M173.1 81.1C174.7 79.9 176.7 79.5 176.9 78.5C177.1 77.5 172.1 79.1 172.1 79.1L173.1 81.1Z" fill="#FF9566"/>
<path d="M182.6 97.5C181.8 101 182.1 103.3 183.2 102.8C184.3 102.3 182.6 97.5 182.6 97.5Z" fill="#80E6ED"/>
<path d="M204.1 95.7C206.1 98.7 207.9 100 208.3 98.9C208.7 97.8 204.1 95.7 204.1 95.7Z" fill="#80E6ED"/>
<path d="M194.9 113.1C194 116.6 194.2 118.8 195.3 118.4C196.4 118 194.9 113.1 194.9 113.1Z" fill="#80E6ED"/>
<path d="M208 115.5C207.8 114.6 208.8 114 209.5 114.5C210.2 115 211.2 114.4 211 113.5C210.8 112.6 210.5 111.7 210.2 110.8C210.2 110.7 210.1 110.6 210.1 110.6C209.5 109.8 207.6 109 208.3 108.2C208.6 107.9 209 109.1 209.4 108.9C209.1 107.6 208.1 106.5 207.3 105.4C206.1 103.6 204.7 102 203.5 100.2C203.5 100.2 203.5 100.1 203.4 100.1C202.8 99.5 202.2 98.8 201.6 98.2C199.9 96.5 198.3 94.8 196.3 93.2C197 93.5 197.6 93.8 198.3 94.2C198.2 93.7 197.2 93 196.4 92.4C192 89.4 188 86.6 183.4 84.4C183.1 84.2 182.7 84.1 182.3 83.9C181.7 83.7 181.2 83.8 180.7 83.9C179.7 84.1 178.7 84.3 177.6 84.5C177.5 84.5 177.3 84.6 177.3 84.6C177.3 84.7 177.4 84.8 177.4 84.9C178 85.7 178.7 86.6 179.3 87.4L178.4 85.7C180.2 87.3 180.5 88.9 180.3 90.4C180.3 90.6 180.2 90.9 180.5 91.2C181.2 92.2 181.9 91.5 182.8 91.7C183.7 92 184.1 92.4 184.6 93.2C185.5 94.4 186.1 95.6 186.4 97.1C186.5 97.5 186.6 97.9 186.6 98.3C186.4 106.4 188.1 96.9 190.3 104.5C191 106.8 187.5 112.3 192.4 112.2C193.7 112.2 193.9 109.9 193.9 108.6C193.8 107 193.2 105.4 193.3 103.7C193.3 103.4 193.4 103 193.7 103C194 103 194.2 103.2 194.3 103.5C195.7 106.2 196.3 109.2 197.1 112.1C197.8 114.5 198.7 116.9 200.3 118.8C201.4 120.2 201.6 122.8 203.4 122.7C205.3 122.6 204.9 120.3 205.1 120.2C205.8 120.1 207.5 121.4 208.2 122.2C209 123 208 126.3 209 126.3C211.1 126.1 208.8 119.4 208 115.5Z" fill="#80E6ED"/>
<path d="M190.3 88.4C188 86.9 185.7 85.6 183.3 84.4C183 84.2 182.6 84.1 182.2 83.9C181.6 83.7 181.1 83.8 180.6 83.9C179.6 84.1 178.6 84.3 177.5 84.5C177.4 84.5 177.2 84.6 177.2 84.6C177.2 84.7 177.3 84.8 177.3 84.9C177.9 85.7 178.6 86.6 179.2 87.4L178.3 85.7C180.1 87.3 180.4 88.9 180.2 90.4C180.2 90.6 180.1 90.9 180.4 91.2C181.1 92.2 181.8 91.5 182.7 91.7C183.6 92 184 92.4 184.5 93.2C185.4 94.4 186 95.6 186.3 97.1C186.4 97.5 186.5 97.9 186.5 98.3C186.3 105.6 187.7 98.6 189.6 102.8C189.5 97.6 189.7 92.8 190.3 88.4Z" fill="#62D1D3"/>
<path d="M189.9 107.9C189.6 109.3 189.4 110.8 190.2 111.5C190.1 110.3 190 109.1 189.9 107.9Z" fill="#62D1D3"/>
<path d="M87.4001 102.6C83.0001 100.2 89.9001 97.9 98.7001 97.4H98.8001L98.5001 97.2C88.3001 97.5 78.2001 100.6 84.1001 104.1C90.2001 107.6 95.9001 102.8 98.2001 100.1C95.6001 102.1 91.1001 104.6 87.4001 102.6Z" fill="#DD9C33"/>
<path d="M85.4001 93.4C85.1001 89.1 91.9001 90.2 99.9001 95.3L100 95.4L100.1 95C91.2 88.8 82.2 87.3 82.6 93C83 98.2 90.1 98.2 95 97.5C90.7 97.5 85.7001 96.7 85.4001 93.4Z" fill="#DD9C33"/>
<path d="M113.2 60.9C108.1 25.5 114.3 8.70001 132.3 1.50001C146.8 -4.29999 172.8 11.3 164.8 21.7C175.3 46.8 140.6 63.5 128.8 64.8C116.9 66.2 113.2 60.9 113.2 60.9Z" fill="#722F3C"/>
<path d="M144.6 24.3C136.1 17.9 131.5 8.8 132.3 1.5C114.3 8.7 108.1 25.5 113.2 60.9C113.2 60.9 116.9 66.2 128.8 64.9C139.2 63.7 166.9 50.8 166.8 30.8C160.2 32 151.8 29.8 144.6 24.3Z" fill="#602432"/>
<path d="M136.7 48.5C143.8 60.2 150 81.7 149.6 85C149.2 88.3 142.2 89.2 141.5 87.9C139.2 83.3 135.2 71.5 131.8 62.9C129 56.1 136.7 48.5 136.7 48.5Z" fill="#EA476E"/>
<path d="M98.1 100.4C97.7 79.6 109.5 42.3 117.5 41.1C125.5 39.9 136 46.6 137.2 49.4C138.4 52.2 143.3 75.5 143.3 75.5L98.1 100.4Z" fill="#EA476E"/>
<path d="M127.5 66.8C118 64.8 111.5 54.3 111.2 47.9C104.5 59.8 97.9 84.8 98.2 100.5L143.4 75.6C143.4 75.6 142 68.9 140.5 62.2C137.3 63.5 132.1 67.8 127.5 66.8Z" fill="#D12C5C"/>
<path d="M135.5 47.3L133.8 47.1C137.6 58.5 130.4 76.8 130.4 76.8L133 77.8C133 77.8 140.9 58.7 135.5 47.3Z" fill="#D12C5C"/>
<path d="M119.9 41L118.2 41.1C122 52.5 114.8 70.8 114.8 70.8L117.4 71.8C117.4 71.7 125.3 52.3 119.9 41Z" fill="#D12C5C"/>
<path d="M136.6 47L134.9 46.8C138.7 58.2 131.5 76.5 131.5 76.5L134.1 77.5C134.1 77.4 142.1 58.3 136.6 47Z" fill="#EACC4E"/>
<path d="M121.4 41.1C120.8 41 120.1 40.9 119.4 41C123.2 52.4 116.2 70.4 116.2 70.4L118.8 71.4C118.8 71.4 126.8 52.5 121.4 41.1Z" fill="#EACC4E"/>
<path d="M143.4 75.5L114.9 65.1L103.8 88.8C101.9 92.8 98.6 95.8 94.4 97.2C94.4 97.2 90.1999 138.8 98.7999 188.1L153.4 171.8C141.5 139 130.4 102.7 132.2 96.6C133.4 92.4 143.4 75.5 143.4 75.5Z" fill="#F4D44E"/>
<path d="M104.9 155.1C101.7 127.9 113.9 100.5 124.6 99.3C127 99 129.6 100.6 132.4 103.5C131.9 100.3 131.7 97.9 132.1 96.7C133.4 92.4 143.4 75.5 143.4 75.5L114.9 65.1L103.8 88.8C101.9 92.8 98.6 95.8 94.4 97.2C94.4 97.2 90.1999 138.8 98.7999 188.1L112.3 184.1C108.9 176.2 106.2 166.2 104.9 155.1Z" fill="#EFB541"/>
<path d="M116.5 41.5C104.2 48 86 63.1 84.7 66C83.4 69 85.1 75.6 90.9 73.9C96.7 72.1 106.2 61.7 113.7 56.1C119.8 51.6 116.5 41.5 116.5 41.5Z" fill="#EA476E"/>
<path d="M116 53.2C107.3 59 96.5001 69.3 90.5001 70.9C87.1001 71.8 85.1001 70 84.3001 67.8C84.1001 71 86.0001 75.3 90.8001 73.8C96.5001 72.1 106.4 61.6 114.6 55.6C116 54.6 117 53.3 117.6 51.9C117.1 52.4 116.6 52.9 116 53.2Z" fill="#D12C5C"/>
<path d="M95.4002 65.4C91.0002 62.9 82.4001 64.1 82.5001 68.7C82.6001 73.4 84.2001 76.6 88.5001 76.7C92.8001 76.8 100.7 68.4 95.4002 65.4Z" fill="#FFE4B3"/>
<path d="M90.9 71C87.1 71 84 69.1 83.3 66.5C82.8 67.1 82.5 67.9 82.5 68.8C82.6 73.5 84.2 76.7 88.5 76.8C91.6 76.9 96.7 72.4 97.1 68.8C95.7 70.1 93.5 71 90.9 71Z" fill="#F4CBA2"/>
<path d="M124.8 41.7C128.1 30.7 133.5 24 133.5 24L143.5 30.4C143.5 30.4 137.5 42.6 135.8 46.8C135 48.7 133.4 53.2 128.6 51C123.8 48.7 124.8 41.7 124.8 41.7Z" fill="#FFB882"/>
<path d="M145.1 80.8C155.8 78 171.5 79.2 172.9 80.4C174.4 81.5 174.2 82.4 172.1 82.7C169.5 83.1 150.8 90.6 146.5 90.3C142.3 89.9 141.8 81.6 145.1 80.8Z" fill="#FFB882"/>
<path d="M173.2 80.5C167.4 82.5 152.9 87.3 149.2 87C146.3 86.8 144.9 83.8 145.6 80.6C145.4 80.6 145.3 80.7 145.1 80.7C141.8 81.6 141.7 91.1 146 91.5C150.3 91.8 169.9 83.4 172.6 83C174.6 82.7 174.4 81.6 173.2 80.5Z" fill="#FF9566"/>
<path d="M87.2 67.1C97.8001 61.7 114.6 59.1 116.4 59.8C118.2 60.5 118.7 61.6 116.5 62.5C113.8 63.5 95.5001 73.7 90.9001 74.4C86.4001 75.1 83.9001 68.7 87.2 67.1Z" fill="#FFB882"/>
<path d="M117.6 60.5C112.6 62.7 95.9002 70 91.4002 70.5C88.8002 70.8 86.7002 70.3 86.1002 68.1C84.5002 70.7 86.5002 76.2 90.5002 75.6C95.1002 74.9 113.9 63.6 116.5 62.5C118.1 61.9 118.3 61.2 117.6 60.5Z" fill="#FF9566"/>
<path d="M67.7001 222.3H275.8C275.8 222.3 290 217.9 291.4 206.7C292.7 195.6 288.3 192.9 288.3 192.9C288.3 192.9 297.6 185.8 295.4 170.2C293.2 154.6 283.8 158.6 283.8 158.6C283.8 158.6 281.6 144.4 273.1 139.5C264.6 134.6 252.2 152.4 252.2 152.4C252.2 152.4 248.2 141.7 237.5 137.3C226.8 132.9 218.4 146.6 218.4 146.6C218.4 146.6 218 141.7 209.5 139.9C201 138.1 200.2 143 200.2 143C200.2 143 200.6 135 194.4 129.2C188.2 123.4 177.9 129.2 177.9 129.2C177.9 129.2 169.4 115.9 160.6 117.2C151.7 118.5 148.6 131.9 148.6 131.9C148.6 131.9 136.6 122.1 128.1 124.8C119.6 127.5 120.1 137.3 120.1 137.3C120.1 137.3 105 129.3 98.8001 133.7C92.6001 138.1 96.1001 148.8 96.1001 148.8C96.1001 148.8 84.1001 138.1 78.3001 141.7C72.5001 145.3 70.3001 154.2 70.3001 154.2C70.3001 154.2 63.2001 140.9 56.1001 147.1C49.0001 153.3 47.2001 171.6 55.2001 184C51.7001 182.5 33.5001 210.5 67.7001 222.3Z" fill="#ACB53A"/>
<path d="M288.3 192.9C288.3 192.9 290.9 190.9 293.1 186.7C290.3 189.8 286.7 192.2 282.7 193.4C275.6 195.5 267.3 193.4 262.2 188C262.9 190.4 261.4 193.7 259 195C255.7 196.9 251.6 196.7 248 197.9C244.5 199.1 241.6 201.7 238.2 203.1C234.8 204.5 230.1 204.3 228.3 201C227.3 199.2 227.3 196.9 225.9 195.5C224.7 194.3 222.8 194.2 221.2 193.7C217.6 192.5 215 189 214.1 185.3C213.2 181.6 213.8 177.7 214.8 174C201 180 195.7 155.9 201.6 141.1L200.5 141.4L200.1 140.4C197.6 147 195.3 157.9 196.6 168C197.6 176.1 193.2 184 188 190.2C184.3 194.6 178.5 196.5 173 198.1C171 198.7 167.5 197.9 168.5 196C164.7 197 160.5 193.1 161.2 189.2C155.1 191.1 148.1 188.9 143.5 184.5C138.9 180.1 136.4 173.7 135.7 167.3C134.6 171.3 130.5 173.6 126.5 174.9C122.5 176.1 118.2 176.8 115 179.4C113.6 180.5 112.5 182 111 183C109.5 184 107.5 184.6 106 183.7C105 183.1 104.5 181.6 104.9 180.5C102.1 183.3 97.4001 183.8 93.3001 183.3C77.8001 181.4 64.3001 168.2 62.3001 152.6C62.0001 150.3 61.9 147.9 62.1 145.6C60.3 145 58.3001 145.3 56.4001 147C49.3001 153.2 47.5001 171.5 55.5001 183.9C51.9001 182.3 33.7001 210.4 68.0001 222.1H276.1C276.1 222.1 290.3 217.7 291.7 206.5C292.7 195.6 288.3 192.9 288.3 192.9Z" fill="#9DA02B"/>
<path d="M146.3 160.1C142.1 155.1 137.7 150.1 132.3 146.5C128.3 143.9 123.5 141.7 121.9 137.2C121.2 135.2 121.3 133.1 121.4 131C120 134.2 120.2 137.3 120.2 137.3C120.2 137.3 113.6 133.8 107.3 132.7C112.7 136.5 117.8 140.8 123 144.8C130.4 150.4 138.4 155.3 146.3 160.1Z" fill="#9DA02B"/>
<path d="M144.9 144.1C144.1 143.8 143.3 143.6 142.5 143.5C143.3 143.8 144.1 144 144.9 144.1Z" fill="#9DA02B"/>
<path d="M156.7 142.6C156.7 142.6 156.8 142.6 156.8 142.5C156.4 142.5 156 142.6 155.6 142.6C155.5 142.6 155.4 142.6 155.3 142.6C153.6 142.8 152 142.9 150.3 143.1C149.9 143.1 149.5 143.2 149.4 143.6C149.3 143.8 149.4 143.9 149.6 144C148 144.3 146.4 144.3 144.9 144.1C150.2 145.9 154.8 150.3 160.4 149.9C159.8 149.8 159.2 149.3 158.9 148.7C162.1 150.5 166 150.8 169.4 149.5C168.5 149.1 167.7 148.6 166.8 148.2C168.6 148.7 170.7 149.1 172.2 148.1C173.7 147.1 174.1 145.1 175.1 143.5C176.5 141.3 179.1 140 181.7 140.2C181 136.1 180.8 132 181 127.9C179.2 128.6 178 129.2 178 129.2C178 129.2 177.5 128.4 176.6 127.2C175.6 130.1 174.1 132.8 172.2 134.9C168.3 139.5 162.6 142.2 156.7 142.6Z" fill="#9DA02B"/>
<path d="M250.6 156.5C249.9 156 248.9 156.5 248.5 157.2C248.1 157.9 248 158.8 247.8 159.6C247.2 161.7 245.7 163.4 244.1 164.9C242.9 166.2 241.6 167.5 240 168.3C237 169.8 233.3 169.2 230.2 167.8C230.3 167.9 230.3 168 230.4 168C231.8 169.5 233.9 170 235.9 170.5C241 171.6 247 172.4 250.8 168.9C251.4 168.4 252.1 167.7 252.9 167.8C253.4 167.9 253.8 168.2 254.3 168.3C254.8 168.4 255.4 168.2 255.9 168.2C256.8 168.2 257.6 168.8 258.3 169.3C263 172.8 268.3 176.7 274.1 176C275.2 175.9 276.4 175.5 277.6 175.4C268.4 174.3 260 167.7 256.8 159C256.2 157.4 255.7 155.5 254.4 154.4C254 154.1 253.6 153.8 253.3 153.4C253 153 252.8 152.5 252.7 152C252.5 152.3 252.3 152.5 252.3 152.5C252.3 152.5 252 151.7 251.3 150.4C250.6 152.3 250.3 154.4 250.6 156.5Z" fill="#9DA02B"/>
<path d="M277.5 175.4C278.4 175.5 279.4 175.6 280.3 175.6C279.4 175.3 278.5 175.3 277.5 175.4Z" fill="#9DA02B"/>
<path d="M229.3 167.4C229.6 167.5 229.9 167.7 230.1 167.8C228.4 165.8 228.3 162.7 226.5 160.8L229.3 167.4Z" fill="#9DA02B"/>
<path d="M156.3 196.1C145.4 193.3 142.1 200.9 146.5 202C150.8 203.1 156.3 196.1 156.3 196.1Z" fill="#ACB53A"/>
<path d="M122.8 187C134.1 187 135.3 178.8 130.8 178.8C126.3 178.9 122.8 187 122.8 187Z" fill="#ACB53A"/>
<path d="M77.6001 191.3C87.5001 196.7 92.5001 190 88.5001 187.9C84.6001 185.8 77.6001 191.3 77.6001 191.3Z" fill="#ACB53A"/>
<path d="M205.8 126.5C197.3 132.3 201.6 139.6 205 137.3C208.4 135 205.8 126.5 205.8 126.5Z" fill="#ACB53A"/>
<path d="M139 138.1C143.3 145.6 150.3 141.3 148.5 138.3C146.8 135.4 139 138.1 139 138.1Z" fill="#9DA02B"/>
<path d="M84 167.3C84.1 178.6 92.3 179.7 92.2 175.2C92.1 170.7 84 167.3 84 167.3Z" fill="#9DA02B"/>
<path d="M42.3 173.2C42.4 184.5 50.6001 185.6 50.5001 181.1C50.5001 176.6 42.3 173.2 42.3 173.2Z" fill="#9DA02B"/>
<path d="M36.8 191.6C46.3 194.2 49.4001 188.5 45.6001 187.5C41.8001 186.5 36.8 191.6 36.8 191.6Z" fill="#9DA02B"/>
<path d="M263 136.6C251.9 134.8 249.4 142.7 253.8 143.4C258.2 144.1 263 136.6 263 136.6Z" fill="#ACB53A"/>
<path d="M245.7 128.1C241.6 137 246.7 141 248.3 137.5C249.9 133.9 245.7 128.1 245.7 128.1Z" fill="#ACB53A"/>
<path d="M306.6 203.4C300 194.3 292.6 198.2 295.3 201.8C298 205.4 306.6 203.4 306.6 203.4Z" fill="#9DA02B"/>
<path d="M256.5 185.2C245.4 186.8 245.3 195.1 249.7 194.4C254.1 193.7 256.5 185.2 256.5 185.2Z" fill="#9DA02B"/>
<path d="M300.4 185.3C291.2 188.8 292 195.2 295.7 193.8C299.4 192.4 300.4 185.3 300.4 185.3Z" fill="#9DA02B"/>
<path opacity="0.6" d="M137.5 62.7C139.3 62.1 140.8 60.9 142 59.3C140.6 55.8 139 52.5 137.3 49.7C137.3 49.6 137.2 49.5 137.2 49.4C137 48.8 136.4 48.1 135.5 47.3C135.6 47.1 135.7 46.8 135.8 46.6C137.1 43.4 140.9 35.7 142.6 32.1C142.1 30.9 141.5 29.7 141 28.6L133.5 23.8C133.5 23.8 128.1 30.5 124.8 41.5C124.8 41.5 124.8 41.5 124.8 41.6C123.7 41.3 122.5 41 121.4 40.9C120.9 40.8 120.4 40.8 119.9 40.8H119.3C118.9 40.8 118.6 40.8 118.3 40.9C118.1 40.9 117.9 40.9 117.7 41C117.3 41.1 117 41.2 116.6 41.4H116.5C115.8 41.8 115.1 42.2 114.4 42.6C114.6 43.1 114.7 43.7 114.9 44.2C119.4 57.3 129.6 65.6 137.5 62.7Z" fill="#843131"/>
<path d="M134.1 48.5C128.4 41.1 129.5 35.4 131.9 27.4C134.3 19.4 146.6 14.6 154.5 21.4C162.4 28.2 157.2 32.4 151 41C145.4 48.9 134.1 48.5 134.1 48.5Z" fill="#FFB882"/>
<path d="M129 28.9C125.5 25.3 127.6 18.4 129.7 18.4C131.8 18.4 132.1 23 131.6 24.3C131 25.7 129 28.9 129 28.9Z" fill="#FFB882"/>
<path d="M129.2 26.9C127 24.7 128.3 20.5 129.6 20.5C130.9 20.5 131.1 23.3 130.7 24.1C130.4 24.9 129.2 26.9 129.2 26.9Z" fill="#D3583C"/>
<path d="M128.9 27.7C127.2 26 128.2 22.8 129.2 22.8C130.2 22.8 130.3 25 130.1 25.6C129.8 26.2 128.9 27.7 128.9 27.7Z" fill="#FFB882"/>
<path d="M152.8 82.8L177.3 81.6L177.9 80.8L156.9 72.6L152.8 82.8Z" fill="#8F5D9B"/>
<path d="M154.1 78.9L152.3 83.3L177.3 81.6L177.7 81L154.1 78.9Z" fill="#74457F"/>
<path d="M179.3 94.4L173 81.7L173.5 79.6L187.3 77.3L179.3 94.4Z" fill="#8F5D9B"/>
<path d="M180.5 81.4C177.8 81.4 175.1 81.4 173.1 80.7L172.4 81.8L179.4 94.4L185.7 80.8C184.1 81.2 182.3 81.4 180.5 81.4Z" fill="#74457F"/>
<path d="M130.6 58.5C126.6 56.5 121.8 57.6 119.1 61.2C117.7 63.1 117 65.5 117.3 67.8L119.4 85.7L146.3 93.5L164.7 75.6C158.7 71.5 143 63.3 130.6 58.5ZM121.9 79.1L120.7 68.3C120.5 66.4 121 64.6 122.1 63.1C124.2 60.3 128 59.4 131.2 61L132 61.4L121.9 79.1Z" fill="#8F5D9B"/>
<path d="M142.4 76.2C136.7 74.1 131.7 71.4 128 68.5L121.9 79.1L120.7 68.3C120.5 66.4 121 64.6 122.1 63.1C122.2 62.9 122.4 62.8 122.5 62.6C121.8 61.4 121.3 60.2 121.2 59.1C120.4 59.7 119.7 60.3 119 61.2C117.6 63.1 116.9 65.5 117.2 67.8L119.3 85.7C127.3 89.4 136.2 92.2 146.2 93.5L161.1 79.5C156 79.8 149.2 78.6 142.4 76.2Z" fill="#74457F"/>
<path d="M132 60.6C128 58.6 123.8 58.9 121.1 62.4C119.7 64.3 119 66.6 119.3 69L120.9 82.6L133.1 61.1L132 60.6ZM121.9 79.1L120.7 68.3C120.5 66.4 121 64.6 122.1 63.1C124.2 60.3 128 59.4 131.2 61L132 61.4L121.9 79.1Z" fill="#74457F"/>
<path d="M189 76.6H186.5L178.1 94L179.2 95.9L189 76.6Z" fill="#EACC4E"/>
<path d="M158.2 73.5C158.7 74.9 133.6 65.8 133.6 65.8L135.6 61.8C135.6 61.8 157.3 71 158.2 73.5Z" fill="#422549"/>
<path d="M149.2 69.7C147.2 69.3 145.2 69.2 143.6 69.3C150 71.5 157.8 74.1 157.5 73.3C157.5 73.2 157.3 73 157.2 72.9C155.7 71.6 152.7 70.3 149.2 69.7Z" fill="#72B9D6"/>
<path d="M143.1 220.2C140.9 217.1 140.6 214.6 141.3 212.6C137.3 213.9 137.5 218.7 137.5 218.7C137.2 217.3 136 215.6 136.7 214.4C134.8 215.2 132.9 218.8 132.8 220.5C129 211.7 132.7 205.3 132.7 205.2C130.4 205.6 123.6 213.7 122.7 215.4C122.2 216.3 122 217.4 121 217.9C120 215.6 120.1 213 121.1 211.2C120.4 211.7 119.4 213 118.7 213.5C117.5 210.5 118.5 206 119.2 204.6C117.3 205.4 115.1 208.5 114.1 210.1C113.1 211.7 111.6 214.2 111.6 216.5C110.2 213.9 110.8 209 111.8 204.8C109.9 206.5 108.4 208 106.4 212.9C106.1 213.7 106 215.2 105.3 215.8C104.6 213.2 104.8 209.7 105.4 208.5C103.4 209 101.5 215.7 101.2 217.8C100.5 214.5 100.5 211 101.7 208.5C98.9001 212.2 98.6001 217.9 97.6001 223.2L154.4 224.3C156.7 224.4 159.8 225 161.6 224.4C147.9 220.6 156.8 204 156.8 204C152.6 209.2 145.3 212.9 143.1 220.2Z" fill="#B7B029"/>
<path d="M60.8 219.8C63.4 217.5 64.4001 215.5 64.5001 213.9C67.2001 215.1 65.5001 218.9 65.5001 218.9C66.2001 217.8 67.6001 216.5 67.4001 215.5C68.6001 216.2 68.9001 219.1 68.5001 220.5C74.0001 213.7 73.1001 208.5 73.2001 208.4C74.8001 208.8 77.6001 215.5 77.7001 217C77.8001 217.7 77.6 218.6 78.3 219C79.7001 217.2 80.5001 215.2 80.2001 213.7C80.6001 214.1 81 215.2 81.3 215.6C83.1 213.3 83.8 209.7 83.6 208.5C84.8 209.3 85.6 211.7 85.8 213.1C86.1 214.4 86.4 216.5 85.8 218.3C87.7001 216.3 88.7001 212.4 89.2001 209.1C90.1001 210.5 90.8001 211.8 90.9001 215.7C90.9001 216.4 90.5001 217.6 90.9001 218C92.3001 216 93.2001 213.2 93.0001 212.2C94.3001 212.7 93.8001 218.1 93.4001 219.7C94.9001 217.1 96 214.3 95.8 212.3C96.8 215.4 95.4001 219.9 94.5001 224.1L50.8 222.4C49 222.4 46.4 222.7 45.3 222.2C56.9 219.8 55.2001 206.2 55.2001 206.2C56.9001 210.7 61.3 213.9 60.8 219.8Z" fill="#B7B029"/>
<path d="M186.6 218.1C186.1 217.3 185.1 215 184.4 214.2C183.8 215.3 183.7 216.6 183.6 217.8C183.4 217.4 182.2 216.7 182 216.4C181.8 216.8 181.3 217.1 181 217.6C180.3 216.9 179.2 216.6 178.6 215.7C178.3 216.2 177.2 217.3 177 218C176.7 217.4 176.2 217 176 216.3C176 217.3 175.9 218.4 175.8 219.4C172.7 212.8 173 213.6 168.8 207.4C169.6 212.2 168.9 211.2 168.1 217.1C166.5 216.5 166.7 214.6 166.9 213C164.9 214.4 163.8 216.9 162.9 219C160.8 217.4 162.2 213.8 162.6 211.7C158.7 214.5 154.9 218.9 155.9 223.8L189.9 224C189.3 221.3 187.6 219.7 186.6 218.1Z" fill="#B7B029"/>
<path d="M211.2 220.2C213.2 217.1 213.6 214.6 212.9 212.6C216.7 213.9 216.4 218.7 216.4 218.7C216.7 217.3 217.8 215.6 217.2 214.4C219 215.2 220.7 218.8 220.8 220.5C224.3 211.7 220.9 205.3 220.9 205.2C223 205.6 229.3 213.7 230.2 215.4C230.6 216.3 230.9 217.4 231.8 217.9C232.7 215.6 232.6 213 231.7 211.2C232.3 211.7 233.3 213 233.9 213.5C235 210.5 234.1 206 233.5 204.6C235.3 205.4 237.3 208.5 238.2 210.1C239.1 211.7 240.5 214.2 240.5 216.5C241.8 213.9 241.2 209 240.3 204.8C242 206.5 243.5 208 245.3 212.9C245.6 213.7 245.7 215.2 246.4 215.8C247.1 213.2 246.9 209.7 246.3 208.5C248.1 209 249.9 215.7 250.2 217.8C250.8 214.5 250.8 211 249.7 208.5C252.3 212.2 252.6 217.9 253.5 223.2L200.7 224.3C198.5 224.4 195.7 225 194 224.4C206.8 220.6 198.5 204 198.5 204C202.4 209.2 209.2 212.9 211.2 220.2Z" fill="#B7B029"/>
<path d="M287.9 219.8C285.5 217.5 284.5 215.5 284.5 213.9C282 215.1 283.6 218.9 283.6 218.9C283 217.8 281.6 216.5 281.8 215.5C280.6 216.2 280.4 219.1 280.7 220.5C275.5 213.7 276.4 208.5 276.3 208.4C274.8 208.8 272.2 215.5 272.1 217C272 217.7 272.2 218.6 271.6 219C270.3 217.2 269.6 215.2 269.8 213.7C269.5 214.1 269.1 215.2 268.8 215.6C267.1 213.3 266.5 209.7 266.6 208.5C265.5 209.3 264.8 211.7 264.5 213.1C264.2 214.4 263.9 216.5 264.5 218.3C262.8 216.3 261.8 212.4 261.4 209.1C260.6 210.5 259.9 211.8 259.9 215.7C259.9 216.4 260.3 217.6 259.9 218C258.6 216 257.8 213.2 257.9 212.2C256.7 212.7 257.2 218.1 257.5 219.7C256.1 217.1 255.1 214.3 255.3 212.3C254.4 215.4 255.7 219.9 256.5 224.1L297.2 222.4C298.9 222.4 301.3 222.7 302.4 222.2C291.6 219.8 293.2 206.2 293.2 206.2C291.5 210.7 287.4 213.9 287.9 219.8Z" fill="#B7B029"/>
<path d="M170.8 218.1C171.3 217.3 172.2 215 172.9 214.2C173.4 215.3 173.5 216.6 173.6 217.8C173.8 217.4 174.9 216.7 175.1 216.4C175.3 216.8 175.8 217.1 176 217.6C176.6 216.9 177.7 216.6 178.2 215.7C178.5 216.2 179.5 217.3 179.7 218C180 217.4 180.5 217 180.6 216.3C180.6 217.3 180.7 218.4 180.8 219.4C183.7 212.8 183.4 213.6 187.3 207.4C186.6 212.2 187.2 211.2 188 217.1C189.5 216.5 189.3 214.6 189.1 213C190.9 214.4 191.9 216.9 192.8 219C194.7 217.4 193.5 213.8 193.1 211.7C196.8 214.5 200.2 218.9 199.3 223.8L167.7 224C168.2 221.3 169.8 219.7 170.8 218.1Z" fill="#B7B029"/>
<path d="M150.7 36.9C151.6 35.6 151.6 34.1 150.8 33.5C150 32.9 148.6 33.4 147.8 34.6C146.9 35.9 146.9 37.4 147.7 38C148.5 38.7 149.8 38.2 150.7 36.9Z" fill="#66423B"/>
<path d="M142.9 30.7C144 29.3 144.1 27.5 143.3 26.8C142.5 26.1 141 26.6 139.9 28C138.9 29.4 138.7 31.2 139.5 31.9C140.3 32.7 141.8 32.1 142.9 30.7Z" fill="#66423B"/>
<path d="M138.8 26.5C138.8 26.5 142.8 26.7 144.9 29.1C144.9 29.1 145.1 27.5 143.2 26.3C141.2 25.2 138.8 26.5 138.8 26.5Z" fill="#66423B"/>
<path d="M152.5 36.7C152.5 36.7 151.1 33.3 148.6 32.1C148.6 32.1 149.9 31.4 151.4 32.8C152.8 34.2 152.5 36.7 152.5 36.7Z" fill="#66423B"/>
<path d="M140.1 23.4L140.2 23C142.4 21.8 145.5 22.4 147 23.2L146.4 24.4C145.3 23.5 142.2 22.6 140.1 23.4Z" fill="#9B404B"/>
<path d="M154.7 34.2C154.6 31.2 152.2 28.8 151.5 28.3L152.3 27.3C153.1 27.8 155.1 30.4 155.1 34L154.7 34.2Z" fill="#9B404B"/>
<path d="M144.4 38.3L144.3 38.4C143.5 39 142.3 38.7 141.7 37.7C141.3 37.1 141.2 36.5 141.4 35.9C140.7 36.5 140.6 37.7 141.2 38.6C141.8 39.6 143 39.9 143.8 39.3C144.1 39 144.3 38.7 144.4 38.3Z" fill="#EA7B59"/>
<path d="M136.4 38.6L141.8 43.1C141.8 43.1 139.2 45.2 137.1 43.3C135 41.5 136.4 38.6 136.4 38.6Z" fill="#491D2E"/>
<path d="M136.7 39L141.3 42.8C141.3 42.8 140.8 44.2 138.1 42.1C135.3 39.9 136.7 39 136.7 39Z" fill="#FFEBEB"/>
<path d="M137.6 45.1C137.9 44.8 137.1 44.7 136.6 44.2C136 43.7 135.8 43 135.6 43.3C135.3 43.6 135.6 44.3 136.2 44.7C136.7 45.3 137.4 45.4 137.6 45.1Z" fill="#EF8F6F"/>
<path d="M112 61.6C114.8 62.5 116 63.3 116.7 63.4C117.4 63.5 119.6 64.3 120.3 63.5C121 62.7 121.7 57.8 120.5 57.7C119.3 57.5 116 59.3 112.4 60.1C110.1 60.6 112 61.6 112 61.6Z" fill="#FFB882"/>
<path d="M118.2 63.5C120.1 64.1 121.9 65 122.4 64.5C122.9 64 119.4 61.7 119.4 61.7L118.2 63.5Z" fill="#FFB882"/>
<path d="M113.9 60.1C116.1 58.4 121.5 57.4 122.1 57.7C122.7 57.9 116.7 60.8 116.7 60.8L113.9 60.1Z" fill="#FFB882"/>
<path d="M119.3 61.7C121.3 61.6 123.3 62.9 123.8 62.2C124.3 61.5 120.3 59.4 120.3 59.4L119.3 61.7Z" fill="#FFB882"/>
<path d="M118.3 60.8C120 59.8 126 61.2 126.3 60.3C126.7 59.3 118.7 58.1 118.7 58.1L118.3 60.8Z" fill="#FFB882"/>
<path d="M176.8 78.3C176.5 77.9 175.7 77.9 174.9 78.4C174.1 78.9 173.7 79.6 174 80C174.3 80.4 175.1 80.4 175.9 79.9C176.7 79.4 177.1 78.7 176.8 78.3Z" fill="#FFB882"/>
<path d="M172.5 77.6C172.1 77.3 171.5 77.5 171.2 78C170.9 78.5 170.9 79.1 171.3 79.4C171.7 79.7 172.3 79.5 172.6 79C173 78.5 172.9 77.9 172.5 77.6Z" fill="#FFB882"/>
<path d="M0.800049 221.7H472C472 221.7 420.2 233.7 229.1 233.7C38 233.7 0.800049 221.7 0.800049 221.7Z" fill="#F4D44E"/>
<path d="M363.5 129.6C368.4 117 366.6 99.5 366.4 96.7C366.2 94 351.8 96.3 350 102.9C349.4 104.9 351 129.2 351.1 130.6C351.1 132 362.3 132.9 363.5 129.6Z" fill="#FF9566"/>
<path d="M350.7 128.4L364.4 131.1C364.3 128.4 364.7 120.3 365.6 119L356.3 119.3C356.3 119.3 354.3 125.9 350.7 128.4Z" fill="#FF9566"/>
<path d="M354 126.6C353.2 127.1 351.7 127 350.3 128.4C346.3 132.4 350.1 132.7 350.5 133.6C351.2 135.1 349.7 137.9 350.1 138.6C351 140.1 359.2 139.6 361.5 139.2C363.9 138.8 366.3 133.3 364.4 128.9C363.7 127.3 354 126.6 354 126.6Z" fill="#FF9566"/>
<path d="M357.8 137.7C360 137.7 362.6 137.9 365 133.6C364.6 136.5 363.2 139.3 361.7 139.6C359.4 140 351 140.5 350.1 139C350.1 138.9 351.5 134.9 351.5 134.8C354 136.1 354.6 137.7 357.8 137.7Z" fill="#FF9566"/>
<path d="M350.5 133.6C350.1 132.7 346.2 133.1 350.3 128.4C352.4 125.9 355.9 126.3 358.8 126.7C359.7 128.5 360 130.6 358.3 132.3C356.8 133.8 350.8 134.2 350.5 133.6Z" fill="#FF9566"/>
<path d="M350.3 137.1C350.1 139.3 349.7 141.4 349.9 142.1C350.1 142.9 352.8 143.7 353.4 142.7C354.1 141.6 354.5 137.3 354.3 136.9C354 136.6 350.4 135.9 350.3 137.1Z" fill="#FF9566"/>
<path d="M355.1 136.1C354.8 138.4 354.5 140.6 354.7 141.3C354.9 142.1 357.8 142.9 358.4 141.9C359.2 140.7 359.6 136.2 359.4 135.8C359.1 135.4 355.2 134.8 355.1 136.1Z" fill="#FF9566"/>
<path d="M360.2 135.3C360.1 136.1 359.5 139.5 359.7 140.3C359.9 141.3 362.6 141.8 363.4 140.8C364.1 139.9 364.4 134.8 364.2 134.4C363.9 134 360.3 134 360.2 135.3Z" fill="#FF9566"/>
<path d="M350.3 137.1C350.1 139.3 349.7 141.4 349.9 142.1C350.1 142.9 352.8 143.7 353.4 142.7C354.1 141.6 354.5 137.3 354.3 136.9C354 136.6 350.4 135.9 350.3 137.1Z" fill="#FF9566"/>
<path d="M348.1 135.7C350.4 136.6 353.3 136.1 354.1 136.2C355 136.3 356.1 134.1 355 133.2C353.8 132.2 349.1 130.5 348.7 130.6C348.3 130.6 346.8 135.1 348.1 135.7Z" fill="#FF9566"/>
<path d="M355.1 136.1C354.8 138.4 354.5 140.6 354.7 141.3C354.9 142.1 357.8 142.9 358.4 141.9C359.2 140.7 359.6 136.2 359.4 135.8C359.1 135.4 355.2 134.8 355.1 136.1Z" fill="#FF9566"/>
<path d="M235.6 141.7L236 141.4C223.9 126.3 229.4 113.5 229.9 113.5L228.3 112.6C228.4 112.7 223.2 126.1 235.6 141.7Z" fill="#AAAA31"/>
<path d="M229.2 115.9C242.5 113.1 246.1 115.1 243.1 109.4C240 103.8 233 103.8 233 103.8C233 103.8 234.6 97.2 226.2 99C217.7 100.8 229.2 115.9 229.2 115.9Z" fill="#E2528C"/>
<path d="M224.3 108.9C223 106 230.9 102.6 231.8 107.9C231.8 107.9 249.7 112.3 241.6 113.9C233.6 115.5 230 116.3 228.8 115.2C227.6 114.2 224.3 108.9 224.3 108.9Z" fill="#CC3E7E"/>
<path d="M232.9 103.8H233.2C232.5 109.1 229.5 111.6 229.5 111.6C232.1 108.6 232.9 103.8 232.9 103.8Z" fill="#B22D70"/>
<path d="M229.6 115.7C236.3 116 236 112.3 231.7 110.9C224.8 108.7 229.6 115.7 229.6 115.7Z" fill="#FFC866"/>
<path d="M229.5 111.6C229.7 112.5 231 113.1 232.2 112.8C233.6 112.5 233.1 111.6 231.4 111.1C229.6 110.6 229.3 111 229.5 111.6Z" fill="#FFED85"/>
<path d="M228.6 115.8C238.4 118.2 246.5 118.7 242 114.3C237.5 109.9 228.6 115.8 228.6 115.8Z" fill="#B22D70"/>
<path d="M228.9 115.9C228.5 111.6 230.6 107.2 229.1 104.8C225.9 99.9 222.8 102.3 222.8 105C222.7 111 228.9 115.9 228.9 115.9Z" fill="#B22D70"/>
<path d="M228 114.2C229.9 118.8 228.1 120.9 230.6 120.5C235.8 119.5 228 114.2 228 114.2Z" fill="#B22D70"/>
<path d="M244.2 217.1C244.2 214.7 246.2 212.7 248.6 212.7C251 212.7 253 214.7 253 217.1C253 219.5 251 221.5 248.6 221.5C246.1 221.5 244.2 219.6 244.2 217.1Z" fill="#54453F"/>
<path d="M246.2 217.1C246.2 215.8 247.2 214.8 248.5 214.8C249.8 214.8 250.8 215.8 250.8 217.1C250.8 218.4 249.8 219.4 248.5 219.4C247.2 219.4 246.2 218.4 246.2 217.1Z" fill="#C9B4A6"/>
<path d="M303.9 151.1L306.3 159.1C306.3 159.1 295.4 190.9 253.3 209C253.3 209 222.5 201.2 209.2 178.7L303.9 151.1Z" fill="#AD9787"/>
<path d="M238.1 199.5C283.4 192.8 298.9 165.8 298.9 165.8L298.6 157.4L281 157.8L303.9 151.1L306.3 159.1C306.3 159.1 295.4 190.9 253.3 209C253.3 209 222.5 201.2 209.2 178.7L209.7 178.5C220.5 192.5 238.1 199.5 238.1 199.5Z" fill="#938073"/>
<path d="M379.5 126.7L381.5 130.5L212.1 179.9L211.4 178.1L379.5 126.7Z" fill="#AD9787"/>
<path d="M329 143.6L327 142.8L379.5 126.7L381.5 130.5L327.9 146.1L329 143.6Z" fill="#938073"/>
<path d="M299.9 151.1L304.4 153L210.6 180.9L209.1 178.6L299.9 151.1Z" fill="#938073"/>
<path d="M325.1 18.7C328.5 14.6 330 18 330 18C330 18 327.6 10.7 335.8 8.99999C344 7.29999 344.4 12.7 344.4 12.7C344.4 12.7 347.9 8.7 351.7 11.2C355.5 13.7 352.3 17.9 352.3 17.9C356.2 15.8 361.7 16.6 364.5 21.3C367.4 26 363.7 30.7 363.7 30.7C363.7 30.7 366.9 35.3 365.2 41.7C363.5 48.1 355.2 48.3 355.2 48.3C356.5 53.5 350.8 53.5 350.8 53.5C350.8 53.5 349.3 57.7 344.8 54.8L328 33.4C317.7 29.5 321.7 22.8 325.1 18.7Z" fill="#874336"/>
<path d="M340 22.9C345.1 22 343.6 10.6 341.8 9.20001C344.2 10.3 344.4 12.6 344.4 12.6C344.4 12.6 347.9 8.60001 351.7 11.1C355.5 13.6 352.3 17.8 352.3 17.8C356.2 15.7 361.7 16.5 364.5 21.2C367.4 25.9 363.7 30.6 363.7 30.6C363.7 30.6 366.9 35.2 365.2 41.6C363.5 48 355.2 48.2 355.2 48.2C356.5 53.4 350.8 53.4 350.8 53.4C350.8 53.4 349.3 57.6 344.8 54.7L329.9 35.7C337.8 35.3 330.9 24.6 340 22.9Z" fill="#6D3129"/>
<path d="M348.2 65.8C348.2 65.5 345.3 49 345.3 49L330.8 56.5L330.9 75.1L348.2 65.8Z" fill="#FFB882"/>
<path d="M349.5 140.1C337.9 159.2 303.7 215.4 303.7 215.4L302.4 214.9L331.9 120L351.4 126.9L349.5 140.1Z" fill="#64416D"/>
<path d="M339.5 135.6L344.9 124.7L351.4 127L350.9 140.9C339.3 160 303.7 215.5 303.7 215.5L302.9 215.2C310.5 200 330.9 153.3 339.5 135.6Z" fill="#4D3056"/>
<path d="M371.6 211.1C362.1 199.5 340.9 180.8 340.7 176.3C340.5 171.8 337.4 146 337.4 146L332.7 143.3L333.9 118.3L362 124.2C362 124.2 353.7 171.6 353.7 173.4C353.7 175.1 372.2 210.2 372.2 210.2L371.6 211.1Z" fill="#64416D"/>
<path d="M371.6 211.1C371.3 210.7 370.9 210.2 370.5 209.8C364.4 200.5 350.6 175.5 350.5 174.3C350.3 172.7 352.7 142.8 352.7 142.8C343.4 139.2 335.1 135 328.7 129.9L331.2 117.6L362.7 126.7C362.7 126.7 354.9 170.7 354.9 172.4C354.9 174.1 372.3 210.3 372.3 210.3L371.6 211.1Z" fill="#4D3056"/>
<path d="M334.5 147L341.2 146.1L335.3 144.8L330.3 140.8L334.5 147Z" fill="#4D3056"/>
<path d="M360.9 138.9C363.6 137 364.2 124.5 361.6 109.1C359 93.7 359.2 74.2 351.3 68.7C343.4 63.2 323.5 68.4 327 94.4C330.4 119.7 327.9 125.6 329.4 127.4C332.7 131.2 357.7 141.1 360.9 138.9Z" fill="#FFDE55"/>
<path d="M347.6 135.3C350.6 133.4 353 121.1 352.7 105.9C352.5 92.2 354.9 75.3 350.3 68.1C350.7 68.3 351 68.5 351.3 68.7C359.2 74.2 359 93.7 361.6 109.1C364.2 124.5 363.7 137 360.9 138.9C359.3 140 352.7 138.2 345.8 135.7C346.6 135.6 347.2 135.6 347.6 135.3Z" fill="#FFC74A"/>
<path d="M303.2 221.5H297.2L287.7 213.6L298.3 217.1C298.3 217.1 301.6 213.8 303.5 214.8C305.5 215.9 303.2 221.5 303.2 221.5Z" fill="#F9E9B7"/>
<path d="M375.8 208.9L372.7 221.4H366.2L370.4 219.6C370.4 219.6 368.8 209.2 370 207.3C371.4 205.4 375.8 208.9 375.8 208.9Z" fill="#F9E9B7"/>
<path d="M329 118C334.7 120.7 348.8 126.7 363.3 128.9C363.3 129.6 363.3 130.2 363.2 130.8C349.5 129.7 334.8 122.9 329 120C329 119.4 329 118.7 329 118Z" fill="#F2688A"/>
<path d="M328.8 113.7C334.5 115.8 348.7 120.6 363.1 121.8C363.1 122.5 363.2 123.1 363.2 123.8C349.6 123.6 334.7 118.1 328.9 115.7C328.9 115 328.9 114.3 328.8 113.7Z" fill="#F2688A"/>
<path d="M326.9 93.2C326.8 92.6 326.8 91.9 326.7 91.3C332.1 92.8 345.9 96.2 359.9 96.4C360 97.1 360.1 97.8 360.1 98.5C346.8 99 332.4 94.9 326.9 93.2Z" fill="#F2688A"/>
<path d="M355.1 68.7C371.9 74.3 385.4 93.2 386.4 97.1C387.5 101 375.3 112.2 371.8 110.7C368.3 109.2 361.2 98.9 348.7 94.8C342.7 92.8 337.8 62.9 355.1 68.7Z" fill="#FFDE55"/>
<path d="M364.6 101.4C368.1 102.8 378.5 92.7 377.4 89.2C376.4 85.8 366.3 73.7 350.3 68.1C351.7 68 353.2 68.2 355.1 68.8C371.9 74.4 385.4 93.3 386.4 97.2C387.5 101.1 375.3 112.3 371.8 110.8C368.3 109.3 361.2 99 348.7 94.9C347.9 94.6 347.1 93.8 346.3 92.7C356.5 96.2 361.5 100.1 364.6 101.4Z" fill="#FFC74A"/>
<path d="M350.5 68.2C351.4 64.8 348.3 62 348.3 62C348.3 62 330.6 63.7 327.5 81.2C336.3 72.5 343.9 68.2 350.5 68.2Z" fill="#F2688A"/>
<path d="M339.1 65C343.9 62.4 348.3 62 348.3 62C348.3 62 351.5 64.8 350.5 68.2C346.8 68.2 342.8 69.5 338.4 72.2C339 69.6 339.2 67.2 339.1 65Z" fill="#DD4772"/>
<path d="M368.1 104C367.2 105.1 366.7 106.5 366.9 107.9C367.3 110.4 367.7 111.9 370 112.3C372.9 112.8 387.1 111.2 389.3 108.2C391.5 105.2 390.2 94.8 384.9 92.3C380.6 90.3 371.6 99.9 368.1 104Z" fill="#F2688A"/>
<path d="M377.8 104.8C380.4 100.9 380.7 96.4 378.8 94C381.2 92.4 383.4 91.6 384.9 92.3C390.3 94.8 391.5 105.2 389.3 108.2C387.1 111.2 372.9 112.7 370 112.3C368.3 112 367.6 111.1 367.2 109.6C370.2 111.3 374.9 109.2 377.8 104.8Z" fill="#DD4772"/>
<path d="M378.7 137.2C385.9 125.7 387.4 108.2 387.7 105.5C388 102.8 373.4 102.3 370.4 108.5C369.5 110.4 366.5 134.5 366.3 135.9C366 137.2 376.8 140.2 378.7 137.2Z" fill="#FFB882"/>
<path d="M385.2 107.4C385.3 106.1 381.9 104.5 378.1 104.1C383.5 103.1 389.5 103.9 389.3 105.6C389 108.3 385.9 125.8 378.8 137.3C378.4 138 377.4 138.4 376.2 138.5C382.2 126.9 384.9 110 385.2 107.4Z" fill="#FF9566"/>
<path d="M385.1 137.8L387.2 141.6L213.3 181.9L212.5 180.1L385.1 137.8Z" fill="#AD9787"/>
<path d="M345.5 147.5L385.1 137.8L387.2 141.6L351.5 149.9L345.5 147.5Z" fill="#938073"/>
<path d="M306.9 156.9L312.1 159L212.1 182.3L210.3 180.2L306.9 156.9Z" fill="#938073"/>
<path d="M298.8 153.6C278.8 141.1 254.1 133.6 239.2 136.3C224.3 139 211.7 178.9 211.7 178.9L213.7 181L299.6 158.4L298.8 153.6Z" fill="#91533D"/>
<path d="M252.6 161.4C270.4 161.1 285.7 156.4 292.6 149.9C294.7 151.1 296.8 152.3 298.8 153.5L299.9 158.6L213.8 181L211.8 178.9C211.8 178.9 215.4 167.5 221.1 156.5C229.1 159.7 240.2 161.6 252.6 161.4Z" fill="#7C3A25"/>
<path d="M227.1 130.2C228.4 134.1 223.4 132.2 217.5 130.7C217.5 130.7 224 127.5 226.3 128C228.7 128.4 227.1 130.2 227.1 130.2Z" fill="#AAAA31"/>
<path d="M231.9 130.8C234 133.6 235.9 128.3 235.8 124C235.8 124 231 126.8 230.5 128.8C229.9 130.8 231.9 130.8 231.9 130.8Z" fill="#AAAA31"/>
<g opacity="0.6">
<path d="M327.5 81.2C328.1 77.8 329.3 75 330.8 72.6L330.7 59.9C331.7 58.1 332.8 56.5 333.9 54.9L345.3 49.1C345.3 49.1 346.7 57.2 347.6 62.2C348.1 62.1 348.4 62.1 348.4 62.1C348.4 62.1 351.4 64.8 350.7 68.1C351.3 68.1 351.9 68.1 352.6 68.2H352.7C353.1 68.3 353.4 68.3 353.8 68.4C353.9 68.4 353.9 68.4 354 68.4C354.4 68.5 354.8 68.6 355.2 68.8C356 69.1 356.8 69.4 357.5 69.7C343.6 74.5 341.1 88.8 327.5 81.2Z" fill="#843131"/>
</g>
<path d="M323.7 52.1C329.5 52 326.9 62.4 330.6 63.4C330.6 63.4 325.9 63.9 324.4 61.2C323.7 60 319.9 54.4 323.7 52.1Z" fill="#6B2D25"/>
<path d="M346.1 38.2C345.2 47.8 346.9 56.1 343.9 59C340.9 61.9 325.6 65.2 325.6 65.2C325.6 65.2 320.7 39.4 325.9 29.4C331.3 19.2 347.7 21.7 346.1 38.2Z" fill="#FFB882"/>
<path d="M324.6 38.7C321 48.1 319.3 50.2 319.6 51.2C319.9 52.2 325.8 52.7 325.8 52.7L324.6 38.7Z" fill="#FFB882"/>
<path d="M323 52.3C328.9 50.9 331.4 61.8 336.2 62.2C336.2 62.2 331.2 63.6 328.1 61C326.7 60 320.3 55.3 323 52.3Z" fill="#874336"/>
<path d="M341.2 51.2C339.6 34 333.3 21.1 344.9 24.5C350.7 26.2 348.2 42.9 348.2 42.9L345.3 49.1L341.2 51.2Z" fill="#6D3129"/>
<path d="M343.3 43.5C345.3 38.1 349.7 39.8 349.3 43.1C348.9 46.4 345.1 53.1 343.7 51.2C342.2 49.3 342.6 45.4 343.3 43.5Z" fill="#FFB882"/>
<path d="M344.3 44.4C345.5 41.1 348.2 42.2 348 44.2C347.8 46.2 345.4 50.3 344.6 49.1C343.7 47.9 343.9 45.6 344.3 44.4Z" fill="#D3583C"/>
<path d="M343.9 47.2C344.6 45.5 346.5 46.1 346.4 47.1C346.3 48.1 344.9 50.2 344.2 49.6C343.6 49 343.6 47.8 343.9 47.2Z" fill="#FFB882"/>
<path d="M213 182.1L298.7 162V163.7L213 182.1Z" fill="#C9B4A6"/>
<path d="M257 136.8C257 139.4 240.9 135.4 231.7 140.7C234.1 138.4 236.7 136.7 239.3 136.3C244.3 135.4 250.4 135.6 257 136.8Z" fill="#7C3A25"/>
<path d="M230.9 133.5C231 131.2 232.1 130 232.1 130C232.1 130 230.9 131.7 231.5 134.5L230.9 133.5Z" fill="#AAAA31"/>
<path d="M229.8 130.9C227.8 129.7 225.8 130.4 225.8 130.4C225.8 130.4 228.3 129.9 230 132.3L229.8 130.9Z" fill="#AAAA31"/>
<path d="M232.6 164.8C232.6 163.8 233.4 163 234.3 163C235.3 163 236 163.8 236 164.8C236 165.8 235.2 166.6 234.3 166.6C233.4 166.6 232.6 165.8 232.6 164.8Z" fill="#91533D"/>
<path d="M275.5 161.6C275.5 160.6 276.3 159.8 277.2 159.8C278.2 159.8 278.9 160.6 278.9 161.6C278.9 162.6 278.1 163.4 277.2 163.4C276.3 163.4 275.5 162.6 275.5 161.6Z" fill="#91533D"/>
<path d="M218.6 170.8C218.6 169.8 219.4 169 220.3 169C221.3 169 222 169.8 222 170.8C222 171.8 221.2 172.6 220.3 172.6C219.4 172.6 218.6 171.8 218.6 170.8Z" fill="#91533D"/>
<path d="M225.7 158.3C225.7 157.6 226.2 157 226.9 157C227.6 157 228.1 157.6 228.1 158.3C228.1 159 227.6 159.6 226.9 159.6C226.2 159.6 225.7 159 225.7 158.3Z" fill="#91533D"/>
<path d="M219.9 162.4C219.9 161.7 220.4 161.1 221.1 161.1C221.8 161.1 222.3 161.7 222.3 162.4C222.3 163.1 221.8 163.7 221.1 163.7C220.4 163.6 219.9 163.1 219.9 162.4Z" fill="#91533D"/>
<path d="M233.6 157.8C233.6 157.1 234.1 156.5 234.8 156.5C235.5 156.5 236 157.1 236 157.8C236 158.5 235.5 159.1 234.8 159.1C234.1 159 233.6 158.5 233.6 157.8Z" fill="#7C3A25"/>
<path d="M235.1 146.5C235.1 145.8 235.6 145.2 236.3 145.2C237 145.2 237.5 145.8 237.5 146.5C237.5 147.2 237 147.8 236.3 147.8C235.6 147.8 235.1 147.2 235.1 146.5Z" fill="#7C3A25"/>
<path d="M225.4 152.9C225.4 152.2 225.9 151.6 226.6 151.6C227.3 151.6 227.8 152.2 227.8 152.9C227.8 153.6 227.3 154.2 226.6 154.2C226 154.1 225.4 153.6 225.4 152.9Z" fill="#7C3A25"/>
<path d="M240.3 161.2C240.3 160.5 240.8 159.9 241.5 159.9C242.2 159.9 242.7 160.5 242.7 161.2C242.7 161.9 242.2 162.5 241.5 162.5C240.8 162.5 240.3 161.9 240.3 161.2Z" fill="#7C3A25"/>
<path d="M229.2 160C229.4 159.1 230.3 158.4 231.2 158.4C232.2 158.4 232.8 159.1 232.6 160C232.4 160.9 231.5 161.6 230.6 161.6C229.7 161.7 229 160.9 229.2 160Z" fill="#91533D"/>
<path d="M236.8 161.2C236.7 160.4 237.5 159.7 238.4 159.7C239.3 159.7 240.2 160.4 240.2 161.2C240.3 162 239.5 162.7 238.6 162.7C237.7 162.7 236.9 162 236.8 161.2Z" fill="#91533D"/>
<path d="M254.3 167C253.8 166.1 254.1 165.1 255 164.6C255.8 164.1 256.9 164.5 257.4 165.3C257.9 166.2 257.6 167.2 256.7 167.7C255.8 168.2 254.8 167.9 254.3 167Z" fill="#91533D"/>
<path d="M245.1 164.6C244.8 164 245 163.2 245.6 162.9C246.2 162.6 246.9 162.8 247.3 163.4C247.6 164 247.4 164.8 246.8 165.1C246.2 165.4 245.4 165.2 245.1 164.6Z" fill="#91533D"/>
<path d="M283.1 159C282.8 158.4 283 157.6 283.6 157.3C284.2 157 284.9 157.2 285.3 157.8C285.6 158.4 285.4 159.2 284.8 159.5C284.2 159.9 283.4 159.6 283.1 159Z" fill="#91533D"/>
<path d="M266.7 163C266.4 162.4 266.6 161.6 267.2 161.3C267.8 161 268.5 161.2 268.9 161.8C269.2 162.4 269 163.2 268.4 163.5C267.8 163.8 267 163.6 266.7 163Z" fill="#91533D"/>
<path d="M251.8 160.4C251.5 159.8 251.7 159 252.3 158.7C252.9 158.4 253.6 158.6 254 159.2C254.3 159.8 254.1 160.6 253.5 160.9C252.9 161.2 252.1 161 251.8 160.4Z" fill="#7C3A25"/>
<path d="M250.7 142.5C250.4 141.9 250.6 141.1 251.2 140.8C251.8 140.5 252.5 140.7 252.9 141.3C253.2 141.9 253 142.7 252.4 143C251.8 143.3 251 143.1 250.7 142.5Z" fill="#7C3A25"/>
<path d="M268.6 155.6C268.3 155 268.5 154.2 269.1 153.9C269.7 153.6 270.4 153.8 270.8 154.4C271.1 155 270.9 155.8 270.3 156.1C269.7 156.5 268.9 156.2 268.6 155.6Z" fill="#7C3A25"/>
<path d="M246.6 152.5C246.3 151.9 246.5 151.1 247.1 150.8C247.7 150.5 248.4 150.7 248.8 151.3C249.1 151.9 248.9 152.7 248.3 153C247.7 153.3 247 153.1 246.6 152.5Z" fill="#7C3A25"/>
<path d="M283.5 155.9C283.2 155.3 283.4 154.5 284 154.2C284.6 153.9 285.3 154.1 285.7 154.7C286 155.3 285.8 156.1 285.2 156.4C284.6 156.7 283.9 156.5 283.5 155.9Z" fill="#7C3A25"/>
<path d="M259.4 160.9C259.1 160.3 259.3 159.5 259.9 159.2C260.5 158.9 261.2 159.1 261.6 159.7C261.9 160.3 261.7 161.1 261.1 161.4C260.5 161.8 259.8 161.5 259.4 160.9Z" fill="#7C3A25"/>
<path d="M249 164.4C248.7 163.5 249.2 162.5 250 162C250.8 161.5 251.8 161.9 252 162.8C252.3 163.7 251.8 164.7 251 165.2C250.2 165.6 249.3 165.3 249 164.4Z" fill="#91533D"/>
<path d="M256.3 161.8C255.9 161.1 256.2 160.2 257 159.7C257.8 159.2 258.9 159.4 259.3 160.1C259.7 160.8 259.4 161.7 258.6 162.2C257.7 162.7 256.7 162.5 256.3 161.8Z" fill="#91533D"/>
<path d="M290.5 156.9C290.1 156.2 290.4 155.3 291.2 154.8C292 154.3 293.1 154.5 293.5 155.2C293.9 155.9 293.6 156.8 292.8 157.3C291.9 157.8 290.9 157.6 290.5 156.9Z" fill="#91533D"/>
<path d="M249.2 217.3L257.8 205.9L252.4 205.5L247.5 216.4C247.3 216.9 247.5 217.5 248.1 217.7C248.5 217.8 249 217.7 249.2 217.3Z" fill="#938073"/>
<path d="M227.9 181.3L237.4 196.8C226 194 216.1 183.7 216.1 183.7L227.9 181.3Z" fill="#BCA99C"/>
<path d="M309.9 222.5C350.824 222.5 384 222.187 384 221.8C384 221.413 350.824 221.1 309.9 221.1C268.976 221.1 235.8 221.413 235.8 221.8C235.8 222.187 268.976 222.5 309.9 222.5Z" fill="#726B19"/>
<path d="M324.9 40.7C324.9 39.5 325.4 38.4 326.1 38.4C326.8 38.4 327.3 39.3 327.4 40.6C327.4 41.8 326.9 42.9 326.2 42.9C325.5 42.9 324.9 41.9 324.9 40.7Z" fill="#4F3131"/>
<path d="M322.6 38.4C323.6 39.9 328.7 38.7 329.2 37.7C329.7 36.7 330 35.7 329 35.3C328 34.9 323.3 34.2 322.6 35.1C321.9 35.9 322.1 37.7 322.6 38.4Z" fill="#874336"/>
<path d="M363.8 136.2L377.5 138.9C377.4 136.2 379.2 129.1 380.1 127.8L369.3 127C369.3 127 367.3 133.6 363.8 136.2Z" fill="#FFB882"/>
<path d="M367 134.3C366.2 134.8 364.7 134.7 363.3 136.1C359.3 140.1 363.1 140.4 363.5 141.3C364.2 142.8 362.7 145.6 363.1 146.3C364 147.8 372.2 147.3 374.5 146.9C376.9 146.5 379.3 141 377.4 136.6C376.7 135 367 134.3 367 134.3Z" fill="#FFB882"/>
<path d="M370.8 145.4C373 145.4 375.6 145.6 378 141.3C377.6 144.2 376.2 147 374.7 147.3C372.4 147.7 364 148.2 363.1 146.7C363.1 146.6 364.5 142.6 364.5 142.5C367 143.8 367.7 145.4 370.8 145.4Z" fill="#FFB882"/>
<path d="M363.5 141.3C363.1 140.4 359.2 140.8 363.3 136.1C365.4 133.6 368.9 134 371.8 134.4C372.7 136.2 373 138.3 371.3 140C369.8 141.5 363.8 141.9 363.5 141.3Z" fill="#FFB882"/>
<path d="M363.3 144.9C363.1 147.1 362.7 149.2 362.9 149.9C363.1 150.7 365.8 151.5 366.4 150.5C367.1 149.4 367.5 145.1 367.3 144.7C367 144.3 363.4 143.7 363.3 144.9Z" fill="#FFB882"/>
<path d="M368.1 143.8C367.8 146.1 367.5 148.3 367.7 149C367.9 149.8 370.8 150.6 371.4 149.6C372.2 148.4 372.6 143.9 372.4 143.5C372.1 143.1 368.2 142.5 368.1 143.8Z" fill="#FFB882"/>
<path d="M373.2 143C373.1 143.8 372.5 147.2 372.7 148C372.9 149 375.6 149.5 376.4 148.5C377.1 147.6 377.4 142.5 377.2 142.1C376.9 141.7 373.3 141.8 373.2 143Z" fill="#FFB882"/>
<path d="M363.3 144.9C363.1 147.1 362.7 149.2 362.9 149.9C363.1 150.7 365.8 151.5 366.4 150.5C367.1 149.4 367.5 145.1 367.3 144.7C367 144.3 363.4 143.7 363.3 144.9Z" fill="#FFB882"/>
<path d="M361.1 143.4C363.4 144.3 366.3 143.8 367.1 143.9C368 144 369.1 141.8 368 140.9C366.8 139.9 362.1 138.2 361.7 138.3C361.3 138.3 359.8 142.9 361.1 143.4Z" fill="#FFB882"/>
<path d="M368.1 143.8C367.8 146.1 367.5 148.3 367.7 149C367.9 149.8 370.8 150.6 371.4 149.6C372.2 148.4 372.6 143.9 372.4 143.5C372.1 143.1 368.2 142.5 368.1 143.8Z" fill="#FFB882"/>
</svg>
