<svg width="454" height="247" viewBox="0 0 454 247" fill="none" xmlns="http://www.w3.org/2000/svg">
<path d="M111 233.7C107.9 230.5 106.6 227.8 106.6 225.7C103.2 227.1 105.2 232.2 105.2 232.2C104.4 230.8 102.7 228.9 102.9 227.7C101.4 228.5 100.9 232.3 101.4 234.1C94.7 224.8 95.9 218.1 95.9 218C93.9 218.4 90.4 226.9 90.1 228.8C90 229.7 90.1 230.9 89.4 231.4C87.7 229 86.8 226.3 87.1 224.4C86.6 224.9 86.1 226.2 85.7 226.8C83.5 223.6 82.8 218.9 83 217.4C81.5 218.3 80.5 221.5 80.2 223.1C79.8 224.8 79.4 227.5 80.1 229.8C77.9 227 76.7 222 76.2 217.5C75.1 219.3 74.1 220.9 74 226C74 226.9 74.4 228.4 74 229C72.4 226.2 71.3 222.6 71.5 221.4C69.8 222 70.4 229 70.8 231.1C69 227.6 67.8 223.9 68 221.3C66.7 225.2 68.4 231.2 69.3 236.8L123.2 238C125.4 238.1 128.6 238.8 130 238.1C115.7 234.1 118.2 216.6 118.2 216.6C116 222.1 110.5 226 111 233.7Z" fill="#B7B029"/>
<path d="M33.1999 233.3C34.7999 230.9 35.0999 228.7 34.5999 227C37.5999 228.3 37.2999 232.3 37.2999 232.3C37.4999 231.2 38.3999 229.8 37.8999 228.8C39.2999 229.6 40.6999 232.6 40.7999 234.1C43.5999 226.9 40.8999 221.4 40.8999 221.4C42.5999 221.8 47.4999 228.9 48.1999 230.4C48.4999 231.2 48.6999 232.1 49.4999 232.5C50.1999 230.6 50.1999 228.5 49.3999 226.9C49.8999 227.4 50.5999 228.4 51.0999 228.9C51.9999 226.4 51.2999 222.6 50.7999 221.5C52.1999 222.3 53.7999 224.9 54.4999 226.3C55.1999 227.7 56.2999 229.9 56.2999 231.7C57.2999 229.6 56.8999 225.5 56.1999 222C57.5999 223.5 58.6999 224.9 60.0999 229C60.2999 229.7 60.3999 230.9 60.8999 231.4C61.4999 229.2 61.2999 226.3 60.7999 225.3C62.1999 225.8 63.5999 231.5 63.7999 233.2C64.2999 230.5 64.2999 227.5 63.4999 225.4C65.4999 228.7 65.7999 233.4 66.4999 237.9L24.6999 236.1C22.9999 236.1 20.6999 236.5 19.3999 235.9C29.4999 233.4 23.0999 219.1 23.0999 219.1C26.2999 223.6 31.5999 227 33.1999 233.3Z" fill="#B7B029"/>
<path d="M151.2 231.4C150.4 230.5 148.7 228.1 147.7 227.2C147.5 228.4 147.9 229.7 148.3 231C148 230.6 146.6 229.8 146.3 229.5C146.2 229.9 145.9 230.3 145.8 230.7C144.9 230 143.7 229.6 142.9 228.7C142.8 229.2 142.2 230.4 142.2 231.1C141.7 230.5 141.1 230 140.6 229.3C141 230.4 141.2 231.5 141.5 232.6C136.2 225.6 136.8 226.5 130.6 219.9C133.1 225 132.1 223.9 133.4 230.2C131.6 229.5 131.1 227.5 130.8 225.9C129.4 227.3 129.3 230 129.1 232.2C126.6 230.5 126.6 226.7 126.2 224.5C123.5 227.4 121.5 232.1 124.2 237.3L156.3 237.5C155 234.9 152.8 233.2 151.2 231.4Z" fill="#B7B029"/>
<path d="M311.5 234.1C313.8 231.2 314.6 228.7 314.4 226.8C317.2 228.1 316 232.7 316 232.7C316.5 231.4 317.8 229.7 317.5 228.6C318.8 229.4 319.5 232.8 319.3 234.4C324 225.9 322.4 219.8 322.5 219.7C324.2 220.1 327.8 227.9 328.1 229.5C328.3 230.3 328.2 231.4 328.9 231.9C330.1 229.7 330.6 227.2 330.2 225.5C330.6 226 331.1 227.2 331.6 227.7C333.1 224.8 333.3 220.5 333 219.1C334.3 219.9 335.4 222.8 335.8 224.4C336.2 226 336.9 228.4 336.4 230.5C338 228 338.5 223.3 338.6 219.3C339.7 220.9 340.6 222.4 341.1 227.1C341.2 227.9 340.9 229.3 341.4 229.9C342.5 227.4 343 224 342.8 222.9C344.2 223.4 344.3 229.9 344.1 231.8C345.3 228.6 346 225.2 345.6 222.9C347 226.5 346.1 231.9 345.8 237L302 238C300.2 238.1 297.7 238.7 296.4 238.1C307.7 234.4 304.2 218.5 304.2 218.5C306.4 223.5 311.3 227 311.5 234.1Z" fill="#B7B029"/>
<path d="M370.2 233.7C368.7 231.5 368.3 229.5 368.6 228C366.3 229.2 366.8 232.8 366.8 232.8C366.5 231.8 365.7 230.5 366 229.6C364.9 230.3 364.1 233.1 364.1 234.4C361.2 227.9 363 222.8 362.9 222.8C361.6 223.2 358.1 229.7 357.7 231C357.5 231.7 357.4 232.6 356.9 233C356.2 231.3 356 229.3 356.5 227.9C356.1 228.3 355.6 229.3 355.2 229.8C354.3 227.6 354.5 224.1 354.8 223C353.7 223.7 352.6 226.1 352.2 227.4C351.7 228.7 351 230.7 351.2 232.4C350.2 230.5 350.2 226.8 350.5 223.5C349.5 224.9 348.7 226.1 347.9 229.9C347.8 230.6 347.8 231.7 347.4 232.1C346.8 230.1 346.6 227.5 346.9 226.6C345.8 227.1 345.1 232.3 345.1 233.8C344.4 231.3 344.2 228.6 344.7 226.7C343.3 229.7 343.5 234 343.3 238.1L377.2 236.5C378.6 236.5 380.5 236.8 381.5 236.3C373 234 377.1 220.9 377.1 220.9C375 224.9 371 228 370.2 233.7Z" fill="#B7B029"/>
<path d="M278.5 232C279.1 231.2 280.3 229 281 228.2C281.2 229.3 281 230.5 280.8 231.7C281 231.3 282.1 230.6 282.3 230.3C282.4 230.7 282.7 231 282.8 231.4C283.5 230.8 284.4 230.4 285 229.5C285.1 230 285.7 231.1 285.8 231.7C286.2 231.1 286.6 230.7 286.9 230C286.7 231 286.6 232 286.4 233C290.1 226.6 289.7 227.5 294.2 221.4C292.6 226 293.3 225.1 292.8 230.8C294.2 230.2 294.4 228.4 294.5 226.9C295.7 228.2 296.1 230.6 296.4 232.6C298.3 231.1 298 227.6 298.1 225.6C300.6 228.3 302.5 232.5 300.8 237.2L274.7 237.4C275.8 235.2 277.4 233.6 278.5 232Z" fill="#B7B029"/>
<path d="M277.1 3.20001H109.8L182.9 110.3L346.7 75.9L277.1 3.20001Z" fill="#8FE2DC"/>
<path d="M346.7 75.9H179V234.3H332.4L346.7 75.9Z" fill="#65C4BD"/>
<path d="M235 229.5C237.7 226.6 238.5 224.2 238 222.3C242.1 223.5 241.1 228.1 241.1 228.1C241.6 226.8 243.2 225.1 242.6 224C244.5 224.8 245.9 228.2 245.8 229.8C251.1 221.4 248.1 215.4 248.2 215.3C250.6 215.7 256.5 223.3 257.2 225C257.6 225.8 257.6 226.9 258.6 227.3C260 225.1 260.3 222.7 259.5 221C260.1 221.5 261 222.7 261.7 223.2C263.4 220.3 263.1 216.1 262.5 214.8C264.4 215.6 266.2 218.5 267 220C267.8 221.6 269 223.9 268.7 226C270.6 223.5 270.6 218.9 270.2 214.9C271.9 216.5 273.3 218 274.7 222.6C274.9 223.4 274.8 224.8 275.5 225.3C276.7 222.8 277 219.5 276.4 218.4C278.4 218.9 279.4 225.3 279.4 227.2C280.6 224.1 281.1 220.7 280.2 218.4C282.6 221.9 282.1 227.3 282.4 232.3L222.4 233.4C219.9 233.5 216.6 234.1 214.8 233.5C229.8 229.9 222.9 214.1 222.9 214.1C226.7 219 233.8 222.5 235 229.5Z" fill="#41A5A5"/>
<path d="M314.7 229.9C312.7 227.6 312.2 225.7 312.5 224.1C309.4 225.2 310.1 228.9 310.1 228.9C309.7 227.9 308.6 226.5 309 225.6C307.5 226.3 306.5 229 306.5 230.3C302.7 223.7 305 218.7 304.9 218.6C303.1 218.9 298.5 225.3 298 226.7C297.7 227.4 297.6 228.3 296.9 228.6C295.9 226.9 295.7 224.9 296.4 223.5C295.9 223.9 295.2 224.9 294.7 225.3C293.5 223 293.8 219.6 294.2 218.5C292.8 219.2 291.3 221.6 290.7 222.8C290.1 224.1 289.2 226 289.4 227.7C288 225.7 288.1 222 288.4 218.8C287.1 220.1 286 221.4 284.9 225.1C284.7 225.7 284.8 226.9 284.3 227.3C283.5 225.3 283.3 222.6 283.7 221.7C282.2 222.2 281.3 227.3 281.3 228.9C280.4 226.4 280.1 223.7 280.8 221.8C278.9 224.7 279.2 229.1 279 233.1L323.9 232.6C325.8 232.6 328.2 233 329.6 232.5C318.4 229.9 323.8 217 323.8 217C321.1 221.3 315.8 224.2 314.7 229.9Z" fill="#41A5A5"/>
<path d="M188.9 227.4C189.4 226.6 190.4 224.4 191.3 223.7C191.9 224.8 192 226 192 227.1C192.2 226.7 193.4 226 193.7 225.7C193.9 226.1 194.4 226.4 194.7 226.8C195.4 226.2 196.6 225.8 197.2 225C197.5 225.5 198.6 226.6 198.9 227.2C199.2 226.6 199.8 226.3 200 225.6C200 226.6 200.1 227.6 200.1 228.5C203.4 222.2 203.1 223.1 207.4 217.1C206.5 221.7 207.2 220.7 208 226.3C209.7 225.7 209.5 223.9 209.3 222.4C211.3 223.7 212.4 226.1 213.4 228.1C215.5 226.6 214.2 223.2 213.8 221.2C217.8 223.9 221.6 228 220.5 232.7L185.5 232.9C186 230.5 187.8 229 188.9 227.4Z" fill="#41A5A5"/>
<path d="M207.9 230.4H315.8C315.8 230.4 318.9 227.7 319.6 221.1C320.3 214.5 318 212.9 318 212.9C318 212.9 322.7 208.7 321.6 199.4C320.5 190.1 315.8 192.5 315.8 192.5C315.8 192.5 314.7 184 310.5 181.1C306.3 178.2 300.1 188.8 300.1 188.8C300.1 188.8 298.1 182.4 292.8 179.8C287.5 177.1 283.3 185.4 283.3 185.4C283.3 185.4 283.1 182.5 278.9 181.4C274.7 180.3 274.2 183.3 274.2 183.3C274.2 183.3 274.4 178.5 271.3 175.1C268.2 171.6 263.1 175.1 263.1 175.1C263.1 175.1 258.9 167.1 254.4 167.9C250 168.7 248.4 176.7 248.4 176.7C248.4 176.7 242.4 170.9 238.2 172.5C234 174.1 234.2 179.9 234.2 179.9C234.2 179.9 226.6 175.1 223.5 177.8C220.4 180.5 222.2 186.8 222.2 186.8C222.2 186.8 216.2 180.4 213.3 182.6C210.4 184.7 209.3 190 209.3 190C209.3 190 205.7 182 202.2 185.8C198.6 189.5 197.8 200.4 201.8 207.8C199.9 206.6 190.8 223.3 207.9 230.4Z" fill="#41A5A5"/>
<path d="M276.9 173.2C272.7 176.7 274.8 181 276.5 179.6C278.1 178.2 276.9 173.2 276.9 173.2Z" fill="#41A5A5"/>
<path d="M195.2 201C195.2 207.7 199.3 208.4 199.3 205.7C199.3 203.1 195.2 201 195.2 201Z" fill="#41A5A5"/>
<path d="M192.4 212C197.1 213.5 198.7 210.1 196.8 209.5C194.9 209 192.4 212 192.4 212Z" fill="#41A5A5"/>
<path d="M305.4 179.2C299.9 178.1 298.6 182.9 300.8 183.3C303 183.7 305.4 179.2 305.4 179.2Z" fill="#41A5A5"/>
<path d="M296.8 174.1C294.8 179.4 297.3 181.8 298.1 179.7C298.9 177.6 296.8 174.1 296.8 174.1Z" fill="#41A5A5"/>
<path d="M323 187C316.7 185.9 316 190.2 318.5 190.6C321 191 323 187 323 187Z" fill="#41A5A5"/>
<path d="M324.1 208.3C319.5 210.4 319.9 214.2 321.7 213.4C323.5 212.5 324.1 208.3 324.1 208.3Z" fill="#41A5A5"/>
<path d="M181.4 75.9L109.8 3.20001L48.7 75.9L56.0999 234.3H181.4V75.9Z" fill="#80DDD6"/>
<path d="M172.2 90C172.2 90 180.6 82 169.6 63.2C158.6 44.4 143.6 55.5 143.6 55.5C143.6 55.5 140.3 49.8 128 46.8C115.7 43.8 111.2 48.8 111.2 48.8C111.2 48.8 102.8 39 90.8 49.6C88.6 51.5 87.2 53.4 86.3 55.2C86.2 55.4 86.1 55.6 86 55.9C86 56 86 56 85.9 56.1C85.8 56.3 85.7001 56.5 85.7001 56.7C85.7001 56.8 85.7 56.8 85.6 56.9C85.2 58.1 85 59.3 85 60.4C85 60.4 85 60.4 85 60.5C85 60.7 85 60.9 85 61.1C85 62.2 85.3 63.2 85.6 64.2C85.9 65.1 86.3001 66 86.7001 66.8C87.1001 67.5 87.5 68.2 87.9 68.7C88 68.8 88 68.9 88.1 69C88.1 69 88.1 69 88.1 69.1C88.2 69.2 88.2 69.3 88.3 69.3C88.5 69.5 88.6 69.7 88.8 69.8C88.8 69.8 88.8 69.8 88.9 69.9L89 70C89 70 89 70 89.1 70.1C89.1 70.1 89.1001 70.1 89.2001 70.2C89.2001 70.2 89.2 70.2 89.1 70.2C89 70.2 88.9 70.3 88.8 70.3C88.8 70.3 88.8001 70.3 88.7001 70.3C88.6001 70.4 88.4 70.5 88.3 70.6C88.3 70.6 88.3001 70.6 88.2001 70.6C87.8001 70.8 87.4 71.1 86.9 71.5C86.9 71.5 86.9 71.5 86.8 71.5C86.6 71.7 86.3 71.9 86 72.1L85.9 72.2C85.6 72.4 85.3 72.6 85 72.9L84.9 73C81.2 76.1 76 81.7 74.5 90.1C72.8 99.2 76.4 104.5 79.1 107.1C79.3 107.3 79.4 107.4 79.6 107.5C79.6 107.5 79.7001 107.5 79.7001 107.6C79.8001 107.7 80 107.8 80.1 107.9C80.2 108 80.4 108.1 80.5 108.2C80.6 108.3 80.7 108.4 80.8 108.4C81 108.5 81.2 108.7 81.3 108.7C81.4 108.7 81.4 108.8 81.4 108.8C81.3 108.9 81.3001 109.1 81.2001 109.2C81.1001 109.4 81 109.5 81 109.7C80.8 110.1 80.7 110.4 80.5 110.8C80.4 111 80.3001 111.2 80.2001 111.4C80.1001 111.8 79.9 112.1 79.8 112.5C79.7 112.7 79.6 113 79.6 113.2C79.5 113.5 79.4 113.8 79.3 114.1C79.2 114.4 79.1 114.7 79.1 115C79 115.2 79 115.5 78.9 115.7C78.7 116.8 78.5 117.9 78.4 119C78.3 120.1 78.3 121.2 78.3 122.3C78.3 123.4 78.5 124.4 78.6 125.4C78.8 126.9 79.2 128.4 79.6 129.8C79.9 130.7 80.2 131.6 80.6 132.5C80.9 133.4 81.3001 134.2 81.7001 135C82.5001 136.6 83.3 138 84.1 139.2C84.7 140.1 85.3 140.9 85.8 141.6C86 141.8 86.1001 142 86.2001 142.2L86.3 142.3C86.5 142.5 86.6 142.7 86.8 142.9C87.4 143.6 87.9 144.1 88.1 144.4C88.2 144.5 88.3 144.6 88.3 144.6C80.6 154.1 91.8 160.4 91.8 160.4L91.7001 160.5C82.6001 167.8 92.9001 176.8 97.2001 178C98.8001 178.5 100.8 178.8 102.6 178.7C103.2 178.6 103.8 178.5 104.4 178.4C105 178.3 105.6 177.9 106.1 177.6C106.9 177.1 107.6 176.3 108.2 175.3C108.8 174.3 109.3 173 109.6 171.3C109.6 171.3 110 171.7 110.8 172.2C111.6 174.4 112.4 176.7 113.2 179.3C113.3 179.8 113.3 180.3 113.4 180.7C113.5 181.2 113.5 181.7 113.6 182.1C113.7 182.8 113.7 183.4 113.8 184.1C115.4 200 116.1 215 111.1 228.2H120.1C118.2 209.7 116 201.4 116.4 185.5C116.8 181.1 117.7 177.2 119.1 173.6C123.9 172.1 126 170.3 126 170.3C126 170.3 126.2 170.9 126.9 171.4C127 171.5 127.2 171.6 127.4 171.7C127.5 171.7 127.6 171.8 127.7 171.8C127.9 171.9 128.1 171.9 128.4 172C128.9 172.1 129.5 172.2 130.2 172.1C130.5 172.1 130.9 172.1 131.3 172C131.5 172 131.8 171.9 132.1 171.9C133.2 171.7 134.6 171.3 136.1 170.8C136.2 170.7 136.4 170.7 136.6 170.6C136.8 170.5 137 170.4 137.3 170.3C137.4 170.3 137.5 170.2 137.6 170.2C137.9 170.1 138.2 169.9 138.6 169.8C138.7 169.7 138.8 169.7 139 169.6C139.4 169.4 139.9 169.2 140.4 169C142.8 167.8 144.6 166.6 145.9 165.3C146.2 165.1 146.4 164.8 146.6 164.6C146.9 164.3 147.1 163.9 147.4 163.6C148 162.7 148.5 161.8 148.8 160.9C148.9 160.7 148.9 160.5 149 160.3C149 160.1 149.1 159.9 149.1 159.7C149.1 159.5 149.2 159.3 149.2 159.1C149.4 157.7 149.2 156.5 149 155.6C148.7 154.5 148.4 153.8 148.4 153.8C148.9 153.3 149.3 152.9 149.7 152.4C149.8 152.3 149.9 152.2 150 152.1C150.1 152 150.1 152 150.2 151.9C150.6 151.5 150.9 151.1 151.3 150.7C151.3 150.6 151.4 150.6 151.4 150.6L151.5 150.5C151.6 150.4 151.7 150.3 151.8 150.2C152 150 152.2 149.7 152.4 149.5C152.5 149.4 152.6 149.2 152.7 149.1C152.8 149 152.9 148.9 152.9 148.8C153 148.7 153.1 148.6 153.1 148.5C153.2 148.3 153.4 148.1 153.5 147.9C153.6 147.8 153.6 147.7 153.7 147.6C153.8 147.5 153.8 147.4 153.9 147.3C154 147.2 154.1 147.1 154.1 147C154.2 146.9 154.3 146.8 154.3 146.7C154.4 146.6 154.5 146.4 154.6 146.3C154.6 146.2 154.7 146.2 154.7 146.1L154.8 146C154.9 145.8 155.1 145.6 155.2 145.4C155.4 145.2 155.5 144.9 155.7 144.7C155.8 144.5 155.9 144.3 156.1 144.1C156.2 143.9 156.4 143.6 156.5 143.4C156.6 143.2 156.7 143 156.8 142.9C157.6 141.3 158.2 139.9 158.5 138.6C158.7 137.8 158.8 137.1 158.8 136.5C158.9 135.3 158.7 134.3 158.4 133.4C158.1 132.4 157.6 131.6 157.1 130.9C157.1 130.9 157.1 130.9 157.1 130.8C157 130.6 156.8 130.5 156.7 130.4C156.6 130.3 156.4 130.1 156.3 130C156.3 130 156.3 130 156.2 129.9C156.1 129.8 156 129.7 155.9 129.6C155.9 129.6 155.8 129.6 155.8 129.5C155.7 129.4 155.6 129.3 155.5 129.3C155.5 129.3 155.5 129.3 155.4 129.3C155.3 129.2 155.2 129.2 155.1 129.1C155 129 154.9 129 154.9 129C154.8 129 154.8 129 154.8 128.9C154.8 128.9 156.2 128.7 157.7 127.8C158.9 127.1 160.1 126 161 124.3C161.1 124 161.2 123.7 161.3 123.5C161.3 123.4 161.3 123.3 161.4 123.3C161.4 123.1 161.5 122.9 161.5 122.8C161.5 122.7 161.5 122.6 161.5 122.5C161.5 122.3 161.5 122.2 161.5 122C161.5 121.9 161.5 121.9 161.5 121.8C161.5 121.6 161.4 121.4 161.4 121.2C161.3 121 161.3 120.9 161.2 120.7C161.2 120.6 161.1 120.6 161.1 120.5C161 120.4 161 120.3 160.9 120.2C160.9 120.1 160.8 120.1 160.8 120.1C160.7 120 160.6 119.9 160.6 119.8L160.5 119.7C160.4 119.6 160.3 119.5 160.1 119.4C159.5 118.9 158.9 118.6 158.9 118.6C158.9 118.6 164.2 118 165.5 111.1C166.3 106.9 164.3 103.7 162.6 101.8C162.6 101.8 162.6 101.8 162.5 101.7C162.4 101.6 162.3 101.5 162.3 101.5C162.2 101.4 162.1 101.3 162.1 101.3C162 101.2 162 101.2 161.9 101.1C161.8 101 161.8 101 161.7 100.9C161.6 100.8 161.5 100.7 161.3 100.6C161.2 100.6 161.2 100.5 161.1 100.5C161 100.4 161 100.4 160.9 100.4L160.8 100.3L160.7 100.2L160.6 100.1C160.6 100.1 160.6 100.1 160.5 100.1H160.4C160.4 100.1 166.3 100.1 170.3 96.5C170.5 96.3 170.8 96.1 171 95.9C171.1 95.8 171.1 95.8 171.2 95.7C171.3 95.6 171.4 95.4 171.6 95.3C171.7 95.2 171.7 95.1 171.8 95.1C171.9 95 172 94.9 172.1 94.8C172.2 94.7 172.2 94.6 172.3 94.6C172.3 94.5 172.4 94.5 172.4 94.4C173.3 91.7 172.2 90 172.2 90ZM116 179C116 178.9 115.9 178.7 115.9 178.6C115.9 178.4 115.8 178.2 115.8 178C115.8 177.9 115.7 177.7 115.7 177.6C115.6 177.3 115.6 177.1 115.5 176.8C115.5 176.7 115.5 176.6 115.4 176.5C115.3 176.1 115.2 175.7 115.2 175.3C115.2 175.2 115.2 175.1 115.2 175C115.1 174.7 115.1 174.4 115 174.1C115.5 174.2 116 174.3 116.5 174.3C116.8 174.3 117.1 174.3 117.4 174.3C117.5 174.3 117.7 174.3 117.8 174.3C117.2 175.8 116.6 177.4 116.1 179.1C116 179 116 179 116 179Z" fill="#41A5A5"/>
<path opacity="0.33" d="M54.7998 206.4L56.0998 234.3H131.5L170 64.3L124.5 18.1L54.7998 206.4Z" fill="#FFFCD4"/>
<path d="M100.6 230C103 227.1 103.6 224.7 103.2 222.8C106.7 224.1 105.8 228.7 105.8 228.7C106.3 227.4 107.6 225.8 107.1 224.6C108.8 225.4 109.9 228.8 109.9 230.4C114.4 222.1 111.9 216 111.9 215.9C113.9 216.3 119 224 119.7 225.7C120 226.5 120.1 227.6 120.9 228.1C122.1 225.9 122.3 223.5 121.6 221.8C122.2 222.3 122.9 223.5 123.5 224C125 221.2 124.7 216.9 124.2 215.6C125.8 216.4 127.4 219.3 128.1 220.8C128.8 222.4 129.8 224.7 129.5 226.9C131.1 224.4 131.2 219.8 130.8 215.9C132.3 217.5 133.5 219 134.6 223.6C134.8 224.4 134.7 225.8 135.3 226.3C136.3 223.8 136.5 220.5 136.1 219.4C137.8 219.9 138.7 226.3 138.7 228.2C139.7 225.1 140.2 221.7 139.4 219.4C141.5 223 141 228.3 141.2 233.4L89.7 233.8C87.6 233.9 84.7 234.4 83.2 233.8C96.1 230.3 90.2 214.5 90.2 214.5C93.5 219.5 99.5999 223 100.6 230Z" fill="#65C4BD"/>
<path d="M169.9 230.5C168.1 228.2 167.7 226.3 168 224.8C165.3 225.9 165.9 229.6 165.9 229.6C165.6 228.6 164.6 227.3 164.9 226.3C163.6 227 162.6 229.8 162.7 231.1C159.3 224.5 161.4 219.5 161.3 219.4C159.7 219.8 155.7 226.2 155.2 227.5C154.9 228.2 154.9 229.1 154.2 229.4C153.3 227.7 153.2 225.7 153.7 224.3C153.3 224.7 152.7 225.7 152.2 226.1C151.1 223.8 151.4 220.4 151.8 219.3C150.5 220 149.3 222.4 148.7 223.6C148.1 224.9 147.3 226.8 147.5 228.5C146.3 226.5 146.3 222.8 146.7 219.6C145.5 221 144.6 222.2 143.6 225.9C143.4 226.5 143.5 227.7 143.1 228.1C142.4 226.1 142.2 223.5 142.6 222.6C141.3 223.1 140.5 228.3 140.5 229.8C139.7 227.3 139.5 224.6 140.1 222.7C138.5 225.6 138.7 230 138.5 234.1L178.3 233C179.9 233 182.1 233.4 183.3 232.8C173.4 230.4 178.2 217.4 178.2 217.4C175.6 221.7 170.9 224.8 169.9 230.5Z" fill="#65C4BD"/>
<path d="M61.0999 227.5C61.5999 226.7 62.3999 224.6 63.0999 223.8C63.5999 224.9 63.6999 226.1 63.6999 227.3C63.8999 226.9 64.8999 226.3 65.0999 225.9C65.2999 226.3 65.6999 226.6 65.8999 227C66.4999 226.4 67.4999 226.1 67.9999 225.2C68.1999 225.7 69.1999 226.8 69.3999 227.4C69.6999 226.8 70.0999 226.5 70.2999 225.8C70.2999 226.8 70.3999 227.8 70.3999 228.7C73.1999 222.5 72.9999 223.3 76.6999 217.4C75.9999 222 76.5999 221 77.1999 226.6C78.5999 226 78.4999 224.2 78.2999 222.8C79.9999 224.1 80.9999 226.5 81.7999 228.5C83.5999 227 82.4999 223.6 82.0999 221.6C85.5999 224.3 88.7999 228.5 87.8999 233.2L57.8999 233C58.5999 230.5 60.0999 229 61.0999 227.5Z" fill="#65C4BD"/>
<path d="M84.6999 75H82.0999L87.5999 235.1H90.1999L84.6999 75Z" fill="#51A59D"/>
<path d="M150.6 75H148.1L144.3 235.1H146.9L150.6 75Z" fill="#51A59D"/>
<path opacity="0.33" d="M275 3.70001H219.9L180.1 76H275V3.70001Z" fill="#FFFCD4"/>
<path d="M261.7 44.2H213V45.8H263.6L261.7 44.2Z" fill="#65C4BD"/>
<path d="M258 45.5L212.9 3.40002L214.8 2.90002L262.9 45.3L258 45.5Z" fill="#65C4BD"/>
<path d="M212.7 45.5L167.7 3.40002L169.5 2.90002L217.6 45.3L212.7 45.5Z" fill="#65C4BD"/>
<path d="M335.4 234.4L347 74.8H343.2L329.2 234.4H335.4Z" fill="#41A5A5"/>
<path d="M343.3 77.5L274.2 3.30005L275.7 2.30005L347.1 75.2L343.3 77.5Z" fill="#41A5A5"/>
<path d="M277.4 3.30005H110V5.60005H278.7L277.4 3.30005Z" fill="#41A5A5"/>
<path d="M277.2 1.90002H109.8V4.20002H278.6L277.2 1.90002Z" fill="#E6FFFC"/>
<path d="M178.2 77.4L109.9 7.00001L110.1 3.70001L184.4 76.5L178.2 77.4Z" fill="#41A5A5"/>
<path d="M53.7998 74.8L111.1 5.8L110.2 3.5L48.2998 73.9L53.7998 74.8Z" fill="#41A5A5"/>
<path d="M51.7 74.8L110.7 4.20002L109.8 1.90002L46.2 73.9L51.7 74.8Z" fill="#E6FFFC"/>
<path d="M344.7 77.1L275.6 2.90002L277.2 1.90002L348.5 74.8L344.7 77.1Z" fill="#E6FFFC"/>
<path d="M308.3 61.2C305.4 60.1 302.3 59.6 299.5 60.7C299.6 59.8 298.6 59.5 297.9 59.8C297.2 60.1 296.6 60.7 295.9 60.8C295 60.9 294.3 60.1 293.6 59.6C292.9 59.1 291.7 59.1 291.4 60C287.2 55.8 284.8 49.5 280.3 46.3C276.8 43.8 272.3 43.5 268.3 45.1C264.3 46.7 260.8 50.1 258.2 54.2C258.1 54.2 258.1 54.1 258 54.1C257.4 53.8 256.8 53.9 256.2 54.3C256.1 54.4 255.9 54.5 255.8 54.6L255.7 54.7C255.6 54.8 255.5 54.9 255.4 55C255.3 55.1 255.3 55.1 255.2 55.2C255.1 55.3 255.1 55.3 255 55.4C254.9 55.6 254.8 55.7 254.6 55.9C254.4 56.3 254.2 56.6 254 57C253.5 58.2 253.2 59.5 252.8 60.8C252.7 61.2 252.6 61.7 252.5 62.2C252.5 62.4 252.5 62.5 252.4 62.7C252.4 63.3 252.4 63.9 252.7 64.2C252.4 63.9 252 63.7 251.7 63.5C251.5 63.4 251.3 63.3 251.1 63.1C251 63 250.8 62.9 250.7 62.9C248.4 61.8 245.8 61.6 243.3 61.9C240.7 62.3 238 63.3 235.9 65.5C233.1 68.5 231.6 73.2 230.6 77.8C230.6 78 230.5 78.2 230.5 78.4V78.5C230.5 78.7 230.4 78.8 230.4 79C230.4 79.2 230.3 79.3 230.3 79.5C230.3 79.7 230.3 79.8 230.2 80C230.2 80.2 230.2 80.3 230.1 80.5C230.1 80.6 230.1 80.8 230.1 80.9C230.1 81.1 230.1 81.2 230.1 81.4C230.1 81.5 230.1 81.7 230.1 81.8C230.1 82 230.1 82.1 230.1 82.3C230.1 82.4 230.1 82.6 230.1 82.7C230.1 82.9 230.1 83 230.1 83.2C230.1 83.3 230.1 83.4 230.1 83.6C230.1 83.8 230.2 84 230.2 84.1C230.2 84.2 230.2 84.3 230.3 84.4C230.4 84.7 230.5 84.9 230.6 85.2C230.7 85.5 230.9 85.7 231 85.9C231.1 86.1 231.3 86.2 231.5 86.4C231.6 86.4 231.6 86.5 231.7 86.5C231.8 86.6 231.9 86.6 232 86.7C232.3 86.8 232.6 86.9 232.9 86.9C233 86.9 233.1 86.9 233.2 86.9C233.7 86.8 234.1 86.6 234.5 86.3C234.8 86 235 85.7 235.2 85.2C235 85.6 234.9 86 234.7 86.5C234.4 87.4 234.1 88.3 234 89.2C233.5 91.5 233.5 93.8 234.1 95.9C234.4 96.9 234.9 97.9 235.6 98.5C235.9 98.8 236.1 99 236.4 99.2C236.5 99.3 236.7 99.4 236.9 99.5C237.4 99.7 237.9 99.9 238.3 99.9C238.5 99.9 238.6 99.9 238.8 99.9C239.5 99.8 240.1 99.5 240.7 99C240.7 100.3 240.7 101.6 240.7 103C240.7 103.6 240.7 104.1 240.7 104.7C240.7 105.1 240.7 105.5 240.7 105.8C240.7 106.2 240.8 106.6 240.8 106.9C240.9 107.2 241 107.6 241.1 107.8C241.2 108.1 241.4 108.3 241.7 108.4C242 108.6 242.4 108.6 242.8 108.5C243.2 108.4 243.5 108.1 243.9 107.8C244.1 107.6 244.4 107.4 244.6 107.2C244.6 107.3 244.6 107.4 244.6 107.6C244.6 107.8 244.7 108.1 244.8 108.2C244.9 108.4 245 108.5 245.2 108.6C245.4 108.7 245.7 108.7 245.9 108.5C245.8 108.7 245.8 108.9 245.8 109.1C245.8 109.5 246.1 109.9 246.4 110C246.5 110.1 246.7 110.1 246.8 110C246.5 110.5 246.3 111 246.1 111.5C245.9 112 245.7 112.6 245.6 113.1C245.4 113.9 245.3 114.8 245.3 115.7C245.3 116 245.3 116.3 245.3 116.6C245.4 117.5 245.6 118.3 245.9 119.1C246.4 120.4 247.3 121.4 248.3 121.7C250 122.3 251.9 120.8 252.3 118.4C252.4 118.5 252.5 118.6 252.6 118.7C253.1 119 253.6 119.2 254.1 119.2C254.4 119.2 254.6 119.2 254.9 119.1C255 119.1 255.2 119 255.3 119C255.8 118.8 256.3 118.5 256.7 118.1C257.1 117.7 257.5 117.1 257.8 116.4C258.6 117.7 260.5 117.2 260.9 115.5C261.8 118.1 263.1 120.6 264.9 122C266.2 123 267.7 123.3 269.1 122.9C270.5 124.8 271.9 127.1 273.2 129.5C273.2 131.6 273.1 133.7 273.1 135.7C272.7 145.4 271.9 152.7 271.9 152.7C271.9 152.7 283 186 288.1 224.1L294.4 221C289.4 214.2 280.4 175.6 276.8 159.7C277.7 154.8 279.4 150.3 281.5 146.5C284.9 144 293 141 300.1 140.8L300 140.4C292.3 140.7 286.4 142.5 283.2 143.8C285.6 139.9 288.3 136.8 290.5 134.5C290.8 134.2 291.1 133.9 291.4 133.6C291.5 133.5 291.5 133.5 291.6 133.4C291.8 133.2 292.1 132.9 292.3 132.7L292.4 132.6C292.7 132.4 292.9 132.1 293.1 131.9C293.3 131.7 293.5 131.5 293.7 131.4L293.8 131.3C294 131.2 294.1 131 294.3 130.9C294.5 130.8 294.6 130.7 294.7 130.6C294.7 130.6 294.7 130.6 294.8 130.5C294.9 130.4 295 130.4 295 130.3C295.1 130.2 295.1 130.2 295.1 130.2L295.5 129.9L295.4 129.4C295.4 129.4 295.3 128.8 295.2 127.7C295.7 127.6 296.2 127.4 296.7 127.2C297.4 126.9 298.1 126.5 298.8 126.1C299.3 125.8 299.7 124.8 299.5 124.3C299.4 124.2 299.4 124.1 299.3 124.1C299.8 124 300.3 123.8 300.7 123.4C301.2 122.9 301.6 122.1 301.7 121.2C301.7 121 301.7 120.8 301.7 120.6C302.1 121.3 302.7 121.9 303.3 122.3C303.9 122.7 304.5 123 305.2 123.2C305.7 123.4 306.2 123.5 306.7 123.5C307.5 123.5 308.2 123.5 308.9 123.2C309.3 123.1 309.6 123 310 122.8C310.3 122.7 310.6 122.5 310.9 122.3C311 122.2 311.1 122.2 311.2 122.1C311.4 122 311.6 121.8 311.8 121.7C311.9 121.6 312 121.6 312 121.5C312.2 121.3 312.4 121.1 312.7 120.9C314.2 119.5 315.5 117.7 316.8 116C318.1 114.2 319.5 112.2 319.7 109.7C319.7 109.2 319.6 108.5 319.3 108.3C319.2 108.3 319.2 108.2 319.1 108.2C319.4 108.1 319.7 107.9 320 107.8C320.1 107.7 320.2 107.7 320.3 107.6C320.5 107.5 320.7 107.4 320.8 107.3C320.9 107.2 321 107.1 321.2 107C321.3 106.9 321.5 106.8 321.6 106.7C321.7 106.6 321.9 106.5 322 106.3C322.1 106.2 322.2 106.1 322.3 106C322.4 105.9 322.5 105.7 322.7 105.6C322.8 105.5 322.9 105.4 323 105.2C323.1 105 323.2 104.9 323.4 104.7C323.5 104.6 323.6 104.5 323.6 104.3C323.7 104.1 323.8 103.9 323.9 103.7C324 103.6 324 103.5 324.1 103.3C324.2 103.1 324.3 102.9 324.4 102.7C324.4 102.6 324.5 102.5 324.5 102.4C325.9 99.6 326.6 96.2 326.7 92.8C327 78.8 318.9 65.3 308.3 61.2ZM270.8 121.4C271.2 121 271.5 120.4 271.8 119.8C271.9 119.6 272 119.4 272 119.2C272.2 119.4 272.3 119.7 272.5 119.9C272.6 120 272.7 120.1 272.8 120.2C272.8 120.8 272.8 121.3 272.9 121.9C272.9 122 272.9 122.2 272.9 122.3C272.9 123.4 272.9 124.4 273 125.5C272.2 124 271.5 122.7 270.7 121.5C270.7 121.5 270.8 121.5 270.8 121.4ZM293.6 129C293.5 129.1 293.4 129.2 293.2 129.3C293.2 129.3 293.1 129.3 293.1 129.4C293 129.5 292.8 129.6 292.7 129.8C292.7 129.8 292.7 129.8 292.6 129.9C288.8 133.3 277.7 143.7 275.2 153.3C275.1 152.9 275.1 152.7 275.1 152.7C275.1 152.7 275.2 144.3 275 134.6C275 134.5 275 134.3 275 134.2C275 133.8 275 133.4 275 133C275 132.2 275 131.4 275 130.5C275 130.2 275 130 275 129.7C275 129.4 275 129.2 275 128.9C275 128.6 275 128.3 275 128.1C275 127.8 275 127.5 275 127.3C275 127 275 126.7 275 126.4C275 126.1 275 125.9 275 125.6C275 125.3 275 125 275 124.7C275 124.4 275 124.2 275 123.9C275 123.6 275 123.3 275 123C275 122.7 275 122.5 275 122.2C275 121.9 275 121.6 275 121.3V121.2C275.4 121.4 275.9 121.5 276.4 121.6C276.9 121.7 277.4 121.7 277.9 121.7C280 121.6 282 120.6 283.9 119.6C284.8 123.3 287.4 126.2 290.3 127.2C291.4 127.6 292.6 127.7 293.8 127.7C293.5 128.3 293.5 128.8 293.6 129Z" fill="#41A5A5"/>
<path d="M176.4 124C178.9 123.3 181.7 123 184.5 123.7C184.3 123.2 185.2 122.9 185.9 123.1C186.6 123.3 187.2 123.7 187.9 123.7C188.7 123.7 189.3 123.3 189.9 123C190.5 122.7 191.6 122.7 192 123.3C195.4 120.7 196.9 116.9 200.6 114.9C203.6 113.4 207.7 113.2 211.6 114.2C215.5 115.2 219.1 117.2 222 119.7C222.1 119.7 222.1 119.7 222.2 119.6C222.7 119.4 223.3 119.5 223.9 119.7C224 119.7 224.2 119.8 224.3 119.9C224.3 119.9 224.4 119.9 224.4 120C224.5 120.1 224.6 120.1 224.7 120.2C224.8 120.2 224.8 120.3 224.9 120.3C225 120.3 225 120.4 225.1 120.4C225.2 120.5 225.4 120.6 225.5 120.7C225.8 120.9 226 121.1 226.2 121.4C226.8 122.1 227.3 122.9 227.7 123.7C227.9 124 228 124.3 228.2 124.5C228.2 124.6 228.3 124.7 228.3 124.8C228.4 125.2 228.4 125.5 228.2 125.7C228.5 125.5 228.7 125.4 229 125.2C229.2 125.1 229.4 125.1 229.5 125C229.6 125 229.7 124.9 229.9 124.8C231.9 124.1 234.3 124 236.7 124.2C239.1 124.4 241.7 125 244 126.4C247 128.2 248.9 131.1 250.3 133.9C250.4 134 250.4 134.1 250.5 134.3V134.4C250.5 134.5 250.6 134.6 250.6 134.7C250.6 134.8 250.7 134.9 250.7 135C250.7 135.1 250.8 135.2 250.8 135.3C250.8 135.4 250.9 135.5 250.9 135.6C250.9 135.7 251 135.8 251 135.9C251 136 251.1 136.1 251.1 136.2C251.1 136.3 251.2 136.4 251.2 136.5C251.2 136.6 251.2 136.7 251.3 136.8C251.3 136.9 251.3 137 251.3 137C251.3 137.1 251.3 137.2 251.3 137.3C251.3 137.4 251.3 137.4 251.3 137.5C251.3 137.6 251.3 137.7 251.3 137.8C251.3 137.9 251.3 137.9 251.3 138C251.3 138.2 251.2 138.3 251.2 138.5C251.1 138.7 251 138.8 250.9 138.9C250.8 139 250.6 139.1 250.5 139.2C250.5 139.2 250.4 139.2 250.4 139.3C250.3 139.3 250.2 139.4 250.1 139.4C249.9 139.5 249.6 139.5 249.3 139.5C249.2 139.5 249.1 139.5 249 139.5C248.6 139.5 248.1 139.3 247.8 139.1C247.5 138.9 247.3 138.7 247.1 138.4C247.3 138.7 247.5 138.9 247.7 139.2C248.1 139.7 248.4 140.3 248.7 140.8C249.4 142.2 249.7 143.6 249.4 144.9C249.2 145.5 248.8 146.1 248.3 146.5C248.1 146.7 247.9 146.8 247.6 146.9C247.5 147 247.3 147 247.2 147.1C246.8 147.2 246.4 147.3 245.9 147.3C245.7 147.3 245.6 147.3 245.4 147.3C244.8 147.3 244.1 147.1 243.5 146.7C243.7 147.5 243.8 148.3 244 149.1C244.1 149.4 244.1 149.8 244.2 150.1C244.2 150.3 244.3 150.6 244.3 150.8C244.3 151 244.3 151.3 244.3 151.5C244.3 151.7 244.2 151.9 244.1 152.1C244 152.3 243.9 152.4 243.7 152.5C243.4 152.6 243.1 152.6 242.7 152.6C242.4 152.5 242 152.4 241.6 152.2C241.4 152.1 241.1 151.9 240.9 151.8C240.9 151.9 241 151.9 241 152C241 152.1 241 152.3 240.9 152.4C240.8 152.5 240.7 152.6 240.6 152.7C240.4 152.8 240.1 152.8 239.9 152.7C240 152.8 240 152.9 240.1 153.1C240.1 153.4 239.9 153.6 239.7 153.7C239.6 153.7 239.4 153.7 239.3 153.7C239.6 154 239.9 154.3 240.1 154.6C240.4 154.9 240.6 155.3 240.8 155.6C241.1 156.1 241.3 156.7 241.4 157.2C241.4 157.4 241.5 157.6 241.5 157.7C241.5 158.2 241.4 158.8 241.2 159.2C240.9 160 240.2 160.6 239.3 160.8C237.8 161.1 235.8 160.2 235.2 158.8C235.1 158.9 235 158.9 234.9 159C234.5 159.2 234 159.3 233.5 159.3C233.3 159.3 233 159.3 232.8 159.2C232.7 159.2 232.5 159.2 232.4 159.1C231.9 159 231.4 158.8 231 158.5C230.5 158.2 230.1 157.9 229.8 157.5C229.2 158.3 227.4 158 226.8 157C226.3 158.6 225.4 160.1 223.8 161C222.7 161.6 221.3 161.8 220 161.5C218.9 162.7 217.9 164 217 165.6C217.3 166.9 217.6 168.2 217.9 169.4C219.4 175.3 221 179.8 221 179.8C221 179.8 214.7 200.1 214.4 223.4L208.2 221.5C212.1 217.3 215.9 193.8 217.3 184.1C215.9 181.1 213.8 178.4 211.4 176C208 174.4 200.1 172.6 193.5 172.5L193.6 172.2C200.7 172.4 206.4 173.5 209.6 174.3C206.9 171.9 204 170 201.7 168.6C201.4 168.4 201.1 168.2 200.7 168C200.6 168 200.6 167.9 200.5 167.9C200.3 167.8 200 167.6 199.8 167.5L199.7 167.4C199.4 167.3 199.2 167.1 198.9 167C198.7 166.9 198.5 166.8 198.3 166.7C198.3 166.7 198.2 166.7 198.2 166.6C198 166.5 197.9 166.4 197.7 166.4C197.5 166.3 197.4 166.3 197.3 166.2C197.3 166.2 197.3 166.2 197.2 166.2C197.1 166.2 197 166.1 197 166.1C196.9 166.1 196.9 166 196.9 166L196.5 165.8V165.5C196.5 165.5 196.5 165.1 196.5 164.5C196 164.4 195.5 164.3 195 164.2C194.3 164 193.6 163.8 193 163.5C192.5 163.3 192 162.7 192.2 162.4C192.2 162.3 192.3 162.3 192.4 162.3C191.9 162.3 191.4 162.1 191 161.9C190.4 161.6 190 161.1 189.8 160.5C189.8 160.4 189.7 160.2 189.7 160.1C189.4 160.5 188.9 160.9 188.4 161.1C187.9 161.4 187.4 161.5 186.8 161.7C186.4 161.8 185.9 161.9 185.4 161.9C184.7 161.9 184 161.9 183.3 161.7C183 161.6 182.6 161.6 182.3 161.5C182 161.4 181.7 161.3 181.4 161.2C181.3 161.2 181.2 161.1 181.1 161.1C180.9 161 180.7 160.9 180.5 160.8C180.4 160.8 180.3 160.7 180.3 160.7C180.1 160.6 179.8 160.5 179.6 160.4C178 159.5 176.6 158.5 175.3 157.4C173.9 156.3 172.4 155.1 171.9 153.5C171.8 153.2 171.8 152.8 172.1 152.6H172.2C171.9 152.5 171.6 152.4 171.3 152.3C171.2 152.3 171.1 152.2 171 152.2C170.8 152.1 170.6 152.1 170.5 152C170.4 151.9 170.3 151.9 170.1 151.8C170 151.7 169.8 151.7 169.7 151.6C169.6 151.5 169.4 151.5 169.3 151.4C169.2 151.3 169.1 151.3 168.9 151.2C168.8 151.1 168.6 151 168.5 150.9C168.4 150.8 168.3 150.8 168.2 150.7C168.1 150.6 167.9 150.5 167.8 150.4C167.7 150.3 167.6 150.3 167.5 150.2C167.4 150.1 167.2 150 167.1 149.9C167 149.8 166.9 149.8 166.9 149.7C166.8 149.6 166.7 149.5 166.5 149.3C166.4 149.2 166.4 149.2 166.3 149.1C164.7 147.4 163.6 145.3 163.1 143.3C161.2 134.8 167.1 126.5 176.4 124ZM218.2 160.8C217.8 160.5 217.4 160.2 217.1 159.8C217 159.7 216.9 159.5 216.8 159.4C216.7 159.6 216.5 159.7 216.4 159.8C216.3 159.9 216.2 159.9 216.1 160C216.1 160.3 216.2 160.7 216.2 161C216.2 161.1 216.2 161.2 216.2 161.2C216.3 161.8 216.4 162.5 216.5 163.1C217 162.2 217.6 161.4 218.2 160.7C218.3 160.8 218.3 160.8 218.2 160.8ZM198.1 165.5C198.2 165.6 198.3 165.6 198.5 165.7H198.6C198.7 165.8 198.9 165.8 199 165.9C199 165.9 199 165.9 199.1 165.9C203.1 168 214.5 174.3 218 180.2C218 180 218 179.8 218 179.8C218 179.8 217 174.7 216 168.8C216 168.7 216 168.6 216 168.5C216 168.3 215.9 168 215.9 167.8C215.8 167.3 215.7 166.8 215.7 166.3C215.7 166.1 215.7 166 215.6 165.8C215.6 165.6 215.5 165.5 215.5 165.3C215.5 165.1 215.4 165 215.4 164.8C215.4 164.6 215.3 164.5 215.3 164.3C215.3 164.1 215.2 164 215.2 163.8C215.2 163.6 215.2 163.5 215.1 163.3C215.1 163.1 215 162.9 215 162.8C215 162.6 215 162.5 214.9 162.3C214.9 162.1 214.8 161.9 214.8 161.8C214.8 161.6 214.8 161.5 214.7 161.3C214.7 161.1 214.7 160.9 214.6 160.8V160.7C214.2 160.8 213.8 160.9 213.4 161C212.9 161.1 212.5 161.1 212 161.1C210 161 208.1 160.4 206.1 159.8C205.7 162 203.6 163.8 201.1 164.4C200.1 164.6 199 164.7 197.9 164.7C198.1 165 198.1 165.3 198.1 165.5Z" fill="#41A5A5"/>
<path opacity="0.33" d="M326.3 78.2H268L193.2 234.3H278.5L326.3 78.2Z" fill="#FFFCD4"/>
<path d="M339.3 231.6H51.5V236.8H339.3V231.6Z" fill="#E6FFFC"/>
<path d="M82.7999 75H80.2L85.7 235.1H88.2999L82.7999 75Z" fill="#E6FFFC"/>
<path d="M148.8 75H146.2L142.4 235.1H145L148.8 75Z" fill="#E6FFFC"/>
<path d="M61.5998 231.5L51.6998 74.8H47.7998L55.3998 231.5H61.5998Z" fill="#41A5A5"/>
<path d="M347.3 75.3H46.7V79.2H347.3V75.3Z" fill="#41A5A5"/>
<path d="M346.8 73.9H46.2V77.8H346.8V73.9Z" fill="#E6FFFC"/>
<path d="M185.7 234.4L183.4 74.8H179.5V234.4H185.7Z" fill="#E6FFFC"/>
<path d="M178 75.6L109.6 5.30002L109.8 1.90002L184.1 74.8L178 75.6Z" fill="#E6FFFC"/>
<path d="M336.8 234.4L348.4 74.8H344.6L330.6 234.4H336.8Z" fill="#E6FFFC"/>
<path d="M59.7999 234.4L50.0999 74.8H46.2L53.5999 234.4H59.7999Z" fill="#E6FFFC"/>
<path d="M141.8 129.5H138.6V186H141.8V129.5Z" fill="#51A59D"/>
<path d="M135 129.5H131.8V186H135V129.5Z" fill="#E6FFFC"/>
<path d="M140.6 183.8H134.1V186H140.6V183.8Z" fill="#E6FFFC"/>
<path d="M140.6 129.5H134.1V131.7H140.6V129.5Z" fill="#E6FFFC"/>
<path d="M47 235.9C47 235.9 110.4 239.7 177.7 239.7C287.3 239.7 350.7 235.9 350.7 235.9H47Z" fill="#8E861E"/>
<path d="M379.9 217.8L379.3 219.1L377.4 219.3L379.9 217.8Z" fill="#89893A"/>
<path d="M377.4 218.7C378.3 218.5 379.1 218.6 379.4 219C379.5 219.2 379.6 219.6 379.1 220.1C378.6 220.6 378.6 220.8 378.7 220.9C378.7 221 379 221.3 380.2 221.2V221.5C379.2 221.5 378.6 221.4 378.5 221C378.4 220.7 378.5 220.3 379 219.9C379.3 219.6 379.4 219.4 379.3 219.2C379.1 218.9 378.5 218.8 377.6 219L377.4 218.7Z" fill="#89893A"/>
<path d="M381.1 208.2C378.8 204.5 374.1 203.2 370.6 205.4C367 207.6 366 212.3 368.3 216.1C370.6 219.8 375.3 221.1 378.8 218.9C382.3 216.7 383.3 212 381.1 208.2Z" fill="#A3A331"/>
<path d="M372.8 219.7C372.9 217.8 374.1 215.4 376.1 213.3C377.9 211.4 380 210.2 381.8 209.9C381.6 209.4 381.4 208.9 381.1 208.5C378.9 204.7 374.2 203.4 370.6 205.5C367 207.6 365.9 212.3 368 216.1C369.2 217.8 370.9 219.1 372.8 219.7Z" fill="#9B9B2F"/>
<path d="M380.4 208.6C381.7 210.7 382.1 213 381.8 215C382.6 212.8 382.4 210.3 381 208.2C379.7 206 377.5 204.7 375.3 204.4C377.3 205.1 379.1 206.5 380.4 208.6Z" fill="#B4B73E"/>
<path d="M373.9 219.9C372 219.3 370.1 217.8 368.8 215.7C367.5 213.6 367.1 211.3 367.4 209.3C366.6 211.5 366.8 214 368.2 216.1C369.5 218.2 371.6 219.6 373.9 219.9Z" fill="#B4B73E"/>
<path d="M378.4 209.9C380 212.6 380.7 215.3 380.5 217.3C381.6 215.2 381.3 212.1 379.6 209.3C377.9 206.5 375.2 204.8 372.9 204.8C374.6 205.3 376.7 207.2 378.4 209.9Z" fill="#B4B73E"/>
<path d="M376.5 219.6C374.6 218.9 372.5 217.1 370.9 214.4C369.3 211.7 368.6 209 368.8 207C367.7 209.1 368 212.2 369.7 215C371.5 217.9 374.1 219.6 376.5 219.6Z" fill="#B4B73E"/>
<path d="M376.4 211.1C378.3 214.2 379.4 217.2 379.2 218.5C380.1 217.1 379.5 213.8 377.4 210.5C375.4 207.2 372.7 205.1 371.1 205.3C372.4 205.6 374.5 207.9 376.4 211.1Z" fill="#B4B73E"/>
<path d="M378.1 219.1C376.8 218.7 374.7 216.4 372.8 213.3C370.9 210.2 369.8 207.2 370 205.9C369.1 207.3 369.7 210.6 371.8 213.9C373.8 217.2 376.5 219.3 378.1 219.1Z" fill="#B4B73E"/>
<path d="M375.1 211.9C372.9 208.3 370.9 205.5 370.6 205.7C370.3 205.9 371.9 208.9 374.1 212.5C376.3 216.1 378.3 218.9 378.6 218.7C378.9 218.5 377.3 215.5 375.1 211.9Z" fill="#B4B73E"/>
<path d="M387.1 226.9L386.2 228.7L383.6 228.9L387.1 226.9Z" fill="#89893A"/>
<path d="M383.7 228.1C384.9 227.8 386 228 386.4 228.6C386.5 228.8 386.7 229.3 386 230C385.4 230.7 385.4 231 385.4 231.1C385.5 231.2 385.8 231.6 387.4 231.6V232C386.1 232 385.3 231.8 385.1 231.3C384.9 230.9 385.1 230.4 385.7 229.8C386.1 229.4 386.2 229.1 386.1 228.8C385.9 228.4 385 228.2 383.9 228.5L383.7 228.1Z" fill="#89893A"/>
<path d="M388.6 213.9C385.5 208.8 379.1 207.1 374.3 210.1C369.5 213 368.1 219.5 371.1 224.6C374.2 229.7 380.6 231.4 385.4 228.4C390.3 225.4 391.7 218.9 388.6 213.9Z" fill="#A3A331"/>
<path d="M377.6 229.4C377.7 226.8 379.2 223.5 381.9 220.6C384.3 217.9 387.2 216.2 389.5 215.8C389.3 215.1 388.9 214.5 388.6 213.9C385.5 208.8 379.1 207.1 374.3 210.1C369.5 213 368.1 219.5 371.1 224.6C372.7 227.1 375.1 228.8 377.6 229.4Z" fill="#B4B73E"/>
<path d="M387.8 214.4C389.5 217.2 390.1 220.4 389.7 223.1C390.7 220.2 390.5 216.8 388.7 213.8C386.9 210.9 384 209.1 380.9 208.6C383.5 209.6 386 211.6 387.8 214.4Z" fill="#B4B73E"/>
<path d="M378.9 229.7C376.3 228.8 373.7 226.9 372 224C370.3 221.2 369.7 218 370.1 215.3C369.1 218.2 369.3 221.6 371.1 224.6C372.9 227.5 375.8 229.3 378.9 229.7Z" fill="#B4B73E"/>
<path d="M385 216.1C387.2 219.7 388.2 223.5 387.8 226.1C389.2 223.2 388.8 219 386.5 215.2C384.2 211.4 380.6 209.1 377.4 209.1C379.9 209.9 382.8 212.5 385 216.1Z" fill="#B4B73E"/>
<path d="M382.4 229.4C379.9 228.5 377 225.9 374.8 222.3C372.6 218.7 371.6 214.9 372 212.3C370.6 215.2 371 219.4 373.3 223.2C375.6 227 379.2 229.3 382.4 229.4Z" fill="#B4B73E"/>
<path d="M382.3 217.7C384.9 221.9 386.3 226 386 227.7C387.3 225.8 386.3 221.3 383.6 216.8C380.9 212.3 377.3 209.4 375 209.7C376.9 210.3 379.8 213.5 382.3 217.7Z" fill="#B4B73E"/>
<path d="M384.6 228.6C382.9 228 380 224.9 377.4 220.7C374.8 216.5 373.4 212.4 373.7 210.7C372.4 212.6 373.4 217.1 376.1 221.6C378.8 226 382.4 228.9 384.6 228.6Z" fill="#B4B73E"/>
<path d="M380.5 218.8C377.5 213.9 374.8 210.1 374.5 210.3C374.1 210.5 376.3 214.7 379.3 219.6C382.3 224.5 385 228.3 385.3 228.1C385.7 227.9 383.5 223.7 380.5 218.8Z" fill="#B4B73E"/>
<path d="M370.3 203.2L372.3 203.6L373.3 206L370.3 203.2Z" fill="#666428"/>
<path d="M373 206.4C371.9 205.7 371.4 204.8 371.6 204.1C371.7 203.8 372 203.4 372.9 203.4C373.8 203.4 374.1 203.2 374.1 203.1C374.2 203 374.2 202.5 373.1 201.3L373.3 201C374.2 202 374.6 202.7 374.4 203.2C374.2 203.6 373.7 203.8 372.8 203.8C372.3 203.8 371.9 203.9 371.8 204.2C371.7 204.6 372.1 205.4 373.1 206.1L373 206.4Z" fill="#666428"/>
<path d="M372.821 219.088C376.723 214.65 376.456 208.037 372.226 204.317C367.995 200.597 361.402 201.18 357.5 205.618C353.598 210.056 353.865 216.669 358.095 220.388C362.326 224.108 368.919 223.526 372.821 219.088Z" fill="#CCCC52"/>
<path d="M375.6 211.5C373.1 212.2 369.5 211.7 365.9 210C362.6 208.5 360.2 206.3 359 204.1C358.4 204.5 357.9 205 357.4 205.6C353.5 210 353.8 216.7 358 220.4C362.2 224.1 368.9 223.6 372.8 219.1C374.8 217 375.7 214.2 375.6 211.5Z" fill="#B5B13A"/>
<path d="M358.3 206.3C360.5 203.8 363.3 202.3 366.1 201.9C363 201.8 359.8 203.1 357.6 205.6C355.3 208.2 354.5 211.5 355 214.5C354.9 211.8 356.1 208.8 358.3 206.3Z" fill="#B4B73E"/>
<path d="M375.5 210.2C375.5 213 374.3 216 372.1 218.5C369.9 221 367.1 222.5 364.3 222.9C367.4 223 370.6 221.7 372.8 219.2C375.1 216.6 376 213.3 375.5 210.2Z" fill="#B4B73E"/>
<path d="M360.7 208.5C363.5 205.3 366.8 203.3 369.4 202.9C366.2 202.4 362.3 204 359.3 207.4C356.4 210.8 355.2 214.9 356.2 217.9C356.3 215.2 357.9 211.7 360.7 208.5Z" fill="#B4B73E"/>
<path d="M374.1 207C374 209.7 372.4 213.2 369.6 216.4C366.8 219.6 363.5 221.6 360.9 222C364.1 222.5 368 220.9 371 217.5C373.9 214.2 375 210 374.1 207Z" fill="#B4B73E"/>
<path d="M363 210.5C366.3 206.8 369.7 204.2 371.5 203.9C369.3 203.2 365.3 205.5 361.8 209.4C358.3 213.3 356.6 217.6 357.6 219.7C357.6 217.9 359.7 214.2 363 210.5Z" fill="#B4B73E"/>
<path d="M372.8 205.1C372.8 206.9 370.6 210.6 367.4 214.3C364.1 218 360.7 220.6 358.9 220.9C361.1 221.6 365.1 219.3 368.6 215.4C372 211.4 373.7 207.1 372.8 205.1Z" fill="#B4B73E"/>
<path d="M364.6 211.9C360.8 216.2 358 219.9 358.3 220.2C358.6 220.5 361.9 217.2 365.7 212.9C369.5 208.6 372.3 204.9 372 204.6C371.7 204.3 368.4 207.6 364.6 211.9Z" fill="#B4B73E"/>
<path d="M366.9 190.1C367.5 189.1 367.2 187.8 366.4 187C365.7 186.1 364.6 185.6 363.6 185.1C363.2 184.9 362.7 184.7 362.3 185C362.1 184.4 361.3 184.3 360.7 184.2C359.4 184.1 358.1 184 356.8 184.3C355.5 184.6 354.3 185.4 353.8 186.6C353.2 185.7 352.3 185 351.2 184.6C350.8 184.5 350.4 184.3 350.1 184C349.9 183.7 349.9 183.3 349.8 183C349.4 181.5 347.7 180.8 346.2 180.4C345.2 180.2 344.1 180 343.4 180.8C341.5 180.6 339.6 180.1 337.8 179.3C337.6 179.2 337.4 179.1 337.2 178.9C337 178.7 336.9 178.4 336.8 178.1C335.7 174.9 333 172.2 329.7 171.7C326.4 171.2 322.7 173.5 322.4 176.9C322.1 177 321.8 177 321.5 177.1C321.6 178 320.9 178.9 320.1 179.1C319.7 177.4 317.5 177 315.7 177.3C313.7 177.7 311.8 178.7 310.3 180.1C309.5 180.9 308.9 181.8 308.7 182.9C308.5 184 308.9 185.2 309.8 185.8C308.8 186.1 308.1 187.3 308.3 188.3C308.5 189.4 309.5 190.2 310.6 190.2C310 190.7 310.5 191.8 311.2 191.9C311.2 192.5 310.7 192.9 310.3 193.3C309.9 193.7 309.8 194.6 310.3 194.8C308.8 195.2 308.1 197.1 308.7 198.5C309.3 199.9 310.8 200.8 312.2 201.1L348.4 204.3C351.8 204.9 355.3 205.6 358.5 204.4C359.4 204.1 360.2 203.6 360.7 202.9C361.2 202.2 361.3 201.1 360.8 200.3C362.6 201.4 365.1 200.3 366 198.5C367 196.7 366.8 194.4 366.2 192.4C366.1 192 366 191.6 366.1 191.2C366.2 190.8 366.6 190.5 366.9 190.1Z" fill="#A5AA33"/>
<path d="M366.9 190.1C367 190 367.1 189.8 367.1 189.6C366.3 190.3 365.4 190.8 364.4 190.9C363.2 191.1 361.8 190.4 361.5 189.2C360.9 190.1 360.2 191 359.6 192C359.5 191.3 358.7 190.8 357.9 190.7C357.1 190.6 356.4 190.9 355.7 191.2C355.6 190.3 355.9 189.3 356.5 188.7C355.8 187.6 355.4 186.3 355.3 184.9C354.6 185.3 354.1 185.9 353.8 186.6C353.6 186.3 353.3 186 353.1 185.8C353.1 186.1 353.1 186.4 353.2 186.8C353.4 189.2 353.6 191.6 352.6 193.8C352.1 194.8 351.4 195.8 350.3 196.3C349.2 196.7 347.9 196.5 347.2 195.6C346.9 195.2 346.8 194.7 346.4 194.3C345.5 193.3 343.9 193.8 342.7 193.1C341.6 192.4 341.4 190.8 341.8 189.5C342.3 188.3 343.2 187.3 343.9 186.1C343.2 186.2 342.6 185.6 342.4 184.9C342.2 184.2 342.4 183.5 342.4 182.8C342.4 182.1 342.3 181.4 342.2 180.7C341.9 180.7 341.6 180.6 341.4 180.5C340 182.7 337.5 184 334.9 183.9C335 185.8 334.6 187.7 333.6 189.3C333 190.2 332.1 191.1 331.1 190.7C330.8 190.6 330.5 190.4 330.2 190.3C329.2 190.1 328.5 191.3 328.3 192.3C327.7 191.3 326.5 190.7 325.3 190.9C324.3 191.1 323.4 191.7 322.4 191.4C320.8 190.9 321.1 188.5 320 187.2C318.8 185.8 316.4 186.1 315.1 184.8C314.2 183.9 314.1 182.4 314.6 181.2C315.1 180 316 179 316.9 178.1C315.9 178.6 314.8 179 313.6 179.1C313 179.1 312.5 179 312 178.8C311.4 179.2 310.8 179.7 310.3 180.2C309.5 181 308.9 181.9 308.7 183C308.5 184.1 308.9 185.3 309.8 185.9C308.8 186.2 308.1 187.4 308.3 188.4C308.5 189.5 309.5 190.3 310.6 190.3C310 190.8 310.5 191.9 311.2 192C311.2 192.6 310.7 193 310.3 193.4C309.9 193.8 309.8 194.7 310.3 194.9C308.8 195.3 308.1 197.2 308.7 198.6C309.3 200 310.8 200.9 312.2 201.2L348.4 204.4C351.8 205 355.3 205.7 358.5 204.5C359.4 204.2 360.2 203.7 360.7 203C361.2 202.3 361.3 201.2 360.8 200.4C362.6 201.5 365.1 200.4 366 198.6C367 196.8 366.8 194.5 366.2 192.5C366.1 192.1 366 191.7 366.1 191.3C366.2 190.8 366.6 190.5 366.9 190.1Z" fill="#8E8E23"/>
<path d="M295.9 199C295.9 198.5 295.6 198.1 295.3 197.7C294.2 196.2 293.1 194.7 292 193.2C290 190.5 287.8 187.7 284.1 187.2C282.9 187 281.3 187 281.1 185.9C280.5 185.9 279.9 185.8 279.3 185.8C280.7 185.5 281.8 183.9 282 182.7C282.1 181.4 281.6 180.4 280.9 179.5C278.3 176.1 274.1 174 269.9 172.3C268.5 171.8 267.1 171.2 265.5 171.3C263.9 171.4 261.9 172.1 260.7 173.5C260.2 174.1 259.4 175 258.9 174.7C258.7 174.6 258.7 174.4 258.6 174.2C258.1 173.1 256.2 173.5 254.7 174C254.3 174.1 254 174.2 253.7 174.5C253.5 174.7 253.4 175 253.3 175.3C252.6 176.7 250.2 176.9 249.1 178.1C249.7 177.2 249.4 176.1 248.7 175.6C247.9 175 246.7 175.1 245.5 175.2C238.8 175.9 231.6 179 225.8 183.9C224.5 185 223.1 186.3 222.8 187.8C222.4 189.2 223.7 190.6 225.2 189.8C224.5 190.1 224.2 190.9 224.4 191.4C224.5 191.9 225 192.2 225.5 192.5C226.6 193.2 228.2 193.8 229.7 193C228.7 193.8 228.4 196.2 228.6 196.9C228.9 198.1 230.1 198.4 231.2 198.7C233.8 199.6 235.4 201.7 237.2 203.4C238.1 204.2 238.9 205 240.1 205.4C241 205.7 242.1 205.7 243.2 205.7C250.2 205.7 257.2 205.4 264.4 204.6C270.5 204 276.7 203.1 282.5 203.5C284.4 203.6 286.3 203.9 288.4 203.7C290.4 203.5 292.7 202.8 294.5 201.4C295.2 200.7 295.9 199.8 295.9 199Z" fill="#8E8E23"/>
<path d="M248.9 182.9C250 183.7 251.8 183.1 252.6 182C253.4 180.9 253.5 179.4 253.3 178C253.2 177.2 253 176.5 252.9 175.7C251.9 176.7 250 177 249 178C249.6 177.1 249.3 176 248.6 175.5C247.8 174.9 246.6 175 245.4 175.1C238.7 175.8 231.5 178.9 225.7 183.8C225.6 183.9 225.6 183.9 225.5 184C225.8 184.2 226.1 184.4 226.5 184.5C229 185.5 231.7 185.3 234.3 185.1C233.7 186 233.1 186.8 232.6 187.7C234.8 188.1 237 188.1 239.1 188C238.8 189.1 240.2 189.9 241.4 189.8C244.9 189.6 247.2 186 248.9 182.9Z" fill="#A5AA33"/>
<path d="M266.4 178.3C266.1 180.3 267.5 182.5 269.5 183C271.3 183.4 273.3 182.6 274.6 181.2C275.9 179.8 276.6 178 277.2 176.2C277.2 176.1 277.2 176.1 277.3 176C275.1 174.5 272.6 173.3 270 172.2C268.6 171.7 267.2 171.1 265.6 171.2C264 171.3 262 172 260.8 173.4C260.3 174 259.5 174.9 259 174.6C258.8 174.5 258.8 174.3 258.7 174.1C258.3 173.4 257.4 173.3 256.4 173.5C256.8 173.9 257.4 174.1 257.9 173.9C256.2 176.1 256.8 180 259.4 181.3C261.8 182.6 265.4 181 266.4 178.3Z" fill="#A5AA33"/>
<path d="M361.6 213.6L391 218.1L393.4 237.8H357.2L361.6 213.6Z" fill="#933A2E"/>
<path d="M361.6 213.6L391 218.1L393.4 237.8L386.1 224.2L361.6 213.6Z" fill="#A33F34"/>
<path d="M359.2 213.2L372.5 215.3L373.6 238.6L357.2 237.8L359.2 213.2Z" fill="#6B251E"/>
<path d="M232.9 214.6L213.6 216.5L212.2 236.9H232.9V214.6Z" fill="#933A2E"/>
<path d="M306.6 198.1L334.8 196L335.9 236.9H306.8L306.6 198.1Z" fill="#772A24"/>
<path d="M306.7 197L333.6 195.7L333.7 201.5L306.6 202.7L306.7 197Z" fill="#933A2E"/>
<path d="M306.5 203.6L333.6 202.4L333.7 208.3L306.4 209.4L306.5 203.6Z" fill="#933A2E"/>
<path d="M306.3 210.3L333.7 209.3L333.8 215.3L306.2 216.2L306.3 210.3Z" fill="#933A2E"/>
<path d="M306.1 217.1L333.8 216.2L333.9 222.4L306 223.2L306.1 217.1Z" fill="#933A2E"/>
<path d="M306 224.1L333.9 223.4L334 229.7L305.8 230.3L306 224.1Z" fill="#933A2E"/>
<path d="M305.8 231.3L334 230.7L334.1 237.1L305.6 237.6L305.8 231.3Z" fill="#933A2E"/>
<path d="M334.8 196L367.8 197.8L369.2 236.9H332.4L334.8 196Z" fill="#933A2E"/>
<path d="M300.6 195.4L266.4 190.2L264 236.9H300.4L300.6 195.4Z" fill="#772A24"/>
<path d="M266.4 190.2L225 192.5L222.5 236.9H268.4L266.4 190.2Z" fill="#933A2E"/>
<path d="M301 191.8L266.1 189.6L266.2 196.6L301.1 198.5L301 191.8Z" fill="#933A2E"/>
<path d="M301.1 199.5L266.2 197.6L266.3 204.6L301.2 206.3L301.1 199.5Z" fill="#933A2E"/>
<path d="M301.3 207.3L266.3 205.7L266.4 212.7L301.3 214.1V207.3Z" fill="#933A2E"/>
<path d="M301.4 215.1L266.4 213.8V220.8L301.5 221.9L301.4 215.1Z" fill="#933A2E"/>
<path d="M301.5 222.9L266.5 221.9V228.9L301.6 229.7L301.5 222.9Z" fill="#933A2E"/>
<path d="M301.6 230.8L266.6 230V237.1L301.7 237.6L301.6 230.8Z" fill="#933A2E"/>
<path d="M222.3 191.1L267.3 189.6L267.6 196.2L222.3 197.6V191.1Z" fill="#B55747"/>
<path d="M222.2 198.6L267.6 197.3L267.9 204.1L222.1 205.3L222.2 198.6Z" fill="#B55747"/>
<path d="M222.1 206.3L267.9 205.1L268.3 212.1L222 213.1L222.1 206.3Z" fill="#B55747"/>
<path d="M222 214.1L268.3 213.1L268.7 220.2L221.9 221.1L222 214.1Z" fill="#B55747"/>
<path d="M221.9 222.2L268.7 221.3L269 228.5L221.8 229.3L221.9 222.2Z" fill="#B55747"/>
<path d="M221.8 230.3L269 229.6L269.4 237L221.7 237.6L221.8 230.3Z" fill="#B55747"/>
<path d="M369.2 197L332.7 195.7L332.5 201.5L369.4 202.7L369.2 197Z" fill="#B55747"/>
<path d="M369.4 203.6L332.5 202.4L332.4 208.3L369.6 209.4L369.4 203.6Z" fill="#B55747"/>
<path d="M369.7 210.3L332.4 209.3L332.3 215.3L369.9 216.2L369.7 210.3Z" fill="#B55747"/>
<path d="M369.9 217.1L332.3 216.2L332.1 222.4L370.1 223.2L369.9 217.1Z" fill="#B55747"/>
<path d="M370.2 224.1L332.1 223.4L332 229.7L370.4 230.3L370.2 224.1Z" fill="#B55747"/>
<path d="M370.4 231.3L332 230.7L331.9 237.1L370.6 237.6L370.4 231.3Z" fill="#B55747"/>
<path d="M369.2 197L339.4 196C339 197.9 338.7 199.8 338.6 201.8L369.4 202.8L369.2 197Z" fill="#C65C4E"/>
<path d="M369.4 203.6L338.5 202.6C338.5 203.4 338.4 204.2 338.4 205C338.4 206.2 338.5 207.4 338.5 208.5L369.5 209.4L369.4 203.6Z" fill="#C65C4E"/>
<path d="M369.7 210.3L338.7 209.4C338.9 211.5 339.3 213.5 339.8 215.5L369.9 216.2L369.7 210.3Z" fill="#C65C4E"/>
<path d="M369.9 217.1L340 216.4C340.6 218.6 341.4 220.7 342.4 222.6L370.1 223.2L369.9 217.1Z" fill="#C65C4E"/>
<path d="M342.9 223.6C344.3 226.1 345.9 228.3 347.8 230L367.9 230.3C368.8 229.5 369.6 228.7 370.4 227.7L370.3 224.1L342.9 223.6Z" fill="#C65C4E"/>
<path d="M358 234.3C361.1 234.3 364.1 233.2 366.7 231.2L348.9 230.9C351.6 233 354.7 234.3 358 234.3Z" fill="#C65C4E"/>
<path d="M334.6 233.8C334.6 233.1 334.2 232.5 333.7 232.5C333.2 232.5 332.9 233.1 332.9 233.8C332.9 234.5 333.3 235.1 333.8 235.1C334.3 235.1 334.6 234.5 334.6 233.8Z" fill="#772A24"/>
<path d="M334.9 226.8C334.9 226.1 334.5 225.5 334 225.5C333.5 225.5 333.2 226.1 333.2 226.8C333.2 227.5 333.6 228.1 334.1 228.1C334.6 228.1 334.9 227.5 334.9 226.8Z" fill="#772A24"/>
<path d="M335.2 219.8C335.2 219.1 334.8 218.5 334.3 218.5C333.8 218.5 333.5 219.1 333.5 219.8C333.5 220.5 333.9 221.1 334.4 221.1C334.9 221 335.3 220.5 335.2 219.8Z" fill="#772A24"/>
<path d="M335.6 212.8C335.6 212.1 335.2 211.5 334.7 211.5C334.2 211.5 333.9 212.1 333.9 212.8C333.9 213.5 334.3 214.1 334.8 214.1C335.3 214.1 335.6 213.5 335.6 212.8Z" fill="#772A24"/>
<path d="M335.9 205.7C335.9 205 335.5 204.4 335 204.4C334.5 204.4 334.2 205 334.2 205.7C334.2 206.4 334.6 207 335.1 207C335.5 207 335.9 206.4 335.9 205.7Z" fill="#772A24"/>
<path d="M336.2 198.7C336.2 198 335.8 197.4 335.3 197.4C334.8 197.4 334.5 198 334.5 198.7C334.5 199.4 334.9 200 335.4 200C335.8 200 336.2 199.4 336.2 198.7Z" fill="#772A24"/>
<path d="M368.7 234.6C368.6 233.9 368.2 233.3 367.7 233.3C367.2 233.3 366.9 233.9 367 234.6C367.1 235.3 367.5 235.9 368 235.9C368.4 235.8 368.8 235.3 368.7 234.6Z" fill="#772A24"/>
<path d="M368.5 227.5C368.4 226.8 368 226.2 367.5 226.2C367 226.2 366.7 226.8 366.8 227.5C366.9 228.2 367.3 228.8 367.8 228.8C368.3 228.8 368.6 228.2 368.5 227.5Z" fill="#772A24"/>
<path d="M368.3 220.5C368.2 219.8 367.8 219.2 367.3 219.2C366.8 219.2 366.5 219.8 366.6 220.5C366.7 221.2 367.1 221.8 367.6 221.8C368.1 221.8 368.4 221.2 368.3 220.5Z" fill="#772A24"/>
<path d="M368.2 213.5C368.1 212.8 367.7 212.2 367.2 212.2C366.7 212.2 366.4 212.8 366.5 213.5C366.6 214.2 367 214.8 367.5 214.8C368 214.8 368.2 214.2 368.2 213.5Z" fill="#772A24"/>
<path d="M368 206.5C367.9 205.8 367.5 205.2 367 205.2C366.5 205.2 366.2 205.8 366.3 206.5C366.4 207.2 366.8 207.8 367.3 207.8C367.7 207.7 368 207.2 368 206.5Z" fill="#772A24"/>
<path d="M367.8 199.4C367.7 198.7 367.3 198.1 366.8 198.1C366.3 198.1 366 198.7 366.1 199.4C366.2 200.1 366.6 200.7 367.1 200.7C367.5 200.7 367.9 200.1 367.8 199.4Z" fill="#772A24"/>
<path d="M330.3 234.8C330.3 234.1 329.8 233.5 329.4 233.5C328.9 233.5 328.6 234.1 328.6 234.8C328.6 235.5 329.1 236.1 329.5 236.1C330 236.1 330.3 235.5 330.3 234.8Z" fill="#772A24"/>
<path d="M330.3 227.7C330.3 227 329.8 226.4 329.4 226.4C328.9 226.4 328.6 227 328.6 227.7C328.6 228.4 329.1 229 329.5 229C330 229 330.4 228.4 330.3 227.7Z" fill="#772A24"/>
<path d="M330.4 220.5C330.4 219.8 329.9 219.2 329.5 219.2C329 219.2 328.7 219.8 328.7 220.5C328.7 221.2 329.2 221.8 329.6 221.8C330.1 221.8 330.4 221.2 330.4 220.5Z" fill="#772A24"/>
<path d="M330.4 213.4C330.4 212.7 329.9 212.1 329.5 212.1C329 212.1 328.7 212.7 328.7 213.4C328.7 214.1 329.2 214.7 329.6 214.7C330.1 214.7 330.5 214.1 330.4 213.4Z" fill="#772A24"/>
<path d="M330.5 206.2C330.5 205.5 330 204.9 329.6 204.9C329.2 204.9 328.8 205.5 328.8 206.2C328.8 206.9 329.3 207.5 329.7 207.5C330.2 207.5 330.5 206.9 330.5 206.2Z" fill="#772A24"/>
<path d="M330.6 199.1C330.6 198.4 330.1 197.8 329.7 197.8C329.3 197.8 328.9 198.4 328.9 199.1C328.9 199.8 329.4 200.4 329.8 200.4C330.2 200.3 330.6 199.8 330.6 199.1Z" fill="#772A24"/>
<path d="M308.9 235C308.9 234.3 308.5 233.7 308 233.7C307.5 233.7 307.2 234.3 307.3 235C307.3 235.7 307.7 236.3 308.2 236.3C308.6 236.2 309 235.7 308.9 235Z" fill="#772A24"/>
<path d="M309 228C309 227.3 308.6 226.7 308.1 226.7C307.7 226.7 307.3 227.3 307.4 228C307.4 228.7 307.8 229.3 308.3 229.3C308.7 229.2 309 228.6 309 228Z" fill="#772A24"/>
<path d="M309.1 221C309.1 220.3 308.7 219.7 308.2 219.7C307.7 219.7 307.4 220.3 307.5 221C307.5 221.7 307.9 222.3 308.4 222.3C308.8 222.2 309.1 221.6 309.1 221Z" fill="#772A24"/>
<path d="M309.1 213.9C309.1 213.2 308.7 212.6 308.2 212.6C307.7 212.6 307.4 213.2 307.5 213.9C307.5 214.6 307.9 215.2 308.4 215.2C308.8 215.2 309.1 214.6 309.1 213.9Z" fill="#772A24"/>
<path d="M309.2 206.9C309.2 206.2 308.8 205.6 308.3 205.6C307.8 205.6 307.5 206.2 307.6 206.9C307.6 207.6 308 208.2 308.5 208.2C308.9 208.2 309.2 207.6 309.2 206.9Z" fill="#772A24"/>
<path d="M309.2 199.9C309.2 199.2 308.8 198.6 308.3 198.6C307.9 198.6 307.5 199.2 307.6 199.9C307.6 200.6 308 201.2 308.5 201.2C308.9 201.2 309.3 200.6 309.2 199.9Z" fill="#772A24"/>
<path d="M259.8 182.1C259.3 182 258.4 183 258.3 183.3C258.3 183.6 258.7 183.8 259.2 183.9C259.7 184 260.2 183.8 260.2 183.5C260.4 183.2 260.4 182.2 259.8 182.1Z" fill="#FFA52E"/>
<path d="M259.2 182.2C258.9 181.9 257.6 181.8 257.3 181.9C257 182 257 182.3 257.3 182.7C257.6 183 258 183.2 258.2 183.1C258.5 183 259.5 182.6 259.2 182.2Z" fill="#FFA52E"/>
<path d="M260.1 181.9C260.5 181.7 261.9 182.4 262.1 182.7C262.3 182.9 262.2 183.3 261.8 183.4C261.4 183.6 260.9 183.5 260.7 183.2C260.4 183 259.7 182 260.1 181.9Z" fill="#FFA52E"/>
<path d="M259.4 182C259.1 182.2 257.8 181.7 257.6 181.6C257.4 181.4 257.5 181.1 257.8 180.9C258.1 180.7 258.6 180.7 258.8 180.9C259 181.1 259.7 181.8 259.4 182Z" fill="#FFA52E"/>
<path d="M260.3 181.9C260.5 182.1 261.6 182.1 261.7 182C261.9 181.9 261.8 181.6 261.6 181.4C261.4 181.2 261 181 260.9 181.1C260.8 181.3 260.1 181.7 260.3 181.9Z" fill="#FFA52E"/>
<path d="M259.8 181.9C259.4 181.7 259.2 180.8 259.3 180.6C259.4 180.4 259.8 180.4 260.3 180.5C260.7 180.7 261 181 260.9 181.1C260.7 181.4 260.2 182.1 259.8 181.9Z" fill="#FFA52E"/>
<path d="M259.8 181.6C259.3 181.5 258.8 181.7 258.8 182C258.8 182.3 259.2 182.5 259.7 182.6C260.2 182.7 260.7 182.5 260.7 182.2C260.7 181.9 260.3 181.7 259.8 181.6Z" fill="#FFF6C7"/>
<path d="M243.4 177.1C242.9 177.3 242.4 178.5 242.5 178.7C242.6 179 243.1 179.1 243.6 178.9C244.1 178.7 244.5 178.4 244.4 178.1C244.3 177.9 243.9 176.9 243.4 177.1Z" fill="#FFA52E"/>
<path d="M242.9 177.4C242.5 177.2 241.2 177.6 241 177.8C240.8 178 240.9 178.3 241.3 178.5C241.7 178.7 242.1 178.7 242.3 178.6C242.5 178.4 243.2 177.6 242.9 177.4Z" fill="#FFA52E"/>
<path d="M243.5 176.8C243.8 176.5 245.3 176.6 245.6 176.8C245.9 176.9 245.9 177.3 245.6 177.6C245.3 177.9 244.8 178 244.5 177.9C244.2 177.7 243.2 177.1 243.5 176.8Z" fill="#FFA52E"/>
<path d="M242.9 177.2C242.7 177.5 241.3 177.6 241 177.5C240.7 177.4 240.7 177.1 240.9 176.8C241.1 176.5 241.5 176.3 241.8 176.4C242.2 176.5 243.1 176.9 242.9 177.2Z" fill="#FFA52E"/>
<path d="M243.8 176.7C244.1 176.8 245.1 176.4 245.2 176.3C245.3 176.1 245.2 175.9 244.9 175.8C244.6 175.7 244.2 175.7 244.1 175.8C243.9 176 243.5 176.6 243.8 176.7Z" fill="#FFA52E"/>
<path d="M243.2 176.9C242.7 176.9 242.2 176.1 242.2 175.8C242.2 175.5 242.6 175.4 243.1 175.4C243.6 175.4 243.9 175.6 243.9 175.8C243.9 176.1 243.7 176.9 243.2 176.9Z" fill="#FFA52E"/>
<path d="M243.1 176.6C242.6 176.8 242.2 177.1 242.3 177.4C242.4 177.7 242.9 177.8 243.4 177.6C243.9 177.4 244.3 177.1 244.2 176.8C244.1 176.6 243.7 176.5 243.1 176.6Z" fill="#FFF6C7"/>
<path d="M271.8 177.7C271.3 177.8 270.6 178.9 270.6 179.2C270.6 179.5 271.1 179.6 271.7 179.6C272.2 179.5 272.7 179.3 272.6 179C272.6 178.7 272.4 177.6 271.8 177.7Z" fill="#FFA52E"/>
<path d="M271.3 177.9C271 177.6 269.6 177.8 269.4 178C269.2 178.2 269.2 178.5 269.6 178.8C269.9 179.1 270.4 179.2 270.6 179C270.8 178.8 271.6 178.2 271.3 177.9Z" fill="#FFA52E"/>
<path d="M272 177.4C272.3 177.2 273.8 177.5 274.1 177.7C274.4 177.9 274.3 178.2 273.9 178.5C273.6 178.7 273.1 178.8 272.8 178.6C272.6 178.4 271.7 177.6 272 177.4Z" fill="#FFA52E"/>
<path d="M271.4 177.7C271.1 178 269.8 177.8 269.5 177.7C269.2 177.6 269.3 177.3 269.5 177C269.7 176.7 270.2 176.7 270.5 176.8C270.7 176.9 271.6 177.4 271.4 177.7Z" fill="#FFA52E"/>
<path d="M272.3 177.4C272.6 177.6 273.6 177.3 273.7 177.2C273.9 177.1 273.8 176.8 273.5 176.6C273.2 176.4 272.9 176.4 272.7 176.5C272.5 176.7 272 177.2 272.3 177.4Z" fill="#FFA52E"/>
<path d="M271.7 177.5C271.2 177.4 270.8 176.5 270.9 176.3C271 176.1 271.4 176 271.8 176C272.3 176.1 272.6 176.3 272.5 176.5C272.5 176.8 272.2 177.6 271.7 177.5Z" fill="#FFA52E"/>
<path d="M271.7 177.2C271.2 177.3 270.7 177.5 270.8 177.8C270.8 178.1 271.3 178.2 271.9 178.2C272.4 178.1 272.9 177.9 272.8 177.6C272.7 177.3 272.2 177.1 271.7 177.2Z" fill="#FFF6C7"/>
<path d="M232.1 182.6C231.7 183 231.8 184.3 232 184.5C232.2 184.7 232.7 184.6 233.1 184.2C233.5 183.8 233.7 183.4 233.5 183.2C233.3 183 232.5 182.3 232.1 182.6Z" fill="#FFA52E"/>
<path d="M231.8 183.2C231.4 183.2 230.4 184.1 230.3 184.3C230.2 184.6 230.4 184.8 230.9 184.8C231.3 184.8 231.7 184.7 231.8 184.4C231.9 184.2 232.2 183.2 231.8 183.2Z" fill="#FFA52E"/>
<path d="M232.1 182.3C232.3 181.9 233.7 181.4 234 181.4C234.3 181.4 234.4 181.7 234.3 182.1C234.1 182.5 233.8 182.8 233.5 182.8C233.2 182.8 232 182.7 232.1 182.3Z" fill="#FFA52E"/>
<path d="M231.7 182.9C231.6 183.3 230.4 183.9 230.1 183.9C229.8 183.9 229.7 183.7 229.8 183.3C229.9 182.9 230.2 182.6 230.5 182.6C230.8 182.6 231.8 182.5 231.7 182.9Z" fill="#FFA52E"/>
<path d="M232.3 182.2C232.6 182.2 233.3 181.4 233.4 181.2C233.5 181 233.2 180.8 232.9 180.9C232.6 180.9 232.2 181.1 232.2 181.3C232.1 181.4 232 182.2 232.3 182.2Z" fill="#FFA52E"/>
<path d="M231.9 182.6C231.5 182.8 230.6 182.3 230.6 182.1C230.5 181.9 230.8 181.6 231.2 181.3C231.6 181.1 232 181.1 232.1 181.3C232.1 181.5 232.3 182.4 231.9 182.6Z" fill="#FFA52E"/>
<path d="M231.7 182.4C231.3 182.8 231.1 183.2 231.3 183.4C231.5 183.6 232 183.5 232.4 183.1C232.8 182.7 233 182.3 232.8 182.1C232.6 181.9 232.1 182 231.7 182.4Z" fill="#FFF6C7"/>
<path d="M257 173.9C256.5 173.9 255.8 175.1 255.8 175.3C255.8 175.6 256.3 175.8 256.8 175.7C257.3 175.6 257.8 175.4 257.7 175.1C257.7 174.9 257.5 173.9 257 173.9Z" fill="#FFA52E"/>
<path d="M256.4 174.1C256.1 173.8 254.7 174 254.5 174.1C254.3 174.2 254.3 174.6 254.6 174.9C254.9 175.2 255.4 175.3 255.6 175.1C255.9 175 256.7 174.4 256.4 174.1Z" fill="#FFA52E"/>
<path d="M257.2 173.6C257.6 173.4 259 173.8 259.3 174C259.5 174.2 259.5 174.5 259.1 174.8C258.7 175 258.3 175.1 258 174.9C257.7 174.7 256.8 173.9 257.2 173.6Z" fill="#FFA52E"/>
<path d="M256.5 173.9C256.2 174.1 254.9 174 254.6 173.8C254.4 173.7 254.4 173.4 254.7 173.1C255 172.9 255.4 172.8 255.7 172.9C255.9 173.1 256.8 173.7 256.5 173.9Z" fill="#FFA52E"/>
<path d="M257.4 173.6C257.7 173.8 258.7 173.6 258.8 173.5C259 173.4 258.9 173.1 258.6 172.9C258.3 172.7 258 172.7 257.8 172.8C257.7 172.9 257.1 173.5 257.4 173.6Z" fill="#FFA52E"/>
<path d="M256.8 173.7C256.3 173.6 256 172.7 256 172.5C256.1 172.3 256.5 172.2 256.9 172.3C257.4 172.4 257.7 172.6 257.6 172.8C257.6 173 257.3 173.8 256.8 173.7Z" fill="#FFA52E"/>
<path d="M256.8 173.4C256.3 173.4 255.8 173.7 255.9 174C255.9 174.3 256.4 174.5 256.9 174.4C257.4 174.4 257.9 174.1 257.8 173.8C257.8 173.6 257.3 173.4 256.8 173.4Z" fill="#FFF6C7"/>
<path d="M245.5 185.5C245 185.7 244.7 187 244.8 187.3C244.9 187.6 245.4 187.6 245.9 187.4C246.4 187.2 246.7 186.8 246.6 186.5C246.5 186.2 246 185.2 245.5 185.5Z" fill="#FFA52E"/>
<path d="M245.1 185.9C244.7 185.7 243.5 186.3 243.3 186.5C243.1 186.7 243.3 187 243.7 187.2C244.1 187.4 244.5 187.3 244.7 187.1C244.8 186.9 245.5 186 245.1 185.9Z" fill="#FFA52E"/>
<path d="M245.7 185.1C246 184.8 247.5 184.7 247.8 184.8C248.1 184.9 248.1 185.3 247.9 185.6C247.7 185.9 247.2 186.1 246.9 186C246.6 185.9 245.4 185.5 245.7 185.1Z" fill="#FFA52E"/>
<path d="M245.1 185.6C244.9 185.9 243.6 186.2 243.3 186.1C243 186 243 185.7 243.1 185.4C243.3 185.1 243.7 184.9 243.9 184.9C244.2 185 245.3 185.3 245.1 185.6Z" fill="#FFA52E"/>
<path d="M245.9 185.1C246.2 185.2 247.1 184.7 247.2 184.5C247.3 184.3 247.1 184.1 246.8 184C246.5 183.9 246.1 184 246 184.1C245.9 184.3 245.6 185 245.9 185.1Z" fill="#FFA52E"/>
<path d="M245.4 185.3C244.9 185.4 244.3 184.6 244.3 184.4C244.3 184.2 244.7 183.9 245.1 183.9C245.6 183.8 245.9 184 245.9 184.2C245.9 184.4 245.8 185.3 245.4 185.3Z" fill="#FFA52E"/>
<path d="M245.2 185.1C244.7 185.3 244.4 185.7 244.5 186C244.6 186.3 245.1 186.3 245.6 186.1C246.1 185.9 246.4 185.5 246.3 185.2C246.2 184.9 245.7 184.8 245.2 185.1Z" fill="#FFF6C7"/>
<path d="M349.7 186C349.2 185.8 348 186.4 347.9 186.7C347.8 187 348.1 187.3 348.6 187.6C349.1 187.8 349.6 187.8 349.7 187.5C349.8 187.2 350.2 186.2 349.7 186Z" fill="#FFA52E"/>
<path d="M349 185.9C348.9 185.5 347.6 185 347.3 185C347 185 346.9 185.3 347.1 185.7C347.2 186.1 347.6 186.4 347.9 186.4C348.1 186.4 349.2 186.3 349 185.9Z" fill="#FFA52E"/>
<path d="M350 185.8C350.4 185.8 351.5 186.8 351.6 187.1C351.7 187.4 351.5 187.6 351.1 187.7C350.7 187.7 350.2 187.5 350.1 187.2C349.9 187 349.6 185.8 350 185.8Z" fill="#FFA52E"/>
<path d="M349.2 185.7C348.8 185.8 347.7 185 347.6 184.7C347.5 184.5 347.6 184.2 348 184.1C348.4 184 348.8 184.2 348.9 184.4C349.1 184.7 349.6 185.6 349.2 185.7Z" fill="#FFA52E"/>
<path d="M350.2 185.9C350.3 186.2 351.3 186.5 351.5 186.5C351.7 186.5 351.7 186.2 351.6 185.9C351.5 185.6 351.2 185.4 351 185.4C350.8 185.4 350 185.6 350.2 185.9Z" fill="#FFA52E"/>
<path d="M349.6 185.7C349.2 185.4 349.4 184.4 349.5 184.3C349.7 184.1 350.1 184.3 350.4 184.5C350.8 184.8 350.9 185.1 350.7 185.3C350.7 185.5 350 186 349.6 185.7Z" fill="#FFA52E"/>
<path d="M349.7 185.5C349.2 185.3 348.7 185.3 348.6 185.6C348.5 185.9 348.8 186.2 349.3 186.5C349.8 186.7 350.3 186.7 350.4 186.4C350.6 186.1 350.2 185.7 349.7 185.5Z" fill="#FFF6C7"/>
<path d="M337.7 179.4C337.1 179.4 336.3 180.4 336.3 180.7C336.3 181 336.7 181.2 337.3 181.2C337.9 181.2 338.3 181 338.3 180.7C338.3 180.5 338.3 179.4 337.7 179.4Z" fill="#FFA52E"/>
<path d="M337.1 179.5C336.8 179.2 335.5 179.2 335.2 179.3C334.9 179.4 335 179.8 335.2 180.1C335.5 180.4 335.9 180.6 336.2 180.5C336.5 180.4 337.4 179.8 337.1 179.5Z" fill="#FFA52E"/>
<path d="M338 179.1C338.4 178.9 339.8 179.5 340 179.7C340.2 179.9 340.1 180.3 339.7 180.4C339.3 180.6 338.8 180.6 338.6 180.3C338.4 180.2 337.6 179.3 338 179.1Z" fill="#FFA52E"/>
<path d="M337.2 179.3C336.9 179.5 335.6 179.2 335.3 179C335.1 178.8 335.1 178.5 335.5 178.3C335.8 178.1 336.2 178.1 336.5 178.2C336.7 178.4 337.6 179.1 337.2 179.3Z" fill="#FFA52E"/>
<path d="M338.2 179.2C338.4 179.4 339.5 179.3 339.6 179.2C339.8 179.1 339.7 178.8 339.5 178.6C339.3 178.4 338.9 178.3 338.7 178.4C338.6 178.5 337.9 178.9 338.2 179.2Z" fill="#FFA52E"/>
<path d="M337.6 179.2C337.2 179.1 336.9 178.1 337 177.9C337.1 177.7 337.5 177.6 338 177.8C338.4 177.9 338.7 178.2 338.6 178.4C338.5 178.6 338.1 179.3 337.6 179.2Z" fill="#FFA52E"/>
<path d="M337.6 178.9C337 178.9 336.6 179.1 336.6 179.4C336.6 179.7 337 179.9 337.6 179.9C338.2 179.9 338.6 179.7 338.6 179.4C338.6 179.1 338.2 178.9 337.6 178.9Z" fill="#FFF6C7"/>
<path d="M362.4 185.4C361.9 185.3 360.9 186.2 360.8 186.5C360.7 186.8 361.1 187.1 361.7 187.2C362.2 187.3 362.7 187.2 362.8 186.9C362.9 186.6 363 185.5 362.4 185.4Z" fill="#FFA52E"/>
<path d="M361.8 185.5C361.6 185.1 360.2 184.9 360 185C359.7 185.1 359.7 185.4 359.9 185.8C360.1 186.2 360.5 186.4 360.8 186.3C361.1 186.2 362 185.8 361.8 185.5Z" fill="#FFA52E"/>
<path d="M362.7 185.2C363.1 185.1 364.4 185.9 364.6 186.1C364.8 186.4 364.6 186.7 364.2 186.8C363.8 186.9 363.3 186.8 363.1 186.6C362.9 186.3 362.3 185.3 362.7 185.2Z" fill="#FFA52E"/>
<path d="M362 185.3C361.7 185.5 360.4 184.9 360.2 184.7C360 184.5 360.1 184.2 360.5 184.1C360.8 183.9 361.3 184 361.5 184.2C361.6 184.3 362.3 185.1 362 185.3Z" fill="#FFA52E"/>
<path d="M362.9 185.3C363.1 185.6 364.1 185.6 364.3 185.5C364.5 185.4 364.5 185.1 364.3 184.9C364.1 184.6 363.8 184.5 363.6 184.6C363.4 184.7 362.7 185 362.9 185.3Z" fill="#FFA52E"/>
<path d="M362.4 185.2C362 185 361.9 184 362 183.8C362.1 183.6 362.6 183.6 363 183.8C363.4 184 363.6 184.3 363.5 184.5C363.3 184.7 362.8 185.4 362.4 185.2Z" fill="#FFA52E"/>
<path d="M362.4 184.9C361.9 184.8 361.4 184.9 361.3 185.2C361.2 185.5 361.6 185.8 362.2 185.9C362.7 186 363.2 185.9 363.3 185.6C363.3 185.3 362.9 185 362.4 184.9Z" fill="#FFF6C7"/>
<path d="M324.2 173.9C323.7 174.1 323.4 175.4 323.5 175.7C323.6 176 324.1 176 324.6 175.8C325.1 175.6 325.4 175.2 325.3 174.9C325.3 174.6 324.7 173.7 324.2 173.9Z" fill="#FFA52E"/>
<path d="M323.8 174.3C323.4 174.1 322.2 174.7 322 174.9C321.8 175.1 322 175.4 322.4 175.6C322.8 175.8 323.2 175.7 323.4 175.5C323.5 175.3 324.1 174.5 323.8 174.3Z" fill="#FFA52E"/>
<path d="M324.3 173.6C324.6 173.3 326.1 173.2 326.4 173.3C326.7 173.4 326.7 173.8 326.5 174.1C326.2 174.4 325.8 174.6 325.5 174.5C325.2 174.4 324.1 173.9 324.3 173.6Z" fill="#FFA52E"/>
<path d="M323.8 174C323.6 174.3 322.3 174.6 322 174.5C321.7 174.4 321.7 174.1 321.9 173.8C322.1 173.5 322.5 173.3 322.8 173.3C322.9 173.4 324 173.7 323.8 174Z" fill="#FFA52E"/>
<path d="M324.6 173.5C324.9 173.6 325.8 173.1 325.9 172.9C326 172.7 325.8 172.5 325.5 172.4C325.2 172.3 324.8 172.4 324.7 172.5C324.6 172.7 324.3 173.4 324.6 173.5Z" fill="#FFA52E"/>
<path d="M324.1 173.8C323.6 173.9 323 173.1 323 172.9C323 172.7 323.4 172.4 323.8 172.4C324.3 172.3 324.6 172.5 324.6 172.7C324.6 172.8 324.5 173.7 324.1 173.8Z" fill="#FFA52E"/>
<path d="M323.9 173.5C323.4 173.7 323.1 174.1 323.2 174.4C323.3 174.7 323.8 174.7 324.3 174.5C324.8 174.3 325.1 173.9 325 173.6C324.9 173.3 324.4 173.3 323.9 173.5Z" fill="#FFF6C7"/>
<path d="M326.5 185.5C326 185.6 325.3 186.7 325.3 187C325.3 187.3 325.8 187.5 326.3 187.4C326.8 187.3 327.3 187.1 327.2 186.8C327.3 186.5 327 185.5 326.5 185.5Z" fill="#FFA52E"/>
<path d="M325.9 185.8C325.6 185.5 324.2 185.7 324 185.9C323.8 186 323.8 186.4 324.2 186.7C324.5 187 325 187.1 325.2 186.9C325.4 186.6 326.2 186 325.9 185.8Z" fill="#FFA52E"/>
<path d="M326.7 185.2C327.1 185 328.5 185.4 328.8 185.6C329.1 185.8 329 186.1 328.6 186.4C328.2 186.6 327.8 186.7 327.5 186.5C327.2 186.2 326.4 185.5 326.7 185.2Z" fill="#FFA52E"/>
<path d="M326 185.5C325.7 185.7 324.4 185.6 324.1 185.4C323.9 185.3 323.9 185 324.2 184.7C324.5 184.5 324.9 184.4 325.2 184.5C325.4 184.7 326.3 185.3 326 185.5Z" fill="#FFA52E"/>
<path d="M326.9 185.2C327.2 185.4 328.2 185.2 328.3 185C328.5 184.9 328.4 184.6 328.1 184.4C327.8 184.2 327.5 184.2 327.3 184.3C327.2 184.5 326.7 185 326.9 185.2Z" fill="#FFA52E"/>
<path d="M326.4 185.3C325.9 185.2 325.6 184.3 325.6 184.1C325.7 183.9 326.1 183.8 326.5 183.8C327 183.9 327.3 184.1 327.2 184.3C327.2 184.6 326.8 185.4 326.4 185.3Z" fill="#FFA52E"/>
<path d="M326.3 185C325.8 185.1 325.3 185.3 325.4 185.6C325.4 185.9 325.9 186.1 326.4 186C326.9 185.9 327.4 185.7 327.3 185.4C327.3 185.2 326.9 185 326.3 185Z" fill="#FFF6C7"/>
<path d="M328.2 234.4C330.4 232.2 330.7 230.4 330 229C334 229.9 333.7 233.4 333.7 233.4C334 232.4 335.2 231.2 334.5 230.3C336.4 230.9 338.2 233.4 338.4 234.7C342.1 228.4 338.5 223.8 338.5 223.7C340.8 224 347.5 229.8 348.5 231C349 231.6 349.2 232.4 350.2 232.8C351.2 231.1 351.1 229.3 350.1 228C350.8 228.4 351.8 229.3 352.5 229.7C353.7 227.5 352.7 224.3 352 223.3C353.9 223.9 356.1 226.1 357 227.2C358 228.4 359.4 230.2 359.5 231.8C360.9 229.9 360.3 226.5 359.3 223.4C361.1 224.6 362.7 225.7 364.6 229.2C364.9 229.8 365 230.9 365.7 231.3C366.4 229.4 366.2 226.9 365.6 226.1C367.5 226.5 369.5 231.3 369.8 232.7C370.5 230.3 370.5 227.8 369.3 226C372.1 228.7 372.4 233.6 373.4 237.4H309.8C316.6 235 320.1 231 314.6 222.8C318.8 226.5 326 229.1 328.2 234.4Z" fill="#A0961D"/>
<path d="M404 234.1C401.4 232.4 400.4 231 400.3 229.8C397.6 230.7 399.3 233.4 399.3 233.4C398.6 232.6 397.2 231.7 397.4 231C396.2 231.5 395.9 233.6 396.3 234.6C390.8 229.7 391.7 226 391.6 225.9C390 226.2 387.3 231 387.1 232C387 232.5 387.2 233.2 386.5 233.5C385.1 232.2 384.4 230.8 384.6 229.7C384.2 230 383.8 230.7 383.5 231.1C381.7 229.4 381.1 226.8 381.2 226C380 226.5 379.3 228.3 379 229.3C378.7 230.3 378.4 231.7 379 233C377.1 231.5 376.2 228.8 375.7 226.4C374.8 227.4 374.1 228.4 374.1 231.2C374.1 231.7 374.5 232.5 374.1 232.9C372.8 231.4 371.9 229.4 372 228.8C370.7 229.2 371.2 233 371.6 234.2C370.1 232.3 369 230.3 369.2 228.9C368.2 231.1 369.6 234.5 370.5 237.5H413.9C405.8 234.3 409.6 224.5 409.6 224.5C407.8 227.6 403.4 229.9 404 234.1Z" fill="#A0961D"/>
<path d="M285 232.8C285.5 232.2 286.5 230.6 287.2 230C287.8 230.8 287.9 231.7 288 232.6C288.2 232.3 289.4 231.8 289.6 231.6C289.8 231.9 290.3 232.1 290.6 232.5C291.3 232 292.4 231.8 293 231.1C293.3 231.5 294.4 232.3 294.6 232.8C294.9 232.4 295.4 232.1 295.6 231.6C295.6 232.3 295.7 233.1 295.8 233.8C298.9 229.1 298.6 229.7 302.7 225.2C301.9 228.7 302.6 227.9 303.4 232.2C305 231.7 304.8 230.4 304.6 229.3C306.6 230.3 307.6 232.1 308.6 233.6C310.6 232.4 309.3 229.9 308.9 228.3C312.8 230.3 316.5 234.1 315.5 237.6H281.8C282.2 235.7 283.9 234 285 232.8Z" fill="#A0961D"/>
<path d="M226.4 197.5L255.7 196.6C255.8 194.4 255.9 192.2 255.9 189.9L226.2 190.9C226.2 193.2 226.3 195.3 226.4 197.5Z" fill="#C65C4E"/>
<path d="M227.2 205.1L255 204.4C255.3 202.2 255.5 199.9 255.7 197.6L226.6 198.5C226.6 200.8 226.9 203 227.2 205.1Z" fill="#C65C4E"/>
<path d="M228.6 213L253.5 212.4C254 210.2 254.4 207.9 254.8 205.5L227.3 206.2C227.7 208.5 228.1 210.8 228.6 213Z" fill="#C65C4E"/>
<path d="M231 220.9L251.1 220.5C251.9 218.4 252.6 216 253.3 213.4L228.9 213.9C229.5 216.5 230.2 218.9 231 220.9Z" fill="#C65C4E"/>
<path d="M235.7 229L246.4 228.8C248 227.1 249.4 224.6 250.6 221.5L231.4 221.9C232.7 225 234.1 227.4 235.7 229Z" fill="#C65C4E"/>
<path d="M241 231.8C242.5 231.8 243.9 231.2 245.3 230L236.8 230.1C238.2 231.2 239.6 231.8 241 231.8Z" fill="#C65C4E"/>
<path d="M228.5 234.4C230.7 232.2 231 230.4 230.3 229C234.3 229.9 234 233.4 234 233.4C234.3 232.4 235.5 231.2 234.8 230.3C236.7 230.9 238.5 233.4 238.7 234.7C242.4 228.4 238.8 223.8 238.8 223.7C241.1 224 247.8 229.8 248.8 231C249.3 231.6 249.5 232.4 250.5 232.8C251.5 231.1 251.4 229.3 250.4 228C251.1 228.4 252.1 229.3 252.8 229.7C254 227.5 253 224.3 252.3 223.3C254.2 223.9 256.4 226.1 257.3 227.2C258.3 228.4 259.7 230.2 259.8 231.8C261.2 229.9 260.6 226.5 259.6 223.4C261.4 224.6 263 225.7 264.9 229.2C265.2 229.8 265.3 230.9 266 231.3C266.7 229.4 266.5 226.9 265.9 226.1C267.8 226.5 269.8 231.3 270.1 232.7C270.8 230.3 270.8 227.8 269.6 226C272.4 228.7 272.7 233.6 273.7 237.4H210C216.8 235 220.3 231 214.8 222.8C219.1 226.5 226.3 229.1 228.5 234.4Z" fill="#A0961D"/>
<path d="M304.3 234.1C301.7 232.4 300.7 231 300.6 229.8C297.9 230.7 299.6 233.4 299.6 233.4C298.9 232.6 297.5 231.7 297.7 231C296.5 231.5 296.2 233.6 296.6 234.6C291.1 229.7 292 226 291.9 225.9C290.3 226.2 287.6 231 287.4 232C287.3 232.5 287.5 233.2 286.8 233.5C285.4 232.2 284.7 230.8 284.9 229.7C284.5 230 284.1 230.7 283.8 231.1C282 229.4 281.4 226.8 281.5 226C280.3 226.5 279.6 228.3 279.3 229.3C279 230.3 278.7 231.7 279.3 233C277.4 231.5 276.5 228.8 276 226.4C275.1 227.4 274.4 228.4 274.4 231.2C274.4 231.7 274.8 232.5 274.4 232.9C273.1 231.4 272.2 229.4 272.3 228.8C271 229.2 271.5 233 271.9 234.2C270.4 232.3 269.3 230.3 269.5 228.9C268.5 231.1 269.9 234.5 270.8 237.5H314.2C306.1 234.3 309.9 224.5 309.9 224.5C308.1 227.6 303.7 229.9 304.3 234.1Z" fill="#A0961D"/>
<path d="M185.2 232.8C185.7 232.2 186.7 230.6 187.4 230C188 230.8 188.1 231.7 188.2 232.6C188.4 232.3 189.6 231.8 189.8 231.6C190 231.9 190.5 232.1 190.8 232.5C191.5 232 192.6 231.8 193.2 231.1C193.5 231.5 194.6 232.3 194.8 232.8C195.1 232.4 195.6 232.1 195.8 231.6C195.8 232.3 195.9 233.1 196 233.8C199.1 229.1 198.8 229.7 202.9 225.2C202.1 228.7 202.8 227.9 203.6 232.2C205.2 231.7 205 230.4 204.8 229.3C206.8 230.3 207.8 232.1 208.8 233.6C210.8 232.4 209.5 229.9 209.1 228.3C213 230.3 216.7 234.1 215.7 237.6H182C182.5 235.7 184.2 234 185.2 232.8Z" fill="#A0961D"/>
<path d="M278.7 57.9C272.7 61.9 270.5 54.5 270.5 54.5C270.5 54.5 263.1 59.9 258.6 55.2C254.1 50.5 256.7 42.8 256.7 42.8C256.7 42.8 250.1 40.2 252.3 33.7C254.5 27.2 257 26.4 257 26.4C257 26.4 253.9 20.7 258.9 16.1C264 11.5 267.7 14.1 267.7 14.1C267.7 14.1 266.6 7.30001 270.2 6.80001C273.8 6.30001 276 8.3 276 8.3C276 8.3 275.4 0.700005 283.5 -0.099995C289.8 -0.699995 290.9 6.30001 290.9 6.30001C290.9 6.30001 293.4 1.4 297 6.20001C300.6 11 299.1 14 299.1 14C299.1 14 302.3 14.3 303.8 20C305.2 25.8 302.8 27.3 302.8 27.3C302.8 27.3 308.1 30 307.2 34.3C306.3 38.6 301.4 39.2 301.4 39.2C301.4 39.2 305.6 45.2 304.1 48.3C302.7 51.4 298.4 51.1 298.4 51.1C298.4 51.1 298.8 58.3 295.2 58.7C291.6 59 289.7 56.1 289.7 56.1C289.7 56.1 288.9 59.3 286.2 59.9C283.4 60.6 278.7 57.9 278.7 57.9Z" fill="#773728"/>
<path d="M302.8 27.3C302.8 27.3 304.2 26.4 304.3 23.5C300.7 27.2 295.6 29.5 289.9 29.5C278.9 29.5 270.1 20.9 270.1 10.3C270.1 9.10002 270.2 8.00002 270.4 6.90002C270.3 6.90002 270.3 6.90002 270.2 6.90002C266.6 7.40002 267.7 14.2 267.7 14.2C267.7 14.2 264 11.6 258.9 16.2C253.8 20.8 257 26.5 257 26.5C257 26.5 254.5 27.3 252.3 33.8C250.1 40.3 256.7 42.9 256.7 42.9C256.7 42.9 254.1 50.5 258.6 55.3C263.1 60 270.5 54.6 270.5 54.6C270.5 54.6 272.7 62 278.7 58C278.7 58 283.4 60.7 286.1 60C288.8 59.3 289.6 56.2 289.6 56.2C289.6 56.2 291.4 59.2 295.1 58.8C298.7 58.5 298.3 51.2 298.3 51.2C298.3 51.2 302.6 51.5 304 48.4C305.4 45.3 301.3 39.3 301.3 39.3C301.3 39.3 306.2 38.7 307.1 34.4C308.1 30.1 302.8 27.3 302.8 27.3Z" fill="#5B261B"/>
<path d="M282.9 28.8C275.1 44 268.7 39.6 267.4 49.7C267.1 51.9 267.7 54 268.1 56C269.6 55.3 270.5 54.6 270.5 54.6C270.5 54.6 272.7 62 278.7 58C278.7 58 283.4 60.7 286.1 60C288.8 59.3 289.6 56.2 289.6 56.2C289.6 56.2 291.4 59.2 295.1 58.8C296.2 58.7 297 57.9 297.5 56.9C298 55.1 298.3 53.2 298.4 51.3V51.2C298.4 50.7 298.4 50.2 298.4 49.7C298.4 38.2 286.8 21.2 282.9 28.8Z" fill="#441B15"/>
<path d="M304.6 102.2L273.2 112.4C262 134.2 280.6 194 291.6 233.6L293.7 233.4C317.9 123.2 314.2 122.3 304.6 102.2Z" fill="#DD4B75"/>
<path d="M300.7 133.7C291.5 137.9 282 135.1 282 135.1L290.6 140.3L292.4 234.1L293 233.9L293.2 140.5L300.7 133.7Z" fill="#BA315F"/>
<path d="M278 120.8L308.6 110.9C307.5 108.2 306.1 105.5 304.6 102.3L273.2 112.5C262 134.3 280.6 194.1 291.6 233.7L292.4 233.6C292.5 233.3 267.7 140.9 278 120.8Z" fill="#BA315F"/>
<path d="M293.8 237.1H278.8C278.8 237.1 287.9 232.2 290.6 231.7C293.2 231.3 293.8 237.1 293.8 237.1Z" fill="#E2C9A6"/>
<path d="M291.5 237.1H304.7C304.7 237.1 296.7 232.2 294.3 231.7C292 231.3 291.5 237.1 291.5 237.1Z" fill="#E2C9A6"/>
<path d="M288.5 52.3C297 53.9 311.4 68.1 315.1 75.7C317.1 79.7 311.7 81.7 308.7 79.2C305.7 76.7 293.7 64.3 291.1 63.9L288.5 52.3Z" fill="#FFB14A"/>
<path d="M300.7 104.6C304.9 75.5 327.6 67.6 327.6 67.6L306.8 53.3C306.8 53.3 291.7 71.8 289.6 89.6C287.4 107.4 300.7 104.6 300.7 104.6Z" fill="#B6BF3C"/>
<path d="M300.7 78.4C299.2 74.1 298.4 69.9 298.3 65.9C294.4 72.6 290.5 81.2 289.5 89.7C287.4 107.5 300.7 104.7 300.7 104.7C301.6 98.3 303.4 93 305.7 88.5C303.7 85.5 302 82.1 300.7 78.4Z" fill="#A2A52B"/>
<path d="M297.1 102.5C301.8 81.5 319.4 68.1 319.4 68.1C319.4 68.1 307.6 74.9 303.2 84.2C298.8 93.5 297.1 102.5 297.1 102.5Z" fill="#A2A52B"/>
<path d="M297.4 91.4C301 75.6 314.6 65.5 314.6 65.5C314.6 65.5 305.5 70.6 302.1 77.7C298.7 84.8 297.4 91.4 297.4 91.4Z" fill="#A2A52B"/>
<path d="M296 87.5C298.2 71.4 310.9 60.2 310.9 60.2C310.9 60.2 302.3 66.1 299.5 73.4C296.8 80.7 296 87.5 296 87.5Z" fill="#A2A52B"/>
<path d="M306.8 53.3C306.8 53.3 291.7 71.8 289.6 89.6C289.5 90.7 289.4 91.7 289.4 92.6C289.7 91.3 290 90 290.4 88.6C294.1 75.1 300.9 65.3 305.6 66.6C309 67.5 310.3 73.9 309.5 82.4C317.5 71.2 327.7 67.7 327.7 67.7L306.8 53.3Z" fill="#A2A52B"/>
<path d="M274.3 53.6C267.1 58.2 258.9 76.8 258.2 85.2C257.9 89.7 263.6 89.5 265.4 86.1C267.3 82.7 273.8 66.7 276 65.3L274.3 53.6Z" fill="#FFB14A"/>
<path d="M279.2 110.8C270 82.8 245.6 79 245.6 79L264.2 61.2C264.2 61.2 282.7 76.8 287.8 94C293.1 111.2 279.2 110.8 279.2 110.8Z" fill="#B6BF3C"/>
<path d="M287.9 94C284.8 83.7 276.9 74 271.1 67.9C271.2 69.2 271.2 70.7 271.2 72.1C271.2 79.7 268.8 80.9 267.3 81.3C263.6 82.5 258.7 75 270.1 66.8C268.7 65.5 264.2 61.2 264.2 61.2L245.6 79C245.6 79 269.9 82.8 279.1 110.7C279.2 110.8 293.1 111.2 287.9 94Z" fill="#A2A52B"/>
<path d="M253.8 74C268.2 78.3 276.7 91.3 276.7 91.3C276.7 91.3 272.6 82.7 266.2 79.2C259.8 75.7 253.8 74 253.8 74Z" fill="#A2A52B"/>
<path d="M258 67.3C271.4 74.2 277.3 88.6 277.3 88.6C277.3 88.6 274.8 79.4 269.3 74.7C263.8 70 258 67.3 258 67.3Z" fill="#A2A52B"/>
<path d="M280.6 83.3C273.5 103.6 270.4 114.8 271 117.3C271.8 120.7 306.4 111 307.9 109.1C309.5 107.3 294.6 79.1 294.6 79.1L280.6 83.3Z" fill="#FFD066"/>
<path d="M294.5 79.1L280.5 83.3C273.4 103.6 270.3 114.8 270.9 117.3C271.1 118.2 273.4 118.2 276.8 117.7C276.6 116.3 276.4 114.8 276.4 113.3C276.4 102.2 282.8 93.2 290.6 93.2C297.3 93.2 304.6 100.7 306.5 109.9C307.2 109.6 307.7 109.3 307.8 109.2C309.5 107.3 294.5 79.1 294.5 79.1Z" fill="#FFB14A"/>
<path d="M273.3 55.1C272.1 65.4 271.4 80.6 275 83.6C278.6 86.6 302.8 84 304 80.9C305.2 77.9 294.3 55.8 290.9 53.2C287.5 50.5 273.8 51.1 273.3 55.1Z" fill="#FFD066"/>
<path d="M275 53.1L284.8 59.4L288.9 52.3C285.1 51.1 278.2 51.4 275 53.1Z" fill="#DD4B75"/>
<path d="M302.5 74.5C303.2 76.7 303.5 78.4 303.3 79.1C302.2 82.1 279 85.4 275.7 82.4C272.4 79.4 272.6 61.6 272.3 65.2C271.6 73.6 271.6 82.1 274.1 84.3C277.7 87.3 302.9 84 304 81C304.3 80.1 303.7 77.6 302.5 74.5Z" fill="#FFB14A"/>
<path d="M278.3 52C278 45.1 278.4 32.4 278.4 32.4L285.6 34.5C285.6 34.5 285.2 45.4 285.9 51.7L284 55.1L278.3 52Z" fill="#FFB882"/>
<path d="M338 59C338.6 58.2 339.4 57.4 339.3 56.4C339.2 54.4 337.5 52.1 336 51.7C335.4 51.6 334.8 51.6 334.3 51.8C334.4 49.3 332 47.1 329.6 47.3C328.9 45.9 326.9 45.5 325.8 46.4C326.3 45.1 325.5 43.8 324.8 42.7C324.3 42 323.8 41.3 323 41C322.2 40.7 321.1 41.1 321 42C320.1 41.8 319 41.9 318.2 42.4C317.9 41.5 316.2 41.5 315.9 42.4C315.5 39.3 311.9 37 308.9 37.9C305.9 38.8 304.2 42.7 305.6 45.5C305 45.7 304.6 46.4 304.9 47C304.3 47.1 303.9 47.8 304 48.4C304 49 304.4 49.5 304.7 50.1C303 49.5 301 50.1 300 51.6C297.7 55 301.6 57.5 304.6 57.9C306.1 58.1 307.8 57.3 309.3 57.8C310.3 58.1 310.4 58.7 311.6 58.7C311.7 58.7 313.6 58 313.6 58.1C313.5 60.6 315.7 62.5 317.9 63.6C318.5 63.9 319.2 64.2 319.7 63.8C320.3 65.5 319.6 67.3 319.6 69C319.6 71.5 321.2 74.1 323.6 74.8C326 75.5 328.9 73.9 329.4 71.4C331.2 73.5 335.1 73.4 336.7 71.2C337.1 70.7 337.4 70.1 337.6 69.6C337.8 69.2 338 68.8 338.2 68.4C338.4 67.9 338.7 67.4 338.8 66.9C339.3 65.2 338.7 63.1 337.4 61.9C336.8 60.9 337.3 59.8 338 59Z" fill="#CED13F"/>
<path d="M338.4 58.5C337.4 58.5 336.4 58.5 335.4 58.3C333.9 58.1 332.1 57.5 331.7 56C331.4 54.8 332.2 53.5 331.8 52.4C331.5 51.6 331.1 51.2 331.4 50.3C331.6 49.6 332.2 49 332.5 48.3C331.5 47.9 331.2 49.4 331 50C330.7 51 330.2 51.8 329.3 52.4C328.4 53 327.3 53.4 326.3 53.8C325.7 53.6 325 53.4 324.5 53C324 52.5 324.1 51.5 324.8 51.4C323.4 51.1 322.5 49.5 322.9 48.1C323 47.8 323.2 47.4 323.2 47.1C323.2 46.5 322.9 46 322.8 45.4C322.7 44.3 323.6 43.4 324.5 42.9C324.6 42.8 324.7 42.8 324.8 42.7C324.5 42.3 324.3 41.9 323.9 41.6C323 42.1 322 42.5 321.1 42.8C320.7 42.9 320.2 43.1 320.1 43.6C320 44 320.7 44.4 320.8 44C321.2 44.6 320.6 45.3 320 45.7C319.4 46.1 318.6 46.4 318.6 47.1C318.5 47.9 318.9 48.7 319.6 49C318.7 50 317.6 51 316.5 51.7C317.8 52 319.1 51.9 320.4 51.4C320.5 51.6 320.4 51.9 320.2 52.1C319.7 52.7 319.1 53.1 318.5 53.5C323.1 54.1 327 56.1 329.1 58.8C330 59.2 330.9 59.5 331.8 59.8C332.4 60 333 60.2 333.5 60.4C334.5 60.7 335.6 61.1 336.7 61.2C336.9 61.2 337 61.2 337.2 61.2C337.1 60.5 337.5 59.6 338 59C338.1 58.8 338.2 58.7 338.4 58.5Z" fill="#B6BF3C"/>
<path d="M310.3 53.8C309.7 54 309.1 54 308.6 53.9C307.1 53.5 305.4 51.2 305.3 49.2C305.3 48.2 306 47.4 306.6 46.6C307.2 45.8 307.8 44.7 307.3 43.9C306.4 43.1 305.8 41.9 305.7 40.6C304.9 42.1 304.8 43.9 305.5 45.4C304.9 45.6 304.5 46.3 304.8 46.9C304.2 47 303.8 47.7 303.9 48.3C303.9 48.9 304.3 49.4 304.6 50C302.9 49.4 300.9 50 299.9 51.5C297.6 54.9 301.5 57.4 304.5 57.8C306 58 307.7 57.2 309.2 57.7C310.2 58 310.3 58.6 311.5 58.6C311.6 58.6 312.6 58.2 313.1 58.1C311.5 57.3 310.2 55.6 310.3 53.8Z" fill="#B6BF3C"/>
<path d="M331.5 47.6C331.4 47.5 331.3 47.5 331.1 47.5C331.1 47.6 331.1 47.6 331.1 47.7C331.1 47.6 331.3 47.6 331.5 47.6Z" fill="#B6BF3C"/>
<path d="M335.8 67.8C332.8 68.7 329.2 66.4 328.8 63.2999C328.5 64.1999 326.8 64.2999 326.5 63.2999C325.6 63.7999 324.6 63.9 323.7 63.7C323.6 64.5 322.5 64.9999 321.7 64.6999C320.9 64.3999 320.4 63.7 319.9 63C319.2 61.9 318.4 60.4999 318.9 59.2999C317.7 60.1999 315.7 59.8 315.1 58.4C314.6 58.4 314.1 58.4 313.6 58.2C313.6 60.6 315.8 62.4999 317.9 63.5999C318.5 63.8999 319.2 64.1999 319.7 63.7999C320.3 65.4999 319.6 67.3 319.6 69C319.6 71.5 321.2 74.1 323.6 74.8C326 75.5 328.9 73.9 329.4 71.4C331.2 73.5 335.1 73.3999 336.7 71.1999C337.1 70.6999 337.4 70.0999 337.6 69.5999C337.8 69.1999 338 68.8 338.2 68.4C338.4 67.9 338.7 67.4 338.8 66.9C339 66.3 339 65.7999 338.9 65.1999C338.3 66.2999 337.2 67.3 335.8 67.8Z" fill="#B6BF3C"/>
<path d="M258.2 84.3C260.4 80.7 263.3 81.3 264.3 82.7C265.1 83.8 267.5 86.1 265.3 88.8C262.8 92 255.5 88.8 258.2 84.3Z" fill="#FFD066"/>
<path d="M311.6 82.1C308.7 80.9 309.4 75.7 310.6 74.8C312.9 73 314.8 72.7 317.3 75C320.7 78.1 317.4 84.5 311.6 82.1Z" fill="#FFD066"/>
<path d="M317.3 75C317.3 75 317.3 74.9 317.3 75C316.9 77.6 314.1 80 310.2 78.3C310 78.2 309.8 78.1 309.6 77.9C309.6 79.6 310.1 81.4 311.6 82.1C317.4 84.5 320.7 78.1 317.3 75Z" fill="#FFB14A"/>
<path d="M235.6 71.6C234.8 70.8 233.8 69.9 233.6 68.7C233.2 66.5 234.5 63.7 235.9 63.2C236.4 63 237.1 63 237.7 63.2C237 60.4 238.9 57.7 241.5 57.8C241.9 56.2 243.8 55.6 245.2 56.6C244.4 55.2 244.9 53.6 245.4 52.3C245.7 51.5 246.1 50.6 246.8 50.3C247.5 49.9 248.8 50.3 249 51.3C249.9 51 251 51.1 252 51.6C252.1 50.5 253.8 50.4 254.4 51.5C254.1 47.9 257.3 45.2 260.5 46C263.8 46.8 266.4 51.1 265.7 54.4C266.4 54.5 266.9 55.4 266.8 56.1C267.4 56.2 268 56.9 268.1 57.6C268.2 58.3 268 58.9 267.7 59.5C269.3 58.7 271.7 65.5 266.2 66C265.2 66.1 267.1 68.6 262.6 69.6C262.5 69.6 260.4 68.9 260.4 69.1C261.1 71.9 259.3 74.2 257.2 75.6C256.7 76 256 76.3 255.4 75.9C255.1 77.8 256.3 79.8 256.7 81.8C257.3 84.6 256.2 87.6 253.9 88.6C251.6 89.5 248.2 87.9 247.2 85.1C245.8 87.6 241.9 87.7 239.6 85.3C239.1 84.8 238.7 84.1 238.3 83.5C238 83.1 237.7 82.6 237.4 82.2C237 81.6 236.7 81.1 236.4 80.5C235.5 78.6 235.6 76.3 236.7 74.8C237.2 73.7 236.4 72.5 235.6 71.6Z" fill="#CED13F"/>
<path d="M267.7 59.4C267.9 58.8 268.2 58.2 268.1 57.5C268 56.8 267.5 56.1 266.8 56C266.9 55.3 266.4 54.5 265.7 54.3C265.8 53.8 265.8 53.3 265.8 52.8C265.5 53.4 265.1 54 264.6 54.3C264.1 55.1 264.5 56.3 265 57.2C265.5 58.1 266.1 59.1 266 60.1C265.8 62.1 264.1 64.1 262.8 64.2C262.3 64.2 261.8 64.1 261.3 63.8C261.2 66.3 259 68.1 256.9 67.5C256.2 68.7 254.4 68.8 253.5 67.7C253.8 69.1 253.1 70.3 252.3 71.3C251.8 71.9 251.3 72.5 250.6 72.7C249.9 72.8 249 72.2 249 71.4C248.2 71.4 247.3 71.1 246.6 70.5C246.2 71.4 244.8 71.1 244.6 70.1C244 73.1 240.7 74.8 238.2 73.3C235.6 71.8 234.4 67.6 235.8 65C235.5 64.8 235.3 64.5 235.2 64.1C234.2 65.2 233.4 67.3 233.7 69.1C233.9 70.2 234.9 71.1 235.7 72C236.5 72.8 237.3 74 237 75.1C235.9 76.5 235.7 78.9 236.7 80.8C237 81.4 237.3 82 237.7 82.5C238 82.9 238.3 83.4 238.6 83.8C239 84.4 239.4 85.1 239.9 85.6C242.2 88 246.1 87.9 247.5 85.4C248.5 88.2 251.9 89.8 254.2 88.9C256.5 88 257.6 85 257 82.1C256.6 80.1 255.4 78.1 255.7 76.2C256.3 76.6 257 76.2 257.5 75.9C259.5 74.5 261.4 72.2 260.7 69.4C260.7 69.2 262.7 69.9 262.9 69.9C267.4 68.9 265.5 66.4 266.5 66.3C271.7 65.4 269.3 58.6 267.7 59.4Z" fill="#B6BF3C"/>
<path d="M294.722 114.867L288.061 116.233L288.663 119.171L295.325 117.805L294.722 114.867Z" fill="#FFD9AB"/>
<g opacity="0.6">
<path d="M292.4 65.1C295.2 63.3 297.1 60.5 298 57.2C295.3 55.2 292.6 53.6 290.2 52.8C289.2 52.3 287.7 51.9 286 51.7C285.3 45.3 285.7 34.5 285.7 34.5L278.5 32.4C278.5 32.4 278 45.1 278.4 52C277.1 52.3 275.9 52.6 275.1 53.1C274.8 53.2 274.6 53.4 274.4 53.6C272.9 54.5 271.5 56 270 57.9C275.7 66.1 285.5 69.4 292.4 65.1Z" fill="#843131"/>
</g>
<path d="M276.8 32.6C276.9 41 279.7 49.3 289 51.3C292.2 48.4 296.9 43.6 297.7 36.5C298.5 29 299.8 18.7 293 16.8C286.8 15.1 276.7 21.6 276.8 32.6Z" fill="#FFB882"/>
<path d="M272.6 33.2C272.8 37.1 276.1 40.2 276.2 36.2C276.3 32.2 274.9 29.2 273.5 30C272.9 30.3 272.6 33.2 272.6 33.2Z" fill="#FFB882"/>
<path d="M273.2 33.2C273.3 35.6 275.4 37.6 275.4 35.1C275.4 32.6 274.6 30.7 273.7 31.2C273.4 31.4 273.2 33.2 273.2 33.2Z" fill="#D3583C"/>
<path d="M273.9 34.8C274 36.6 275.5 38 275.6 36.2C275.6 34.4 275 33 274.3 33.3C274 33.4 273.9 34.8 273.9 34.8Z" fill="#FFB882"/>
<path d="M259.4 82.8C259 83.2 258.6 83.7 258.2 84.4C255.5 88.9 262.8 92.1 265.3 88.9C265.9 88.2 266.1 87.5 266.2 86.9C263.5 88.4 258.7 86.2 259.4 82.8Z" fill="#FFB14A"/>
<path d="M271.2 224C271.2 223.2 270.8 222.6 270.3 222.6C269.8 222.6 269.5 223.2 269.5 224C269.5 224.8 269.9 225.4 270.4 225.4C270.9 225.4 271.2 224.8 271.2 224Z" fill="#772A24"/>
<path d="M271.2 216.3C271.2 215.5 270.8 214.9 270.3 214.9C269.8 214.9 269.5 215.5 269.5 216.3C269.5 217.1 269.9 217.7 270.4 217.7C270.9 217.7 271.3 217.1 271.2 216.3Z" fill="#772A24"/>
<path d="M271.3 208.6C271.3 207.8 270.9 207.2 270.4 207.2C269.9 207.2 269.6 207.8 269.6 208.6C269.6 209.4 270 210 270.5 210C271 210 271.4 209.4 271.3 208.6Z" fill="#772A24"/>
<path d="M271.4 200.9C271.4 200.1 271 199.5 270.5 199.5C270 199.5 269.7 200.1 269.7 200.9C269.7 201.7 270.1 202.3 270.6 202.3C271.1 202.3 271.4 201.7 271.4 200.9Z" fill="#772A24"/>
<path d="M271.5 193.2C271.5 192.4 271.1 191.8 270.6 191.8C270.1 191.8 269.8 192.4 269.8 193.2C269.8 194 270.2 194.6 270.7 194.6C271.2 194.6 271.5 193.9 271.5 193.2Z" fill="#772A24"/>
<path d="M266.6 225C266.5 224.2 266.1 223.6 265.6 223.6C265.1 223.6 264.8 224.2 264.9 225C265 225.8 265.4 226.4 265.9 226.4C266.3 226.4 266.7 225.8 266.6 225Z" fill="#772A24"/>
<path d="M266.4 217.1C266.3 216.3 265.9 215.7 265.4 215.7C264.9 215.7 264.6 216.3 264.7 217.1C264.8 217.9 265.2 218.5 265.7 218.5C266.1 218.5 266.5 217.9 266.4 217.1Z" fill="#772A24"/>
<path d="M266.2 209.3C266.1 208.5 265.7 207.9 265.2 207.9C264.7 207.9 264.4 208.5 264.5 209.3C264.6 210.1 265 210.7 265.5 210.7C266 210.7 266.3 210.1 266.2 209.3Z" fill="#772A24"/>
<path d="M266 201.4C265.9 200.6 265.5 200 265 200C264.5 200 264.2 200.6 264.3 201.4C264.4 202.2 264.8 202.8 265.3 202.8C265.8 202.8 266.1 202.2 266 201.4Z" fill="#772A24"/>
<path d="M265.8 193.6C265.7 192.8 265.3 192.2 264.8 192.2C264.3 192.2 264 192.8 264.1 193.6C264.2 194.4 264.6 195 265.1 195C265.6 195 265.9 194.4 265.8 193.6Z" fill="#772A24"/>
<path d="M225.2 225.8C225.2 225 224.8 224.4 224.3 224.4C223.8 224.4 223.5 225 223.5 225.8C223.5 226.6 223.9 227.2 224.4 227.2C224.9 227.2 225.2 226.6 225.2 225.8Z" fill="#772A24"/>
<path d="M225.3 218.1C225.3 217.3 224.9 216.7 224.4 216.7C223.9 216.7 223.6 217.3 223.6 218.1C223.6 218.9 224 219.5 224.5 219.5C225 219.5 225.3 218.9 225.3 218.1Z" fill="#772A24"/>
<path d="M225.3 210.4C225.3 209.6 224.9 209 224.4 209C223.9 209 223.6 209.6 223.6 210.4C223.6 211.2 224 211.8 224.5 211.8C225 211.8 225.4 211.2 225.3 210.4Z" fill="#772A24"/>
<path d="M225.4 202.7C225.4 201.9 225 201.3 224.5 201.3C224 201.3 223.7 201.9 223.7 202.7C223.7 203.5 224.1 204.1 224.6 204.1C225.1 204.1 225.5 203.5 225.4 202.7Z" fill="#772A24"/>
<path d="M225.5 195C225.5 194.2 225.1 193.6 224.6 193.6C224.1 193.6 223.8 194.2 223.8 195C223.8 195.8 224.2 196.4 224.7 196.4C225.2 196.4 225.5 195.7 225.5 195Z" fill="#772A24"/>
<path d="M295.5 32.4C295.5 30.9 294.8 29.7 293.9 29.7C293 29.7 292.3 30.9 292.2 32.4C292.2 33.9 292.9 35.1 293.8 35.1C294.8 35 295.5 33.8 295.5 32.4Z" fill="#66423B"/>
<path d="M286.6 32.2C286.7 30.4 285.9 28.9 284.9 28.9C283.9 28.8 283 30.2 282.9 32C282.8 33.8 283.6 35.3 284.6 35.3C285.7 35.3 286.6 33.9 286.6 32.2Z" fill="#66423B"/>
<path d="M281.3 31.3C281.3 31.3 284.5 29 287.3 29.7C287.3 29.7 286.6 28.3 284.5 28.5C282.5 28.8 281.3 31.3 281.3 31.3Z" fill="#66423B"/>
<path d="M296.7 31.1C296.7 31.1 294 29.2 291.6 29.8C291.6 29.8 292.2 28.5 294 28.7C295.8 29 296.7 31.1 296.7 31.1Z" fill="#66423B"/>
<path d="M280.6 28L280.5 27.6C281.6 25.3 284.3 23.9 285.8 23.7L286 25C284.7 24.9 281.9 26 280.6 28Z" fill="#773728"/>
<path d="M297.1 27.9C295.6 25.6 292.7 25 291.9 25.1L292 23.8C292.8 23.8 295.6 24.6 297.3 27.5L297.1 27.9Z" fill="#773728"/>
<path d="M291.6 37.1V37.2C291.3 38.1 290.3 38.6 289.3 38.3C288.7 38.1 288.3 37.6 288.1 37.1C287.9 38 288.4 39 289.3 39.3C290.3 39.6 291.3 39.2 291.6 38.2C291.7 37.9 291.7 37.5 291.6 37.1Z" fill="#EA7B59"/>
<path d="M285.8 42.2L292 42.3C292 42.3 291.2 45.4 288.7 45.3C286.2 45.2 285.8 42.2 285.8 42.2Z" fill="#491D2E"/>
<path d="M286.2 42.3L291.5 42.4C291.5 42.4 291.8 43.8 288.8 43.8C285.6 43.8 286.2 42.3 286.2 42.3Z" fill="#FFEBEB"/>
<path d="M290 46.3C290 45.9 289.5 46.3 288.8 46.3C288.1 46.3 287.6 45.9 287.6 46.3C287.6 46.7 288.1 47 288.7 47C289.4 47 290 46.7 290 46.3Z" fill="#EF8F6F"/>
<path d="M312.2 75.4C310.8 73.8 310 73.3 309.7 72.9C309.4 72.5 308.3 71.3 308.5 70.6C308.7 70 311.3 68.3 311.7 69C312.2 69.7 312.2 72.3 312.8 74.8C313.3 76.3 312.2 75.4 312.2 75.4Z" fill="#FFB882"/>
<path d="M309.2 71.9C308.3 70.8 305.5 67.9 305.5 67.5C305.6 67 309.8 70.7 309.8 70.7L309.2 71.9Z" fill="#FFB882"/>
<path d="M312.5 73.8C312.8 72 314.7 69.3 314.4 69C314.1 68.6 311.3 72.2 311.3 72.2L312.5 73.8Z" fill="#FFB882"/>
<path d="M309.9 70.7C309.3 69.4 307.4 65.7 307.6 65.2C307.8 64.7 310.9 69.5 310.9 69.5L309.9 70.7Z" fill="#FFB882"/>
<path d="M310.7 71.1C310.7 69.8 310.4 65.6 310.8 65.2C311.2 64.7 312.1 70.2 312.1 70.2L310.7 71.1Z" fill="#FFB882"/>
<path d="M315.4 73.5C314.9 72.7 313.3 72.6 311.8 73.5C310.3 74.3 309.4 75.7 309.9 76.5C310.4 77.3 312 77.4 313.5 76.5C315.1 75.7 315.9 74.4 315.4 73.5Z" fill="#FFD9AB"/>
<path d="M263 84.4C264.7 83.2 265.6 82.9 266 82.5C266.4 82.2 267.8 81.3 267.7 80.6C267.6 79.9 265.6 77.7 265 78.3C264.4 78.9 263.7 81.4 262.5 83.6C261.7 85 263 84.4 263 84.4Z" fill="#FFB882"/>
<path d="M266.7 81.8C267.8 81 271.3 78.9 271.3 78.4C271.3 77.9 266.4 80.5 266.4 80.5L266.7 81.8Z" fill="#FFB882"/>
<path d="M263.2 82.8C263.4 80.9 262.2 77.9 262.6 77.7C263 77.4 264.8 81.6 264.8 81.6L263.2 82.8Z" fill="#FFB882"/>
<path d="M266.4 80.5C267.3 79.4 270.1 76.3 270 75.8C269.9 75.3 265.7 79.1 265.7 79.1L266.4 80.5Z" fill="#FFB882"/>
<path d="M265.5 80.6C265.8 79.3 267.2 75.4 266.9 74.8C266.6 74.2 264.4 79.3 264.4 79.3L265.5 80.6Z" fill="#FFB882"/>
<path d="M265.5 86.1C266.1 85.3 265.4 83.9 264 82.8C262.6 81.8 261 81.6 260.5 82.3C259.9 83.1 260.6 84.5 262 85.6C263.3 86.7 264.9 86.9 265.5 86.1Z" fill="#FFD9AB"/>
<path d="M383.3 165.8C382.5 166.4 380 180.1 380.5 183C381.3 187.2 384.2 186.2 384.1 182.1C384 176.6 384.9 164.5 383.3 165.8Z" fill="#FF9566"/>
<path d="M389.7 146C381.2 142 384.9 137.4 384.9 137.4C384.9 137.4 378 131 384.2 125.8C390.4 120.6 396.7 122.5 398.2 124.8C398.2 124.8 401.2 119.3 410.4 122.1C419.5 124.9 418 133 418 133C418 133 423.2 130.1 425.1 137.1C427 144.1 424.5 147.2 424.5 147.2C424.5 147.2 428.7 155.1 425.5 158.1C422.3 161.1 420.8 159.9 420.8 159.9C420.8 159.9 423.2 169.1 417.9 170.4C412.6 171.7 411.7 169.1 411.7 169.1C411.7 169.1 404.8 180.6 395.2 177.2C385.6 173.8 387.3 166.4 387.3 166.4C387.3 166.4 380.6 165.8 381.7 156.4C382.9 147.2 389.7 146 389.7 146Z" fill="#8E4632"/>
<path d="M424.5 147.2C424.5 147.2 426.9 144.2 425.1 137.1C423.2 130.1 418 133 418 133C418 133 418.4 130.8 417.5 128.3C417.5 128.5 417.5 128.7 417.5 128.9C417.5 138.2 408.9 129.7 400.6 133.1C397 134.6 388.9 144.9 385.8 143.4C386.7 144.2 387.9 145.1 389.6 145.9C389.6 145.9 382.9 147.1 381.7 156.4C380.6 165.7 387.3 166.4 387.3 166.4C387.3 166.4 385.6 173.8 395.2 177.2C404.8 180.6 411.7 169.1 411.7 169.1C411.7 169.1 412.6 171.8 417.9 170.4C423.2 169.1 420.8 159.9 420.8 159.9C420.8 159.9 422.3 161.1 425.5 158.1C428.7 155.1 424.5 147.2 424.5 147.2Z" fill="#773223"/>
<path d="M402.7 145.1C394.9 145.1 388.2 156.3 386.6 166.3C387.1 166.4 387.3 166.5 387.3 166.5C387.3 166.5 385.6 173.9 395.2 177.3C404.8 180.7 411.7 169.2 411.7 169.2C411.7 169.2 412.6 171.9 417.9 170.5C418.1 170.4 418.4 170.4 418.6 170.3C407.1 164.9 411.4 145.1 402.7 145.1Z" fill="#63261C"/>
<path d="M398.4 189.5L390.3 190.3C390.3 190.3 393.1 214.6 399.6 234.8H400.3L398.4 189.5Z" fill="#FFB882"/>
<path d="M390.9 191.3L382.9 192.1C382.9 192.1 388.8 215.4 397.9 234.8H398.6L390.9 191.3Z" fill="#FFB882"/>
<path d="M393.9 225.4C395.6 223.8 397.6 222.7 399.8 222.5L398.4 189.6L390.3 190.4C390.3 190.4 390.3 190.8 390.4 191.4L382.9 192.1C382.9 192.1 387.1 208.6 393.9 225.4Z" fill="#FF9566"/>
<path d="M365.5 209.1C382.8 223.4 400.4 216.7 406.6 211C406.6 211 399 192.9 402.3 181.9C406 169.2 402.2 165.9 398.6 164.9C390.8 162.7 369.4 178.5 365.5 209.1Z" fill="#678FC9"/>
<path d="M402.8 168.2C401.8 166.3 400.2 165.4 398.6 165C397.5 164.7 396.1 164.7 394.5 165.1C394 166.5 393.6 168.3 393.7 170.3C393.7 170.3 399 168.8 402.8 168.2Z" fill="#CCE6ED"/>
<path d="M393.7 180.7C390.4 192.9 392 198.5 394.1 216.9C402.5 215.7 405.3 212.2 406.7 211C406.7 211 399.1 192.9 402.4 181.9C403.7 177.5 404.1 174.2 403.9 171.8C403.4 167.2 396.5 170.4 393.7 180.7Z" fill="#4A74A5"/>
<path d="M399.3 236.3H404.2C404.2 236.3 401.7 233.3 400.3 233.4C399 233.5 399.3 236.3 399.3 236.3Z" fill="#FFECBD"/>
<path d="M399.6 236.3H391.8C391.8 236.3 396.2 233.3 397.8 233.4C399.4 233.6 399.6 236.3 399.6 236.3Z" fill="#FFECBD"/>
<path d="M395.8 164.9L397.3 161L402.6 159.8L401.4 166.5L395.4 167.6L395.8 164.9Z" fill="#FFB882"/>
<path d="M402.7 173C402.2 176.2 396 182.6 393.1 184.6C389.2 187.3 387 184 390.1 181C394.7 176.5 403.8 165.3 402.7 173Z" fill="#FFB882"/>
<path d="M402.1 170.4C402.1 170.8 402.1 171.3 402 171.9C401.5 175.1 395.3 181.5 392.4 183.5C390.8 184.6 389.4 184.7 388.7 184.2C388.9 185.7 390.7 186.3 393.1 184.6C395.9 182.6 402.2 176.2 402.7 173C402.9 171.3 402.7 170.5 402.1 170.4Z" fill="#FF9566"/>
<path opacity="0.6" d="M389.6 175.6C395.2 177 396.7 171.9 403.7 171C403.5 169.5 403 168.4 402.4 167.5C402.4 167.5 402.4 167.5 402.4 167.4C402.3 167.2 402.1 167 402 166.9C402 166.9 402 166.9 401.9 166.8C401.8 166.6 401.6 166.5 401.5 166.4C401.5 166.4 401.5 166.4 401.4 166.4L402.6 159.8L397.2 161L395.8 164.8H395.7C395.7 164.8 395.7 164.8 395.6 164.8C395.2 164.9 394.9 164.9 394.5 165C391.9 165.7 388.7 167.4 385.4 170C385.5 172.8 387 175 389.6 175.6Z" fill="#843131"/>
<path d="M383.2 168.4C382.9 166.3 382.5 165.4 382.5 164.9C382.5 164.4 382.2 162.7 382.8 162.3C383.4 161.9 386.4 161.8 386.4 162.7C386.4 163.6 385 165.8 384.2 168.2C383.7 169.9 383.2 168.4 383.2 168.4Z" fill="#FF9566"/>
<path d="M382.6 163.8C382.4 162.4 381.6 158.3 381.9 158C382.2 157.7 383.8 163.1 383.8 163.1L382.6 163.8Z" fill="#FF9566"/>
<path d="M384.3 167.2C385.6 165.8 388.6 164.6 388.6 164.1C388.5 163.6 384.2 165.1 384.2 165.1L384.3 167.2Z" fill="#FF9566"/>
<path d="M383.9 163.2C384.1 161.8 384.5 157.6 385 157.3C385.5 157 385.4 162.8 385.4 162.8L383.9 163.2Z" fill="#FF9566"/>
<path d="M384.3 164C385.1 162.9 387.1 159.2 387.7 159C388.3 158.8 386 164 386 164H384.3Z" fill="#FF9566"/>
<path d="M409.4 154.4C408.4 144.8 408.9 136.8 400.3 134.4C391.7 132 384.6 137.2 382.3 145.1C380.1 153 382.9 161.6 391.5 164C400.2 166.5 410.3 162.6 409.4 154.4Z" fill="#FFB882"/>
<path d="M410.3 161.7C405 153.1 406.9 148.4 404.3 143.1C401.7 137.7 402 130.6 408.9 134.5C423.1 142.3 410.3 161.7 410.3 161.7Z" fill="#773223"/>
<path d="M409.4 153.8C412 152.3 414.1 155.1 412.3 156.7C410.6 158.4 407.8 159.9 407.3 158C407.2 157.6 407.8 154.8 409.4 153.8Z" fill="#FFB882"/>
<path d="M409.8 154.8C411.6 154.1 412.6 156 411.4 156.9C410.2 157.8 408.3 158.5 408.1 157.3C408.1 157 408.7 155.3 409.8 154.8Z" fill="#D3583C"/>
<path d="M409 156C410.2 155.5 410.9 156.8 410.1 157.4C409.2 158 408 158.5 407.9 157.6C407.9 157.4 408.3 156.2 409 156Z" fill="#FFB882"/>
<path d="M383.7 165.8C383.3 166.8 386.4 181.5 388.2 184C390.8 187.6 393.5 183.8 391.6 180.1C389 174.9 384.5 163.7 383.7 165.8Z" fill="#FFB882"/>
<path d="M392.4 182.3C392.1 184.3 390.1 185.2 388.2 182.7C387.4 181.6 386.2 178.3 385.2 174.7C386.1 178.7 387.3 182.8 388.2 184C390.4 187 392.9 185.2 392.4 182.3Z" fill="#FF9566"/>
<path d="M389.5 217.6C390.9 217.5 392.3 217.3 393.6 217.1C388.1 207.4 388.1 197.2 388.1 197.2C388.1 197.2 386.3 206.8 389.5 217.6Z" fill="#4A74A5"/>
<path d="M368.2 211.2C368.7 211.6 369.3 211.9 369.8 212.3C370.1 204.1 372 197.3 372 197.3C372 197.3 369.6 203.1 368.2 211.2Z" fill="#4A74A5"/>
<path d="M400.7 148.4C401.1 146.5 400.1 144.9 398.6 144.7C397.1 144.5 395.5 145.9 395.2 147.8C394.8 149.7 395.9 150.5 397.5 150.6C398.9 150.8 400.3 150.3 400.7 148.4Z" fill="#EA7B59"/>
<path d="M390.7 146.2C391.1 144.3 390.1 142.7 388.6 142.5C387.1 142.3 385.5 143.7 385.2 145.6C384.8 147.5 385.9 148.3 387.5 148.4C389 148.6 390.4 148.1 390.7 146.2Z" fill="#EA7B59"/>
<path d="M390.5 146.8C390.8 145 389.9 143.2 388.5 143C387.1 142.7 385.7 144 385.4 145.9C385.1 147.7 386.1 148.6 387.6 148.9C388.9 149.1 390.2 148.6 390.5 146.8Z" fill="#FFFBDD"/>
<path d="M389 145.5C389.3 144.5 388.8 143.6 388.1 143.3C387.3 143.1 386.5 143.7 386.3 144.6C386 145.6 386.5 146.5 387.2 146.8C387.9 147 388.8 146.4 389 145.5Z" fill="#3F7FA5"/>
<path d="M389.2 144.7C389.3 144.3 389.1 144 388.8 143.9C388.5 143.8 388.2 144 388.1 144.4C388 144.8 388.2 145.2 388.5 145.2C388.8 145.3 389.1 145 389.2 144.7Z" fill="#FFFBDD"/>
<path d="M384.8 140.4L385.7 141.5C386.1 140.7 389.2 138.5 392.2 139.2L391.6 136.9C391.7 136.9 386.6 136.5 384.8 140.4Z" fill="#8E4632"/>
<path d="M400.3 149C400.6 147.2 399.7 145.5 398.3 145.3C396.9 145.1 395.5 146.4 395.2 148.3C394.9 150.1 395.9 150.9 397.3 151.1C398.7 151.3 400 150.8 400.3 149Z" fill="#FFFBDD"/>
<path d="M398.7 147.6C399 146.6 398.5 145.7 397.8 145.4C397 145.2 396.2 145.8 396 146.7C395.7 147.7 396.2 148.6 396.9 148.9C397.7 149.2 398.5 148.6 398.7 147.6Z" fill="#3F7FA5"/>
<path d="M399 146.8C399.1 146.4 398.9 146.1 398.6 146C398.3 145.9 398 146.1 397.9 146.5C397.8 146.9 398 147.2 398.3 147.3C398.5 147.4 398.9 147.2 399 146.8Z" fill="#FFFBDD"/>
<path d="M403.6 143.5L402.5 144.4C402.3 143.5 399.7 140.7 396.6 140.7L397.6 138.5C397.5 138.6 402.6 139.2 403.6 143.5Z" fill="#8E4632"/>
<path d="M386.9 154L394.8 155.9C394.8 155.9 393.3 158.6 390.5 158.2C387.4 157.7 386.9 154 386.9 154Z" fill="#763224"/>
<path d="M387.6 154.4L394.2 156C394.2 156 393.1 156.4 390.7 156C388.1 155.5 387.6 154.4 387.6 154.4Z" fill="#FFFBDD"/>
<path d="M389.8 152C390.5 152.6 391.7 152.7 391.7 152.7V149.9C389.7 149.7 388.9 151.2 389.8 152Z" fill="#EA7B59"/>
<path d="M390.4 151.8C390.9 152.3 391.9 152.4 391.9 152.4V150.2C390.3 150.1 389.7 151.3 390.4 151.8Z" fill="#FFB882"/>
<path d="M390.7 159.7C390.7 159.6 390.2 159.4 389.5 159.3C388.8 159.2 388.2 159.2 388.2 159.4C388.2 159.5 388.7 159.7 389.4 159.8C390.1 159.8 390.7 159.8 390.7 159.7Z" fill="#EA7B59"/>
<path d="M392.5 157.6C392.5 157.2 390.6 156.6 389.7 156.5C388.8 156.4 388.8 156.7 388.7 157C388.7 157.4 389.8 158 390.7 158.1C391.7 158.1 392.5 157.9 392.5 157.6Z" fill="#EA7B59"/>
<path d="M384.8 170C383.4 168.4 382.6 167.8 382.3 167.4C382 167 380.9 165.7 381.1 165.1C381.3 164.4 383.9 162.7 384.4 163.5C384.9 164.2 384.9 166.9 385.5 169.4C386 171 384.8 170 384.8 170Z" fill="#FFB882"/>
<path d="M381.8 166.5C380.9 165.4 378 162.5 378.1 162C378.2 161.5 382.5 165.3 382.5 165.3L381.8 166.5Z" fill="#FFB882"/>
<path d="M385.1 168.4C385.4 166.5 387.3 163.9 387 163.5C386.7 163.1 383.9 166.7 383.9 166.7L385.1 168.4Z" fill="#FFB882"/>
<path d="M382.5 165.3C381.9 164 379.9 160.2 380.1 159.7C380.3 159.2 383.5 164.1 383.5 164.1L382.5 165.3Z" fill="#FFB882"/>
<path d="M383.3 165.7C383.3 164.3 383 160.2 383.4 159.7C383.8 159.2 384.7 164.8 384.7 164.8L383.3 165.7Z" fill="#FFB882"/>
<path d="M0.199951 235.8C0.199951 235.8 94.9999 246.3 195.5 246.3C359.2 246.3 454 235.8 454 235.8H0.199951Z" fill="#F4D44E"/>
</svg>
