<svg width="352" height="240" viewBox="0 0 352 240" fill="none" xmlns="http://www.w3.org/2000/svg">
<path d="M249.3 222.4C247.1 219.7 246.8 217.3 247.5 215.5C243.4 216.8 243.7 221.2 243.7 221.2C243.4 220 242.2 218.4 242.9 217.3C241 218.1 239.1 221.4 239 222.9C235.2 215 238.9 209.1 238.9 209C236.6 209.4 229.8 216.9 228.9 218.5C228.4 219.3 228.2 220.3 227.2 220.8C226.2 218.7 226.3 216.4 227.3 214.7C226.6 215.2 225.6 216.3 224.9 216.8C223.7 214.1 224.7 210 225.4 208.7C223.5 209.5 221.3 212.3 220.3 213.8C219.3 215.3 217.8 217.6 217.8 219.6C216.4 217.2 217 212.8 218 209C216.1 210.6 214.6 212 212.6 216.4C212.3 217.2 212.2 218.5 211.5 219C210.8 216.6 211 213.5 211.6 212.4C209.6 212.9 207.7 219 207.4 220.9C206.7 217.9 206.7 214.7 207.9 212.5C205.1 215.9 204.8 221.1 203.8 225.9L260.6 225.8C262.9 225.8 266 226.4 267.8 225.8C254.1 222.6 263 207.3 263 207.3C258.8 212.2 251.5 215.6 249.3 222.4Z" fill="#B7B029"/>
<path d="M166.9 223.6C169.5 221.4 170.5 219.6 170.6 218.1C173.3 219.2 171.6 222.7 171.6 222.7C172.3 221.7 173.7 220.5 173.5 219.6C174.7 220.2 175 222.9 174.6 224.1C180.1 217.8 179.3 213.1 179.3 213C180.9 213.3 183.7 219.4 183.9 220.7C184 221.4 183.8 222.2 184.5 222.5C185.9 220.9 186.7 219 186.4 217.7C186.8 218.1 187.2 219 187.5 219.4C189.3 217.2 190 213.9 189.8 212.9C191 213.6 191.8 215.8 192 217C192.3 218.2 192.6 220.1 192 221.7C193.9 219.8 194.9 216.3 195.4 213.2C196.3 214.5 197 215.6 197.1 219.2C197.1 219.8 196.7 220.9 197.1 221.3C198.5 219.4 199.4 216.9 199.2 216C200.5 216.4 200 221.4 199.6 222.8C201.1 220.4 202.2 217.9 202 216.1C203 218.9 201.6 223 200.7 226.9L157 226.2C155.2 226.2 152.6 226.6 151.5 226.1C163.1 223.7 161.4 211.4 161.4 211.4C163 215.3 167.4 218.2 166.9 223.6Z" fill="#B7B029"/>
<path d="M292.8 219.6C292.3 218.9 291.3 216.8 290.6 216.1C290 217.1 289.9 218.3 289.8 219.4C289.6 219.1 288.4 218.4 288.2 218.1C288 218.5 287.5 218.8 287.2 219.2C286.5 218.6 285.4 218.3 284.8 217.5C284.5 218 283.4 219 283.2 219.6C282.9 219.1 282.4 218.7 282.2 218C282.2 218.9 282.1 219.9 282 220.8C278.9 214.8 279.2 215.6 275 210C275.8 214.4 275.1 213.5 274.3 218.9C272.7 218.4 272.9 216.6 273.1 215.2C271.1 216.5 270 218.8 269.1 220.7C267 219.3 268.4 216 268.8 214C264.9 216.6 261.1 220.7 262.1 225.1L296.1 224.7C295.5 222.5 293.8 221.1 292.8 219.6Z" fill="#B7B029"/>
<path d="M114.8 223.3C112.6 220.6 112.3 218.2 113 216.4C108.9 217.7 109.2 222.1 109.2 222.1C108.9 220.9 107.7 219.3 108.4 218.2C106.5 219 104.6 222.3 104.5 223.8C100.7 215.9 104.4 210 104.4 209.9C102.1 210.3 95.3 217.8 94.4 219.4C93.9 220.2 93.7 221.2 92.7 221.7C91.7 219.6 91.8 217.3 92.8 215.6C92.1 216.1 91.1 217.2 90.4 217.7C89.2 215 90.2 210.9 90.9 209.6C89 210.4 86.8 213.2 85.8 214.7C84.8 216.2 83.3 218.5 83.3 220.5C81.9 218.1 82.5 213.7 83.5 209.9C81.6 211.5 80.1 212.9 78.1 217.3C77.8 218.1 77.7 219.4 77 219.9C76.3 217.5 76.5 214.4 77.1 213.3C75.1 213.8 73.2 219.9 72.9 221.8C72.2 218.8 72.2 215.6 73.4 213.4C70.6 216.8 70.3 222 69.3 226.8L126.1 226.7C128.4 226.7 131.5 227.3 133.3 226.7C119.6 223.5 128.5 208.2 128.5 208.2C124.3 213.1 117 216.6 114.8 223.3Z" fill="#B7B029"/>
<path d="M32.4001 224.5C35.0001 222.3 36.0001 220.5 36.1001 219C38.8001 220.1 37.1001 223.6 37.1001 223.6C37.8001 222.6 39.2001 221.4 39.1001 220.5C40.3001 221.1 40.6001 223.8 40.2001 225C45.7001 218.7 44.9001 214 44.9001 213.9C46.5001 214.2 49.3001 220.3 49.5001 221.6C49.6001 222.3 49.4001 223.1 50.1001 223.4C51.5001 221.8 52.3001 219.9 52.0001 218.6C52.4001 219 52.8001 219.9 53.1001 220.3C54.9001 218.1 55.6001 214.8 55.4001 213.8C56.6001 214.5 57.4001 216.7 57.6001 217.9C57.9001 219.1 58.2001 221 57.6001 222.6C59.5001 220.7 60.5001 217.2 61.0001 214.1C61.9001 215.4 62.6001 216.5 62.7001 220.1C62.7001 220.7 62.3001 221.8 62.7001 222.2C64.1001 220.3 65.0001 217.8 64.8001 216.9C66.1001 217.3 65.6001 222.3 65.2001 223.7C66.7001 221.3 67.8001 218.8 67.6001 217C68.6001 219.8 67.2001 223.9 66.3001 227.8L22.6001 227.1C20.8001 227.1 18.2001 227.5 17.1001 227C28.7001 224.6 27.0001 212.3 27.0001 212.3C28.5001 216.3 33.0001 219.1 32.4001 224.5Z" fill="#B7B029"/>
<path d="M158.3 220.5C157.8 219.8 156.8 217.7 156.1 217C155.5 218 155.4 219.2 155.3 220.3C155.1 220 153.9 219.3 153.7 219C153.5 219.4 153 219.7 152.7 220.1C152 219.5 150.9 219.2 150.3 218.4C150 218.9 148.9 219.9 148.7 220.5C148.4 220 147.9 219.6 147.7 218.9C147.7 219.8 147.6 220.8 147.5 221.7C144.4 215.7 144.7 216.5 140.5 210.9C141.3 215.3 140.6 214.4 139.8 219.8C138.2 219.3 138.4 217.5 138.6 216.1C136.6 217.4 135.5 219.7 134.6 221.6C132.5 220.2 133.9 216.9 134.3 214.9C130.4 217.5 126.6 221.6 127.6 226L161.6 225.6C161.1 223.5 159.4 222 158.3 220.5Z" fill="#B7B029"/>
<path d="M237.2 130.9L237.8 130.7H238.8C238.8 130.4 238.8 130.3 235.4 123.9C234.7 122.6 233.1 122.1 231.8 122.7C231.2 123 230.5 122.8 230.3 122.2L227.5 116.9L226.1 117.6L228.9 122.9C229.6 124.2 231.2 124.7 232.5 124.1C233.1 123.8 233.8 124 234 124.6C236.8 130 237.1 130.8 237.2 130.9Z" fill="#8BBCBC"/>
<path d="M302.4 101.4C306.1 105.1 312.6 113.1 315.2 105.9C316.2 103.1 302.7 101.1 302.7 101.1L302.4 101.4Z" fill="#B52C77"/>
<path d="M304.4 99.4999C311.7 98.2999 317.6 96.0999 315.8 93.2999C313.2 89.1999 304.3 98.9999 304.3 98.9999L304.4 99.4999Z" fill="#B52C77"/>
<path d="M300.1 102C303.1 104.5 304.6 103.5 305.4 102C306.2 100.6 305.5 97.4999 303.9 97.3999C302.2 97.2999 300.1 102 300.1 102Z" fill="#B52C77"/>
<path d="M296.5 80.5999C304.7 85.5999 305.4 95.6999 301.7 104.6L271.7 92.0999C274.6 76.6999 289.6 76.3999 296.5 80.5999Z" fill="#E05A97"/>
<path d="M286.8 97.2C293.7 95.3 298.2 89.3 296.7 83.7C296.2 82 295.3 80.5 293.9 79.4C294.9 79.7 295.8 80.2 296.6 80.7C304.8 85.7 305.5 95.8 301.8 104.7L285 97.7C285.5 97.5 286.2 97.3 286.8 97.2Z" fill="#C64083"/>
<path d="M272.2 92.2L271.8 92C271.8 91.9 271.9 91.7 271.9 91.6C272 91.8 272.1 92 272.2 92.2Z" fill="#C64083"/>
<path d="M286.9 142.1C294.8 148 302.8 144.8 304.9 142C307.1 139.2 305.5 133.2 305.5 133.2C305.5 133.2 310.9 135.1 310.2 128.8C309.6 123.7 305.1 121.9 305.1 121.9C305.1 121.9 307.5 117.5 305.1 115.3C302.7 113 300.5 111.7 300.5 111.7C300.5 111.7 305.9 108.1 303.5 103.2C301.2 98.2999 276.2 84.0999 271.8 91.4999C267.5 98.6999 263.8 107.4 264.9 110.4C266 113.4 268 114.8 268 114.8C268 114.8 264.4 129.8 273.5 132.3C282.9 134.6 286.9 142.1 286.9 142.1Z" fill="#A34731"/>
<path d="M284.1 100.7C287.3 95.1999 295.5 101.5 295.7 96.5999C299.7 99.0999 302.8 101.6 303.5 103.2C305.8 108.1 300.5 111.7 300.5 111.7C300.5 111.7 302.7 113.1 305.1 115.3C307.5 117.6 305.1 121.9 305.1 121.9C305.1 121.9 309.6 123.7 310.2 128.8C310.9 135.1 305.5 133.2 305.5 133.2C305.5 133.2 307 139.2 304.9 142C302.8 144.7 294.8 148 286.9 142.1C286.9 142.1 282.8 134.6 273.6 132.1C271 131.4 269.5 129.7 268.6 127.6C275.4 128.8 278.1 110.8 284.1 100.7Z" fill="#823021"/>
<path d="M304.9 227.1H310.3C310.3 227.1 310.7 216.3 306.1 214.8C301.5 213.3 304.9 227.1 304.9 227.1Z" fill="#BFAA6F"/>
<path d="M250.9 160.8C253.2 162.2 256.1 161.9 258 160C265.6 152.4 271.7 146 277.5 134.5C278.9 131.7 279.1 125.4 275.7 127.6C272.3 129.9 250.9 160.8 250.9 160.8Z" fill="#FFB882"/>
<path d="M259.3 148.9L261 152.2L269.5 141.4L266.3 139.1C270.6 133.3 274.4 128.4 275.7 127.6C279.1 125.4 278.9 131.7 277.5 134.5C271.7 146 265.7 152.4 258 160C256.1 161.9 253.2 162.2 250.9 160.8C250.9 160.8 254.7 155.4 259.3 148.9Z" fill="#FF9566"/>
<path d="M266.2 138C270.6 140.8 276.3 141.4 276.3 141.4C276.3 141.4 282.8 127.2 278.2 126.3C271.8 125.1 266.2 138 266.2 138Z" fill="#FFD066"/>
<path d="M281 227.1H322.3C322.3 227.1 320.4 223.3 315.8 220.3C310.6 216.9 288.4 211.1 288.4 211.1C288.4 211.1 282 218.1 281 227.1Z" fill="#FF9566"/>
<path d="M298.7 224.3C297.4 224.3 295.9 221 300.1 214.3C301.6 214.8 303.2 215.2 304.7 215.7V215.8C304.6 220.2 300 224.3 298.7 224.3Z" fill="#FFB882"/>
<path d="M282.1 227.1H265.6C262.4 227.1 259.3 225.6 257.5 223C256.2 221.2 255.1 219.1 255.2 217.5C256.9 197.3 286.7 179.7 278.1 158.7C273.8 148.1 279.5 139.9 286.2 134.3C292.5 129.1 298.9 122.3 299.5 130.5C299.8 135.3 297.6 154.7 298.2 158.5C298.7 161.8 303.7 167.3 306.3 169.4C310.3 172.7 315.1 176.6 313.4 186.3C311.4 198.3 300 203.3 291 221.4C289.4 224.9 285.9 227.1 282.1 227.1Z" fill="#FFD066"/>
<path d="M286.1 214.4C298.4 194.9 296.5 173.5 288.3 167.2C286 165.5 283.1 165 279.7 165.8C279.6 163.5 279.1 161.2 278.2 158.8C273.9 148.2 279.6 140 286.3 134.4C292.6 129.2 299 122.4 299.6 130.6C299.9 135.4 297.7 154.8 298.3 158.6C298.8 161.9 303.8 167.4 306.4 169.5C310.4 172.8 315.2 176.7 313.5 186.4C311.5 198.4 300.1 203.4 291.1 221.5C289.4 224.9 285.9 227 282.1 227H275.6C279.4 223.5 283.1 219.2 286.1 214.4Z" fill="#F9AB4E"/>
<path d="M280.4 200.7L285.1 178.8C285.1 178.8 285.7 178.7 286.6 178.7C288.2 172.3 290.9 161.5 293.4 151.9L293.1 165.2H297.1C295.4 170.3 293.6 175.3 291.9 179.5C294.6 180.4 297.6 182 300 185.2L283.5 202.6C283.6 204.5 283.3 207.2 282.7 209.9C282.7 209.9 277.8 211.2 276.2 209C276.8 206.5 278.6 202.4 280.4 200.7Z" fill="#F9AB4E"/>
<path d="M299 127.2C301.5 130.8 295.5 157.7 294.1 159.3C292.7 160.8 269.2 160.4 268.3 157.6C267.5 154.8 275.2 127.6 276.1 126.5C277.1 125.4 298.1 126 299 127.2Z" fill="#FFD066"/>
<path d="M280.5 125.9C284.2 125.8 289.4 125.9 293.4 126.2C293.1 129.4 289.1 131.9 285.7 131.9C282.2 131.9 280.6 129.3 280.5 125.9Z" fill="#E85470"/>
<path d="M287.3 157.3C288.6 155.9 295 134.7 295.3 126.4C297.3 126.6 298.7 126.9 298.9 127.2C301.4 130.8 295.9 158.7 294.5 160.2C293.1 161.7 269.4 160.4 268.2 157.6C275.6 158.5 286.3 158.3 287.3 157.3Z" fill="#F9AB4E"/>
<path d="M319.1 217.9C320.8 217 319.4 214.7 321.2 214.6C326.7 214.3 338.6 227 338.6 227H329.5H308C309.7 223.2 308.6 216.8 306 214.7C306 214.7 317.4 218.8 319.1 217.9Z" fill="#E5D49C"/>
<path d="M306 214.7C306 214.7 306.9 215 308.3 215.5C309.9 217.8 314.4 220.6 320.1 222.6C327.1 225.1 333.5 225.4 335.2 223.6C337.3 225.6 338.7 227.1 338.7 227.1H329.6H308C309.6 223.3 308.5 216.9 306 214.7Z" fill="#D8C387"/>
<path d="M292.4 126.1C291.4 117.3 291.8 103.2 291.8 103.2L282.5 104.2L281.9 127C281.9 127 282.3 130.5 285.8 130.5C289.4 130.6 292.4 126.1 292.4 126.1Z" fill="#FFB882"/>
<path d="M288.2 183.3C293.1 171.3 300.1 149.4 301.1 134.9C301.3 131.8 299 125.9 296.8 129.3C294.6 132.7 283.8 182.6 283.8 182.6L288.2 183.3Z" fill="#FFB882"/>
<path d="M288.7 175.7C293.3 164.5 298.6 144.9 300.2 130.5C300.8 131.9 301.1 133.6 301 134.8C300 149.4 293 171.2 288.1 183.2L283.6 182.5C283.6 182.5 284.2 179.7 285.2 175.4L288.7 175.7Z" fill="#FF9566"/>
<path d="M248.4 164.9C262.1 162.9 259 149.4 259 149.4L243.7 134.4L241.3 135.8L248.4 164.9Z" fill="#E85470"/>
<path d="M243.2 140C246.7 147 252.2 151.3 255.4 149.6C256.2 149.2 256.8 148.5 257.2 147.5L259 149.3C259 149.3 262.2 162.8 248.4 164.8L241.3 135.7L241.4 135.6C241.9 137.1 242.5 138.5 243.2 140Z" fill="#D3355B"/>
<path d="M298.6 183.5C292.6 175.6 283.5 176.9 283.5 176.9L279.1 200.7L282.5 201.4L298.6 183.5Z" fill="#E85470"/>
<path d="M292.9 178.7C294.9 179.7 296.9 181.2 298.6 183.5L282.4 201.4L280 200.9C284.3 198.6 291.6 188.1 292.9 178.7Z" fill="#D3355B"/>
<path d="M237.1 136.4C241.7 137.4 244.7 137.8 244.7 135.6C244.7 133.4 239.3 130.7 236.3 130C234.3 131.7 237.1 136.4 237.1 136.4Z" fill="#E85470"/>
<path d="M243 135.7C242.3 135.9 241.5 135.6 240.7 133.8C239.9 132 239.8 130.3 240.5 130.1C241.2 129.9 243.1 132.1 243.9 133.9C244.8 135.7 243.8 135.5 243 135.7Z" fill="#E85470"/>
<path d="M280.7 200.1C281.1 203.3 281.6 204.8 281.6 205.6C281.6 206.4 281.9 209 280.9 209.5C279.8 210.1 274.3 210 274.4 208.6C274.5 207.2 277.3 204 278.9 200.2C280 197.8 280.7 200.1 280.7 200.1Z" fill="#E85470"/>
<path d="M281.4 207.2C281.6 209.4 282.7 215.7 282.1 216.2C281.5 216.7 279.2 208.2 279.2 208.2L281.4 207.2Z" fill="#E85470"/>
<path d="M278.6 201.9C276.2 204 270.5 205.6 270.6 206.4C270.7 207.2 278.6 205.1 278.6 205.1V201.9Z" fill="#E85470"/>
<path d="M279.1 208.1C278.6 210.2 277.5 216.8 276.7 217.2C275.8 217.6 276.4 208.7 276.4 208.7L279.1 208.1Z" fill="#E85470"/>
<path d="M278.3 206.8C276.8 208.5 272.9 214 271.8 214.2C270.6 214.4 275.3 206.7 275.3 206.7L278.3 206.8Z" fill="#E85470"/>
<path d="M281.8 208.8C282.7 203.6 282.9 198.5 280.7 198.5C278.5 198.5 275.9 204.5 275.3 207.9C277 210.2 281.8 208.8 281.8 208.8Z" fill="#E85470"/>
<path d="M236.3 118.6C236.7 119.2 224.8 123.9 224.1 123.4C223.4 122.9 212.4 98.3 212.4 97.1C212.4 95.9 230.6 110.2 236.3 118.6Z" fill="#B6D7D8"/>
<path d="M220.8 103.6C224 106.3 227.8 109.6 230.8 112.8C230.8 113 230.9 113.3 230.9 113.5C231.2 115.8 231.4 118 231.4 120.1C228.4 121.4 224.6 122.7 224.2 122.4C224 122.3 223 120.2 221.6 117.3C221.5 116.5 221.3 115.6 221.2 114.7C220.9 110.6 220.7 106.8 220.8 103.6Z" fill="#D3EFEF"/>
<path d="M234 126C239.1 136.5 241.1 142 241.9 142.3C242.7 142.6 245.9 141.2 245.8 140C245.7 138.8 236.7 124.8 236.7 124.8L234 126Z" fill="#5E4145"/>
<path d="M302.2 140.8C296.6 141.9 292.9 139.5 292.9 139.5C292.9 139.5 291 125.5 296.1 126C305 126.8 302.2 140.8 302.2 140.8Z" fill="#FFD066"/>
<path d="M235.5 131.1C235.5 130.6 236.4 130.2 237.5 130.2C238.6 130.2 239.5 130.6 239.5 131.1C239.5 131.6 238.6 132 237.5 132C236.4 132 235.5 131.6 235.5 131.1Z" fill="#E85470"/>
<path d="M242 134.7C241.5 134.9 241 134.5 240.5 133C240 131.5 240 130.1 240.5 129.9C241 129.7 241.8 130.9 242.3 132.4C242.8 133.9 242.5 134.5 242 134.7Z" fill="#E85470"/>
<path d="M236.6 133.6C236.6 133.1 237.5 132.7 238.6 132.7C239.7 132.7 240.6 133.1 240.6 133.6C240.6 134.1 239.7 134.5 238.6 134.5C237.5 134.5 236.6 134.1 236.6 133.6Z" fill="#E85470"/>
<path d="M236.7 135.9C236.7 135.4 237.6 135 238.7 135C239.8 135 240.7 135.4 240.7 135.9C240.7 136.4 239.8 136.8 238.7 136.8C237.6 136.8 236.7 136.4 236.7 135.9Z" fill="#E85470"/>
<path d="M263.8 226.4C262.2 224.8 261.7 223.5 261.8 222.5C259.8 223.2 260.7 225.6 260.7 225.6C260.3 224.9 259.5 224 259.7 223.4C258.8 223.8 258.3 225.6 258.5 226.5C255.3 222 256.3 218.8 256.3 218.7C255.1 218.9 252.7 223 252.4 223.9C252.3 224.3 252.3 224.9 251.8 225.2C251 224 250.6 222.7 250.9 221.8C250.6 222.1 250.2 222.7 250 223C249 221.5 248.8 219.2 249 218.5C248.1 218.9 247.4 220.5 247.1 221.3C246.8 222.1 246.4 223.4 246.7 224.5C245.6 223.2 245.2 220.7 245.2 218.6C244.5 219.5 243.8 220.3 243.5 222.7C243.4 223.1 243.6 223.9 243.3 224.2C242.5 222.9 242.2 221.1 242.4 220.5C241.4 220.8 241.4 224.2 241.5 225.2C240.7 223.5 240.2 221.7 240.5 220.5C239.5 222.4 240.1 225.3 240.4 228L270.7 228.6C272 228.6 273.7 229 274.5 228.7C266.7 226.8 269.1 218.3 269.1 218.3C267.3 220.7 264 222.6 263.8 226.4Z" fill="#B7B029"/>
<path d="M220.1 226.1C221.1 224.9 221.4 223.9 221.2 223.1C222.8 223.7 222.4 225.7 222.4 225.7C222.6 225.2 223.2 224.5 223 224C223.8 224.4 224.3 225.9 224.3 226.5C226.3 223 225.1 220.4 225.1 220.3C226 220.5 228.4 223.9 228.7 224.7C228.9 225.1 228.9 225.5 229.3 225.7C229.8 224.8 229.9 223.7 229.6 223C229.9 223.2 230.2 223.7 230.5 224C231.1 222.8 231 221 230.8 220.4C231.6 220.8 232.3 222.1 232.6 222.7C232.9 223.4 233.4 224.4 233.3 225.3C234 224.3 234 222.3 233.8 220.6C234.5 221.3 235 222 235.6 224C235.7 224.3 235.7 224.9 235.9 225.2C236.3 224.2 236.4 222.7 236.2 222.3C237 222.6 237.4 225.3 237.5 226.1C238 224.8 238.1 223.4 237.8 222.3C238.8 223.9 238.6 226.2 238.8 228.3L215.4 227.4C214.4 227.4 213.1 227.6 212.4 227.3C218.2 226.1 215.4 219.2 215.4 219.2C216.7 221.5 219.5 223.1 220.1 226.1Z" fill="#B7B029"/>
<path d="M286.6 225.2C286.2 224.8 285.4 223.6 284.9 223.2C284.7 223.8 284.9 224.4 285 225.1C284.8 224.9 284.1 224.5 283.9 224.4C283.8 224.6 283.6 224.8 283.6 225C283.1 224.7 282.5 224.5 282.1 224C282 224.3 281.6 224.8 281.6 225.2C281.4 224.9 281 224.7 280.8 224.3C281 224.8 281 225.4 281.1 225.9C278.5 222.5 278.8 223 275.7 219.8C276.8 222.3 276.3 221.8 276.7 224.8C275.7 224.5 275.6 223.5 275.5 222.7C274.6 223.4 274.4 224.7 274.2 225.7C272.9 224.9 273.1 223 273 222C271.3 223.4 269.9 225.7 271.1 228.2L289.1 228.3C288.5 226.9 287.4 226.1 286.6 225.2Z" fill="#B7B029"/>
<path opacity="0.6" d="M275.7 136.5C273.6 134.5 272.8 131.5 273.1 128C274.2 127.1 275.4 126.4 276.6 126.2C277.5 126 279.5 125.8 282 125.8L282.4 110.5C285.4 107.6 288.7 105.3 291.9 103.9C291.8 107 291.6 118.4 292.5 126C292.5 126 292.5 126 292.4 126.1C293.2 126.2 294 126.2 294.7 126.3C295.1 126 295.6 125.9 296.2 126C298.8 126.2 300.4 127.6 301.4 129.5C301.3 129.6 301.2 129.8 301 129.9C292.3 138.7 281 141.7 275.7 136.5Z" fill="#843131"/>
<path d="M292.9 102.5C293.1 113.4 290.3 119.6 278 124.1C278 124.1 266.9 112.7 272.9 93.9C276.1 83.6 292.8 95.6 292.9 102.5Z" fill="#FFB882"/>
<path d="M294.8 106.6C296.6 103.5 299.9 104 298.5 107.7C297.1 111.4 293.9 112.8 293.5 111.5C293 109.7 294.8 106.6 294.8 106.6Z" fill="#FFB882"/>
<path d="M295.2 107.8C296.1 106.2 297.9 106.4 297.1 108.4C296.4 110.3 294.7 111.1 294.5 110.4C294.3 109.4 295.2 107.8 295.2 107.8Z" fill="#D3583C"/>
<path d="M294.7 108.9C295.4 107.8 296.6 108 296 109.3C295.5 110.7 294.3 111.2 294.2 110.7C294 110.1 294.7 108.9 294.7 108.9Z" fill="#FFB882"/>
<path d="M286.6 102.8C286.5 101.3 285.6 100 284.5 99.8C283.4 99.6 282.6 100.6 282.7 102.1C282.8 103.5 283.7 104.9 284.8 105.1C285.8 105.3 286.6 104.2 286.6 102.8Z" fill="#513D39"/>
<path d="M277.1 102.7C277 101.3 276.3 100.1 275.4 100.1C274.5 100.1 273.8 101.3 273.9 102.7C273.9 104.1 274.7 105.3 275.6 105.3C276.4 105.3 277.1 104.1 277.1 102.7Z" fill="#513D39"/>
<path d="M273 102C273 102 275.4 100.3 277.7 100.7C277.7 100.7 277 99.6999 275.3 99.9999C273.7 100.2 273 102 273 102Z" fill="#513D39"/>
<path d="M287.8 101.5C287.8 101.5 284.8 99.5999 282.4 99.7999C282.4 99.7999 282.9 98.7999 284.8 99.1999C286.6 99.5999 287.8 101.5 287.8 101.5Z" fill="#513D39"/>
<path d="M273 98.1999L272.9 97.7999C274.2 95.5999 276.8 94.8999 278 95.0999L278.1 96.1999C277.1 95.8999 274.4 96.3999 273 98.1999Z" fill="#A34731"/>
<path d="M288.1 99.0999C286.5 97.2999 282.9 96.2999 281.9 96.1999V94.9999C283 95.1999 286.4 96.3999 288.3 98.6999L288.1 99.0999Z" fill="#A34731"/>
<path d="M281 109.2C281 109.2 281 109.3 280.9 109.3C280.2 110 278.8 109.9 277.9 109.3C277.4 108.9 277.1 108.4 277.1 107.9C276.5 108.5 276.6 109.5 277.5 110.1C278.4 110.8 279.8 110.8 280.5 110.1C280.9 109.9 281 109.6 281 109.2Z" fill="#EA7B59"/>
<path d="M282.9 112.7L276.4 112.9C276.4 112.9 277 118.1 279.7 118C283.4 117.9 282.9 112.7 282.9 112.7Z" fill="#4C241E"/>
<path d="M277.2 115C276.9 114.1 276.8 113.3 276.8 113.3L282.5 113.1C282.5 113.1 282.6 114.3 282.3 115.5L277.2 115Z" fill="#FFFEF8"/>
<path d="M144.3 90.9C144.3 90.9 137.5 100.5 141.8 101.8C145.3 103 148.2 102.7 144.3 90.9Z" fill="#9E982D"/>
<path d="M194.4 98.3C194.4 98.3 187.6 107.9 191.9 109.2C195.5 110.4 198.4 110.1 194.4 98.3Z" fill="#9E982D"/>
<path d="M186.2 95.1C186.2 95.1 179.8 105 184.1 106.1C187.7 107.1 190.6 106.7 186.2 95.1Z" fill="#9E982D"/>
<path d="M123 103.7C123 103.7 118.5 113.9 123 113.8C126.8 113.7 129.6 112.6 123 103.7Z" fill="#9E982D"/>
<path d="M168.1 88C168.1 88 163.6 98.2 168.1 98.1C171.9 98 174.7 97 168.1 88Z" fill="#9E982D"/>
<path d="M177.4 89.5C177.4 89.5 172.9 99.7 177.4 99.6C181.2 99.5 184 98.4 177.4 89.5Z" fill="#9E982D"/>
<path d="M155.9 88.1C155.9 88.1 145.7 92.7 149.1 95.6C152 98.1 154.8 99.2 155.9 88.1Z" fill="#9E982D"/>
<path d="M205.1 106.7C205.1 106.7 194.9 111.3 198.3 114.2C201.2 116.7 204 117.8 205.1 106.7Z" fill="#9E982D"/>
<path d="M224.2 127.8C224.2 127.8 213.7 133.1 216.9 136.3C219.5 138.9 222.2 140 224.2 127.8Z" fill="#9E982D"/>
<path d="M218.5 120.6C218.5 120.6 210.2 128.9 214.2 131C217.5 132.6 220.5 132.9 218.5 120.6Z" fill="#9E982D"/>
<path d="M92.3999 30.4C87.6999 30.9 86.0999 28 86.1999 25.9C86.1999 25.9 87.3999 25.1 88.5999 25.7C88.5999 25.7 86.2999 24 86.8999 22.1C87.4999 20.2 89.3999 20.3 89.3999 20.3C89.3999 20.3 86.2999 14.1 93.8999 11.1C93.8999 11.1 93.5999 7.09997 98.0999 7.09997C98.0999 7.09997 97.5999 4.09997 101.8 4.49997C101.8 4.49997 100.9 1.89997 103.3 1.69997C105.7 1.49997 106.6 3.89997 106.6 3.89997C106.6 3.89997 106.1 2.09997 107.5 2.29997C108.9 2.49997 109 4.09997 109 4.09997C109 4.09997 109.1 2.49997 110.2 2.59997C111.3 2.69997 111.7 3.99997 111.7 3.99997C111.7 3.99997 113.1 -2.86102e-05 115 0.999971C116.9 1.89997 116.1 4.99997 116.1 4.99997C116.1 4.99997 118.6 1.89997 121.7 3.29997C124.8 4.69997 123.2 7.59997 123.2 7.59997C123.2 7.59997 129.9 8.19997 130.4 13.8C130.9 19.5 127.4 25.8 125.2 24.2C125.2 24.2 126.8 25.9 125.2 27.9C123.6 29.9 123 29.8 123 29.8C123 29.8 124.8 37.8 116.9 35.6C108.7 33.1 92.3999 30.4 92.3999 30.4Z" fill="#A0553C"/>
<path d="M113.9 23.3H116.7C113.9 19.9 112.1 14.6 112.1 8.6C112.1 6.1 112.4 3.7 113 1.5C112.1 2.4 111.6 4 111.6 4C111.6 4 111.2 2.7 110.1 2.6C109 2.5 108.9 4.1 108.9 4.1C108.9 4.1 108.8 2.5 107.4 2.3C106 2.1 106.5 3.9 106.5 3.9C106.5 3.9 105.6 1.5 103.2 1.7C100.8 1.9 101.7 4.5 101.7 4.5C97.5001 4.1 98.0001 7.1 98.0001 7.1C93.5001 7.1 93.8001 11.1 93.8001 11.1C86.2001 14.1 89.3001 20.3 89.3001 20.3C89.3001 20.3 87.4001 20.2 86.8001 22.1C86.2001 24 88.5001 25.7 88.5001 25.7C87.3001 25.1 86.1001 25.9 86.1001 25.9C86.1001 28 87.7001 30.9 92.3001 30.4C92.3001 30.4 105.4 32.6 113.8 34.7V23.3H113.9Z" fill="#823C29"/>
<path d="M160.7 175.8H158.5V226.6H162.3L160.7 175.8Z" fill="#6B3E2E"/>
<path d="M222.4 153.2C222.4 123.2 192.1 94.7 161.5 90.3C130.2 95.7 100.6 123.3 100.6 153.2C100.6 183.2 131.3 203.5 161.5 203.2C191.6 202.9 222.4 183.2 222.4 153.2Z" fill="#B7B029"/>
<path d="M100.8 155.2C100.8 125.2 130.5 97.6 161.7 92.3C189.9 96.4 217.7 120.8 222 148C218.8 120 190.3 94.5 161.4 90.3C130.1 95.7 100.5 123.3 100.5 153.2C100.5 155.6 100.7 157.9 101.1 160.1C100.9 158.5 100.8 156.9 100.8 155.2Z" fill="#9E982D"/>
<path d="M219.5 137C212.9 159.6 189.5 173.8 166.5 174C139.3 174.3 111.7 154 111.7 124C111.7 123.1 111.7 122.1 111.8 121.2C104.8 130.8 100.5 141.8 100.5 153.2C100.5 183.2 131.2 203.5 161.4 203.2C191.5 202.9 222.3 183.2 222.3 153.2C222.4 147.7 221.4 142.2 219.5 137Z" fill="#9E982D"/>
<path d="M105.5 56.5C110.7 62.8 119.2 83.8 119 88.2C118.9 92.6 103.8 95.7 100.3 88.2C96.7001 80.7 105.5 56.5 105.5 56.5Z" fill="#FFCB4A"/>
<path d="M102.7 60.6C100.8 68.6 98.3 83.4 100.3 87.8C101.7 91.1 105.1 92.6 108.6 92.7C109 90.4 116.9 88.7 116.9 86.1C116.8 76.2 106.8 62.1 102.7 60.6Z" fill="#FFAC3E"/>
<path d="M108.8 63.4C108.4 56.4 100.7 48.4 98.3 46.5C95.8 44.5 81 39 70.4 42.7C62.1 45.6 57 78.5 55.6 80.8C54.2 83.1 49 93.3 55.6 99.9L97.4 84.5C97.4 84.5 109.2 70.3 108.8 63.4Z" fill="#FFCB4A"/>
<path d="M98.2 55.1C87.7 52.2 83 41.9 83 41.9C83 41.9 84.6 39.8 88.3 40.5C92.1 41.2 98.2 55.1 98.2 55.1Z" fill="#FFEABB"/>
<path d="M85.1 73.2C72.3 69.3 76.1 64.3 77.4 54.9C78 50.6 80.5 41.3 75.3 41.7C73.6 41.9 71.9 42.2 70.4 42.8C62.1 45.6 57 78.5 55.6 80.8C54.2 83.1 49 93.3 55.6 99.9L97.4 84.5C97.4 84.5 107.4 73.4 109.3 65.1C104.7 69.4 94 75.9 85.1 73.2Z" fill="#FFAC3E"/>
<path d="M45.1 57.2C41.4 64 46 73.3 51 73.3C52.5 73.3 54.5 73 57.4 71.5C67.2 66.6 76.5 58.9 78.3 48.1L77.8 41.3C61.7 41.7 48.8 50.4 45.1 57.2Z" fill="#FFCB4A"/>
<path d="M57.3 60.4C54.2 61.4 51.4 62 49.9 61.8C47.9 61.5 46.3 59.4 45.4 56.7C45.3 56.9 45.2 57.1 45.1 57.3C41.4 64.1 45.4 74.8 50.4 74.8C51.9 74.8 54.5 73.8 57.5 72.3C67.3 67.4 76.6 59.1 78.3 48.3L78.2 46.5C73.4 53.1 65.3 57.8 57.3 60.4Z" fill="#FFAC3E"/>
<path d="M79.0001 41.3L76.0001 41.4C77.0001 47.4 72.9001 64.2 72.9001 64.2L77.1001 65.2C77.1001 65.1 80.1001 48.2 79.0001 41.3Z" fill="#FFAC3E"/>
<path d="M104.3 54.1C104.4 61.7 100 69.7 98.3 72L102.4 73.5C103.7 70 106.7 65.4 107 58.4L104.3 54.1Z" fill="#FFAC3E"/>
<path d="M105.6 73.2L73.4999 61C64.1999 95.9 52.4999 93.5 52.4999 93.5C46.4999 117 45.3999 167.4 64.3999 221.2H65.0999C63.9999 196.6 66.1999 163 69.0999 136.8L73.5999 139.1C82.0999 172.8 106.6 221.2 106.6 221.2H107.9C89.9999 138.1 86.2999 117.2 105.6 73.2Z" fill="#618FB5"/>
<path d="M90.4001 91.5C89.7001 96.2 92.0001 100 96.1001 100C98.2001 91.6 101.4 83 105.6 73.3C100.6 73.4 91.6001 83.3 90.4001 91.5Z" fill="#487899"/>
<path d="M89.6001 112.8L88.8001 112.7C88.8001 112.5 92.7001 90.3 97.2001 80.2L75.3001 71.9C74.0001 74.8 65.4001 94.5 63.4001 106.2L62.6001 106.1C64.7001 93.5 74.6001 71.5 74.7001 71.3L74.9001 70.9L98.3001 79.8L98.1001 80.2C93.6001 89.9 89.7001 112.6 89.6001 112.8Z" fill="#D1C1A3"/>
<path d="M56.4001 92.6L52.4001 91.8C46.4001 115.3 45.5001 167.4 64.5001 221.2H64.9001C48.0001 167.3 50.0001 116.3 56.4001 92.6Z" fill="#487899"/>
<path d="M76.8001 137.9L66.1001 134.1L67.9001 136.8L73.5001 139.6C80.9001 168.9 100.5 208.8 105.5 218.9C99.3001 205.2 82.3001 167 75.7001 139.7C75.6001 139 76.8001 137.9 76.8001 137.9Z" fill="#487899"/>
<path d="M80.5 41.1L77.3 41C78.3 47 74.2 63.8 74.2 63.8L78.4 64.8C78.4 64.7 81.6 48 80.5 41.1Z" fill="#618FB5"/>
<path d="M105.3 54.4C105.4 62 101 70 99.3 72.3L103.4 73.8C104.7 70.3 107.7 65.7 108 58.7L105.3 54.4Z" fill="#618FB5"/>
<path d="M102.9 82.5C92.7 91.2 102.7 106.2 113.1 102.9C120.4 100.6 123 85.6 115.7 82.6L102.9 82.5Z" fill="#FFEABB"/>
<path d="M118.7 96.7C110.5 99.3 102.6 90.6 104.5 82.5H102.9C92.7 91.2 102.7 106.2 113.1 102.9C115.7 102.1 117.8 99.6 118.9 96.6C118.9 96.7 118.8 96.7 118.7 96.7Z" fill="#F2D69E"/>
<path d="M70.4001 225.3L60.1001 225C60.1001 225 62.0001 222.4 63.9001 220C65.5001 218 70.4001 225.3 70.4001 225.3Z" fill="#EAD8B2"/>
<path d="M105.4 225L118.6 225.3C118.6 225.3 110.8 221.4 107.3 219.5C104.8 218.1 105.4 225 105.4 225Z" fill="#EAD8B2"/>
<path d="M93.6 28.8L85.7 42.1C85.7 42.1 90.6 51 94.6 52.8C98.6 54.6 102.9 51.6 102.9 51.6L108.5 32.6L93.6 28.8Z" fill="#FFB882"/>
<path d="M187.8 64.1C186.5 72.8 183.3 75.5 181.6 73.9C177.1 69.8 187.8 64.1 187.8 64.1Z" fill="#B7B029"/>
<path d="M146.8 82.8999C150.8 87.9999 135.7 84.1999 135.7 84.1999C135.7 84.1999 139.9 76.6999 144.3 79.0999C148.6 81.3999 146.8 82.8999 146.8 82.8999Z" fill="#B7B029"/>
<path d="M174.7 55.7C179.6 46.4 183.1 46.7 185.9 49C189.8 52.2 174.7 55.7 174.7 55.7Z" fill="#B7B029"/>
<path d="M155.5 129.2C149.3 135.5 145.2 135.8 144.7 133.5C143.4 127.5 155.5 129.2 155.5 129.2Z" fill="#9E982D"/>
<path d="M162.3 177.1C157.5 184.5 153.5 185.6 152.6 183.5C150.1 177.8 162.3 177.1 162.3 177.1Z" fill="#B7B029"/>
<path d="M188.8 164.7C182.6 171 178.5 171.3 178 169C176.7 163 188.8 164.7 188.8 164.7Z" fill="#9E982D"/>
<path d="M144.5 155.9C144.8 162.4 134.7 150.4 134.7 150.4C134.7 150.4 142.5 146.8 144.6 151.3C146.9 155.8 144.5 155.9 144.5 155.9Z" fill="#9E982D"/>
<path d="M122.4 172.8C131.8 168.1 134.5 170.4 135.4 174C136.7 178.7 122.4 172.8 122.4 172.8Z" fill="#B7B029"/>
<path d="M197.2 171.7C206.6 167 209.3 169.3 210.2 172.9C211.5 177.6 197.2 171.7 197.2 171.7Z" fill="#B7B029"/>
<path d="M183.1 150.2C192.5 145.5 195.2 147.8 196.1 151.4C197.3 156.2 183.1 150.2 183.1 150.2Z" fill="#9E982D"/>
<path d="M122.1 118.1C130.2 124.9 129.2 128.2 126.3 130.5C122.4 133.6 122.1 118.1 122.1 118.1Z" fill="#9E982D"/>
<path d="M194.9 120.4C203 127.2 202 130.5 199.1 132.8C195.2 135.8 194.9 120.4 194.9 120.4Z" fill="#9E982D"/>
<path d="M71.8 127.1L74.7 110.6L81.1 111.4L76.4 113.5L74 128.1L71.8 127.1Z" fill="#487899"/>
<path d="M93.3001 114.1L50.6001 102.2L50.9001 105.5L93.0001 117L93.3001 114.1Z" fill="#487899"/>
<path d="M82.7 109.9L76.6 108.4L75.7 111L81.8 112.5L82.7 109.9Z" fill="#D1C1A3"/>
<path d="M100.6 76.5C101 75.3 100.7 74.1 100 73.9C99.3001 73.6 98.3001 74.4 97.9001 75.6C97.5001 76.8 97.8001 78 98.5001 78.2C99.3001 78.4 100.2 77.7 100.6 76.5Z" fill="#D1C1A3"/>
<path opacity="0.6" d="M100.7 68.1999C104.4 66.3999 106.8 62.8999 108 58.5999L105.3 54.4V54.5C104.6 53.4 103.8 52.2999 103 51.2999L106.2 40.5C106 39.9 105.7 39.2999 105.4 38.7999C103.8 35.4999 101.7 32.6 99.3 30.2L93.6 28.7L86.7 40.2C84.5 40.2 83.4 41.2999 83.1 41.5999C82.3 41.4999 81.4 41.4 80.6 41.4C80.6 41.2 80.6 41.1 80.5 41H77.3C77.3 41.1 77.3 41.2 77.3 41.4H75.9C74.3 41.5 72.7 41.7 71.2 42C71.4 46 72.5 50.2 74.5 54.2C80.5 66.2 92.2 72.4999 100.7 68.1999Z" fill="#843131"/>
<path d="M66.7 58.6C57.1 48.4 43.2 60.8 47.4 71.9C50.4 79.6 65.4 80.9 67.8 72.6L66.7 58.6Z" fill="#FFEABB"/>
<path d="M49.7 61.2C49.5 60.8 49.4 60.3 49.3 59.9C46.9 63.2 45.8 67.6 47.5 71.8C50.5 79.5 65.5 80.8 67.9 72.5L67.4 65.8C62.1 69.5 52 67.4 49.7 61.2Z" fill="#F2D69E"/>
<path d="M101.7 95.9C103.3 100.9 118.2 102.6 117.3 92C116.8 86.2 110.8 73.5 110 69.2H104.9C104.9 69.3 97.9001 84.1 101.7 95.9Z" fill="#FF9566"/>
<path d="M109.8 68.5H106.1C105.4 74.8 104.7 84 108.4 91.3C109.6 93.6 113.6 94.6 117.2 94C117.3 93.4 117.3 92.8 117.2 92C116.8 86.3 110.8 73.5 109.8 68.5Z" fill="#FFB882"/>
<path d="M94.2 38.7C95.9 27.9 106.2 13.6 111.8 15.1C117.4 16.6 125.5 20.1 122.9 27C120.3 33.9 108.6 47.1 107 48.7C104.8 51.1 93.4 43.6 94.2 38.7Z" fill="#FFB882"/>
<path d="M119.5 34.7C112.5 44 108.6 50.5999 108.9 57.6999C108.9 57.6999 91.0001 59.5999 88.7001 47.5999C86.4001 35.5999 98.2001 16.7 98.2001 16.7L99.4001 17.7C99.4001 17.7 98.5001 27.4 99.3001 31.4C99.6001 33.1 109.6 41.0999 114.3 38.5999C115.7 37.7999 120.4 32.7999 120.4 32.7999L119.5 34.7Z" fill="#A0553C"/>
<path d="M97.4001 34.5999C97.4001 29.0999 99.7001 24.1 101.7 20.1C102 18.9 100.3 16.5 100.3 16.5L97.4001 15.7C97.4001 15.7 86.3001 35.7 88.6001 47.7C90.9001 59.7 108.8 57.8 108.8 57.8C101.5 56.7 97.4001 46.8999 97.4001 34.5999Z" fill="#823C29"/>
<path d="M97.3 21.9C97.2 19 95.1 16.2 93.1 18.4C90.8 20.9 92.1 26.1 94.6 26.6C95.6 26.8 97.3 23.8 97.3 21.9Z" fill="#FFB882"/>
<path d="M96.2 22.3C96.1 20.3 94.9 18.3 93.8 19.8C92.5 21.6 93.4 25.2 94.8 25.6C95.3 25.8 96.2 23.7 96.2 22.3Z" fill="#D3583C"/>
<path d="M95.6001 23.6C95.5001 22.3 94.5001 20.9 93.6001 22C92.6001 23.2 93.2001 25.6 94.4001 25.9C95.0001 25.9 95.7001 24.5 95.6001 23.6Z" fill="#FFB882"/>
<path d="M133.7 98.5C133.7 98.5 125.5 106.1 129.7 107.8C133.2 109.2 136.2 109.4 133.7 98.5Z" fill="#B7B029"/>
<path d="M211.3 114.9C211.3 114.9 202.6 121.9 206.7 123.9C210 125.5 213 125.9 211.3 114.9Z" fill="#B7B029"/>
<path d="M226.8 163.5C226.8 163.5 215.5 160.4 215.7 164.9C215.9 168.6 217.1 171.3 226.8 163.5Z" fill="#9E982D"/>
<path d="M225 151.5C225 151.5 214.6 157.1 217.9 160.2C220.5 162.7 223.2 163.8 225 151.5Z" fill="#9E982D"/>
<path d="M227.8 143C227.8 143 216.6 142.3 218.3 146.5C219.8 150 221.7 152.2 227.8 143Z" fill="#9E982D"/>
<path d="M213.6 190.1C213.6 190.1 204.9 182.2 203.1 186.3C201.5 189.7 201.4 192.6 213.6 190.1Z" fill="#9E982D"/>
<path d="M218.3 182.2C218.3 182.2 207.6 177.4 207.1 181.9C206.7 185.6 207.5 188.4 218.3 182.2Z" fill="#9E982D"/>
<path d="M221.1 173.4C221.1 173.4 211.5 167.7 211.1 172.2C210.7 176 211.4 178.9 221.1 173.4Z" fill="#9E982D"/>
<path d="M181.1 205.2C181.1 205.2 180 193.5 175.9 195.3C172.4 196.8 170.4 198.8 181.1 205.2Z" fill="#9E982D"/>
<path d="M173 205.5C173 205.5 167.3 195.2 164.2 198.5C161.7 201.2 160.6 204 173 205.5Z" fill="#9E982D"/>
<path d="M191.7 199.2C191.7 199.2 182.8 191.5 181.1 195.6C179.6 199 179.5 201.9 191.7 199.2Z" fill="#9E982D"/>
<path d="M200.6 198.8C200.6 198.8 197.3 188.1 194 191.2C191.2 193.8 189.8 196.4 200.6 198.8Z" fill="#9E982D"/>
<path d="M99.6001 131.2C99.6001 131.2 110 136.7 106.7 139.9C103.9 142.6 101.1 143.7 99.6001 131.2Z" fill="#9E982D"/>
<path d="M105.8 120.9C105.8 120.9 113.9 129.4 109.7 131.5C106.3 133.2 103.4 133.5 105.8 120.9Z" fill="#9E982D"/>
<path d="M114.6 112.3C114.6 112.3 123.2 119.4 118.9 121.5C115.5 123.1 112.5 123.5 114.6 112.3Z" fill="#B7B029"/>
<path d="M95.1001 162.9C95.1001 162.9 106.7 159.7 106.3 164.3C106 168.1 104.6 170.8 95.1001 162.9Z" fill="#9E982D"/>
<path d="M97.4001 150.6C97.4001 150.6 107.7 156.3 104.3 159.5C101.5 162.1 98.7001 163.2 97.4001 150.6Z" fill="#9E982D"/>
<path d="M94.9001 141.9C94.9001 141.9 106.2 141.2 104.3 145.5C102.8 149 100.7 151.4 94.9001 141.9Z" fill="#9E982D"/>
<path d="M109 189.7C109 189.7 118.1 181.6 119.8 185.8C121.2 189.2 121.2 192.2 109 189.7Z" fill="#9E982D"/>
<path d="M103 182C103 182 114 177.1 114.4 181.6C114.6 185.5 113.7 188.3 103 182Z" fill="#9E982D"/>
<path d="M100.5 173.1C100.5 173.1 110.5 167.3 110.7 171.9C110.9 175.7 110.1 178.7 100.5 173.1Z" fill="#9E982D"/>
<path d="M139.7 205.6C139.7 205.6 141.3 193.6 145.4 195.4C148.8 196.9 150.8 199 139.7 205.6Z" fill="#9E982D"/>
<path d="M147.1 206.6C147.1 206.6 152.4 195.8 155.7 198.8C158.5 201.3 159.7 204 147.1 206.6Z" fill="#9E982D"/>
<path d="M129.3 199.4C129.3 199.4 138.6 191.5 140.2 195.7C141.5 199.2 141.4 202.2 129.3 199.4Z" fill="#9E982D"/>
<path d="M119.7 197.4C119.7 197.4 123.5 186.5 126.7 189.6C129.5 192.2 130.8 194.9 119.7 197.4Z" fill="#9E982D"/>
<path d="M174.2 103.4C174.2 103.4 165.5 110.4 169.6 112.4C172.9 114.1 175.9 114.4 174.2 103.4Z" fill="#9E982D"/>
<path d="M116 32.9C116.6 31.8 116.5 30.6 115.9 30.2C115.2 29.8 114.2 30.4 113.6 31.5C113 32.6 113.1 33.8 113.7 34.2C114.4 34.5 115.5 34 116 32.9Z" fill="#4F3131"/>
<path d="M113.2 25C114.9 24.4 109.4 38.5 108.3 39.4C107.8 39.8 105.5 36.1 105.5 36.1C105.5 36.1 113 25.1 113.2 25Z" fill="#FFB882"/>
<path d="M113.5 25.6C112.9 28.8 109.2 38.5 108.3 39.2C107.9 39.5 106.7 36.8 105.9 36.2C105.8 36.4 105.7 36.5 105.7 36.5C105.7 36.5 108.1 40.6 108.6 40.1C109.6 39.2 114.3 26.3 113.5 25.6Z" fill="#EF8F6F"/>
<path d="M108.2 28.1C108.8 27 108.7 25.8 108 25.4C107.3 25 106.3 25.6 105.7 26.7C105.1 27.8 105.2 29 105.8 29.4C106.5 29.7 107.6 29.2 108.2 28.1Z" fill="#4F3131"/>
<path d="M112.8 24C110.8 24.7 106.2 21 106.3 19.9C106.4 18.8 106.7 17.8 108.1 18C109.4 18.2 114.7 20.1 114.9 21.2C115.1 22.4 113.7 23.7 112.8 24Z" fill="#A0553C"/>
<path d="M116.2 26.1C116.2 28.1 120.2 29.7 121 29C121.8 28.3 122.5 27.4 122 26.5C121.5 25.6 118.6 22.4 117.7 22.8C116.8 23.3 116.2 25.2 116.2 26.1Z" fill="#A0553C"/>
<path d="M107.4 41.7L100 36C100 36 97.6001 40.4 98.7001 41.6C99.8001 42.8 102.9 44.7 104 44.5C105 44.2 107.4 41.7 107.4 41.7Z" fill="#542A29"/>
<path d="M104.9 43.4C105.9 42.7 107 41.5 107 41.5L100.3 36.3C100.3 36.3 99.5001 37.7 99.1001 39L104.9 43.4Z" fill="#FFF7E9"/>
<path d="M119 61.5L170.8 45.4C170.8 45.4 151.6 40.3 141.2 45.5C133.2 49.5 123.8 57.3 119 61.5Z" fill="#BFA08A"/>
<path d="M118.7 62.3L172.8 65.3C172.8 65.3 155.3 74.7 144 72.3C135.3 70.4 124.4 65.2 118.7 62.3Z" fill="#BFA08A"/>
<path d="M96.8 65.8L95.8 56C94.6 56 88.4 57.2 87.2 57.1L87.4 66.1C87.3 66.1 93.1 64.4 96.8 65.8Z" fill="#FF9566"/>
<path d="M93.1999 65.1C93.8999 65.5 95.8999 65.8 97.4999 65.8C101.5 65.6 101.5 65.1 102.2 64.5C103.3 63.5 105.6 63.5 106.1 63C107.2 61.8 108.5 60.7 107.4 59.4C106.3 58.1 96.4999 54.3 93.4999 56.9C92.3999 57.8 93.1999 65.1 93.1999 65.1Z" fill="#FF9566"/>
<path d="M99.8 59C102.7 59 105.3 59.2 107.6 59.7C107.5 59.6 107.5 59.5 107.4 59.4C106.5 58.4 99.9 55.6 95.8 56C94.6 56 88.4 57.2 87.2 57.1L87.3 61.2C89.6 59.9 94.4 59 99.8 59Z" fill="#FFB882"/>
<path d="M57.9 58.1C54.4 59.2 50.5 65.2 51.5 70C52.3 73.9 56.8 76.9 62.8 76.4C70.2 75.8 86.6 65.8 92 64.9L92.4 58.1C92.5 58 73 53.6 57.9 58.1Z" fill="#FFB882"/>
<path d="M91.2 59.8C83.2 61.4 68.9 68.5 63.4 68.5C58.2 68.5 54.3 66.3 52.7 63.4C51.7 65.5 51.2 67.8 51.6 70C52.4 73.9 56.9 76.9 62.9 76.4C70.3 75.8 85.3 65.5 93.6 65.3C93.7 62.7 96.4 58.8 91.2 59.8Z" fill="#FF9566"/>
<path d="M119.9 62.4C119.9 62.4 97.1001 57.8 96.1001 58.4C95.1001 59 94.8001 62.2 95.7001 63C96.5001 63.7 120.8 63.4 120.8 63.4L119.9 62.4Z" fill="#683841"/>
<path d="M120.9 59.9C120.9 59.9 98.4001 65.7 97.8001 66.7C97.2001 67.7 98.3 70.7 99.4 71C100.5 71.3 122.2 60.4 122.2 60.4L120.9 59.9Z" fill="#683841"/>
<path d="M159.7 43.4999C153.6 42.8999 146.3 42.9999 141.2 45.4999C141 45.5999 140.8 45.6999 140.7 45.7999L136.8 55.9999L157.4 49.5999L159.7 43.4999Z" fill="#D8BDAB"/>
<path d="M148.7 72.7L151.9 64.2L134.1 63.2L132.1 68.5C136.1 70.1 140.2 71.5 144 72.3C145.4 72.6 147 72.7 148.7 72.7Z" fill="#D8BDAB"/>
<path d="M156 68.6C156 68.6 155.5 57.4 151.5 59.6C148.2 61.4 146.1 63.6 156 68.6Z" fill="#9E982D"/>
<path d="M109.8 62.9C107.6 61.9 101.6 64.1 100.9 65.2C100.2 66.3 103.2 71.7 102.8 74.4L110.3 70.9C110.3 70.9 112.1 63.9 109.8 62.9Z" fill="#FFB882"/>
<path d="M105.3 73.2C104.8 72.4 104.3 71.5 104 70.6C102.4 66.3 104.4 64.9 107 64C108.3 63.5 109.5 63.2 110.6 63.7C110.4 63.3 110.2 63.1 109.9 62.9C107.7 61.9 101.7 64.1 101 65.2C100.3 66.3 103 73.8 102.6 76.5L105.3 73.2Z" fill="#FF9566"/>
<path d="M104.2 64.7C104.2 63.8 102.9 62.9 100.3 62.9C97.7 62.9 97.5 63.7 97.5 64.5C97.5 65.3 97.7 66 100.3 66C103 66 104.3 66.5 104.2 64.7Z" fill="#FF9566"/>
<path d="M96.9 56.7C97.4 59.2 95.7 63.5 97.3 64C98.9 64.6 99.5 64.3 100 63.7C100.5 63.1 101.3 58.3 100.7 57.4C100.2 56.5 96.9 56.7 96.9 56.7Z" fill="#FFB882"/>
<path d="M100.4 57.4999C100.9 59.6999 99.3 63.5999 100.8 64.0999C102.2 64.5999 102.8 64.2999 103.2 63.7999C103.6 63.2999 104.3 58.8999 103.9 58.0999C103.3 57.2999 100.4 57.4999 100.4 57.4999Z" fill="#FFB882"/>
<path d="M103.3 58.3C103.6 60.4 101.8 64.2 103.2 64.6C104.6 65.1 105.2 64.8 105.6 64.4C106 63.9 107.1 59.7 106.7 58.9C106.2 58.1 103.3 58.3 103.3 58.3Z" fill="#FFB882"/>
<path d="M0 225H352C352 225 313.3 239.3 170.6 239.3C27.8 239.3 0 225 0 225Z" fill="#F4D44E"/>
<path d="M341.7 225C341.7 225 219.8 228.2 158.3 228.2C96.7999 228.2 46.3999 226.1 46.3999 225.7C46.3999 225.3 96.9999 224.2 158.5 224.2C220 224.2 341.7 225 341.7 225Z" fill="#827B20"/>
<path d="M237.1 222.7L235.9 225.5C232.6 204.5 221.5 194 221.5 194C221.5 194 233.1 200.2 237.1 222.7Z" fill="#B7B029"/>
<path d="M226.1 194.8C231.3 198.9 229.3 202.7 226.2 202.7C222.4 202.7 223.1 199.6 225.3 195.1L226.1 194.8Z" fill="#69ADD6"/>
<path d="M224.8 195.4C224.9 201.8 221.3 203 219.7 200.9C217.7 198.4 220 196.7 224.2 195.1L224.8 195.4Z" fill="#69ADD6"/>
<path d="M224.3 195.2C219.3 199.5 216.7 197.3 217.3 194.6C218.1 191.2 220.5 192 224.1 194.4L224.3 195.2Z" fill="#69ADD6"/>
<path d="M224.2 195.3C218.6 193.7 219.6 190.2 222.1 189C225.6 187.4 225.8 190.1 224.9 194.7L224.2 195.3Z" fill="#69ADD6"/>
<path d="M224.4 195C224.6 189.1 228.5 187.9 230.5 189.7C233.4 192.2 230.3 193.9 225.1 195.3L224.4 195Z" fill="#69ADD6"/>
<path d="M225.2 195.1C231.1 191.4 234.1 194.1 233 197.1C231.6 201.1 228.6 199.4 225.1 195.9L225.2 195.1Z" fill="#69ADD6"/>
<path d="M227.6 193.2C228.6 194.6 228.2 196.6 226.5 197.7C224.9 198.8 222.8 198.5 221.9 197.1C221 195.7 221.5 193.8 223 192.7C224.5 191.7 226.6 191.9 227.6 193.2Z" fill="#FFDF9F"/>
<path d="M244.6 198.9C244.6 198.9 238.3 207.8 235.8 223.4L234.2 220.2C236.7 207.2 244.6 198.9 244.6 198.9Z" fill="#B7B029"/>
<path d="M246 198.1C247.3 203.9 244.1 205.4 241.9 203.7C239.1 201.5 241.2 199.7 245.2 197.9L246 198.1Z" fill="#69ADD6"/>
<path d="M245 197.9C241.6 202.6 238.4 200.9 238.3 198.1C238.1 194.5 240.8 195.1 244.7 197.2L245 197.9Z" fill="#69ADD6"/>
<path d="M244.9 197.6C239.3 198.1 238.3 194.5 240.1 192.6C242.4 190.1 243.8 192.5 245.2 196.9L244.9 197.6Z" fill="#69ADD6"/>
<path d="M244.8 197.6C241.6 192.7 244 190.2 246.5 191C249.7 192 248.5 194.4 245.5 197.6H244.8Z" fill="#69ADD6"/>
<path d="M245.1 197.5C248.2 192.8 251.3 194.3 251.6 197C252 200.5 249.4 200.1 245.4 198.2L245.1 197.5Z" fill="#69ADD6"/>
<path d="M245.6 198C251.1 198.5 251.6 202.2 249.6 203.8C246.9 206 245.9 203.2 245.2 198.6L245.6 198Z" fill="#69ADD6"/>
<path d="M248 198C248 199.6 246.8 200.9 245.2 200.8C243.7 200.7 242.4 199.4 242.5 197.8C242.5 196.2 243.8 195 245.3 195C246.8 195.1 248 196.4 248 198Z" fill="#FFDF9F"/>
</svg>
