<svg width="438" height="299" viewBox="0 0 438 299" fill="none" xmlns="http://www.w3.org/2000/svg">
<path d="M237.7 283.5C234 279.3 232.5 275.9 232.5 273.2C228.5 274.9 230.9 281.5 230.9 281.5C230 279.7 227.9 277.3 228.2 275.7C226.4 276.8 225.9 281.6 226.4 283.9C218.5 271.9 220 263.3 219.9 263.2C217.5 263.7 213.4 274.6 213 277C212.8 278.2 213.1 279.7 212.1 280.3C210.1 277.2 209.1 273.7 209.4 271.3C208.9 272 208.2 273.7 207.7 274.4C205.1 270.3 204.3 264.2 204.5 262.3C202.7 263.4 201.6 267.5 201.1 269.6C200.7 271.8 200.1 275.2 201 278.2C198.3 274.6 197 268.1 196.4 262.4C195 264.7 194 266.8 193.8 273.3C193.8 274.4 194.3 276.4 193.7 277.2C191.8 273.6 190.6 268.9 190.8 267.4C188.8 268.1 189.5 277.2 190 279.9C187.8 275.4 186.4 270.6 186.7 267.3C185.1 272.3 187.1 280 188.3 287.2L251.9 289.2C254.5 289.3 258.2 290.3 260 289.4C243.1 284.1 246 261.7 246 261.7C243.6 268.6 237.1 273.5 237.7 283.5Z" fill="#B7B029"/>
<path d="M145.9 282.1C147.8 279 148.1 276.3 147.5 274.1C151 275.8 150.7 280.9 150.7 280.9C151 279.5 152 277.7 151.5 276.4C153.2 277.4 154.7 281.4 154.9 283.2C158.2 274 155 266.9 155.1 266.8C157.1 267.4 162.9 276.5 163.7 278.4C164.1 279.4 164.3 280.6 165.2 281.2C166.1 278.8 166 276 165.1 274.1C165.7 274.7 166.6 276.1 167.2 276.7C168.2 273.6 167.4 268.7 166.8 267.1C168.5 268.1 170.3 271.5 171.2 273.3C172.1 275.1 173.3 277.9 173.3 280.3C174.5 277.6 174 272.4 173.2 267.8C174.8 269.7 176.1 271.5 177.8 276.8C178.1 277.7 178.1 279.3 178.8 279.9C179.4 277.1 179.3 273.4 178.7 272.1C180.4 272.8 182 280.1 182.3 282.3C182.9 278.8 182.9 275 181.9 272.3C184.3 276.5 184.6 282.6 185.4 288.3L136.1 285.6C134.1 285.5 131.4 286 129.8 285.2C141.7 282 134.1 263.7 134.1 263.7C137.8 269.7 144 274.1 145.9 282.1Z" fill="#B7B029"/>
<path d="M285.2 280.9C284.3 279.8 282.3 276.6 281 275.5C280.8 277 281.2 278.8 281.7 280.4C281.3 279.9 279.7 278.9 279.3 278.4C279.2 279 278.8 279.4 278.7 280C277.7 279.1 276.2 278.6 275.2 277.3C275.1 278 274.4 279.5 274.3 280.4C273.7 279.6 273 279 272.5 278C273 279.4 273.2 280.8 273.6 282.2C267.4 273.2 268 274.4 260.8 265.8C263.7 272.3 262.5 271 264.1 279C262 278.1 261.4 275.5 261.1 273.5C259.5 275.3 259.3 278.7 259.1 281.5C256.1 279.3 256.1 274.4 255.7 271.6C252.5 275.3 250.2 281.3 253.4 288L291.3 288.6C289.6 285.4 287 283.2 285.2 280.9Z" fill="#B7B029"/>
<path d="M316.5 284.7C319.6 281 320.7 277.8 320.4 275.3C324.2 277 322.6 282.9 322.6 282.9C323.3 281.2 325 279.1 324.6 277.6C326.4 278.6 327.3 283 327 285.1C333.3 274.3 331.2 266.4 331.3 266.3C333.6 266.8 338.4 276.8 338.9 279C339.1 280.1 339.1 281.5 340 282.1C341.6 279.3 342.3 276.1 341.7 273.9C342.3 274.5 343 276.1 343.5 276.8C345.5 273.1 345.8 267.5 345.4 265.8C347.2 266.9 348.6 270.6 349.2 272.6C349.8 274.6 350.6 277.7 350 280.5C352.2 277.3 352.8 271.3 352.9 266.1C354.4 268.2 355.6 270.1 356.3 276.1C356.4 277.1 356.1 279 356.7 279.6C358.2 276.4 358.9 272.1 358.6 270.6C360.5 271.3 360.6 279.5 360.4 282C362 277.9 362.9 273.6 362.4 270.6C364.3 275.2 363.1 282.2 362.7 288.7L303.6 289.6C301.2 289.7 297.8 290.5 296.1 289.7C311.3 285.1 306.7 264.6 306.7 264.6C309.7 271 316.3 275.6 316.5 284.7Z" fill="#B7B029"/>
<path d="M401.9 284.9C399.9 282 399.3 279.5 399.7 277.5C396.6 279 397.3 283.7 397.3 283.7C396.9 282.4 395.8 280.7 396.2 279.5C394.7 280.4 393.6 284 393.7 285.6C389.8 277.2 392.2 270.7 392.1 270.6C390.3 271.1 385.6 279.3 385.1 281.1C384.8 282 384.7 283.1 384 283.6C383 281.4 382.8 278.9 383.4 277.1C382.9 277.6 382.2 278.9 381.7 279.5C380.5 276.6 380.8 272.2 381.2 270.8C379.7 271.7 378.3 274.8 377.7 276.4C377 278.1 376.1 280.6 376.3 282.8C374.9 280.3 374.9 275.5 375.3 271.4C374 273.1 372.9 274.7 371.8 279.6C371.6 280.4 371.7 281.9 371.2 282.5C370.4 280 370.2 276.5 370.6 275.4C369.1 276 368.2 282.7 368.2 284.7C367.3 281.5 367 278 367.7 275.6C365.8 279.4 366.1 284.9 365.8 290.2L411.5 288.5C413.4 288.5 415.9 289 417.3 288.3C405.9 285.2 411.4 268.5 411.4 268.5C408.4 273.6 403 277.6 401.9 284.9Z" fill="#B7B029"/>
<path d="M272.1 281.6C272.9 280.6 274.5 277.8 275.5 276.8C275.8 278.2 275.6 279.8 275.3 281.3C275.6 280.8 277 279.9 277.4 279.5C277.5 280 277.9 280.4 278.1 281C279 280.2 280.3 279.8 281.1 278.6C281.2 279.2 282.1 280.6 282.2 281.5C282.7 280.8 283.3 280.3 283.7 279.4C283.4 280.7 283.3 281.9 283 283.2C288 275.1 287.5 276.1 293.5 268.4C291.4 274.3 292.3 273.1 291.6 280.4C293.5 279.6 293.8 277.3 294 275.4C295.7 277.1 296.1 280.2 296.5 282.8C299.1 280.8 298.6 276.4 298.8 273.8C302.1 277.3 304.8 282.7 302.4 288.8H267.2C268.4 285.6 270.6 283.6 272.1 281.6Z" fill="#B7B029"/>
<path d="M209.3 149.9C215.1 146.4 217.3 137.2 215.6 136.2C213.9 135.3 208.4 143.5 208.2 145.9C208 148.2 207.8 150.8 209.3 149.9Z" fill="#422A2E"/>
<path d="M52.4001 274.4C53.0001 275.8 52.7001 277.5 51.6001 278.6C52.0001 280.5 52.3001 282.4 52.7001 284.3C50.4001 282.3 46.8001 285.1 46.6001 288.1H275.8C276.1 287.6 276.4 287.2 276.7 286.7C274.7 286.4 274.4 283.5 275.2 281.6C276 279.7 277.5 278.1 277.6 276C277.7 273.5 275.8 271.4 274.5 269.3C273.2 267.2 272.8 263.7 275 262.6C276.2 258.9 274.3 254.3 270.9 252.6C272.6 245.3 269.8 237.5 265.4 231.5C263.3 228.7 260.8 226.1 257.6 224.8C254.4 223.5 250.5 223.7 247.9 226C245.3 228.3 244.6 232.9 247 235.5C245.7 234.4 244.3 233.4 243 232.3C240.4 234.4 237.3 236 234 236.7C233 234.5 230.2 233.5 228.2 234.6C226.2 235.7 225.3 238.7 226.4 240.8C226.7 241.3 227.1 241.8 227.2 242.4C227.5 244.4 224.7 245.2 222.7 245.1C224.5 247 225.3 250 224.5 252.5C222.3 251.1 219.5 253.9 219.7 256.5C219.9 259.1 221.8 261.2 223.6 263.1C222.1 263.2 220.5 263.3 219 263.4C218.6 264.3 218.2 265.1 217.8 266C211.4 269.9 204.6 272.9 197.5 275C195.4 272.2 192.1 270.4 188.7 269.7C183.9 268.7 179 269.6 174.3 270.5C174.1 269.1 173.2 267.8 172 267.2C171 267.7 170.1 268.7 169.7 269.8C168.7 266 168.3 261.9 167 258.2C165.7 254.5 163.2 250.9 159.5 249.8C160.4 244.7 156 239.3 151 239.3C149.1 239.2 147.3 240.5 146.7 242.3C146.7 240.9 144.9 240.3 143.6 240.7C142.3 241 141.1 241.8 139.8 241.8C138.2 241.7 137 240.4 135.5 239.6C134.1 238.8 131.8 239.1 131.6 240.8C130.8 236.6 128.6 232.5 125.2 230.2C121.8 227.8 117 227.5 113.6 229.9C110.2 232.3 109 237.8 111.4 241.2C104.1 233.6 102.2 234.6 99.2001 236.9C97.3001 236.2 95.2001 235.5 93.2001 236.2C91.9001 236.6 90.9001 237.9 90.7001 239.2C88.9001 232.5 84.8001 226.4 79.4001 222.3C78.0001 221.2 75.4001 220.8 75.0001 222.5C74.3001 222 73.5001 221.4 72.8001 220.9C72.3001 221.9 72.2001 223.1 72.6001 224.1C70.9001 224.2 69.3001 225.5 68.8001 227.1C68.7001 221.2 62.5001 216.5 57.0001 217.6C51.4001 218.7 47.4001 224.7 47.6001 230.6C47.8001 236.5 51.6001 241.9 56.6001 244.6C54.9001 245.7 54.3001 248.4 55.4001 250.1C53.5001 251.3 53.5001 254.6 55.3001 255.8C53.8001 255.5 52.8001 257.4 53.1001 258.8C51.6001 257.4 49.0001 257.2 47.3001 258.4C45.2001 259.8 44.2001 262.7 44.4001 265.3C44.8001 269.9 48.3001 273.7 52.4001 274.4Z" fill="#ACB53A"/>
<path d="M157.2 242.2C158.3 243.7 159.1 245.3 159.6 247C159.3 245.3 158.4 243.6 157.2 242.2Z" fill="#9DA02B"/>
<path d="M277.6 275.9C277.7 273.4 275.8 271.3 274.5 269.2C273.2 267.1 272.8 263.6 275 262.5C276.2 258.8 274.3 254.2 270.9 252.5C272.3 246.4 270.6 240 267.5 234.6C267.7 235.4 267.9 236.1 268 236.9C268.4 239.1 268.6 241.4 267.5 243.4C266.5 245.4 263.9 246.6 262 245.6C262.9 248.4 263.5 251.4 262.9 254.3C262.3 257.2 260.1 259.9 257.1 260.3C254.2 260.7 251 257.9 251.7 255C249.7 256.2 247 255.9 245.3 254.4C243.6 252.8 243.1 250.1 244.1 248C242.5 248 241 247.9 239.4 247.9C241.8 252.7 243.9 257.9 243.8 263.3C243.8 268.7 241.3 274.4 236.5 276.9C232 279.3 226.2 278.3 221.9 275.7C218.8 273.8 216.3 271.2 214 268.3C208.7 271.1 203.2 273.5 197.5 275.2C195.4 272.4 192.1 270.6 188.7 269.9C183.9 268.9 179 269.8 174.3 270.7C174.1 269.3 173.2 268 172 267.4C171 267.9 170.1 268.9 169.7 270C168.7 266.2 168.3 262.1 167 258.4C165.8 254.9 163.5 251.5 160.2 250.2C160.7 254 160.1 258 158.1 261.3C153.9 268.2 144.4 271.3 136.9 268.2C138 267.4 136.5 266 135.5 265.1C133.5 263.5 133.1 260.3 134.6 258.1C131.7 257.5 130.2 253.5 132 251.1C123 251.2 114.3 245.1 110.6 236.9C110.5 236.6 110.3 236.3 110.2 235.9C110 237.8 110.3 239.6 111.4 241.2C108.9 238.6 107.1 237 105.6 236.2C105.8 236.9 106 237.6 106.2 238.4C109.4 247.9 116.4 255.5 123.5 262.6C120.7 267.1 117.7 271.7 113.1 274.2C108.5 276.7 101.8 276.2 99.1001 271.7C98.5001 273.1 96.7001 273.7 95.4001 273.1C94.1001 272.5 93.4001 270.6 94.1001 269.3C89.6001 272.7 82.5001 270 79.7001 265.1C76.9001 260.2 77.7001 253.9 79.7001 248.6C77.5001 247.7 75.3001 246.8 73.0001 245.9C71.4001 245.3 69.7001 242.9 71.3001 242.3C62.7001 243.9 53.4001 239.2 49.6001 231.4C48.9001 229.9 48.4001 228.4 48.1001 226.9C47.7001 228.2 47.5001 229.5 47.6001 230.9C47.8001 236.8 51.6001 242.2 56.6001 244.9C54.9001 246 54.3001 248.7 55.4001 250.4C53.5001 251.6 53.5001 254.9 55.3001 256.1C53.8001 255.8 52.8001 257.7 53.1001 259.1C51.6001 257.7 49.0001 257.5 47.3001 258.7C45.2001 260.1 44.2001 263 44.4001 265.6C44.7001 269.9 48.2001 273.8 52.3001 274.4C52.9001 275.8 52.6001 277.5 51.5001 278.6C51.9001 280.5 52.2001 282.4 52.6001 284.3C50.3001 282.3 46.7001 285.1 46.5001 288.1H275.7C276 287.6 276.3 287.2 276.6 286.7C274.6 286.4 274.3 283.5 275.1 281.6C276 279.6 277.5 278 277.6 275.9Z" fill="#9DA02B"/>
<path d="M170.5 68.2C167.4 65.5 162.5 70.5 162.5 70.5C156.2 68.1 152.8 72.9 152.8 72.9C152.8 72.9 154.1 70.2 144.9 70.1C135.6 70 134.1 80.9 134.1 80.9C128.8 86.1 133.1 90.1 133.1 90.1C131.6 96.8 135.7 99.8 135.7 99.8C135.7 99.8 135.1 103.4 141.1 109.2L157.8 107C165.5 100.9 165.2 86.2 165.2 86.2C165.2 86.2 173.7 70.9 170.5 68.2Z" fill="#CC4729"/>
<path d="M160.3 101.7C149.9 101.7 156.2 89.2 146 82.2C141.7 79.3 142.1 73 143.2 70.2C135.5 71.4 134.2 80.9 134.2 80.9C128.9 86.1 133.2 90.1 133.2 90.1C131.7 96.8 135.8 99.8 135.8 99.8C135.8 99.8 135.2 103.4 141.2 109.2L157.9 107C159.7 105.6 161.1 103.7 162.1 101.6C161.4 101.7 160.9 101.7 160.3 101.7Z" fill="#B22F19"/>
<path d="M144.4 139.3C152.3 152.7 165 161.3 180.3 158.1C184.5 157.2 185.5 142.3 180.2 143.4C171.1 145.2 163.7 127.4 159.8 125.1C156.7 123.2 140.4 132.6 144.4 139.3Z" fill="#FFBD48"/>
<path d="M159.5 127.3C155.9 129.9 142.7 136.4 144.4 139.4C152.3 152.8 165.5 162.4 180.8 159.2C183 158.8 184.1 154.3 184 150.3C169.2 152.9 167.2 140.2 159.5 127.3Z" fill="#FF9A36"/>
<path d="M126.1 177.9C125.1 159.9 119.4 133.7 125.2 126.8C128.7 122.6 140 119 144 119.2C149.8 119.4 158.5 124.6 160.8 126.8C163.1 128.9 164.6 146.4 163.7 150.8C161.3 162.7 126.1 177.9 126.1 177.9Z" fill="#FFBD48"/>
<path d="M134.5 122.9C132.9 121 137.8 116.3 148.8 118.4C160.5 120.7 156.4 131.7 152.3 132.5C148.2 133.4 136.7 125.5 134.5 122.9Z" fill="#FF9A36"/>
<path d="M134.6 145.6L129.3 123.7C127.6 124.6 126.2 125.7 125.3 126.8C119.5 133.7 125.2 159.9 126.2 177.9C126.2 177.9 161.4 162.6 163.8 150.7C164.1 149.3 162.9 144.5 162.9 141.4L138.2 141.9L136.9 145.4L134.6 145.6Z" fill="#FF9A36"/>
<path d="M154.5 121L151.8 122.3C159.2 127.5 158.9 143.3 158.9 143.3L162.1 143.2C162.2 143.3 162.3 126.6 154.5 121Z" fill="#FF9A36"/>
<path d="M207.4 288.1H84.3999C84.3999 288.1 96.6999 286.4 98.9999 285.8C101.3 285.2 104.9 283.1 110.6 283.7C116.4 284.3 120.2 276.5 128.3 276.6C136.3 276.7 153.7 280.7 153.7 280.7C153.7 280.7 166.2 280.7 169.1 282C172.1 283.3 175.2 284.6 175.2 284.6C175.2 284.6 180.7 285.8 185.2 286.7C189.8 287.5 207.4 288.1 207.4 288.1Z" fill="#7A2B20"/>
<path d="M188.5 197.3C188.2 196.2 162.7 172.8 162.7 172.8C164.9 162.7 166.4 158.5 165.5 142.6L138.7 143.2C138.7 143.2 139.6 155.7 137 163C134.4 170.2 123.4 171.3 123.4 171.3C123.4 171.3 132.3 243.3 143.4 282.9H144.1C146.3 252.4 148.2 223.2 148.9 200.8L154.9 198.7L172.6 205.1L180.2 249.4L181.6 249.6C181.6 249.6 189.2 199.8 188.5 197.3Z" fill="#E53C59"/>
<path d="M129.8 169.5C126.5 170.9 123.4 171.2 123.4 171.2C123.4 171.2 132.3 243.2 143.4 282.8H144.1C144.1 282.8 144.1 282.8 144.1 282.7C135.8 244.1 130.6 179.6 129.8 169.5Z" fill="#CC123A"/>
<path d="M177.4 203.7L156.4 197.7L146.1 200.4L148.8 201.3L154.3 199.3L172.6 205.1L180.2 249.4L181 249.5L177.4 203.7Z" fill="#CC123A"/>
<path d="M159.2 195.2L155.4 199.2L148.9 201.8L143.4 199.5L152.1 198.5L159.2 195.2Z" fill="#CC123A"/>
<path d="M130.8 123.2C115.8 127.2 101.1 150.6 100.6 154.8C100.1 159 113.4 163 116.6 158.6C119.8 154.2 127.7 147.8 132.1 147C135.8 146.4 138.4 121.2 130.8 123.2Z" fill="#FFBD48"/>
<path d="M133.1 121.8L130.5 123C138 127.8 138.2 142.5 138.2 142.5L141.4 142.4C141.4 142.5 141.1 127 133.1 121.8Z" fill="#FF9A36"/>
<path d="M119.3 151.7C115.8 156.1 106.3 153 106.9 148.7C107.2 146.5 109.8 140.8 115.1 133.5C106.9 141.7 100.9 152.1 100.6 154.8C100.1 159 113.4 163 116.6 158.6C119.8 154.2 128.4 148.5 132.8 147.7C133.7 147.5 134.4 145.2 134.4 143C129.6 144.4 122.5 147.6 119.3 151.7Z" fill="#FF9A36"/>
<path d="M134.6 121L132 122.4C139.6 127.7 140.1 144 140.1 144L143.3 143.9C143.3 143.9 142.7 126.8 134.6 121Z" fill="#E53C59"/>
<path d="M155.1 122.4C160.7 129 160.7 143 160.7 143L163.9 142.9C163.9 142.9 163.7 131.9 159.5 124.6C159.5 124.6 156.1 122.1 155.1 122.4Z" fill="#E53C59"/>
<path d="M174.3 162.2C175.4 164.2 185.4 162.7 186.3 160.8C187.1 158.9 184.2 143.3 182.2 142.2C180.1 141.2 177 141.6 176 142.8C174.7 144.1 172.1 158.3 174.3 162.2Z" fill="#FFD8B8"/>
<path d="M175.8 152.8C175 151.3 174.8 148.3 175 145.1C173.8 149.5 172.5 159.2 174.2 162.3C175.3 164.3 185.3 162.8 186.2 160.9C186.6 160.1 186.2 156.5 185.5 152.8C182.3 153.8 176.6 154.2 175.8 152.8Z" fill="#F9C6A0"/>
<path d="M99.5999 152.4C97.4999 153.1 96.9999 163.2 98.6999 164.4C100.4 165.6 116.3 165.7 117.7 163.9C119.1 162.1 119.2 158.9 118.3 157.7C117.3 156.2 103.9 151 99.5999 152.4Z" fill="#FFD8B8"/>
<path d="M102.5 161.1C101.4 160.3 101.7 152.9 104.3 152.4C102.4 152.1 100.7 152 99.5999 152.3C97.4999 153 96.9999 163.1 98.6999 164.3C100.4 165.5 116.3 165.6 117.7 163.8C118.2 163.2 118.5 162.5 118.7 161.7C117 164.1 103.6 161.9 102.5 161.1Z" fill="#F9C6A0"/>
<path d="M206.8 139.7C204.4 140.7 182 251.7 182 251.7L183.3 253C183.3 253 210.9 143.8 210.6 141.2C210.3 138.5 209.2 138.7 206.8 139.7Z" fill="#934E4E"/>
<path d="M208.3 151.9C209.8 145.6 210.6 141.6 210.6 141.1C210.3 138.4 209.2 138.7 206.8 139.7C206.3 139.9 205 144.6 203.3 151.9H208.3Z" fill="#6B3434"/>
<path d="M190.9 208.6C186.1 231.7 182 251.7 182 251.7L183.3 253C183.3 253 186.6 240 190.9 222.8V208.6Z" fill="#6B3434"/>
<path d="M168 247.1L199.6 253.6C199.6 253.6 194.1 282.3 177.9 281.2C161.8 280 168 247.1 168 247.1Z" fill="#B6D7D8"/>
<path d="M181.1 250.3L187.2 252.1C187.2 252.1 184.6 266.6 181.3 266.8C178.1 266.9 181.1 250.3 181.1 250.3Z" fill="#97B7B7"/>
<path d="M184 250.8L187.4 252.5C187.4 252.5 183.6 269 181.6 269.4C179.7 269.8 184 250.8 184 250.8Z" fill="#B6D7D8"/>
<path d="M189.4 251.5L168 247.1C168 247.1 166.6 254.4 166.8 262.2L189.4 251.5Z" fill="#97B7B7"/>
<path d="M182.8 160.3C176.1 161.4 179.1 144.9 180.2 143.4C181.3 141.9 199.9 131 201.6 131.3C203.3 131.6 205.3 135.9 204.4 139.8C203.4 143.8 189.2 159.3 182.8 160.3Z" fill="#FFB882"/>
<path d="M184.3 152.2C180.6 152.8 179.9 148.2 180.1 143.6C178.9 145.6 176.2 161.5 182.8 160.4C189.2 159.3 203.4 143.8 204.4 139.9C204.8 138.2 204.7 136.4 204.2 134.9C200 140.8 189.5 151.3 184.3 152.2Z" fill="#FF9566"/>
<path d="M195.1 148.2L194.1 134.8L196.7 133.2L202 142.3L195.1 148.2Z" fill="#FF9566"/>
<path d="M99.8 162.3C100 155.5 115.6 161.5 116.9 162.9C118.2 164.3 125.4 184.6 124.8 186.2C124.2 187.8 119.6 189 115.9 187.3C112.2 185.6 99.6 168.7 99.8 162.3Z" fill="#FFB882"/>
<path d="M106.2 163C106.2 161 107.6 160.2 109.5 159.9C104.9 158.7 99.7999 158.5 99.7999 162.3C99.6999 168.8 112.2 185.6 115.9 187.3C118 188.2 120.3 188.3 122.1 187.8C118.1 185.5 106.1 169.3 106.2 163Z" fill="#FF9566"/>
<path d="M130.9 185.5L116.8 194.3C116 191.4 110.4 183.1 109.4 182L123.2 176.2C123.2 176.2 126.4 183.6 130.9 185.5Z" fill="#594043"/>
<path d="M126.9 184.3C127.9 184.7 129.6 184.1 131.5 185.3C137.3 189 132.7 190.3 132.4 191.5C131.9 193.4 134.3 196.4 134 197.3C133.3 199.3 124 200.1 121.5 200C119 199.9 115.7 194.5 116.6 189.5C117 187.6 126.9 184.3 126.9 184.3Z" fill="#594043"/>
<path d="M125 197.8C122.7 198.2 120.1 198.9 116.9 194.7C117.8 197.7 119.7 200.5 121.4 200.6C123.9 200.7 133.4 199.8 134.1 197.8C134.1 197.7 131.6 193.2 131.5 193.1C128.8 195.1 128.5 197.1 125 197.8Z" fill="#594043"/>
<path d="M132.4 191.5C132.7 190.4 137.5 189.8 131.5 185.3C128.5 183.1 124.8 184.5 121.8 185.8C121.2 188 121.4 190.4 123.5 191.8C125.4 193.1 132.2 192.2 132.4 191.5Z" fill="#594043"/>
<path d="M133.4 195.6C134.2 198.1 135.1 200.6 135 201.5C134.9 202.4 131.9 203.8 131 202.8C129.9 201.6 128.6 196.7 128.7 196.2C129 195.7 133 194.2 133.4 195.6Z" fill="#594043"/>
<path d="M127.7 195.3C128.5 197.8 129.4 200.3 129.3 201.2C129.2 202.1 126.2 203.5 125.3 202.5C124.2 201.3 122.9 196.4 123 195.9C123.2 195.4 127.3 193.9 127.7 195.3Z" fill="#594043"/>
<path d="M122.1 195.5C122.3 196.4 123.7 200.1 123.6 200.9C123.6 202 120.9 203 119.9 202C119 201.1 117.8 195.7 117.9 195.3C118.1 194.8 121.7 194.2 122.1 195.5Z" fill="#594043"/>
<path d="M133.4 195.6C134.2 198.1 135.1 200.6 135 201.5C134.9 202.4 131.9 203.8 131 202.8C129.9 201.6 128.6 196.7 128.7 196.2C129 195.7 133 194.2 133.4 195.6Z" fill="#594043"/>
<path d="M134.8 191.5C132.2 193.2 129.7 194.9 128.8 195.2C127.8 195.5 126.1 193.2 127.1 192C128.3 190.6 133.3 187.5 133.8 187.4C134.3 187.4 136.3 190.6 134.8 191.5Z" fill="#594043"/>
<path d="M127.7 195.3C128.5 197.8 129.4 200.3 129.3 201.2C129.2 202.1 126.2 203.5 125.3 202.5C124.2 201.3 122.9 196.4 123 195.9C123.2 195.4 127.3 193.9 127.7 195.3Z" fill="#594043"/>
<path d="M200.7 146.8L194.8 133.3C194.8 133.3 204.4 126.2 214.9 131.7C217.4 133 215.5 143 213.1 142.4C205.2 140.4 205.4 143.8 200.7 146.8Z" fill="#422A2E"/>
<path d="M215.2 135.9C215.6 136.1 215.8 136.5 216 137C216.3 134.6 216.1 132.3 215 131.7C204.4 126.2 194.9 133.3 194.9 133.3L196.4 136.7C199.2 135.1 206.9 131.6 215.2 135.9Z" fill="#594043"/>
<path d="M134.6 121C133 119.1 137.9 114.4 148.9 116.5C160.6 118.8 156.5 129.8 152.4 130.6C148.3 131.6 136.7 123.6 134.6 121Z" fill="#FFD8B8"/>
<path d="M138.5 118.1L139.8 99.5L153.1 105.8L153.9 120.2C153.9 120.2 149.1 127.8 138.5 118.1Z" fill="#FFB882"/>
<path d="M146.8 286.4L134.3 287.5C134.3 287.5 141.1 283 143.4 282.5C145.6 281.9 146.8 286.4 146.8 286.4Z" fill="#E2C9A6"/>
<path d="M177.8 249.4L189.5 251.6C189.5 251.6 183.9 247.2 181.8 246.2C179.7 245.2 177.8 249.4 177.8 249.4Z" fill="#E2C9A6"/>
<path d="M118 288.1H260.4C260.4 288.1 246.5 284.7 244 283.6C241.5 282.5 237.8 278.2 231 279.4C224.2 280.5 221.4 265 212 265.2C202.7 265.5 181.7 273.4 181.7 273.4C181.7 273.4 167.3 273.4 163.6 275.9C159.9 278.4 156 281 156 281C156 281 149.4 283.5 144 285.2C138.5 286.9 118 288.1 118 288.1Z" fill="#B5523E"/>
<path d="M231.7 279.2C230.8 280 229.8 280.7 228.7 281.2C224.5 283.2 219.5 282.8 215 281.5C212.3 280.7 209.2 278.7 209.8 276C204.4 277.5 199.5 280.9 193.9 281.1C190.9 281.2 187.9 280.4 184.9 280.3C181.8 280.2 178.7 280.8 175.6 281.3C167 282.8 158.2 283.7 149.5 283.2C147.7 283.8 145.7 284.5 143.9 285.1C138.4 286.8 118 288 118 288H260.4C260.4 288 246.5 284.6 244 283.5C241.6 282.5 238.1 278.5 231.7 279.2Z" fill="#8E3728"/>
<path d="M188.5 271.3C188.5 270.5 187.8 269.9 187 269.9C186.2 269.9 185.5 270.5 185.5 271.3C185.5 272.1 186.2 272.7 187 272.7C187.8 272.7 188.5 272.1 188.5 271.3Z" fill="#B5523E"/>
<path d="M196.1 269.9C196.1 269.1 195.4 268.5 194.6 268.5C193.8 268.5 193.1 269.1 193.1 269.9C193.1 270.7 193.8 271.3 194.6 271.3C195.4 271.3 196.1 270.7 196.1 269.9Z" fill="#B5523E"/>
<path d="M191.2 271.1C191.2 270.3 190.5 269.7 189.7 269.7C188.9 269.7 188.2 270.3 188.2 271.1C188.2 271.9 188.9 272.5 189.7 272.5C190.5 272.5 191.2 271.9 191.2 271.1Z" fill="#B5523E"/>
<path d="M183.1 273.4C183.1 272.6 182.4 272 181.6 272C180.8 272 180.1 272.6 180.1 273.4C180.1 274.2 180.8 274.8 181.6 274.8C182.4 274.8 183.1 274.2 183.1 273.4Z" fill="#B5523E"/>
<path d="M179.3 273.7C179.3 273.2 178.9 272.8 178.3 272.8C177.8 272.8 177.3 273.2 177.3 273.7C177.3 274.2 177.7 274.6 178.3 274.6C178.9 274.6 179.3 274.2 179.3 273.7Z" fill="#B5523E"/>
<path d="M170.1 274.9C170.1 274.1 169.4 273.5 168.6 273.5C167.8 273.5 167.1 274.1 167.1 274.9C167.1 275.7 167.8 276.3 168.6 276.3C169.4 276.3 170.1 275.7 170.1 274.9Z" fill="#B5523E"/>
<path d="M177.6 273.5C177.6 272.7 176.9 272.1 176.1 272.1C175.3 272.1 174.6 272.7 174.6 273.5C174.6 274.3 175.3 274.9 176.1 274.9C177 274.9 177.6 274.3 177.6 273.5Z" fill="#B5523E"/>
<path d="M172.8 274.7C172.8 273.9 172.1 273.3 171.3 273.3C170.5 273.3 169.8 273.9 169.8 274.7C169.8 275.5 170.5 276.1 171.3 276.1C172.1 276.1 172.8 275.5 172.8 274.7Z" fill="#B5523E"/>
<path d="M164.6 277C164.6 276.2 163.9 275.6 163.1 275.6C162.3 275.6 161.6 276.2 161.6 277C161.6 277.8 162.3 278.4 163.1 278.4C163.9 278.4 164.6 277.8 164.6 277Z" fill="#B5523E"/>
<path d="M161 278.4C161 277.9 160.6 277.5 160 277.5C159.4 277.5 159 277.9 159 278.4C159 278.9 159.4 279.3 160 279.3C160.6 279.3 161 279 161 278.4Z" fill="#B5523E"/>
<path d="M161.6 174.6C161.6 174.6 167.1 178.2 172 181.5C166.9 176.8 162.6 172.8 162.6 172.8C164.6 163.6 166 159.3 165.6 146.6C165.1 156.6 163 165.8 160.7 170.7C159.7 172.9 155 174.1 155 174.1L161.6 174.6Z" fill="#CC123A"/>
<path d="M134.3 139.4C136.4 142 134.9 146.5 133.1 149L130.9 148.3C133.8 144.8 134.9 141.8 134.3 139.4Z" fill="#FF9A36"/>
<path d="M142.8 147.4C142.8 146.4 142.3 145.6 141.5 145.6C140.8 145.6 140.2 146.4 140.1 147.4C140.1 148.4 140.6 149.2 141.4 149.2C142.1 149.1 142.7 148.4 142.8 147.4Z" fill="#CC123A"/>
<path d="M143.3 146.9C143.3 145.9 142.8 145.1 142 145.1C141.3 145.1 140.7 145.9 140.6 146.9C140.6 147.9 141.1 148.7 141.9 148.7C142.7 148.7 143.3 147.9 143.3 146.9Z" fill="#F9C6A0"/>
<path d="M163.7 146.3C163.7 145.3 163.2 144.5 162.4 144.5C161.7 144.5 161.1 145.3 161 146.3C161 147.3 161.5 148.1 162.3 148.1C163.1 148.1 163.7 147.3 163.7 146.3Z" fill="#CC123A"/>
<path d="M164.2 145.8C164.2 144.8 163.7 144 162.9 144C162.2 144 161.6 144.8 161.5 145.8C161.5 146.8 162 147.6 162.8 147.6C163.6 147.6 164.2 146.8 164.2 145.8Z" fill="#F9C6A0"/>
<g opacity="0.6">
<path d="M158.8 135.4C161.6 134.5 163.3 132.6 164 130.1C162.3 127.7 160.9 125.8 159.8 125.1C159.7 124.9 159.6 124.7 159.5 124.5C159.5 124.5 157.9 123.3 156.5 122.7C156.2 121.2 155.4 119.7 153.8 118.5L153.1 106.4C152.6 105.9 152.2 105.5 151.7 105.1L139.8 99.5L138.6 116.7C135 117.8 133.6 119.9 134.6 121L133.1 121.8L130.5 123C130.5 123 130.5 123 130.6 123C130.3 123.1 130 123.3 129.7 123.4C129.6 123.4 129.6 123.4 129.5 123.5C139 132.7 151.4 137.9 158.8 135.4Z" fill="#843131"/>
</g>
<path d="M138.7 93.9C139.2 99.2 140.5 111.5 142.3 113.2C144.1 114.9 150.2 117.4 153.1 117.7C156 117.9 160.1 114.8 160.6 112.6C161 110.4 162.8 88.4 161 85.4C159.2 82.4 144.5 80.8 141.9 83.5C139.3 86.1 138.5 91.4 138.7 93.9Z" fill="#FFB882"/>
<path d="M144.3 101.3C145.9 88.6 146.6 77.8 142.1 80.5C137.6 83.2 135.1 85.8 136.8 91.7C138.5 97.6 140.3 100.8 140.3 100.8L144.3 101.3Z" fill="#B22F19"/>
<path d="M142.6 98.2C142.3 94.1 138.3 91.5 137.7 94.9C137.1 98.3 140 104.2 140.9 104.4C142 104.5 142.8 101.1 142.6 98.2Z" fill="#FFB882"/>
<path d="M141.9 97.4C141.7 94.7 139.1 93 138.7 95.2C138.3 97.4 140.2 101.3 140.8 101.4C141.4 101.6 142 99.3 141.9 97.4Z" fill="#D3583C"/>
<path d="M141.4 99.4C141.3 97.6 139.5 96.4 139.2 97.9C138.9 99.4 140.2 102 140.6 102.1C141.1 102.2 141.5 100.7 141.4 99.4Z" fill="#FFB882"/>
<path d="M129.1 170.8C137.1 174.5 145.4 174.6 145.4 174.6L129 178.6L129.1 170.8Z" fill="#CC123A"/>
<path d="M68.9 284.7C70.5 282.3 70.8 280.2 70.3 278.6C73.3 279.7 73.1 283.5 73.1 283.5C73.3 282.4 74.2 281 73.7 280.1C75.1 280.7 76.5 283.6 76.6 285C79.4 277.9 76.6 272.8 76.7 272.7C78.4 273 83.5 279.5 84.2 280.9C84.6 281.6 84.7 282.5 85.5 282.9C86.2 281 86.2 279 85.4 277.6C85.9 278 86.7 279 87.2 279.4C88.1 277 87.4 273.4 86.9 272.3C88.3 273 90 275.4 90.7 276.7C91.5 278 92.5 280 92.5 281.8C93.5 279.7 93.1 275.8 92.3 272.5C93.7 273.9 94.8 275.1 96.3 279C96.6 279.7 96.6 280.9 97.1 281.3C97.6 279.2 97.5 276.4 97 275.5C98.5 275.9 99.9 281.3 100.1 282.9C100.6 280.2 100.6 277.4 99.7 275.5C101.8 278.5 102 284 102.8 288.3H55C60.1 285.6 62.8 281.1 58.6 271.9C61.8 275.9 67.2 278.8 68.9 284.7Z" fill="#B7B029"/>
<path d="M125.8 284.4C123.9 282.5 123.1 280.9 123.1 279.6C121.1 280.6 122.3 283.6 122.3 283.6C121.8 282.8 120.7 281.7 120.8 280.9C119.9 281.5 119.6 283.8 119.9 284.9C115.8 279.4 116.4 275.2 116.4 275.2C115.2 275.5 113.1 280.9 113 282.1C112.9 282.7 113.1 283.4 112.6 283.7C111.5 282.3 111 280.6 111.2 279.5C110.9 279.9 110.6 280.7 110.4 281.1C109 279.2 108.6 276.3 108.7 275.4C107.8 276 107.2 278 107 279.1C106.8 280.2 106.5 281.8 107 283.2C105.6 281.6 104.9 278.5 104.5 275.8C103.8 276.9 103.3 278 103.3 281.1C103.3 281.6 103.6 282.6 103.3 283C102.3 281.4 101.6 279.1 101.7 278.4C100.7 278.8 101.1 283.1 101.4 284.4C100.3 282.3 99.5 280.1 99.6 278.5C98.8 281 99.9 284.7 100.6 288.2H133.2C127.1 284.7 130 273.7 130 273.7C128.7 277.1 125.4 279.6 125.8 284.4Z" fill="#B7B029"/>
<path d="M36.4 283C36.8 282.3 37.5 280.5 38.1 279.8C38.5 280.7 38.6 281.7 38.7 282.7C38.9 282.4 39.7 281.8 39.9 281.5C40.1 281.8 40.4 282.1 40.6 282.5C41.1 282 42 281.7 42.4 280.9C42.6 281.3 43.4 282.2 43.6 282.8C43.8 282.3 44.2 282 44.3 281.4C44.3 282.2 44.4 283.1 44.4 283.9C46.7 278.6 46.5 279.3 49.6 274.2C49 278.1 49.5 277.3 50.1 282C51.3 281.5 51.2 280 51 278.7C52.5 279.8 53.3 281.8 54 283.5C55.5 282.2 54.5 279.3 54.2 277.6C57.1 279.8 59.9 284.1 59.2 288H34C34.4 286.1 35.7 284.3 36.4 283Z" fill="#B7B029"/>
<path d="M216.7 286C218.2 284.5 218.6 283.2 218.5 282.3C220.6 282.8 220 285.2 220 285.2C220.3 284.5 221.2 283.6 220.9 283C221.9 283.4 222.6 285.1 222.6 286C225.7 281.4 224.1 278.4 224.2 278.3C225.5 278.4 229 282.3 229.4 283.2C229.6 283.7 229.7 284.3 230.3 284.5C231.2 283.2 231.4 281.8 230.9 280.9C231.3 281.2 231.9 281.8 232.3 282.1C233.4 280.4 233.1 278.1 232.8 277.4C234 277.7 235.3 279.3 235.8 280.1C236.4 281 237.2 282.3 237 283.6C238.3 282.1 238.2 279.4 237.9 277.1C239.1 277.9 240.2 278.7 241.3 281.4C241.5 281.9 241.4 282.7 241.9 283C242.7 281.4 242.8 279.4 242.4 278.8C243.9 279 244.9 282.9 245 284.1C245.8 282.1 246.1 280 245.3 278.6C247.3 280.7 247.1 284.8 247.5 288.1H207.2C210.7 286.5 213.1 283.9 211.6 278.9C213 281.1 216.3 282.6 216.7 286Z" fill="#B7B029"/>
<path d="M280.9 284.6C277.6 282.9 276.4 281.5 276.4 280.3C273.1 281.3 275 284 275 284C274.2 283.2 272.6 282.3 272.8 281.6C271.3 282.2 270.8 284.3 271.2 285.2C265.3 280.6 266.5 277.1 266.5 277C264.7 277.4 261.5 282 261.2 283C261.1 283.5 261.2 284.1 260.5 284.4C259.1 283.3 258.6 281.9 258.9 281C258.5 281.3 258 282 257.7 282.3C256.1 280.9 255.7 278.6 255.9 277.9C254.7 278.4 253.8 280 253.5 280.9C253.1 281.8 252.7 283.1 253.2 284.2C251.6 283 251 280.6 250.8 278.6C249.9 279.5 249.2 280.3 248.8 282.7C248.7 283.1 249 283.8 248.6 284.1C247.6 282.9 247 281.2 247.2 280.7C246 281.1 246.1 284.3 246.3 285.3C245.2 283.8 244.6 282.1 244.9 280.9C243.8 282.8 244.6 285.5 245 288.1H295C283.3 284.7 288.7 274 288.7 274C286.4 277.4 280.4 280.1 280.9 284.6Z" fill="#B7B029"/>
<path d="M197.7 285.5C198 285.2 198.6 284.2 198.9 283.9C199 284.3 198.9 284.9 198.8 285.4C198.9 285.2 199.4 284.9 199.6 284.8C199.6 285 199.8 285.1 199.8 285.3C200.1 285 200.6 284.9 200.9 284.5C201 284.7 201.3 285.2 201.3 285.4C201.5 285.1 201.7 285 201.9 284.7C201.8 285.1 201.7 285.6 201.6 286C203.6 283.2 203.4 283.5 205.7 280.8C204.9 282.9 205.3 282.4 205 284.9C205.8 284.6 205.9 283.8 205.9 283.1C206.6 283.6 206.8 284.7 207 285.6C208.1 284.9 207.9 283.3 207.9 282.4C209.4 283.5 210.6 285.9 209.6 288.2H195.6C196.3 287.1 197.1 286.2 197.7 285.5Z" fill="#B7B029"/>
<path d="M148.3 94.9C148.4 93.8 149 93 149.7 93C150.4 93 150.9 93.8 150.9 94.9C150.9 96 150.2 96.9 149.5 96.9C148.8 96.9 148.3 96 148.3 94.9Z" fill="#563C37"/>
<path d="M157 95.7C157.1 94.8 157.8 94.1 158.4 94.2C159 94.3 159.5 95.2 159.4 96.1C159.3 97.1 158.6 97.8 158 97.7C157.3 97.6 156.9 96.7 157 95.7Z" fill="#563C37"/>
<path d="M153.4 87.7C150.5 87.3 147.5 88.7 146.3 89.8L147.3 92.2C148.1 91.1 151 89.5 153.6 89.6L153.4 87.7Z" fill="#CC4729"/>
<path d="M156.1 90.2C158.4 90.1 160.9 92.1 161.4 92.7L162.1 90.3C161.5 89.7 159 88 156.3 88.2L156.1 90.2Z" fill="#CC4729"/>
<path d="M158 105.6L149.1 105.1C149.1 105.1 149.4 111.1 153.1 111.3C156.7 111.5 158 105.6 158 105.6Z" fill="#491D2E"/>
<path d="M152 111.8C152 111.5 152.6 111.8 153.3 111.9C154 111.9 154.6 111.7 154.6 112C154.6 112.3 154 112.5 153.3 112.4C152.6 112.4 152 112.1 152 111.8Z" fill="#EF8F6F"/>
<path d="M155.1 94.5L158 103.3C155.3 104 153.5 104.2 151.3 103.8L153.7 94.6L155.1 94.5Z" fill="#EA7B59"/>
<path d="M154.6 94.3L156.6 103C154.3 103.6 153.2 103.6 151.1 103.3L153.2 94.1L154.6 94.3Z" fill="#FFB882"/>
<path d="M156.5 108.4C154.6 108.9 152.4 109.1 150.4 108.8C149.7 107.3 149.6 105.4 149.6 105.4L157.5 105.8C157.5 105.8 157.2 107.1 156.5 108.4Z" fill="#FFF7E9"/>
<path d="M131.2 202.9C131.4 203 131.7 203.1 132 203.1C131.8 203.1 131.5 203 131.2 202.9Z" fill="#422A2E"/>
<path d="M120 193.1C117 188.2 115.7 183.1 116.1 179.2L109.4 182C110.5 183.1 116.1 191.4 116.8 194.3C116.9 194.6 117 194.9 117.1 195.1C117.4 196 117.8 196.9 118.3 197.7C118.7 199.4 119.3 201.4 119.9 201.9C120.9 202.8 123.6 201.9 123.6 200.8C123.6 200.7 123.6 200.6 123.5 200.4C123.7 200.4 124 200.4 124.2 200.3C124.5 201.2 124.9 202 125.3 202.4C126 203.2 127.9 202.6 128.8 201.8C125.7 200.2 122.5 197.2 120 193.1Z" fill="#422A2E"/>
<path d="M214.1 143.8C213.2 142.8 210.4 140.5 210 138.4C209.6 136.4 206.2 132 204.4 133.2L198 135.6C197.1 136.8 202.1 141.1 202.2 141.2C206.2 143.2 207.8 143.4 210.3 145.9C212.8 148.4 215 144.8 214.1 143.8Z" fill="#594043"/>
<path d="M313.3 108.4L306.2 117.3C308.2 118.2 311.7 121.6 312.3 122.6L318.4 117.1C318.3 117 315 110.9 313.3 108.4Z" fill="#FFB882"/>
<path d="M314.5 112.1C314.4 111.3 313.5 109.3 313.1 107.7C312.6 105.8 311.4 98.6 310.8 98.2C309.9 97.7 308.5 98.2 308.2 98.7C307.9 99.2 309.9 106.3 309 106.2C307.6 106.1 305.8 103.7 305.2 103.7C303.7 103.7 301.9 110.1 301.6 111.8C301.3 113.6 304.6 117.2 308.3 117.6C309.6 118 314.5 112.1 314.5 112.1Z" fill="#FFB882"/>
<path d="M308.2 106.3C306.8 105.1 304.8 103.5 304.5 103C304.2 102.4 303.8 98.6 303.4 98.5C303 98.4 301.4 99.1 301.5 100C301.7 100.9 302.2 104.5 302.9 105.2C303.6 105.9 305.7 108.2 306 108.2C306.4 108.2 309 107 308.2 106.3Z" fill="#FFB882"/>
<path d="M306.9 109.3C305.3 108.3 303.6 106.8 303.2 106.3C302.8 105.8 302.5 102.2 302 102.1C301.5 102 300.5 102.4 300.2 103.3C299.9 104.5 300.6 107.7 301.4 108.3C302.2 108.9 304.6 111.3 304.9 111.4C305.3 111.4 307.8 109.9 306.9 109.3Z" fill="#FFB882"/>
<path d="M306.3 113.5C304.7 112.5 303 111 302.6 110.5C302.2 110 301.9 106.4 301.4 106.3C300.9 106.2 299.9 106.6 299.6 107.5C299.3 108.7 300 111.9 300.8 112.5C301.6 113.1 304 115.5 304.3 115.6C304.7 115.6 307.2 114 306.3 113.5Z" fill="#FFB882"/>
<path d="M215.4 49.6C218.3 46.2 222.1 43.4 226.4 42.8C225.7 41.8 226.8 40.6 227.8 40.4C228.9 40.3 230.1 40.7 231.1 40.3C232.3 39.8 232.6 38.3 233.2 37.1C233.8 35.9 235.3 35.1 236.4 36.1C238.9 27.7 237.7 17.9 241.2 10.6C244 4.90001 249.6 1.40002 256 0.700019C262.3 1.92523e-05 269.2 1.90001 275.4 5.50001C276.4 3.70001 279.2 3.90001 281.3 5.10001C283.5 6.30001 285.2 8.30002 287 10.2C288.2 11.5 289.6 13.1 289.4 14.6C291.3 9.70001 295.5 6.6 300.1 4.9C303.7 3.6 307.9 3 312.2 4.4C317.9 6.3 323.1 11.4 327.6 16.6C330 19.4 332.5 22.8 332.8 26.1C333.1 29.4 329.7 31.8 326.9 29.2C331 32.5 334.8 37.3 335.8 42.2C336.8 47.2 333.9 52 329.3 50.8C330.6 53.2 331.9 55.7 333.3 58.1C334.3 60 335.4 62.4 334.6 63.8C333.8 65.2 331.8 64.7 330.1 64.2C331.1 65.3 330.6 67.2 329.4 66.9C330.4 67.7 330.3 69.5 329.3 69.5C332 71.2 334.5 73.9 335.8 77.1C337.2 80.3 337.2 84 335.5 85.8C333.7 87.7 330.1 87.1 328 84.3C326.7 87.6 322.5 88.1 319.3 85.4C319.1 87.7 316.4 88.3 314.7 86.4C315.4 90.4 315.4 94.5 314 97.6C312.5 100.8 309.4 102.6 305.9 101.5C304.8 101.1 303.7 100.4 302.8 99.5C302.5 103 300.2 105.6 297.5 106.8C294.7 108.1 291.4 108.2 288.2 108.2C289.6 113.6 288.2 119.1 285.2 122.5C282.1 125.9 277.6 127.2 272.9 126.7C271.8 126.6 270.3 125.3 270.9 124.4C269 125.2 266.4 123.8 265.2 121.4C264.8 126.7 260.5 129.9 256.1 130.1C251.6 130.3 247.1 128.1 242.7 125.9C239.7 124.4 236.6 122.8 234.6 119.7C234.1 119 233.8 117.8 234.4 117.3C226.4 118 218.6 110.9 213.8 102.8C203.5 85.4 204.5 62.2 215.4 49.6Z" fill="#B7B029"/>
<path d="M256.1 93.3C258.5 90.5 261.5 88.3 265.1 87.8C264.5 86.9 265.4 86 266.3 85.9C267.2 85.8 268.2 86.1 269 85.8C270 85.4 270.2 84.2 270.7 83.2C271.2 82.3 272.4 81.5 273.3 82.4C275.3 75.6 274.3 67.6 277.2 61.7C279.5 57 284.1 54.2 289.2 53.6C294.3 53 299.9 54.6 305 57.5C305.8 56.1 308.1 56.2 309.8 57.2C311.6 58.2 313 59.8 314.5 61.4C315.5 62.4 316.6 63.8 316.4 64.9C318 60.9 321.3 58.4 325.1 57C327.3 56.2 329.7 55.7 332.2 56C332.6 56.7 333 57.4 333.4 58.2C334.4 60.1 335.5 62.5 334.7 63.9C333.9 65.3 331.9 64.8 330.2 64.3C331.2 65.4 330.7 67.3 329.5 67C330.5 67.8 330.4 69.6 329.4 69.6C332.1 71.3 334.6 74 335.9 77.2C337.3 80.4 337.3 84.1 335.6 85.9C333.8 87.8 330.2 87.2 328.1 84.4C326.8 87.7 322.6 88.2 319.4 85.5C319.2 87.8 316.5 88.4 314.8 86.5C315.5 90.5 315.5 94.6 314.1 97.7C312.6 100.9 309.5 102.7 306 101.6C304.9 101.2 303.8 100.5 302.9 99.6C302.6 103.1 300.3 105.7 297.6 106.9C294.8 108.2 291.5 108.3 288.3 108.3C289.7 113.7 288.3 119.2 285.3 122.6C282.2 126 277.7 127.3 273 126.8C271.9 126.7 270.4 125.4 271 124.5C269.1 125.3 266.5 123.9 265.3 121.5C264.9 126.8 260.6 130 256.2 130.2C254.6 130.3 253 130 251.5 129.6C246.9 116.6 248.6 102 256.1 93.3Z" fill="#A0961C"/>
<path d="M363.5 74.4C363.5 74.4 359.7 71.3 362.5 68.3C365.3 65.4 367.7 69 367.7 69C367.7 69 366.2 65.3 371.2 64.4C376.2 63.5 378.1 71.1 378.1 71.1C378.1 71.1 380.4 70.8 382.1 71.5C383.8 72.2 383.1 74.8 383.1 74.8C383.1 74.8 384.2 73.1 387.9 74.1C391.6 75.1 391.5 78.5 391.5 78.5C407.1 81.9 399.8 88.4 399.8 88.4C403.8 94.6 396.7 99.1 396.7 99.1C398.3 101 394.8 102.4 394.8 102.4C395 105.8 391.7 108.1 391.7 108.1C391.7 108.1 392 109 382.9 109.9L363.1 101.5C362 95 365 82.7 365 82.7C361.6 78.9 363.5 74.4 363.5 74.4Z" fill="#B5432D"/>
<path d="M381.5 91.7C389.6 91.7 396.8 89.4 401.5 85.8C401.1 87.3 399.9 88.4 399.9 88.4C403.9 94.6 396.8 99.1 396.8 99.1C398.4 101 394.9 102.4 394.9 102.4C395.1 105.8 391.8 108.1 391.8 108.1C391.8 108.1 392.1 109 383 109.9L363.2 101.5C362.5 97.7 374.8 91.7 381.5 91.7Z" fill="#992C1D"/>
<path d="M370.8 124C373.9 145.3 345.1 159.8 329.6 155.1C315.9 150.9 322.5 133 328.2 134C339.3 135.8 369.2 113.3 370.8 124Z" fill="#EA4E61"/>
<path d="M328 143.5C341.2 147.6 364.1 137.5 368.6 121.3C369.8 121.7 370.6 122.5 370.8 124C373.9 145.3 345.1 159.8 329.6 155.1C321.5 152.6 320.5 145.3 322.3 139.9C323.6 141.4 325.4 142.7 328 143.5Z" fill="#CE2E49"/>
<path d="M385.7 186.6C391.6 170.4 399 134.3 393.3 127.7C387.6 121 371.3 123.1 363.3 123.9C355.3 124.7 349.2 135.5 349.4 147.1C349.6 158.7 381.7 197.7 385.7 186.6Z" fill="#CE2E49"/>
<path d="M350.3 138.5C352.2 129.7 356.9 121.9 362.9 121.3C370.9 120.5 387.6 121.1 393.3 127.8C394.7 129.5 395.3 133 395.3 137.5C390.7 142.1 382.1 145.2 372.2 145.2C363.1 145.1 355 142.5 350.3 138.5Z" fill="#EA4E61"/>
<path d="M387.5 123.8L389 124.5C389.2 124.6 389.1 124.9 388.9 124.9C381.6 125.2 376.5 141.5 376.5 141.5L372.3 140.8C372.3 140.8 378.1 123.1 387.1 123.7C387.2 123.7 387.3 123.8 387.5 123.8Z" fill="#CE2E49"/>
<path d="M365.2 122.1L366.9 122.2C367.1 122.2 367.1 122.5 366.9 122.6C360.3 125.1 356.2 140.9 356.2 140.9L352.8 140.5C352.8 140.5 356.1 124.8 364.8 122.1C364.8 122.1 365 122.1 365.2 122.1Z" fill="#CE2E49"/>
<path d="M322.8 214C323.2 213 344.2 182.6 344.2 182.6L349.6 137.2L376.9 140.1C376.9 140.1 371.9 166.8 374.7 173.4C377.6 180.1 388 183.5 388 183.5C388 183.5 385.7 249.6 378.5 285.9H377.2C373.1 257.9 366.5 227.4 362.3 206.6L356.8 203.4L338 220.8L318.1 265.7L316.9 265.2C316.8 265.2 322.4 215 322.8 214Z" fill="#594043"/>
<path d="M351.1 141.2C351.1 140.1 351.5 139.3 352 139.3C352.5 139.3 352.9 140.2 352.9 141.2C352.9 142.3 352.5 143.1 352 143.1C351.5 143.2 351.1 142.3 351.1 141.2Z" fill="#EDC09F"/>
<path d="M371.1 146.2C371.597 146.2 372 145.349 372 144.3C372 143.251 371.597 142.4 371.1 142.4C370.603 142.4 370.2 143.251 370.2 144.3C370.2 145.349 370.603 146.2 371.1 146.2Z" fill="#EDC09F"/>
<path d="M356.5 191.5C351.6 190.9 346.9 187.9 343 184.4C343.8 183.3 344.2 182.6 344.2 182.6L346 167.4C350.3 168.3 354.8 169.5 358.4 170.7C359 170.2 359.6 169.9 360.3 169.7C360.5 169.6 360.6 169.5 360.8 169.5C364.8 168.3 369.5 163.2 374.3 157.6C373.6 164.1 373.4 170.7 374.6 173.5C376.3 177.4 380.7 180.3 383.9 181.9C381.6 183.8 379.1 185.3 376.7 186.4C376.7 186.5 376.7 186.6 376.6 186.6C374.9 190.8 368.2 192.4 364.4 190.6C361.9 191.5 359 191.8 356.5 191.5Z" fill="#3D2A2D"/>
<path d="M374.2 170.8C376.9 179 388 183.6 388 183.6C388 183.6 385.7 249.7 378.5 286H377.2C383.2 249.5 374.1 173.5 374.2 170.8Z" fill="#3D2A2D"/>
<path d="M334.3 218.2L352.7 202L352 199.2C356.5 203.7 361.2 205.2 366.1 204.2L363.5 205.9C365.2 213.6 365.5 221.2 367 231.1C365.2 222.2 362.8 214.1 361.4 207L356.2 205L338 221.9L318 265.9L316.8 265.4C316.8 265.4 316.9 264.9 317 263.9L334.3 218.2Z" fill="#3D2A2D"/>
<path d="M386.2 122.9L387.7 123.6C387.9 123.7 387.8 124 387.6 124C380.3 124.3 375.2 140.6 375.2 140.6L371 139.9C371 139.9 376.8 122.2 385.8 122.8C386 122.8 386.1 122.9 386.2 122.9Z" fill="#594043"/>
<path d="M363.8 120.6L365.5 120.7C365.7 120.7 365.7 121 365.5 121.1C358.9 123.6 354.8 139.4 354.8 139.4L351.4 139C351.4 139 354.7 123.3 363.4 120.6C363.5 120.7 363.7 120.6 363.8 120.6Z" fill="#594043"/>
<path d="M375.8 286.8H386.8C386.8 286.8 380.3 282.6 378 282.5C375.6 282.4 375.8 286.8 375.8 286.8Z" fill="#DDB794"/>
<path d="M318.7 269.2L305.9 270.2C305.9 270.2 314.5 263.8 317.2 263.7C319.8 263.6 318.7 269.2 318.7 269.2Z" fill="#DDB794"/>
<path d="M335.4 156C339.4 153.5 338.7 136.9 334 133.6C331.7 132 328.4 131.5 325.8 134.7C323.3 137.9 321.6 148.7 322.9 151.7C324.9 155.5 331.4 158.4 335.4 156Z" fill="#FFD8B8"/>
<path d="M324 138.7C324.1 139.4 324.2 140 324.4 140.4C326.2 144.3 332.8 147.2 336.8 144.7C337.2 144.5 337.5 144.1 337.8 143.6C338.3 148.9 337.5 154.5 335.4 155.9C331.4 158.4 324.8 155.5 323 151.6C322 149.5 322.6 143.2 324 138.7Z" fill="#EDC09F"/>
<path d="M334.1 137.9C331.2 130.2 314.6 111.8 314.6 111.8L310.6 119.8C310.6 119.8 309.1 140.1 318 148.9C323 153.8 332.3 156.5 333.8 152.6C336.1 147 335.3 140.9 334.1 137.9Z" fill="#FFB882"/>
<path d="M315.5 138.6C320.5 143.5 329.8 146.2 331.3 142.3C332.3 139.8 332.6 137.2 332.7 134.9C333.4 136 333.9 137.1 334.2 137.9C335.3 140.9 336.2 146.9 334 152.6C332.5 156.4 323.2 153.7 318.2 148.9C313.9 144.7 312 137.9 311.2 132C312.2 134.4 313.6 136.7 315.5 138.6Z" fill="#FF9566"/>
<path d="M268.2 43.2C268.2 43.2 286.3 60.8 295.4 85.4C305.3 112 326.4 142.4 326.4 142.4C326.4 142.4 335.2 193.2 355.1 246.2L344.8 246.6C347.1 231 322.2 145.1 322.2 145.1C322.2 145.1 301.7 107.5 294.6 90.4C286.8 71.4 263.6 49.9 263.6 49.9L268.2 43.2Z" fill="#BA5131"/>
<path d="M343.1 228.4C345 228.4 346.9 228.3 348.7 228.2C350.7 234.1 352.8 240.1 355.1 246.2L344.8 246.6C345.3 243.2 344.6 236.6 343.1 228.4Z" fill="#9B3821"/>
<path d="M268.2 43.2C268.2 43.2 286.3 60.8 295.4 85.4C299.9 97.6 306.9 110.7 313 121.2C311.9 121.3 310.8 121.4 309.7 121.6C304 110.6 297.9 98.3 294.6 90.4C286.8 71.4 263.6 49.9 263.6 49.9L268.2 43.2Z" fill="#9B3821"/>
<path d="M277 87.4L276.9 88C285.6 88.4 295.2 93.7 297.6 97.1L298.1 93.9C298.1 93.8 289.5 88.2 277 87.4Z" fill="#9B3821"/>
<path d="M256 125.6L256.1 126.2C265.3 124.1 276.9 126.4 280.4 129.1L280 125.9C279.9 125.8 269.2 122.9 256 125.6Z" fill="#9B3821"/>
<path d="M281.6 145.9L281.7 146.6C292.6 141 308 139.6 312.3 141.7L310.3 138.3C310.3 138.3 297.3 138.2 281.6 145.9Z" fill="#BA5131"/>
<path d="M357 277.5C362.3 270.9 364.9 261.4 364.9 261.4C364.9 261.4 368.8 258.6 370.1 257.1C371.4 255.6 370.1 253.1 370.1 253.1C370.1 253.1 374.6 247.4 372 243.7C372 243.7 370.9 236.9 369.2 235.8L326.9 243.9C326.9 243.9 328.2 253.3 335.9 258.1C335.9 258.1 344.5 269.3 351.6 271.2L357 277.5Z" fill="#B5523E"/>
<path d="M369.2 235.9C369.6 236.2 369.9 236.7 370.3 237.4C370.2 237.4 370.1 237.4 370.1 237.4C362.7 237.4 356.6 242.1 356.6 247.8C356.6 253.3 362.1 257.8 369.1 258.2C367.4 259.7 364.9 261.5 364.9 261.5C364.9 261.5 364.1 264.5 362.5 268.2C360.2 256.4 349.3 247.5 336.2 247.5C333.4 247.5 330.8 247.9 328.3 248.6C327.3 246 327 244 327 244L369.2 235.9Z" fill="#9B3C2C"/>
<path d="M393.3 127.7C405.6 145 386.1 171.3 369.7 174.3C355 176.9 353.3 157.5 359.1 155.7C370.1 152.2 387.2 119.2 393.3 127.7Z" fill="#EA4E61"/>
<path d="M367.5 167.6C381.3 165.2 397.2 146.2 394.7 130C404 147.2 385.5 170.9 369.8 173.7C360.7 175.3 356.6 169.1 356.1 163.2C358.2 166.4 361.9 168.5 367.5 167.6Z" fill="#CE2E49"/>
<path d="M374.9 172.8C376.7 168.4 366.2 155.5 360.5 155.5C357.7 155.5 354.7 157.2 354.6 161.3C354.5 165.4 359.5 175.1 362.4 176.7C366.2 178.7 373.2 177.2 374.9 172.8Z" fill="#FFD8B8"/>
<path d="M362.1 167.9C365.2 169.5 370.4 168.8 373.1 166.2C374.7 168.8 375.5 171.3 374.9 172.8C373.2 177.1 366.1 178.7 362.4 176.7C359.5 175.2 354.5 165.4 354.6 161.3C354.6 159.9 355 158.8 355.6 158C357.3 162.2 360.2 166.9 362.1 167.9Z" fill="#EDC09F"/>
<path d="M383.8 122.7L387.4 104L371.5 103.4L365.9 121.3C365.9 121.3 366.4 124.4 369.2 125.6C372.1 126.7 383.8 122.7 383.8 122.7Z" fill="#FFB882"/>
<path d="M361.8 159.1C355.3 154.8 330.6 151 330.6 151L331.7 159.8C331.7 159.8 342.8 176.2 354.8 177.6C361.5 178.4 370.5 174.7 369.6 170.8C368.2 165.1 364.3 160.8 361.8 159.1Z" fill="#FFB882"/>
<path d="M350.4 170.8C356.7 171.8 365.4 168.9 364.7 165.3C364.3 163.3 363.6 161.5 362.7 159.9C365.2 161.9 368.3 165.8 369.5 170.9C370.4 174.8 361.4 178.5 354.7 177.7C342.7 176.3 331.6 159.9 331.6 159.9L331.1 156.1C334.5 160.5 342 169.4 350.4 170.8Z" fill="#FF9566"/>
<path d="M419.3 288.1H228.7L269.5 283.8C269.5 283.8 273.6 277.6 274.7 276.8C275.9 276 283.6 274.3 283.6 274.3C283.6 274.3 298 271 299.5 271.2C301.1 271.4 314.1 266.7 318.1 268.3C322.2 269.9 329 272.2 329.9 272.4C330.9 272.6 334 271 337.5 277.1C337.5 277.1 347.4 281 348.8 283.5C350.2 286 419.3 288.1 419.3 288.1Z" fill="#B5523E"/>
<path d="M269.5 283.8C269.5 283.8 269.9 283.2 270.5 282.3C271.8 282.7 273.1 282.7 274.2 281.9C275.3 281.1 275.8 279.8 276.5 278.7C277.2 277.6 278.5 276.6 279.7 277C280.7 277.3 281.3 278.2 282.2 278.6C283.9 279.5 286.1 278.3 288 278.6C289.4 278.8 290.5 279.9 291.9 280C292.9 280.1 293.8 279.8 294.8 279.7C297.4 279.4 300 280.4 302.6 281C305.2 281.5 308.3 281.2 309.8 279C311.7 276.2 309.6 272.5 307.5 269.8C307.4 269.6 307.2 269.5 307.1 269.3C311.3 268.3 316 267.3 318.2 268.1C319.4 268.6 320.9 269.1 322.4 269.6C322.8 270.3 323.2 271 323.4 271.8C323.7 272.7 323.9 273.6 324.2 274.4C325.6 277.7 329.3 279.5 332.9 280.1C336.5 280.7 340.2 280.5 343.7 279.5C346 280.7 348.3 282.1 348.9 283.2C350.3 285.7 419.4 287.9 419.4 287.9H228.7L269.5 283.8Z" fill="#9B3C2C"/>
<path d="M327.3 157.9L325.8 150.2C317.6 135.5 286.9 128.3 281.8 127.2C280.5 123.5 272.9 107.2 254.2 100.2L253.7 101.4C273.1 108.7 279.6 128.4 279.7 128.6L279.9 129.3L280.6 129.4C281 129.5 311.1 134.1 327.3 157.9Z" fill="#BA5131"/>
<path d="M254.2 100.3C272.9 107.3 280.4 123.6 281.8 127.3C283.5 127.7 287.9 128.7 293.4 130.4C292.2 130.8 291 131.3 289.8 131.8C284.4 130.1 280.7 129.5 280.6 129.5L279.9 129.4L279.7 128.7C279.6 128.5 273.1 108.8 253.7 101.5L254.2 100.3Z" fill="#9B3821"/>
<path d="M308.6 116.3C307.4 94.7 315.3 80.3 315.3 80.1L315.6 79.6L315.3 79C312.2 73.1 307.9 40.9 307.9 40.9L306.8 40.3C306.8 40.3 310.7 73 313.9 79.6C312.5 82.4 304.9 90.9 306 111.1L308.6 116.3Z" fill="#9B3821"/>
<path d="M225.2 81.3C226.9 69.9 232.8 59.2 239.9 49.4C243.8 43.9 248.1 38.5 253.6 34.3C260.8 28.7 269.8 25.2 279.1 24.3C283.9 23.8 288.9 24.1 293.5 25.6C299.1 27.5 303.9 31.2 308.1 35.1C311.2 37.9 314.1 40.9 316 44.4C317.9 47.9 318.9 52 317.9 55.8C317.5 57.5 316.6 59.2 315 60.2C313.4 61.2 311.2 61.1 310 59.8C308.9 61 307 61.2 305.5 60.8C303.9 60.4 302.6 59.4 301.3 58.4C300.1 57.5 298.9 56.6 297.7 55.8C302.8 66 298.8 79.2 289 85.4C287.4 86.4 285.1 87.2 283.7 86C283.4 87.4 283.1 88.8 282.9 90.1C282.3 90.1 281.7 90.1 281.2 90.1C281.4 90.6 281.5 91.1 281.3 91.7C280.6 91.6 279.9 91.7 279.2 91.9C279.5 93.2 278.5 94.6 277 94.8C281 97.5 281.3 102.7 280.1 106.9C278.3 112.9 273.5 118.5 266.8 120.9C263.2 122.2 258.3 122.8 254.6 121.6C251.7 120.7 251.3 118.8 249.7 116.8C247.5 114 243.7 112.1 240.8 109.8C237.7 107.3 234.7 104.5 232 101.5C229.2 98.4 226.7 95 225.6 91.2C224.6 88 224.7 84.6 225.2 81.3Z" fill="#B7B029"/>
<path d="M327.3 246.5C331.4 250 357 236.4 369.8 236.3C370.5 236.3 374.6 235.5 370.8 233.6C367 231.7 355.4 237.3 354.8 237.3C354.1 237.3 339.2 237.3 333.1 241.1C326.9 244.9 319.5 239.9 327.3 246.5Z" fill="#B7B029"/>
<path d="M367.8 268.1C368 259.4 364.6 258 361.2 256.8C359.5 256.2 357.9 255.6 356.8 254.1C355.1 251.8 355.8 245.8 355.6 244.6C355.2 242.5 353.7 243 353.6 245.6C353.6 246.6 354.3 252.1 356.2 254.7C357.4 256.3 359.2 257 361 257.6C364.5 258.9 367.8 260.1 367.6 268.2L367.8 268.1Z" fill="#661F16"/>
<path d="M357.6 254.1C358.9 254.1 359.9 253.5 360.9 252.9C362.4 252 363.9 251.1 366.1 252L366 251.8C363.4 250.8 362 251.3 360.4 252.2C359 253 357.8 253.8 356 253L355.7 253.7C356.5 254 357.1 254.1 357.6 254.1Z" fill="#661F16"/>
<path d="M339.5 268.2C346.4 264.6 344.9 261.6 343.2 258.6C342.3 257.1 341.5 255.7 341.8 254.3C342.2 252.1 347.5 250 348.3 249.3C349.7 248.1 348 247.2 346 248.3C345.2 248.7 341.4 251.6 340.9 254C340.6 255.6 341.5 257.2 342.4 258.7C344.1 261.7 345.8 264.6 339.3 268L339.5 268.2Z" fill="#661F16"/>
<path d="M342 252C340.8 252 339.7 251.5 338.5 251C336.8 250.2 335.2 249.5 333.3 250.2V250.1C335.6 249.3 337 249.7 338.7 250.4C340.3 251.1 341.6 251.7 343.1 251L343.6 251.6C343.1 251.9 342.5 252 342 252Z" fill="#661F16"/>
<path d="M349.6 250.4C350.1 251.9 349.9 253.5 349.6 255C349.2 257.3 348.8 259.5 350.8 261.8H350.6C348.3 259.1 348.3 257.2 348.7 254.9C349.1 252.8 349.4 250.9 347.7 249.3L348.4 248.5C349 249 349.4 249.7 349.6 250.4Z" fill="#661F16"/>
<path d="M354.4 261.9C355.4 263.2 355.6 264.7 355.8 266.3C356.1 268.6 356.4 270.8 359 272.4L358.8 272.5C355.8 270.6 355.2 268.8 354.9 266.5C354.6 264.4 354.4 262.5 352.3 261.4L352.7 260.5C353.4 260.8 353.9 261.3 354.4 261.9Z" fill="#661F16"/>
<path d="M329.8 76.8V77.2C323.8 76.5 316.7 79.1 314.7 81.3V79C314.7 78.9 321.2 76 329.8 76.8Z" fill="#9B3821"/>
<path opacity="0.6" d="M347.3 132.7C346.9 131.5 347 130 347.6 128.2C351.1 126.6 354.6 125 357.8 123.7C358.9 122.8 360.1 122.1 361.3 121.7C361.9 121.3 362.6 121 363.3 120.8C363.5 120.8 363.6 120.7 363.8 120.7L365.5 120.8C365.7 120.8 365.7 121 365.5 121.1C365.7 121.1 365.8 121.1 366 121.1L370.9 105.5C372.4 104.8 373.9 104.1 375.4 103.5L387.5 104L383.9 122.7C384.1 122.8 384.3 122.8 384.6 122.9C385 122.8 385.5 122.8 386 122.8C386.1 122.8 386.3 122.9 386.4 122.9L387.9 123.6C388 123.7 388 123.9 387.9 123.9L388.5 124.2C390.1 124.9 391.5 125.8 392.6 126.8C392.9 127 393.2 127.3 393.5 127.7C393.6 127.8 393.7 128 393.9 128.2C390.5 130.1 386.6 131.9 382.4 133.4C365.3 139.6 349.7 139.2 347.3 132.7Z" fill="#843131"/>
<path d="M391.8 99.7C384.7 110.3 381 119.7 370.6 123C360.1 126.3 348.6 117.1 348.6 117.1L366.8 88.1L388.4 86.2L391.8 99.7Z" fill="#B5432D"/>
<path d="M365.8 119.6C376.1 116.4 387.6 102.4 391.3 90.4L391.8 99.7C384.7 110.3 381 119.7 370.6 123C360.1 126.3 348.6 117.1 348.6 117.1L348.8 116.7C352.8 119 359.4 121.6 365.8 119.6Z" fill="#992C1D"/>
<path d="M385.7 87.9C387.3 95.6 377.8 103 374.5 104.8C371.2 106.6 360.2 103.3 359.8 101.7C359.3 100.1 370.1 81.1 370.1 81.1C370.1 81.1 384.1 80.2 385.7 87.9Z" fill="#FFB882"/>
<path d="M390.1 97.9C393.1 96 396.1 100.3 392.6 102.9C389.1 105.4 386.2 105.5 384.6 103.6C384.3 103.2 387.6 99.5 390.1 97.9Z" fill="#FFB882"/>
<path d="M389.4 99.4C391.4 98.2 393.4 101 391.1 102.7C388.8 104.4 386.9 104.4 385.8 103.1C385.6 102.9 387.7 100.5 389.4 99.4Z" fill="#D3583C"/>
<path d="M388 100.6C389.3 99.8 390.7 101.7 389.2 102.8C387.6 103.9 386.3 103.9 385.6 103C385.4 102.8 386.8 101.2 388 100.6Z" fill="#FFB882"/>
<path d="M230.3 113.4C231.3 113.3 232.4 113.1 233 112.3C233.4 111.8 233.6 111.2 233.7 110.6C235.2 103.9 234.7 98.4 231.3 92.5C229.2 88.8 224.5 83.8 221.4 80.9C227.1 84.6 231.7 89.9 234.5 96C237.3 102.1 238.4 109.1 237.5 115.8C237.4 116.3 237.4 116.8 237.1 117.1C236.9 117.4 236.5 117.6 236.3 117.9C236 118.3 235.8 118.9 235.7 119.4C235.6 119.8 235.6 120.3 235.5 120.7C235.2 120.4 235 120 234.7 119.6C234.2 118.9 233.9 117.7 234.5 117.2C230.7 117.5 226.8 116.1 223.4 113.6C225.6 113.9 228 113.7 230.3 113.4Z" fill="#A0961C"/>
<path d="M290.9 22.3C291.7 24.6 293.3 27 292.4 29.2C291.8 30.6 290.3 31.3 289 32C284.8 34.1 280.3 36.2 275.6 36.3C275.3 36.3 275 36.3 274.7 36.5C274.4 36.7 274.3 37 274.1 37.2C273.2 38.4 271.2 37.8 269.8 38.3C268.3 38.8 267.4 40.3 266.5 41.7C265 43.8 263.2 45.5 261.4 47.4C257.8 51.1 254.7 55.3 252.2 59.9C253.5 54.2 253.9 48 256.7 42.9C259.3 38.2 263.9 35 268.7 32.6C270.7 31.6 273 30.6 274.3 28.8C275.7 27 275.9 24 274 22.7C276.1 21.3 278.3 19.6 278.9 17.2C279.2 15.9 279 14.6 278.8 13.3C278.2 10.6 277.2 7.89999 275.8 5.49999C276.9 3.99999 279.5 4.19998 281.5 5.29998C283.7 6.49998 285.4 8.49999 287.2 10.4C288.4 11.7 289.8 13.3 289.6 14.8C290.1 13.6 290.7 12.5 291.4 11.6C290.7 15 289.7 18.8 290.9 22.3Z" fill="#A0961C"/>
<path d="M252.1 59.7C251.3 63.2 250.1 66.6 247.7 69.3C248.9 66 250.3 62.8 252.1 59.7Z" fill="#A0961C"/>
<path d="M314.5 50C314.8 50.9 315.2 51.9 315.5 52.8C314.9 52 314.5 51 314.5 50Z" fill="#A0961C"/>
<path d="M324.2 49.7C323.2 48.5 322.5 47.1 321.2 46.2C319.5 45 316.9 45.4 315.5 47C314.8 47.8 314.5 48.9 314.5 50C313.2 46.5 311.9 43.1 310.7 39.6C310.2 38.3 309.7 36.7 310.4 35.5C311.5 36.2 312.9 36.5 314.2 36.2C313.1 34.4 312 32.5 312.1 30.3C312.1 29.5 312.3 28.7 312.2 27.9C312 26.8 311.1 25.7 311.3 24.6C311.5 23.4 313 22.7 314.2 22.8C315.4 22.9 316.5 23.6 317.7 24.1C320.3 25.3 323.3 25.7 326.2 25.3C327.3 25.1 328.5 24.7 329 23.8C329.4 23.1 329.3 22.2 329.2 21.4C329 20 328.8 18.6 328.4 17.3C330.6 20 332.7 23.1 333 26.1C333.3 29.4 329.9 31.8 327.1 29.2C331.2 32.5 335 37.3 336 42.2C337 47.2 334.1 52 329.5 50.8C330.1 51.9 330.7 52.9 331.2 54C328.6 53 326 51.8 324.2 49.7Z" fill="#A0961C"/>
<path d="M252.7 108.8C253.2 109.8 253.6 110.7 253.9 111.7C253.3 110.8 252.9 109.8 252.7 108.8Z" fill="#A0961C"/>
<path d="M265.7 92.6C260.9 93.7 256.5 96.8 254.2 101.1C254.8 99.7 255.4 98.4 256 97C254.7 99.3 253.4 101.6 252.8 104.1C252.4 105.6 252.4 107.2 252.6 108.7C251.6 106.6 250.5 104.7 250.1 102.4C249.7 99.6 250.6 96.7 252.3 94.4C254 92.1 256.3 90.4 258.8 89C257.4 89.2 255.9 89.1 254.5 88.6C262 85.9 269.7 84 277.6 83.4C280.5 83.2 283.5 83.2 286.1 84.5C286.8 84.9 287.4 85.3 288 85.7C286.5 86.4 284.8 86.8 283.6 85.8C283.3 87.2 283 88.6 282.8 89.9C282.2 89.9 281.6 89.9 281.1 89.9C281.3 90.4 281.4 90.9 281.2 91.5C280.5 91.4 279.8 91.5 279.1 91.7C279.2 92.3 279.1 92.9 278.7 93.4C274.7 92.1 270 91.6 265.7 92.6Z" fill="#A0961C"/>
<path d="M367.3 110.8C367.4 110.5 366.8 110.6 366.1 110.4C365.4 110.2 364.9 109.9 364.9 110.1C364.8 110.4 365.3 110.7 366 110.9C366.6 111.2 367.2 111.1 367.3 110.8Z" fill="#992C1D"/>
<path d="M361.9 107.8L362 107.6C364.9 109.3 367.5 109.7 369.2 109.1C370.3 108.7 371 107.5 371.6 106.2L372.2 106.5C371.5 108 370.6 109 369.4 109.5C367.4 110.2 365 109.6 361.9 107.8Z" fill="#992C1D"/>
<path d="M366.4 93.1C367.2 91.9 368.3 91.2 368.9 91.4C369.5 91.7 369.4 92.9 368.7 94.1C367.9 95.3 366.8 96.1 366.2 95.8C365.5 95.6 365.6 94.4 366.4 93.1Z" fill="#4F3131"/>
<path d="M372.9 93.8C372.5 92.8 363.6 102 363.1 103.5C362.8 104.3 368.3 104.4 368.3 104.4C368.3 104.4 372.9 94 372.9 93.8Z" fill="#FFB882"/>
<path d="M372.4 93.8C370.6 95.1 363.7 102.1 363.3 103.4C363.1 104 367 103.5 368 104C367.9 104.3 367.8 104.4 367.8 104.4C367.8 104.4 362 104.3 362.3 103.6C362.8 102.2 371.6 93.6 372.4 93.8Z" fill="#EA7B59"/>
<path d="M374 96.4C374.7 95.2 375.8 94.4 376.5 94.7C377.1 95 377.1 96.2 376.4 97.4C375.7 98.6 374.5 99.4 373.9 99.1C373.2 98.9 373.3 97.7 374 96.4Z" fill="#4F3131"/>
<path d="M375.9 90.7C375.7 92.5 380.5 95.2 381.6 94.8C382.7 94.4 383.5 93.9 383 92.9C382.4 91.9 379.2 88.3 378.1 88.3C376.9 88.5 376 89.9 375.9 90.7Z" fill="#B5432D"/>
<path d="M372.4 89.3C371.4 90.5 366.2 88.9 366 87.9C365.8 86.9 365.8 85.9 366.6 85.8C367.4 85.6 372.5 85.4 372.9 86.3C373.3 87.1 372.8 88.7 372.4 89.3Z" fill="#B5432D"/>
<path d="M331.8 150.6L331 161.1C333.2 160.7 338.1 161.3 339.3 161.7L340.8 153.2C340.8 153.3 335 152.8 331.8 150.6Z" fill="#FFB882"/>
<path d="M335 152.8C334.4 152.3 332.6 151.2 331.2 150.2C329.7 149 324.4 144.3 323.7 144.3C322.6 144.4 321.8 145.6 321.8 146.1C321.8 146.7 327.7 150.9 326.9 151.3C325.7 152 322.8 151.1 322.2 151.5C321 152.3 323.2 158.1 324 159.6C324.8 161.1 329.7 162 333.1 160.4C334.4 159.8 335 152.8 335 152.8Z" fill="#FFB882"/>
<path d="M326.3 151.8C324.4 151.7 321.8 151.6 321.2 151.3C320.6 151 318.1 148.4 317.6 148.5C317.2 148.7 316.2 150.1 316.9 150.6C317.6 151.2 320.2 153.6 321.2 153.7C322.2 153.8 325.3 154.4 325.6 154.3C325.9 154.2 327.4 151.9 326.3 151.8Z" fill="#FFB882"/>
<path d="M327 154.7C325.1 154.8 322.8 154.6 322.1 154.5C321.5 154.3 319 151.8 318.6 152C318.2 152.2 317.5 153.1 317.8 153.9C318.2 155 320.8 157 321.8 157C322.8 157 326.3 157.6 326.6 157.4C326.9 157.2 328.1 154.7 327 154.7Z" fill="#FFB882"/>
<path d="M329 158.2C327.1 158.3 324.8 158.1 324.1 158C323.5 157.8 321 155.3 320.6 155.5C320.2 155.7 319.5 156.6 319.8 157.4C320.2 158.5 322.8 160.5 323.8 160.5C324.8 160.5 328.3 161.1 328.6 160.9C328.8 160.7 330 158.2 329 158.2Z" fill="#FFB882"/>
<path d="M0 286.3H437.3C437.3 286.3 388.2 298.7 210.8 298.7C33.5 298.7 0 286.3 0 286.3Z" fill="#F4D44E"/>
</svg>
