<svg width="853" height="583" viewBox="0 0 853 583" fill="none" xmlns="http://www.w3.org/2000/svg">
<g clip-path="url(#clip0_40_22)">
<path d="M794.2 429.7C782 397.5 748.4 374.3 742 340.6C736.5 311.5 752.9 282.8 771.9 259.5C791 236.3 813.7 214.7 824.6 187.1C838.5 152 829.6 109.7 802.6 82.4C775.7 55.1 732 44 694.4 55.1C676 60.5 657 70.8 638.9 64.7C626.7 60.6 618.4 50 609.3 41.2C585.4 18.1 550.8 5.20002 516.8 6.80002C482.8 8.40002 460.7 44.7 426 48.8C391.3 52.9 318.9 35.8 269 25.5C235.8 18.6 201.4 14.6 167.8 19.3C134.2 24 101.1 37.9 78.8 62.4C56.5 86.9 46.5 122.6 58.1 153.1C70.3 185.3 103.9 208.5 110.3 242.2C115.8 271.3 99.4 300 80.4 323.3C61.3 346.5 38.6 368.1 27.7 395.7C13.8 430.8 22.7 473.1 49.7 500.4C76.6 527.7 120.3 538.8 157.9 527.7C176.3 522.3 195.3 512 213.4 518.1C225.6 522.2 233.9 532.8 243 541.6C266.9 564.7 301.5 577.6 335.5 576C369.3 574.4 426.3 533.8 426.3 533.5C467.3 518 533.9 547.2 583.3 557.3C616.5 564.2 650.9 568.2 684.5 563.5C718.1 558.8 751.2 544.9 773.5 520.4C795.8 495.9 805.8 460.2 794.2 429.7Z" fill="#AAF1F7"/>
<path d="M849.5 287.2C845.1 273.8 829.2 255.4 813.2 257.7C798.6 260 783 285.2 776.5 296.8C767.5 312.7 763.3 332.3 769.4 349.5C775.6 366.7 794.1 380 812 376.3C821.4 374.4 829.6 368.2 835.4 360.5C841.2 352.8 844.9 343.7 847.6 334.5C852.2 319.1 854.5 302.4 849.5 287.2Z" fill="#AAF1F7"/>
<path d="M633.9 46.9C640.8 49.9 648.5 50.2 656 49.5C670 48.3 689.5 43.8 700.1 33.9C709.8 25 699.7 9.10001 690.2 4.20001C680.3 -0.899991 668.5 -0.399991 657.4 0.900009C648.6 1.90001 639.5 3.50001 632 8.20001C624.5 12.9 618.8 21.6 620.1 30.4C621.2 37.8 627 43.9 633.9 46.9Z" fill="#AAF1F7"/>
<path d="M721.6 36.8C734.6 43.2 752.7 30.2 744.9 15.9C737.7 2.79997 714.3 6.79998 713 22.1C712.5 28.1 716.2 34.1 721.6 36.8Z" fill="#AAF1F7"/>
<path d="M799.2 499.8C791.4 509.4 783.8 519 776.1 528.6C773.6 531.7 771 535.2 771.5 539.2C772 543.6 776.4 546.7 780.8 547.1C785.2 547.5 789.5 545.8 793.4 543.7C800.4 540.1 806.9 535.5 812.5 530C816.9 525.7 821 520.8 822.8 514.9C824.6 509 823.9 502 819.8 497.5C813.4 490.5 804.3 493.5 799.2 499.8Z" fill="#AAF1F7"/>
<path d="M831.3 467.5C827.7 464.7 822.8 463.7 818.6 465.2C814.4 466.7 811.1 470.9 811.1 475.4C811.1 481.1 816.3 485.9 822 486.5C826.7 487.1 834.1 484.8 836.7 480.5C839.2 476.2 834.6 470 831.3 467.5Z" fill="#AAF1F7"/>
<path d="M758.7 547.7C755.7 548.7 754 552.3 754.7 555.4C755.5 558.5 758.5 560.7 761.6 560.9C774.2 561.2 768.4 544.3 758.7 547.7Z" fill="#AAF1F7"/>
<path d="M39.1 325.1C53.7 322.8 69.3 297.6 75.8 286C84.8 270.1 89 250.5 82.9 233.3C76.7 216.1 58.2 202.8 40.3 206.5C30.9 208.4 22.7 214.6 16.9 222.3C11.1 230 7.39999 239.1 4.69999 248.3C0.0999908 263.7 -2.20001 280.4 2.79999 295.6C7.19999 309 23.1 327.4 39.1 325.1Z" fill="#AAF1F7"/>
<path d="M218.4 535.9C211.5 532.9 203.8 532.6 196.3 533.3C182.3 534.5 162.8 539 152.2 548.9C142.5 557.8 152.6 573.7 162.1 578.6C172 583.7 183.8 583.2 194.9 581.9C203.7 580.9 212.8 579.3 220.3 574.6C227.8 569.9 233.5 561.2 232.2 552.4C231.1 545 225.3 538.9 218.4 535.9Z" fill="#AAF1F7"/>
<path d="M130.7 546C117.7 539.6 99.6 552.6 107.4 566.9C114.6 580 138 576 139.3 560.7C139.8 554.7 136.1 548.7 130.7 546Z" fill="#AAF1F7"/>
<path d="M53.1 83.0001C60.9 73.4001 68.5 63.8001 76.2 54.2001C78.7 51.1001 81.3 47.6001 80.8 43.6001C80.3 39.2001 75.9 36.1001 71.5 35.7001C67.1 35.3001 62.8 37.0001 58.9 39.1001C51.9 42.7001 45.4 47.3001 39.8 52.8001C35.4 57.1001 31.3 62.0001 29.5 67.9001C27.7 73.8001 28.4 80.8001 32.5 85.3001C38.9 92.3001 48 89.3001 53.1 83.0001Z" fill="#AAF1F7"/>
<path d="M21 115.3C24.6 118.1 29.5 119.1 33.7 117.6C37.9 116.1 41.2 111.9 41.2 107.4C41.2 101.7 36 96.9001 30.3 96.3001C25.6 95.7001 18.2 98.0001 15.6 102.3C13.1 106.6 17.7 112.8 21 115.3Z" fill="#AAF1F7"/>
<path d="M93.6 35.1001C96.6 34.1001 98.3 30.5001 97.6 27.4001C96.8 24.3001 93.8 22.1001 90.7 21.9001C78.1 21.6001 83.9 38.5001 93.6 35.1001Z" fill="#AAF1F7"/>
</g>
<defs>
<clipPath id="clip0_40_22">
<rect width="852.3" height="582.7" fill="white"/>
</clipPath>
</defs>
</svg>
