<svg width="143" height="164" viewBox="0 0 143 164" fill="none" xmlns="http://www.w3.org/2000/svg">
<path fill-rule="evenodd" clip-rule="evenodd" d="M76 120.1C76 121.3 78.9 122.3 78.9 120.1C78.9 98.6 97.3 34.4 111.2 17.9C112.4 16.4 111.2 15.6 110 17.1C95.6 34.1 76 97.9 76 120.1Z" fill="#386693"/>
<path fill-rule="evenodd" clip-rule="evenodd" d="M79.9 116.8C79.9 118 77 119 77 116.8C77 95.3 58.6 31.1 44.7 14.6C43.5 13.1 44.7 12.3 45.9 13.8C60.3 30.9 79.9 94.6 79.9 116.8Z" fill="#386693"/>
<path fill-rule="evenodd" clip-rule="evenodd" d="M107.5 106.7C111.8 112.7 114.3 120.1 114.3 128C114.3 141.5 107.1 153.2 96.3 159.7H58.5C47.7 153.3 40.5 141.5 40.5 128C40.5 120.1 43 112.7 47.3 106.7H107.5V106.7Z" fill="#D4CFBE"/>
<path fill-rule="evenodd" clip-rule="evenodd" d="M59 159.7H94.6C95.7 159.7 96.6 160.6 96.6 161.7C96.6 162.8 95.7 163.7 94.6 163.7H59C57.9 163.7 57 162.8 57 161.7C56.9 160.6 57.9 159.7 59 159.7Z" fill="#A59B95"/>
<path fill-rule="evenodd" clip-rule="evenodd" d="M114.1 131.6C112.9 143.5 106.1 153.8 96.3 159.7H58.5C53.8 156.9 49.8 153.1 46.8 148.6C59.7 156.2 93.4 164.1 114.1 131.6Z" fill="#A59B95"/>
<path fill-rule="evenodd" clip-rule="evenodd" d="M40.5 129.1C40.5 128.7 40.5 128.4 40.5 128C40.5 120.1 43 112.7 47.3 106.7H88.2C88.2 106.8 88.2 106.9 88.2 107C88.2 120.8 73.6 131.9 55.6 131.9C50.2 131.9 45 130.9 40.5 129.1Z" fill="#E4E4E0"/>
<path fill-rule="evenodd" clip-rule="evenodd" d="M81.7 63.3C78.5 66 67.7 59.5 65 66.4C62.4 73 67.7 74.4 70.1 79.5C72 83.6 72.9 88.3 76.2 92.1C78.8 95.1 83 94.9 86.3 97.5C89.4 100 91.8 104.9 95.5 106.8C98.9 108.6 102.4 107.8 106.2 109C111.4 110.6 112.3 116.4 122.8 114.4C125.5 105.2 120 103.8 119.8 99.5C119.5 94.7 121.2 92.7 119.9 88.2C118.5 83.2 113.5 80.3 111.1 75.9C108.5 71.2 111.6 65.1 108.3 61.6C106.3 59.5 100.9 59.2 98.8 57.6C97.6 56.7 92 46.5 89.1 47C80.1 48.7 85.7 59.8 81.7 63.3Z" fill="#4883B2"/>
<path fill-rule="evenodd" clip-rule="evenodd" d="M82.2 64.6C79.6 66.8 69.9 61.9 67.2 67.2C65.1 71.3 74.5 72.5 76.1 76.4C77.4 79.5 74.4 84.2 76.8 87C78.7 89.2 83.9 86.1 86.4 88C88.8 89.8 88.5 96.3 91.4 97.7C94 98.9 97.9 95.6 100.8 96.4C104.8 97.4 108.7 106.6 116.1 105.7C117.7 99 110.2 95.6 110.2 92.4C110.1 88.7 112.5 86.3 111.6 82.9C110.6 79.1 104.5 77.6 102.8 74.3C100.9 70.8 107.2 66.3 104.8 63.7C103.3 62.2 97 63.3 95.4 62.2C94.5 61.6 91.4 48.7 89.1 49.2C82 50.7 85.5 61.8 82.2 64.6Z" fill="#386693"/>
<path fill-rule="evenodd" clip-rule="evenodd" d="M80.3 63.7C79.3 62.9 80.5 61.4 81.5 62.2C92.6 71.3 110.2 95.5 118 107.9C118.7 109 117.6 109.5 116.9 108.5C109.3 96.3 91.2 72.7 80.3 63.7Z" fill="#57A0CF"/>
<path fill-rule="evenodd" clip-rule="evenodd" d="M92.3 73.3C93.2 74.2 91.9 75.4 91.1 74.5C88.3 71.5 73.6 68.1 69.2 68C67.9 68 67.8 67 69.1 67C74 67.1 89.1 69.8 92.3 73.3Z" fill="#57A0CF"/>
<path fill-rule="evenodd" clip-rule="evenodd" d="M92.3001 73.3C93.0001 74.3 91.8001 75.3 91.0001 74.3C87.8001 70 86.6001 56.2 87.5001 50.9C87.7001 49.7 88.8001 49.9 88.6001 51.1C87.9001 55.5 89.8001 69.9 92.3001 73.3Z" fill="#57A0CF"/>
<path fill-rule="evenodd" clip-rule="evenodd" d="M98 80.3C99.2 80.6 98.7 82.5 97.5 82.2C91.9 80.7 83.9 85.7 80.4 89.6C79.5 90.5 78.9 89.6 79.7 88.7C83.8 84.2 91.6 78.6 98 80.3Z" fill="#57A0CF"/>
<path fill-rule="evenodd" clip-rule="evenodd" d="M99.3 81.8C99.7 83.1 98.1 83.3 97.7 82.2C95.7 75.9 99.5 69.4 103.8 65.2C104.7 64.3 105.5 65.2 104.6 66.1C100.9 69.7 97.6 76.3 99.3 81.8Z" fill="#57A0CF"/>
<path fill-rule="evenodd" clip-rule="evenodd" d="M105.8 91.6C106.9 91.1 107.7 92.8 106.6 93.3C102.7 95.1 99.1 99.7 97.6 103.6C97.2 104.8 96.2 104.3 96.7 103.2C98.4 98.7 101.2 94.1 105.8 91.6Z" fill="#57A0CF"/>
<path fill-rule="evenodd" clip-rule="evenodd" d="M106.9 92.9C105.9 93.7 104.7 92.1 105.8 91.4C109 89 112.9 88.2 116.9 89.3C118.1 89.6 117.9 90.6 116.7 90.3C113.3 89.3 109.6 90.9 106.9 92.9Z" fill="#57A0CF"/>
<path fill-rule="evenodd" clip-rule="evenodd" d="M92.2 22.1C91 25.4 80.3 24.9 81.1 31.1C81.9 37 86.3 35.9 90.1 38.8C93.1 41.1 95.7 44.2 99.6 45.7C102.7 46.9 105.7 45.1 109.3 45.7C112.6 46.3 116.3 49 119.8 48.9C123 48.9 125.4 46.9 128.6 46.2C133.1 45.3 136.1 49.2 143 43.5C141.3 35.6 136.7 36.8 134.8 33.7C132.6 30.2 133.1 28.1 130.4 25.2C127.3 22 122.4 21.9 118.9 19.7C115.1 17.2 114.9 11.5 111.1 10.2C108.8 9.4 104.6 11.4 102.5 11.1C101.2 10.9 93 5.6 91.1 7.1C85.2 11.9 93.8 17.9 92.2 22.1Z" fill="#57A0CF"/>
<path fill-rule="evenodd" clip-rule="evenodd" d="M93.2 22.9C92.2 25.6 83 25.9 83.1 30.9C83.2 34.7 90.6 31.9 93.4 34.1C95.6 35.8 95.3 40.6 98.2 41.7C100.5 42.6 103.1 38.2 105.7 38.6C108.2 39 110.6 43.9 113.3 43.8C115.7 43.7 117.3 39.7 119.8 39C123.2 38.2 129.8 43.4 134.8 39.8C133.3 34.2 126.4 34.7 125 32.3C123.5 29.6 124.2 26.9 122.3 24.7C120.1 22.2 114.9 23.6 112.3 21.9C109.5 20 112.4 14.2 109.5 13.3C107.8 12.7 103.5 16.2 101.9 16C101 15.9 93.5 7.59999 92 8.89999C87.4 12.6 94.5 19.4 93.2 22.9Z" fill="#4883B2"/>
<path fill-rule="evenodd" clip-rule="evenodd" d="M91.4 22.9C90.4 22.7 90.7 21.1 91.7 21.3C103.5 23.6 126.3 34.5 137.1 40.5C138 41 137.5 41.9 136.5 41.3C125.9 35.4 103.1 25.2 91.4 22.9Z" fill="#AAF1F7"/>
<path fill-rule="evenodd" clip-rule="evenodd" d="M104.1 25.2C105.1 25.5 104.7 26.9 103.7 26.6C100.4 25.5 88.2 28.9 84.9 30.6C84 31.1 83.5 30.4 84.4 29.9C88.1 28 100.4 23.9 104.1 25.2Z" fill="#AAF1F7"/>
<path fill-rule="evenodd" clip-rule="evenodd" d="M104.2 25.2C105.2 25.7 104.6 26.9 103.6 26.4C99.4999 24.5 93.0999 14.8 91.5999 10.4C91.2999 9.4 92.1999 9.1 92.4999 10.1C93.7999 13.8 100.9 23.7 104.2 25.2Z" fill="#AAF1F7"/>
<path fill-rule="evenodd" clip-rule="evenodd" d="M111.2 28.1C112.2 27.9 112.6 29.4 111.6 29.7C106.9 30.8 102.9 37.8 101.9 42C101.6 43 100.8 42.6 101 41.6C102.2 36.7 105.8 29.4 111.2 28.1Z" fill="#AAF1F7"/>
<path fill-rule="evenodd" clip-rule="evenodd" d="M112.8 28.7C113.6 29.5 112.5 30.3 111.8 29.6C107.8 25.7 108 19.4 109.5 14.5C109.8 13.5 110.7 13.8 110.4 14.8C109.1 19.1 109.2 25.3 112.8 28.7Z" fill="#AAF1F7"/>
<path fill-rule="evenodd" clip-rule="evenodd" d="M121.4 33.4C122 32.5 123.3 33.5 122.7 34.4C120.5 37.3 119.7 42.1 120.2 45.7C120.3 46.8 119.5 46.8 119.3 45.7C118.8 41.6 119 37 121.4 33.4Z" fill="#AAF1F7"/>
<path fill-rule="evenodd" clip-rule="evenodd" d="M122.8 33.9C122.4 34.9 120.9 34.2 121.3 33.2C122.7 30.2 125.3 28 128.7 27.2C129.7 27 130 27.8 129 28C126.1 28.7 124 31.3 122.8 33.9Z" fill="#AAF1F7"/>
<path fill-rule="evenodd" clip-rule="evenodd" d="M59.2 30.9C55.6 30 54.8 18.8 48.4 20.5C42.3 22.1 44 26.6 41.5 30.9C39.5 34.3 36.6 37.4 35.5 41.8C34.6 45.2 37 48.2 36.8 51.9C36.6 55.5 34.3 59.7 34.8 63.3C35.3 66.7 37.6 68.9 38.7 72.2C40.2 76.8 36.5 80.4 43.3 87C51.3 84.2 49.5 79.5 52.5 77.2C55.9 74.5 58.2 74.7 60.8 71.5C63.7 67.9 63.2 62.8 65.1 58.8C67.2 54.5 73.2 53.6 74 49.4C74.5 46.9 71.9 42.8 72 40.5C72 39.2 76.5 29.9 74.7 28.1C69 22.3 63.8 32 59.2 30.9Z" fill="#4883B2"/>
<path fill-rule="evenodd" clip-rule="evenodd" d="M58.5 32C55.6 31.3 54.1 21.7 48.9 22.5C44.9 23.1 48.8 30.5 46.9 33.7C45.4 36.2 40.4 36.5 39.6 39.7C39 42.2 43.9 44.4 43.8 47.2C43.7 49.9 38.9 53 39.3 55.8C39.7 58.3 44.1 59.4 45.1 61.9C46.4 65.4 41.8 72.9 46.2 77.8C51.9 75.5 50.5 68.4 52.8 66.6C55.5 64.6 58.4 65.1 60.4 62.8C62.7 60.1 60.6 54.9 62.1 52C63.7 48.8 70.2 51.1 70.8 48C71.1 46 67 42 67 40.2C67 39.2 74.7 30.3 73.2 28.9C68.5 24.6 62.3 32.9 58.5 32Z" fill="#386693"/>
<path fill-rule="evenodd" clip-rule="evenodd" d="M58.2 30.1C58.3 29 60 29.1 59.9 30.2C59 43 50.6 68.2 45.6 80.2C45.2 81.2 44.2 80.8 44.6 79.7C49.5 67.9 57.4 42.6 58.2 30.1Z" fill="#57A0CF"/>
<path fill-rule="evenodd" clip-rule="evenodd" d="M57.5 43.7C57.3 44.8 55.8 44.5 56 43.4C56.7 39.8 51.6 27.4 49.5 24.2C48.9 23.3 49.5 22.7 50.1 23.6C52.5 27.3 58.3 39.7 57.5 43.7Z" fill="#57A0CF"/>
<path fill-rule="evenodd" clip-rule="evenodd" d="M57.5 43.8C57.1 44.9 55.8 44.4 56.1 43.4C57.6 38.9 66.9 30.9 71.3 28.8C72.3 28.3 72.7 29.2 71.7 29.7C68.1 31.4 58.6 40.2 57.5 43.8Z" fill="#57A0CF"/>
<path fill-rule="evenodd" clip-rule="evenodd" d="M55.3 51.5C55.7 52.5 54.1 53.1 53.7 52.1C51.9 47.3 44.1 44 39.5 43.5C38.4 43.4 38.7 42.4 39.8 42.5C45.2 43.2 53.3 46 55.3 51.5Z" fill="#57A0CF"/>
<path fill-rule="evenodd" clip-rule="evenodd" d="M54.9 53.2C54.2 54.1 53.2 53.1 53.8 52.2C57.3 47.5 64 46.9 69.3 47.8C70.4 48 70.2 49 69.1 48.8C64.5 48.2 58 49.1 54.9 53.2Z" fill="#57A0CF"/>
<path fill-rule="evenodd" clip-rule="evenodd" d="M51.1 62.9C52.1 63.5 51.2 64.9 50.3 64.4C46.9 62.5 41.9 62.3 38.2 63.2C37.1 63.5 37 62.6 38 62.3C42.1 61.2 47 60.9 51.1 62.9Z" fill="#57A0CF"/>
<path fill-rule="evenodd" clip-rule="evenodd" d="M50.8 64.4C49.7 64.1 50.3 62.4 51.3 62.8C54.7 63.9 57.3 66.3 58.6 69.8C59 70.9 58.2 71.2 57.8 70.2C56.6 67.2 53.6 65.3 50.8 64.4Z" fill="#57A0CF"/>
<path fill-rule="evenodd" clip-rule="evenodd" d="M63.5 84.4C65.6 87.6 76.7 84.4 77.4 91.1C78.1 97.6 73.1 97.5 69.9 101.4C67.3 104.5 65.4 108.5 61.6 111.1C58.6 113.2 55 112 51.4 113.5C48 114.9 44.8 118.7 41.1 119.5C37.7 120.3 34.7 118.8 31.1 118.9C26.1 119.1 24 123.9 15.2 119.7C15 111 20.1 111 21.4 107.3C22.8 103.1 21.8 100.9 24 97.3C26.5 93.2 31.5 91.8 34.7 88.6C38.1 85.1 36.8 79 40.5 76.7C42.7 75.3 47.6 76.3 49.8 75.4C51.1 74.9 58.4 67.3 60.8 68.4C68.3 71.9 60.8 80.3 63.5 84.4Z" fill="#57A0CF"/>
<path fill-rule="evenodd" clip-rule="evenodd" d="M62.7 85.4C64.4 88 74.2 86 75.3 91.3C76.2 95.4 67.6 94.3 65.3 97.3C63.4 99.7 65 104.6 62.2 106.5C60 108 56.2 104 53.5 105.1C51 106.1 49.7 111.9 46.8 112.4C44.2 112.9 41.6 109 38.8 109C35 109 29.4 116.1 23.2 113.6C23.4 107.3 30.8 106.1 31.6 103.3C32.5 100 31 97.4 32.6 94.6C34.3 91.4 40.1 91.6 42.4 89.1C44.9 86.4 40.4 81 43.1 79.3C44.8 78.3 50.1 80.8 51.7 80.2C52.7 79.8 58.4 69.3 60.3 70.2C66.2 73.2 60.5 82.2 62.7 85.4Z" fill="#4883B2"/>
<path fill-rule="evenodd" clip-rule="evenodd" d="M64.6 85.1C65.6 84.6 64.9 83 63.9 83.5C52 88.9 30.8 106 20.9 115.1C20.1 115.9 20.8 116.6 21.7 115.8C31.4 106.9 52.9 90.4 64.6 85.1Z" fill="#AAF1F7"/>
<path fill-rule="evenodd" clip-rule="evenodd" d="M51.8 90.6C50.8 91.2 51.6 92.5 52.6 91.9C55.8 89.9 69.5 90.4 73.4 91.3C74.5 91.6 74.9 90.7 73.7 90.5C69.4 89.5 55.4 88.4 51.8 90.6Z" fill="#AAF1F7"/>
<path fill-rule="evenodd" clip-rule="evenodd" d="M51.7 90.7C50.8 91.4 51.7 92.6 52.6 91.9C56.4 88.8 60.7 77 61.2 72.1C61.3 71 60.3 70.9 60.2 72C59.8 76 54.8 88.2 51.7 90.7Z" fill="#AAF1F7"/>
<path fill-rule="evenodd" clip-rule="evenodd" d="M45.1 95.5C44 95.5 43.9 97.2 45.1 97.2C50.4 97.2 56.3 103.5 58.4 107.7C58.9 108.7 59.8 108.1 59.2 107.1C56.7 102.3 51.1 95.5 45.1 95.5Z" fill="#AAF1F7"/>
<path fill-rule="evenodd" clip-rule="evenodd" d="M43.6 96.5C42.9 97.5 44.3 98.1 44.9 97.2C48.2 92.1 46.3 85.5 43.6 80.7C43 79.7 42.1 80.3 42.7 81.3C45 85.5 46.4 92 43.6 96.5Z" fill="#AAF1F7"/>
<path fill-rule="evenodd" clip-rule="evenodd" d="M35.6 103.6C34.7 102.9 33.6 104.2 34.5 104.9C37.5 107.4 39.6 112.3 40 116.1C40.1 117.2 41.1 117.1 40.9 115.9C40.4 111.6 39 106.8 35.6 103.6Z" fill="#AAF1F7"/>
<path fill-rule="evenodd" clip-rule="evenodd" d="M34.3 104.4C35 105.3 36.4 104.2 35.7 103.3C33.5 100.5 30.2 98.8 26.4 98.8C25.3 98.8 25.2 99.7 26.3 99.7C29.5 99.8 32.4 102 34.3 104.4Z" fill="#AAF1F7"/>
<path fill-rule="evenodd" clip-rule="evenodd" d="M51.3 12.5C52.7 14.9 63.5 12.2 63 17.4C62.4 22.4 57.8 22.5 54.1 25.6C51.1 28.1 48.6 31.2 44.6 33.3C41.4 35 38.3 34.1 34.7 35.4C31.3 36.6 27.7 39.6 24.1 40.3C20.8 41 18.3 39.8 15 40C10.3 40.2 7.50001 44.1 0.100006 41C1.60001 34.2 6.30001 34.1 8.10001 31.2C10.2 27.9 9.60001 26.2 12.3 23.4C15.3 20.2 20.3 19 23.8 16.4C27.6 13.6 27.5 8.89999 31.4 6.99999C33.7 5.89999 38.1 6.49999 40.3 5.79999C41.6 5.39999 49.8 -0.700006 51.8 0.0999942C58 2.59999 49.5 9.39999 51.3 12.5Z" fill="#57A0CF"/>
<path fill-rule="evenodd" clip-rule="evenodd" d="M50.4 13.3C51.5 15.3 61 13.5 61 17.6C61 20.8 53.3 20.1 50.6 22.4C48.4 24.3 49 28.1 46 29.6C43.7 30.8 40.9 27.8 38.2 28.7C35.7 29.6 33.4 34.1 30.7 34.6C28.2 35 26.5 32.1 23.9 32.1C20.4 32.2 13.8 37.8 8.5 36C9.8 31.1 16.9 30 18.2 27.8C19.7 25.2 18.8 23.2 20.7 21C22.9 18.5 28.3 18.5 30.8 16.5C33.6 14.4 30.4 10.2 33.3 8.89999C35 8.09999 39.5 9.89999 41.2 9.39999C42.2 9.09999 49.5 0.699995 51 1.5C55.9 3.7 48.9 10.8 50.4 13.3Z" fill="#4883B2"/>
<path fill-rule="evenodd" clip-rule="evenodd" d="M52.2 13C53.3 12.6 52.9 11.4 51.8 11.8C39.8 16.2 16.9 30 6.09999 37.2C5.19999 37.8 5.79999 38.4 6.69999 37.8C17.3 30.7 40.3 17.3 52.2 13Z" fill="#AAF1F7"/>
<path fill-rule="evenodd" clip-rule="evenodd" d="M39.3 17.6C38.3 18.1 38.8 19.1 39.8 18.6C43.1 17 55.8 17.1 59.2 17.7C60.2 17.9 60.7 17.2 59.7 17C55.8 16.4 43 15.7 39.3 17.6Z" fill="#AAF1F7"/>
<path fill-rule="evenodd" clip-rule="evenodd" d="M39.2 17.6C38.2 18.2 38.9 19.1 39.8 18.5C43.9 16 50.1 6.69999 51.5 2.89999C51.8 1.99999 50.9 1.99999 50.6 2.89999C49.4 6.09999 42.5 15.7 39.2 17.6Z" fill="#AAF1F7"/>
<path fill-rule="evenodd" clip-rule="evenodd" d="M32.1 21.5C31 21.5 30.7 22.9 31.8 22.9C36.7 22.8 41 27.6 42.2 30.8C42.5 31.6 43.4 31.1 43.1 30.3C41.7 26.5 37.7 21.4 32.1 21.5Z" fill="#AAF1F7"/>
<path fill-rule="evenodd" clip-rule="evenodd" d="M30.5 22.3C29.7 23.1 30.9 23.5 31.6 22.8C35.6 18.8 35.1 13.7 33.4 9.99999C33.1 9.19999 32.1 9.69999 32.5 10.5C33.9 13.7 34 18.8 30.5 22.3Z" fill="#AAF1F7"/>
<path fill-rule="evenodd" clip-rule="evenodd" d="M21.8 28C21.1 27.4 19.8 28.5 20.5 29.1C22.8 31 23.9 34.7 23.5 37.7C23.4 38.6 24.3 38.4 24.4 37.5C24.8 34.2 24.4 30.5 21.8 28Z" fill="#AAF1F7"/>
<path fill-rule="evenodd" clip-rule="evenodd" d="M20.5 28.7C21 29.4 22.5 28.5 22 27.8C20.4 25.6 17.7 24.4 14.2 24.5C13.1 24.5 12.9 25.3 14 25.2C16.9 25.2 19.2 26.9 20.5 28.7Z" fill="#AAF1F7"/>
</svg>
