<svg xmlns="http://www.w3.org/2000/svg" viewBox="0 0 570.87 446.12"><defs><style>.cls-1{fill:#aaf1f7;}.cls-2{fill:#4883b2;}.cls-3{fill:#57a0cf;}.cls-4{fill:#386693;}.cls-5{fill:#2a4d7c;}.cls-6{fill:#457f97;}.cls-7{fill:#87d38c;}.cls-8{fill:#e4e4e0;}.cls-9{fill:#d4cfbe;}.cls-10{fill:#a59b95;}.cls-11{fill:#52969e;}.cls-12{fill:#fff;}.cls-13{fill:#cc6164;}.cls-14{fill:#a34262;}.cls-15{fill:#eba58e;}.cls-16{fill:#c7d2d7;}.cls-17{fill:#99a3b0;}.cls-18{fill:#797c99;}.cls-19{fill:#a64f5a;}.cls-20{fill:#8c404c;}.cls-21{fill:#f2c9ad;}.cls-22{fill:#495375;}.cls-23{fill:#373f56;}.cls-24{fill:#eca85e;}.cls-25{fill:#f4d071;}.cls-26{fill:#de7274;}.cls-27{fill:#e06e6e;}.cls-28{fill:#6a3649;}.cls-29{fill:#472948;}.cls-30{fill:#bd6c67;}</style></defs><g id="Слой_2" data-name="Слой 2"><g id="OBJECTS"><path class="cls-1" d="M537.26,431.44H54.1c-25.25-21.52-40.38-56.77-41.95-90.84S23.44,272,46.6,248.06c8.81-9.12,19.41-17.37,23.51-29.6,6.06-18.11-4.18-37.14-9.58-55.48-11.05-37.56,0-81.26,27.26-108.21s69.59-35.85,104.72-22.05C220.16,43.59,241.67,66.35,265,85.38s52,35.4,81.05,29.86c33.73-6.43,56.88-40,89.12-52.22,30.5-11.56,66.19-1.6,90.65,20.72s38.45,55.39,43.1,89,.65,68-6.23,101.21C552.26,324.12,538,380.14,537.26,431.44Z"/><path class="cls-1" d="M302.14,80.94c15.93,9,35.51,13.23,52.73,7.06s30.48-24.66,26.81-42.59C379.75,36,373.57,27.8,365.9,22s-16.76-9.46-26-12.22c-15.36-4.59-32.08-6.87-47.3-1.87-13.38,4.4-31.83,20.31-29.46,36.32C265.32,58.76,290.47,74.36,302.14,80.94Z"/><path class="cls-1" d="M54.8,201.37c.66,7.47.38,15.23-2.61,22.1s-9.09,12.75-16.5,13.84c-8.79,1.29-17.47-4.38-22.2-11.89S7.24,208.84,6.23,200c-1.27-11.1-1.77-22.9,3.34-32.84,4.88-9.5,20.77-19.6,29.69-9.93C49.11,167.93,53.57,187.41,54.8,201.37Z"/><path class="cls-1" d="M27.38,144.44c6,.55,12-3.18,14.68-8.58,6.44-13-6.61-31.11-20.89-23.3C8.06,119.73,12.08,143.05,27.38,144.44Z"/><path class="cls-1" d="M533.91,81.34c3.08,2.48,6.63,5.1,10.56,4.65,4.39-.51,7.53-4.93,7.92-9.34S551.05,68,549,64a81,81,0,0,0-13.68-19.11c-4.29-4.45-9.25-8.49-15.14-10.33s-12.87-1.13-17.43,3c-7,6.41-4,15.48,2.34,20.63C514.69,66,524.31,73.64,533.91,81.34Z"/><path class="cls-1" d="M472.76,26.09a13.78,13.78,0,0,0-2.34,12.73,11.24,11.24,0,0,0,10.2,7.51c5.67,0,10.47-5.24,11.13-10.87.56-4.74-1.68-12.1-6-14.73S475.27,22.85,472.76,26.09Z"/><path class="cls-1" d="M553,98.68a6.66,6.66,0,0,0,7.66,4,7.53,7.53,0,0,0,5.46-6.93C566.55,83.21,549.59,89,553,98.68Z"/><rect class="cls-2" x="40.25" y="184.31" width="495.76" height="16.85"/><path class="cls-3" d="M267.08,0c-9.86,6.28-19.6,12.84-28.14,20.81S223,38.24,218.8,49.12a61.36,61.36,0,0,0,5.33,54.39C252,77.64,268.17,38,267.08,0Z"/><path class="cls-3" d="M212.57,117.57c-10.91-2.88-20.34-10.4-26.43-19.91s-9-20.85-9.23-32.14S179,43,182.71,32.34c9.06,12.82,18.53,25.84,24.8,40.22C213.7,86.76,215.82,102.43,212.57,117.57Z"/><path class="cls-3" d="M233.68,116.84c-.39-12.06,4.24-24,11.86-33.39s18.09-16.18,29.4-20.39,23.45-5.91,35.52-6.06C292.9,84.84,264.58,105.52,233.68,116.84Z"/><path class="cls-2" d="M227.12,129.66a.88.88,0,0,1-.85-.68A120.37,120.37,0,0,1,252.46,24.72a.88.88,0,0,1,1.24-.1.87.87,0,0,1,.09,1.24A118.63,118.63,0,0,0,228,128.6a.88.88,0,0,1-.67,1A.62.62,0,0,1,227.12,129.66Z"/><path class="cls-2" d="M226.21,136.33l-.25,0a.88.88,0,0,1-.58-1.1,113.11,113.11,0,0,1,58.91-68.64.87.87,0,1,1,.75,1.58,111.37,111.37,0,0,0-58,67.57A.87.87,0,0,1,226.21,136.33Z"/><path class="cls-2" d="M231.51,141.1a.9.9,0,0,1-.61-.25A162.1,162.1,0,0,1,184,48.34a.88.88,0,0,1,1.74-.24,160.29,160.29,0,0,0,46.35,91.5.88.88,0,0,1-.62,1.5Z"/><polygon class="cls-2" points="242.56 184.29 211.07 184.29 189.07 123.56 264.56 123.56 242.56 184.29"/><path class="cls-4" d="M214.74,167.08,199,123.56h-9.9l22,60.73h31.49l3.84-10.62H224.14A10,10,0,0,1,214.74,167.08Z"/><path class="cls-2" d="M60.48,32.48h0c-1.88,34.17,14.11,83.4,35.72,110h0C98.09,108.25,82.09,59,60.48,32.48Z"/><path class="cls-2" d="M131.93,32.48h0c1.88,34.17-14.11,83.4-35.73,110h0C94.32,108.25,110.31,59,131.93,32.48Z"/><path class="cls-3" d="M96.2,17.64h0C82.87,52.1,82.87,108,96.2,142.43h0C109.54,108,109.54,52.1,96.2,17.64Z"/><path class="cls-3" d="M29.89,47.72h0C38.09,81,67.77,123.36,96.2,142.43h0C88,109.19,58.32,66.79,29.89,47.72Z"/><path class="cls-3" d="M162.51,47.72h0C154.32,81,124.63,123.36,96.2,142.43h0C104.4,109.19,134.08,66.79,162.51,47.72Z"/><polygon class="cls-2" points="111.95 184.29 80.46 184.29 58.46 123.56 133.95 123.56 111.95 184.29"/><path class="cls-4" d="M84.12,167.08,68.36,123.56h-9.9l22,60.73H112l3.84-10.62H93.53A10,10,0,0,1,84.12,167.08Z"/><path class="cls-3" d="M341.18,114.53a29.88,29.88,0,0,1,.27-24.24c1.11-2.39,2.56-4.66,3.12-7.24,2-9-7.46-18-4.51-26.81,2.28-6.77,10.71-9.38,14.53-15.41,2.89-4.55,2.73-10.31,3.84-15.58s4.71-11,10.09-10.94c4.75,0,8.31,4.88,8.79,9.61s-1.27,9.36-2.77,13.87-2.79,9.4-1.41,14c1.91,6.35,8.79,11.52,7.35,18-.92,4.14-5,6.73-7.19,10.34-2.86,4.63-2.47,10.53-1.4,15.87s2.75,10.69,2.16,16.1c-.79,7.33-7.34,15.86-14.93,17.35S343.79,120.49,341.18,114.53Z"/><path class="cls-2" d="M380.48,69.73c.72-3.27-.66-6.2-2.46-9.11-3,1.07-6.24,1.79-9.32,2.77a23.64,23.64,0,0,0-10,5.69c-2.55,14.06-4.41,28-5.83,38.9a211.52,211.52,0,0,1,3.54-42,27.24,27.24,0,0,0-6.67-7.76,61.8,61.8,0,0,1-6.93-6.49,12.47,12.47,0,0,0-2.78,4.5C337.11,65,346.53,74,344.57,83.05c-.56,2.58-2,4.85-3.12,7.24a29.88,29.88,0,0,0-.27,24.24c2.61,6,10.39,16.33,17.94,14.86s14.14-10,14.93-17.35c.59-5.41-1.09-10.77-2.16-16.1s-1.46-11.24,1.4-15.87C375.51,76.46,379.56,73.87,380.48,69.73Z"/><path class="cls-2" d="M358.73,69.08q.33-1.86.69-3.72c2.85-15.31,6.54-30.45,9.41-42.06a211.77,211.77,0,0,0-12.18,41.54L356.44,66a12.23,12.23,0,0,1,1.33,4.19A14.26,14.26,0,0,1,358.73,69.08Z"/><path class="cls-4" d="M352.9,108c1.42-10.91,3.28-24.84,5.83-38.9a14.26,14.26,0,0,0-1,1.1A12.23,12.23,0,0,0,356.44,66,211.52,211.52,0,0,0,352.9,108Z"/><path class="cls-3" d="M328.3,122.23c-.05-5.5-4.6-9.78-8.81-13.33s-8.78-7.76-8.94-13.27c-.15-4.89,3.32-9.16,4.23-14,1.08-5.67-1.47-11.37-4.29-16.42S304.43,55.11,304,49.35s3-12.35,8.79-12.91c5.06-.5,9.4,3.73,11.77,8.23s3.64,9.61,6.79,13.61c5,6.34,14.28,9.36,16.69,17.06,1.94,6.21-1.53,12.71-2,19.19-1.1,15,12.56,26,14.45,40.37,2.17,16.5-15.21,27.29-27.41,14.91a24.28,24.28,0,0,1-6.73-12C325.21,132.2,328.36,127.69,328.3,122.23Z"/><path class="cls-2" d="M360.44,134.9c-.87-6.62-4.25-12.53-7.52-18.45-8.4,4.91-14.85,14.11-15.62,23.81a30.32,30.32,0,0,0,2.25,13.92C350.55,158.36,362.24,148.61,360.44,134.9Z"/><path class="cls-3" d="M357.68,153.23a22.56,22.56,0,0,1-4.3-32.37c3.66-4.55,9.16-7.8,11.28-13.25,1.88-4.85.63-10.27-.39-15.37s-1.65-10.8,1.2-15.15c5.06-7.71,17.16-6.19,24.41-11.89,3.93-3.08,6-7.9,8.84-12s7.63-7.74,12.46-6.51,7.23,6.65,6.83,11.47-3,9.17-5.34,13.38-4.7,8.76-4.57,13.6c.13,4.35,2.24,8.81.76,12.91-1.39,3.87-5.48,6-9.32,7.46s-8,2.87-10.42,6.22c-2.09,2.93-2.34,6.81-1.95,10.4s1.36,7.11,1.4,10.72a21.53,21.53,0,0,1-12.31,19.36C370.51,154.84,362.79,157,357.68,153.23Z"/><path class="cls-2" d="M363.09,148.85c2.5-6.67,5.42-14.32,8.83-22.35s7.25-16.44,11.44-24.69,8.7-16.32,13.18-23.8,8.92-14.36,12.83-20.32a180.19,180.19,0,0,0-14.94,19,207.15,207.15,0,0,0-24.86,48.95A179.37,179.37,0,0,0,363.09,148.85Z"/><path class="cls-2" d="M340.13,126.39a238,238,0,0,0-8.86-40.68,237.69,237.69,0,0,0-15.52-38.63C319.41,58,324.3,72.17,328.69,86.5S337,115.3,340.13,126.39Z"/><polygon class="cls-2" points="374.03 184.29 337.29 184.29 320.81 138.79 390.51 138.79 374.03 184.29"/><path class="cls-4" d="M340,171.4l-11.81-32.61h-7.42l16.48,45.5H374l2.88-7.95H347.08A7.49,7.49,0,0,1,340,171.4Z"/><path class="cls-2" d="M457.34,148.56a121,121,0,0,0,18.71-67.94c-.69-23.83-8.23-47.52-22.17-66.87C458,45.5,444,77.49,448,109.24A172.6,172.6,0,0,0,457.34,148.56Z"/><path class="cls-3" d="M428.57,30a214.27,214.27,0,0,1,26.64,115.58c-13-5.4-21.84-17.47-25.36-31.1s-2.65-28-1.38-42S430.64,43.88,428.57,30Z"/><path class="cls-3" d="M454.12,148.58c2.27-43.1,26.21-84.52,62.43-108-14.39,20.81-16,49-26.73,71.95C482.45,128.32,468.74,139.11,454.12,148.58Z"/><polygon class="cls-2" points="468.67 184.29 441.8 184.29 423.03 132.47 487.44 132.47 468.67 184.29"/><path class="cls-4" d="M444.93,169.6l-13.45-37.13H423l18.77,51.82h26.87l3.28-9.06H453A8.53,8.53,0,0,1,444.93,169.6Z"/><rect class="cls-4" x="163.13" y="346.74" width="95.66" height="84.72"/><polygon class="cls-5" points="163.13 431.46 163.13 431.46 258.79 431.46 258.79 346.75 163.13 431.46"/><path class="cls-3" d="M367.86,349.89c.28-10.11,3.12-19.94,5.25-29.82s3.52-20.26.95-30-10-18.86-19.89-20.77-21.4,5.72-21.24,15.83c-.38-9.53-.78-19.15-3.25-28.36s-7.23-18.11-14.87-23.81-18.44-7.68-26.95-3.36c-9.17,4.66-13.86,15.49-14.09,25.77s3.22,20.25,6.63,29.95c-4.19-6.79-15.08-6.56-20.91-1.1s-7.44,14.12-7.08,22.1a59.26,59.26,0,0,0,23.46,44.2Z"/><path class="cls-2" d="M280.73,323.89c1.3-7.88,3.84-16.46,8-27a.5.5,0,1,0-.93-.37,136.83,136.83,0,0,0-7.76,25.5l-12.5-33.25a.5.5,0,0,0-.64-.3.52.52,0,0,0-.3.65l12.85,34.17a102,102,0,0,1-20.09-17.82.51.51,0,0,0-.71-.05.49.49,0,0,0,0,.7,103.49,103.49,0,0,0,21.25,18.65.34.34,0,0,0,.17.05l8.57,22.8a.52.52,0,0,0,.47.33.39.39,0,0,0,.18,0,.5.5,0,0,0,.29-.64Z"/><path class="cls-2" d="M328.15,296.24a.51.51,0,0,0-.6.38,87.08,87.08,0,0,1-11.64,27.89q-2.51-20.07-6.87-39.86a.49.49,0,0,0,.26-.21,115,115,0,0,0,9.48-25.58.5.5,0,0,0-1-.23,113.59,113.59,0,0,1-9.07,24.67q-2.5-11.22-5.6-22.3h0q-2.67-9.56-5.78-19a.5.5,0,0,0-.63-.32.49.49,0,0,0-.32.63q2.91,8.82,5.44,17.76c-2-1.11-4-2.28-6-3.44-2.34-1.36-4.75-2.77-7.11-4.06a.5.5,0,1,0-.48.88c2.35,1.28,4.75,2.69,7.08,4s4.61,2.69,6.9,3.94q5.41,19.35,9,39.14a141.9,141.9,0,0,1-20.79-17.25.5.5,0,1,0-.71.7A142.25,142.25,0,0,0,311.46,302h0a431.34,431.34,0,0,1,5.59,44.3.5.5,0,0,0,.5.46h0a.5.5,0,0,0,.46-.53q-.75-10.21-2-20.39a.49.49,0,0,0,.32-.21,87.92,87.92,0,0,0,12.13-28.78A.5.5,0,0,0,328.15,296.24Z"/><path class="cls-2" d="M363.57,288.76a.49.49,0,0,0-.63.33,33.78,33.78,0,0,1-8.33,13.8,166.73,166.73,0,0,0-1-22.7.52.52,0,0,0-.56-.44.5.5,0,0,0-.44.55,167.89,167.89,0,0,1,.66,30.34,74.31,74.31,0,0,0-13.36-19.4.49.49,0,0,0-.7,0,.5.5,0,0,0,0,.71,73.15,73.15,0,0,1,13.92,20.73,167.85,167.85,0,0,1-6.32,34.19.51.51,0,0,0,.34.62.36.36,0,0,0,.14,0,.49.49,0,0,0,.48-.36,169.69,169.69,0,0,0,6.83-43h0A.49.49,0,0,0,355,304a34.85,34.85,0,0,0,8.93-14.59A.5.5,0,0,0,363.57,288.76Z"/><polygon class="cls-2" points="357.64 431.46 272.22 431.46 241.52 332.43 388.34 332.43 357.64 431.46"/><path class="cls-4" d="M266.21,332.43H241.52l30.7,99h85.42l4.86-15.67H314.76a30.82,30.82,0,0,1-29.44-21.69Z"/><path class="cls-3" d="M84.45,341.19a291.47,291.47,0,0,0-29.12-78.46,23.93,23.93,0,0,0,9.55-8l-2-.35c1-.32,2-.65,2.94-1a30,30,0,0,0,4.35-11.84c-1.09.7-2.15,1.38-3.26,2q1.77-1.8,3.45-3.75a24.68,24.68,0,0,0-3.6-15.53h0a44.18,44.18,0,0,0-4.8,6.9c.21,1.2.46,2.43.63,3.66-.39-.88-.81-1.75-1.23-2.6a54.18,54.18,0,0,0-4.17,10c.32,1.54.63,3.12.87,4.72-.47-1-.92-1.89-1.42-2.81A50.16,50.16,0,0,0,55,262.15q-5.16-9.4-11-18.4a21.25,21.25,0,0,0,5.72-7.55l-1.68,0L50.27,235a26.32,26.32,0,0,0,1.83-10c-.79.69-1.58,1.37-2.39,2,.8-1.12,1.58-2.26,2.33-3.43a21.83,21.83,0,0,0-4.53-12.22h0a32.25,32.25,0,0,0-3.29,6.12c.3,1,.63,2,.91,3q-.63-1-1.29-2a39,39,0,0,0-2.19,8.83c.47,1.24.94,2.5,1.37,3.77-.52-.71-1-1.41-1.56-2.11a37.29,37.29,0,0,0,.9,12.32q-3.91-5.93-8.12-11.63a.8.8,0,0,0-.35-.28,24.63,24.63,0,0,0-3.08-10.15l-1.08,1.53.34-2.79a30.28,30.28,0,0,0-7.64-8.28c.07,1.17.14,2.31.17,3.47-.45-1.45-.93-2.91-1.44-4.36a25.18,25.18,0,0,0-13.77-4.41h0a33.3,33.3,0,0,0,3.07,7.13c1.07.41,2.16.8,3.23,1.24-.88-.1-1.77-.18-2.66-.26a40.65,40.65,0,0,0,6.38,8c1.43.42,2.86.85,4.29,1.32-1,0-1.95,0-2.92,0a38.23,38.23,0,0,0,13.75,8.08,1,1,0,0,0,.1,1c2,2.7,3.92,5.46,5.82,8.23a33.49,33.49,0,0,0-8.16-3.95l.29,2.06-1.79-2.52a38.93,38.93,0,0,0-12-1.44l2.5,2.89-4.16-2.79A33.09,33.09,0,0,0,0,238.07H0a30.48,30.48,0,0,0,7.36,4.71l3.81-1-2.62,1.5A37.63,37.63,0,0,0,20,246l4.74-2-2.56,2.12a34.8,34.8,0,0,0,18.12-4.36q5.49,8.25,10.42,16.87a27.15,27.15,0,0,0-9.12-5.35l.23,2-1.7-2.49a33.27,33.27,0,0,0-12-1.26c.87.9,1.73,1.78,2.57,2.69-1.39-.86-2.79-1.69-4.22-2.51a27.46,27.46,0,0,0-14.25,6h0a34.62,34.62,0,0,0,7.48,3.67c1.15-.42,2.32-.85,3.5-1.25-.79.54-1.57,1.09-2.35,1.65a43.22,43.22,0,0,0,10.83,2q2.18-1,4.41-2c-.81.68-1.6,1.35-2.39,2.05a39.68,39.68,0,0,0,17.8-3.78q3.78,6.72,7.21,13.63a25.37,25.37,0,0,0-8.19-4.5l.25,1.89-1.67-2.34a30.71,30.71,0,0,0-11.46-.91c.86.82,1.7,1.63,2.53,2.47-1.34-.77-2.71-1.53-4.1-2.26a25.53,25.53,0,0,0-13.34,6.27h0a34.33,34.33,0,0,0,7.24,3.18c1.07-.44,2.16-.9,3.26-1.31-.73.53-1.45,1.09-2.16,1.65a42.55,42.55,0,0,0,10.29,1.55c1.35-.67,2.72-1.34,4.12-2-.75.67-1.49,1.32-2.21,2a39.16,39.16,0,0,0,16.45-3.68c1.61,3.31,3.14,6.66,4.62,10a24.18,24.18,0,0,0-10.16-1.9l.88,1.7L52.77,284a29.77,29.77,0,0,0-11.19,3.15c1.1.46,2.19.92,3.27,1.42-1.55-.26-3.11-.47-4.68-.66A24.72,24.72,0,0,0,30,298.67h0a36,36,0,0,0,7.9.27c.84-.8,1.68-1.63,2.56-2.41-.49.77-.95,1.55-1.41,2.32a45,45,0,0,0,10.12-2.18c1-1.1,2.07-2.21,3.15-3.28-.47.88-.93,1.75-1.37,2.64A41.8,41.8,0,0,0,65,287.21q2.44,5.63,4.66,11.36a25.85,25.85,0,0,0-12-.09l1.34,1.68c-1-.43-2-.86-3-1.28A32,32,0,0,0,44.39,305c1.34.23,2.64.46,4,.74-1.76.1-3.53.26-5.32.46a26.5,26.5,0,0,0-8.26,14.54h0a44.69,44.69,0,0,0,8.63-1.88c.7-1.09,1.38-2.21,2.13-3.29-.33,1-.62,1.93-.91,2.9A55.52,55.52,0,0,0,55,313.64c.85-1.44,1.72-2.89,2.66-4.31-.31,1.08-.61,2.12-.87,3.2A51.27,51.27,0,0,0,70.23,300q2.85,7.53,5.27,15.19a26,26,0,0,0-8.15,1.29l1.15,1.18-2.33-.77a30.81,30.81,0,0,0-8.35,4.68l2.94.68-4,.16a26.23,26.23,0,0,0-7.41,10.12h0a24.41,24.41,0,0,0,6.91-.41l2-2.41-1,2.18a29.79,29.79,0,0,0,8.61-3.61l2.1-3.49-.65,2.55a28,28,0,0,0,8.87-9.81q3.66,11.9,6.26,24.05a1,1,0,0,0,1,.79.75.75,0,0,0,.21,0A1,1,0,0,0,84.45,341.19Z"/><path class="cls-3" d="M99.4,338.94a291.42,291.42,0,0,0,8.2-83.28,23.89,23.89,0,0,0,12.06-3l-1.66-1.2c1,.14,2,.28,3.08.4a30.21,30.21,0,0,0,9.1-8.74c-1.29.15-2.54.29-3.82.38q2.39-.84,4.75-1.85a24.83,24.83,0,0,0,3.57-15.55h0a44.8,44.8,0,0,0-7.34,4.09c-.33,1.18-.65,2.39-1,3.57,0-1,0-1.92,0-2.88a54.27,54.27,0,0,0-8.15,7.2c-.38,1.53-.8,3.08-1.28,4.62,0-1.06,0-2.1,0-3.15A50.56,50.56,0,0,0,107.57,255c-.34-7.15-1-14.28-1.82-21.36a21.42,21.42,0,0,0,8.44-4.29l-1.52-.71,2.53-.15a26.29,26.29,0,0,0,6-8.22c-1,.28-2,.54-3,.78,1.21-.66,2.4-1.35,3.59-2.07a21.82,21.82,0,0,0,1.28-13h0a31.92,31.92,0,0,0-5.64,4.06c-.15,1-.29,2-.48,3-.07-.79-.17-1.58-.27-2.37a39.46,39.46,0,0,0-5.85,7c-.11,1.32-.24,2.66-.41,4-.16-.87-.3-1.72-.48-2.57a37.38,37.38,0,0,0-4.59,11.46q-.93-7-2.2-14a1,1,0,0,0-.19-.41,24.53,24.53,0,0,0,1.67-10.47l-1.64.91,1.54-2.37a30.52,30.52,0,0,0-3.25-10.78c-.45,1.07-.89,2.14-1.37,3.19.24-1.5.44-3,.62-4.55a25.31,25.31,0,0,0-10.44-10h0a33,33,0,0,0-.37,7.75c.78.84,1.59,1.68,2.36,2.54-.75-.48-1.52-1-2.28-1.4A41.31,41.31,0,0,0,92,201c1.1,1,2.2,2,3.28,3.07-.87-.45-1.73-.89-2.62-1.31a38.43,38.43,0,0,0,8.83,13.29,1,1,0,0,0-.34.92c.61,3.31,1.14,6.63,1.63,10a33.26,33.26,0,0,0-5.61-7.14l-.64,2-.51-3.06a39.15,39.15,0,0,0-10.17-6.55l1,3.68-2.52-4.32a33,33,0,0,0-15.69-2.28h0a30.59,30.59,0,0,0,4.55,7.46l3.86.78-3,.2a37.88,37.88,0,0,0,9.14,7.49l5.13.27-3.22.79a34.74,34.74,0,0,0,18.19,4c.89,6.54,1.54,13.13,2,19.73a27.2,27.2,0,0,0-5.85-8.8l-.67,1.89-.45-3a32.9,32.9,0,0,0-10.2-6.37c.4,1.18.78,2.35,1.14,3.54q-1.3-2.07-2.69-4.11a27.5,27.5,0,0,0-15.45-.82h0a34.25,34.25,0,0,0,5.11,6.58c1.22.13,2.46.25,3.69.41-.94.14-1.89.29-2.83.46a43.14,43.14,0,0,0,8.86,6.53q2.4,0,4.83.15c-1,.27-2,.52-3,.8a39.63,39.63,0,0,0,17.65,4.4q.47,7.69.51,15.42a25.26,25.26,0,0,0-5.39-7.64l-.6,1.81-.48-2.84a30.92,30.92,0,0,0-9.9-5.84c.41,1.12.81,2.22,1.19,3.34Q89.4,254,88,252.1a25.53,25.53,0,0,0-14.73-.21h0a34.28,34.28,0,0,0,5.11,6c1.16.08,2.34.14,3.51.25-.89.16-1.78.35-2.66.54a42,42,0,0,0,8.56,5.9c1.51,0,3,0,4.57,0-1,.27-1.91.53-2.86.83a39.18,39.18,0,0,0,16.4,3.89q0,5.52-.24,11a24.22,24.22,0,0,0-8.3-6.16l0,1.91L96,273.64a29.66,29.66,0,0,0-11.43-2.07c.79.9,1.56,1.79,2.31,2.71-1.27-.91-2.58-1.79-3.91-2.64a24.72,24.72,0,0,0-13.89,5.22h0a36.8,36.8,0,0,0,7,3.71c1.11-.35,2.23-.73,3.36-1.05q-1.16.72-2.28,1.47a45.16,45.16,0,0,0,10,2.47c1.4-.54,2.83-1.08,4.28-1.57-.81.59-1.61,1.16-2.39,1.77a41.57,41.57,0,0,0,16.54-1.75q-.27,6.13-.79,12.25a26,26,0,0,0-10.72-5.32l.46,2.1q-1-1.23-2.13-2.46a32.08,32.08,0,0,0-13.19.41c1.1.79,2.18,1.57,3.23,2.4q-2.44-1-5-1.92a26.52,26.52,0,0,0-13.8,9.45h0a45.34,45.34,0,0,0,8.58,2.1c1.1-.68,2.21-1.39,3.36-2-.72.72-1.41,1.46-2.09,2.2a54.32,54.32,0,0,0,11.47.18c1.38-.92,2.8-1.84,4.27-2.7-.75.83-1.48,1.64-2.19,2.49a51.4,51.4,0,0,0,17.58-5.35q-.73,8-1.92,16a26.18,26.18,0,0,0-7.9-2.41l.52,1.57-1.75-1.72a31,31,0,0,0-9.56.55l2.34,1.9L82.77,310a26.18,26.18,0,0,0-11.1,5.86h0a24.47,24.47,0,0,0,6.39,2.64l2.83-1.3-1.83,1.54a29.71,29.71,0,0,0,9.33.53L91.8,317l-1.7,2a28,28,0,0,0,12.27-4.94c-1.29,8.2-2.91,16.34-4.91,24.37A1,1,0,0,0,98,339.6l.19.07A1,1,0,0,0,99.4,338.94Z"/><path class="cls-3" d="M111.2,341.19a291.47,291.47,0,0,1,29.12-78.46,23.9,23.9,0,0,1-9.54-8l2-.35c-1-.32-1.95-.65-2.94-1a30.13,30.13,0,0,1-4.35-11.84c1.09.7,2.16,1.38,3.26,2q-1.77-1.8-3.45-3.75a24.81,24.81,0,0,1,3.6-15.53h0a43.51,43.51,0,0,1,4.8,6.9c-.21,1.2-.46,2.43-.63,3.66.39-.88.81-1.75,1.23-2.6a53.51,53.51,0,0,1,4.17,10c-.32,1.54-.63,3.12-.87,4.72.47-1,.92-1.89,1.42-2.81a50.39,50.39,0,0,1,1.6,17.93q5.15-9.4,11-18.4a21.25,21.25,0,0,1-5.72-7.55l1.68,0L145.38,235a26.32,26.32,0,0,1-1.83-10c.79.69,1.58,1.37,2.39,2-.8-1.12-1.57-2.26-2.33-3.43a21.9,21.9,0,0,1,4.53-12.22h0a32.29,32.29,0,0,1,3.3,6.12c-.31,1-.63,2-.91,3,.41-.68.85-1.35,1.28-2a39,39,0,0,1,2.2,8.83c-.48,1.24-.94,2.5-1.37,3.77.51-.71,1-1.41,1.55-2.11a37.29,37.29,0,0,1-.9,12.32q3.93-5.93,8.12-11.63a.93.93,0,0,1,.35-.28,24.5,24.5,0,0,1,3.09-10.15l1.07,1.53-.34-2.79a30.28,30.28,0,0,1,7.64-8.28c-.07,1.17-.13,2.31-.17,3.47.45-1.45.93-2.91,1.44-4.36a25.2,25.2,0,0,1,13.77-4.41h0a33.3,33.3,0,0,1-3.07,7.13c-1.07.41-2.16.8-3.23,1.24.89-.1,1.78-.18,2.66-.26a40.65,40.65,0,0,1-6.38,8c-1.42.42-2.86.85-4.29,1.32,1,0,2,0,2.93,0a38.28,38.28,0,0,1-13.76,8.08,1,1,0,0,1-.1,1c-2,2.7-3.92,5.46-5.82,8.23a33.49,33.49,0,0,1,8.16-3.95l-.29,2.06,1.8-2.52a38.87,38.87,0,0,1,12-1.44L176.39,236l4.15-2.79a33.05,33.05,0,0,1,15.11,4.82h0a30.29,30.29,0,0,1-7.36,4.71l-3.81-1,2.62,1.5A37.63,37.63,0,0,1,175.61,246l-4.73-2,2.55,2.12a34.8,34.8,0,0,1-18.12-4.36q-5.49,8.25-10.42,16.87a27.15,27.15,0,0,1,9.12-5.35l-.23,2,1.71-2.49a33.23,33.23,0,0,1,12-1.26c-.88.9-1.73,1.78-2.58,2.69,1.39-.86,2.8-1.69,4.22-2.51a27.46,27.46,0,0,1,14.25,6h0a34.77,34.77,0,0,1-7.47,3.67c-1.16-.42-2.33-.85-3.51-1.25.79.54,1.58,1.09,2.35,1.65a43.22,43.22,0,0,1-10.83,2q-2.17-1-4.4-2c.8.68,1.59,1.35,2.38,2.05a39.68,39.68,0,0,1-17.8-3.78q-3.78,6.72-7.2,13.63a25.16,25.16,0,0,1,8.19-4.5l-.25,1.89,1.67-2.34a30.66,30.66,0,0,1,11.45-.91c-.85.82-1.7,1.63-2.53,2.47,1.35-.77,2.72-1.53,4.1-2.26a25.5,25.5,0,0,1,13.34,6.27h0a34.25,34.25,0,0,1-7.23,3.18c-1.08-.44-2.17-.9-3.27-1.31.73.53,1.45,1.09,2.16,1.65a42.55,42.55,0,0,1-10.29,1.55c-1.35-.67-2.72-1.34-4.11-2,.74.67,1.48,1.32,2.2,2a39.16,39.16,0,0,1-16.45-3.68q-2.4,5-4.62,10a24.18,24.18,0,0,1,10.16-1.9l-.87,1.7,2.38-1.64a29.78,29.78,0,0,1,11.18,3.15c-1.1.46-2.19.92-3.26,1.42,1.54-.26,3.1-.47,4.67-.66a24.81,24.81,0,0,1,10.2,10.78h0a36.13,36.13,0,0,1-7.91.27c-.84-.8-1.68-1.63-2.56-2.41.49.77,1,1.55,1.41,2.32a44.81,44.81,0,0,1-10.11-2.18c-1-1.1-2.08-2.21-3.16-3.28.47.88.93,1.75,1.37,2.64a41.8,41.8,0,0,1-14.1-8.82q-2.44,5.63-4.66,11.36a25.85,25.85,0,0,1,12-.09l-1.34,1.68c1-.43,2-.86,3-1.28A32,32,0,0,1,151.26,305c-1.33.23-2.64.46-3.95.74,1.76.1,3.54.26,5.32.46a26.44,26.44,0,0,1,8.26,14.54h0a44.69,44.69,0,0,1-8.63-1.88c-.69-1.09-1.38-2.21-2.13-3.29.33,1,.63,1.93.91,2.9a55.81,55.81,0,0,1-10.38-4.86c-.84-1.44-1.72-2.89-2.66-4.31.31,1.08.61,2.12.88,3.2A51.31,51.31,0,0,1,125.42,300q-2.85,7.53-5.27,15.19a26.15,26.15,0,0,1,8.16,1.29l-1.15,1.18,2.32-.77a30.81,30.81,0,0,1,8.35,4.68l-2.94.68,4,.16a26.23,26.23,0,0,1,7.41,10.12h0a24.32,24.32,0,0,1-6.9-.41l-2-2.41,1,2.18a29.79,29.79,0,0,1-8.61-3.61l-2.09-3.49.64,2.55a28.09,28.09,0,0,1-8.87-9.81c-2.43,7.93-4.54,16-6.26,24.05a1,1,0,0,1-1,.79.75.75,0,0,1-.21,0A1,1,0,0,1,111.2,341.19Z"/><polygon class="cls-3" points="140.54 431.46 55.11 431.46 24.42 332.43 171.23 332.43 140.54 431.46"/><path class="cls-2" d="M49.1,332.43H24.42l30.69,99h85.43l4.86-15.67H97.66A30.82,30.82,0,0,1,68.22,394.1Z"/><path class="cls-6" d="M405.75,278.38a35.37,35.37,0,0,1-11.2-6.88,81.55,81.55,0,0,1-25.24-38.65,31.73,31.73,0,0,1-1.65-11.16,14.43,14.43,0,0,1,4.61-10c4.37-3.73,11.11-3.5,16.21-.87s8.89,7.21,12.27,11.85a162.85,162.85,0,0,1,14.46,23.83,60.84,60.84,0,0,1,5.55,14.94c.87,4.31,1.79,12.15-1.45,15.82C416.32,280.62,409.45,279.64,405.75,278.38Z"/><path class="cls-6" d="M439.68,255.15c-2.3-2.3-3.09-5.72-3.29-9-.53-8.82,2.55-17.59,7.41-25s11.42-13.47,18.33-19c3.61-2.87,7.43-5.64,11.84-7s9.58-.93,13.1,2c3,2.52,4.39,6.58,4.4,10.49a29.17,29.17,0,0,1-2.75,11.34,68.73,68.73,0,0,1-36.55,36.32C448,257.22,443.43,258.9,439.68,255.15Z"/><path class="cls-6" d="M442.26,293.73a97.19,97.19,0,0,1,41.7-34.2c5.1-2.18,11.11-3.88,16-1.32,4.36,2.27,6.61,7.48,6.47,12.39s-2.31,9.55-4.93,13.71a61.82,61.82,0,0,1-27.61,23.35,63.21,63.21,0,0,1-17.76,4.82c-4.14.49-11.34,1.71-15-.92C435.06,307.25,439.06,298.38,442.26,293.73Z"/><path class="cls-6" d="M426.56,339.68a1,1,0,0,1-1-.88A154,154,0,0,1,465,218.19a1,1,0,0,1,1.47,1.36,151.86,151.86,0,0,0-39,119,1,1,0,0,1-.88,1.11Z"/><path class="cls-6" d="M430.16,342.48a1,1,0,0,1-1-.9,225.83,225.83,0,0,0-39-105.14,1,1,0,0,1,.25-1.39,1,1,0,0,1,1.4.25,228,228,0,0,1,39.29,106.08,1,1,0,0,1-.89,1.09Z"/><path class="cls-6" d="M417,339.12a1,1,0,0,1-.84-1.53A162.46,162.46,0,0,1,473.9,282a1,1,0,0,1,1.36.37,1,1,0,0,1-.37,1.37,160.59,160.59,0,0,0-57,54.86A1,1,0,0,1,417,339.12Z"/><path class="cls-7" d="M419,192.91a74.74,74.74,0,0,1,13-38.08c2.86-4.15,6.23-8.09,10.6-10.59s9.9-3.38,14.5-1.32c5,2.24,8.1,7.58,9.08,13s.2,11-.58,16.4c-1.76,12.23-3.59,24.65-8.81,35.84-4.14,8.87-11.08,17.86-20.23,22-10.93,4.9-14-8.79-15.78-16.79A74.41,74.41,0,0,1,419,192.91Z"/><path class="cls-7" d="M448.26,246.49a69.18,69.18,0,0,1,25.55-27c3.82-2.28,8-4.22,12.38-4.73s9.19.57,12.4,3.66c3.41,3.29,4.6,8.42,4,13.13s-2.77,9.07-5.25,13.11a84,84,0,0,1-28.83,28.21,81.39,81.39,0,0,1-19.06,8.31c-8,2.28-9.5-2-8.8-9.25A69.1,69.1,0,0,1,448.26,246.49Z"/><path class="cls-7" d="M527.48,249.32c6.44-.33,13.8.9,17.36,6.28,2.86,4.35,2.27,10.33-.36,14.82s-7,7.72-11.49,10.32a71.33,71.33,0,0,1-24.71,8.63c-7.57,1.18-18.83,2.43-26-.93-14.34-6.7,14-28.39,20-31.72A58.28,58.28,0,0,1,527.48,249.32Z"/><path class="cls-7" d="M481.06,297.34c8.5-4.31,18.63-4.88,27.87-2.58A17.14,17.14,0,0,1,516,298a7.62,7.62,0,0,1,2.85,6.94c-.63,3.3-3.87,5.35-6.89,6.83a84.61,84.61,0,0,1-31.3,8.34c-3.83.27-10.18,1.34-13.4-1.45-3.4-2.94-.22-7.73,1.72-10.62A31.93,31.93,0,0,1,481.06,297.34Z"/><path class="cls-7" d="M384,217.62c-6.8-10.06-9.79-22.13-12.66-33.93-1.05-4.33-2.11-8.79-1.44-13.2s3.49-8.8,7.8-9.92c4.15-1.08,8.47,1.05,11.86,3.69,6.3,4.9,10.92,11.69,14.32,18.92s5.63,14.93,7.86,22.59c2.11,7.25,6.19,19.18,2.09,26.46-3.49,6.19-16.1-1.4-19.91-4.21A42.09,42.09,0,0,1,384,217.62Z"/><path class="cls-7" d="M390.2,245.92c-2.62-3.1-6.14-6.29-10.15-5.68-3,.46-5.34,3.07-6.29,5.95a20.81,20.81,0,0,0-.38,9A83.69,83.69,0,0,0,399,305.65c2.63,2.46,9.39,7.9,12.89,3.94,2.72-3.08.44-11.93-.11-15.61a97.5,97.5,0,0,0-11-32.55A94.44,94.44,0,0,0,390.2,245.92Z"/><path class="cls-7" d="M362.85,277.65a21.15,21.15,0,0,0-9.42-1.61c-3.2.34-6.4,2.06-7.78,5-1.87,3.89,0,8.53,2.25,12.19a49.13,49.13,0,0,0,34.34,21.87c5.28.75,13.82.38,11.91-7.33-1.56-6.28-7.06-12.74-11.48-17.22A54.38,54.38,0,0,0,362.85,277.65Z"/><path class="cls-6" d="M475.44,244.79l.71-.68a1,1,0,0,0,0-1.41,1,1,0,0,0-1.41,0l-.71.68c-13.83,13.16-36.49,34.72-47.52,65.67q-.37-9-.48-17.53s0-.08,0-.11l0-.51c-.54-50.17,6.39-88,22.67-129.09a1,1,0,0,0-.56-1.3,1,1,0,0,0-1.3.56c-14.33,36.19-21.46,69.8-22.66,111.39-4.95-31.76-18.8-62.61-39.35-86.8a1,1,0,1,0-1.52,1.29c24.21,28.51,39,66.38,40.72,104,.15,13.72.85,28.37,2.08,44.25a1,1,0,0,0,1,.93h.07a1,1,0,0,0,.92-1.07c-.54-7.05-1-13.84-1.32-20.43C436.9,281.45,461,258.51,475.44,244.79Z"/><path class="cls-6" d="M393,270.33a1,1,0,0,0-1.7,1.06c13.73,22,23.75,44.7,28.21,63.9a1,1,0,0,0,1,.78l.23,0a1,1,0,0,0,.74-1.2C416.93,315.42,406.82,292.52,393,270.33Z"/><path class="cls-6" d="M362.3,290.47a1,1,0,0,0-1.28.59,1,1,0,0,0,.59,1.29A85.78,85.78,0,0,1,409.56,337a1,1,0,0,0,.91.59,1,1,0,0,0,.41-.09,1,1,0,0,0,.51-1.32A86.67,86.67,0,0,0,362.3,290.47Z"/><path class="cls-6" d="M526.92,264.63c-21.16,3.73-40.33,11.71-55.45,23.08-17,12.78-29.19,30.12-34.4,48.83a1,1,0,0,0,.7,1.23,1.26,1.26,0,0,0,.27,0,1,1,0,0,0,1-.74c5.09-18.29,17.05-35.25,33.67-47.76,14.87-11.19,33.75-19,54.6-22.71a1,1,0,0,0,.81-1.16A1,1,0,0,0,526.92,264.63Z"/><path class="cls-6" d="M502.77,301.23a57.59,57.59,0,0,0-51.17,36.64,1,1,0,0,0,.57,1.3,1.15,1.15,0,0,0,.37.06,1,1,0,0,0,.93-.63,55.56,55.56,0,0,1,49.39-35.37,1,1,0,0,0,.95-1A1,1,0,0,0,502.77,301.23Z"/><rect class="cls-8" x="382.5" y="329.48" width="102" height="102"/><rect class="cls-9" x="448.13" y="329.48" width="36.38" height="102"/><rect class="cls-9" x="382.5" y="351.48" width="65.62" height="4"/><rect class="cls-10" x="448.13" y="351.48" width="36.38" height="4"/><path class="cls-11" d="M315.37,135.47a7.94,7.94,0,0,0-4.84-4.8,8.19,8.19,0,0,0-6.42,1,17.91,17.91,0,0,0-4.83,4.56c-6,7.67-9.3,17.16-10.5,26.86a58.77,58.77,0,0,1,8.78,15.37c2.89-5.91,6.92-11.21,10.52-16.73,3.85-5.89,7.28-12.32,8-19.32A15,15,0,0,0,315.37,135.47Z"/><path class="cls-6" d="M288.32,168.4c-.53,11.5,1.58,23,4.48,34.1a11.24,11.24,0,0,0,2.37-2.35c-2.45-6.59-1.1-14.08,1.81-20.49.18-.4.39-.79.58-1.19a58.77,58.77,0,0,0-8.78-15.37C288.56,164.86,288.41,166.63,288.32,168.4Z"/><path class="cls-11" d="M293.79,202.64c-1.87-9.41-3.79-18.93-8-27.57S275,158.62,266,155.2c-3.49-1.33-7.67-1.89-10.78.19s-4.16,6.09-3.32,9.6a14.77,14.77,0,0,0,6.37,8.43,40.59,40.59,0,0,0,9.85,4.41,50.66,50.66,0,0,1,10,4.17,24.35,24.35,0,0,1,11.56,19.76C291,201.86,292.37,202.54,293.79,202.64Z"/><path class="cls-11" d="M296.68,202.58c-.38-5.23,2.88-10.21,7.16-13.22s9.49-4.4,14.61-5.53,10.35-2.09,15.05-4.41c3.72-1.83,7.16-4.69,8.54-8.6s.08-8.91-3.61-10.79c-2.23-1.14-4.89-1-7.34-.5-8.5,1.77-15.57,7.57-21.69,13.72a70,70,0,0,0-10.83,13.39,34.69,34.69,0,0,0-5.17,16.28C294.34,202.88,295.74,202.62,296.68,202.58Z"/><rect class="cls-12" x="265.26" y="200.35" width="56.81" height="13.67"/><polygon class="cls-12" points="307.3 255.08 280.02 255.08 268.06 214.02 319.26 214.02 307.3 255.08"/><polygon class="cls-8" points="307.73 200.35 307.73 214.02 319.26 214.02 322.06 214.02 322.06 200.35 307.73 200.35"/><polygon class="cls-8" points="299.49 255.08 307.3 255.08 319.26 214.02 307.73 214.02 299.49 255.08"/><polygon class="cls-9" points="268.06 214.02 306.73 219.02 307.73 214.02 268.06 214.02"/><polygon class="cls-10" points="319.26 214.02 307.73 214.02 306.73 219.02 317.4 220.4 319.26 214.02"/><path class="cls-4" d="M37,434.38H53.56A1.45,1.45,0,0,1,55,435.83v0a1.45,1.45,0,0,1-1.46,1.45H48.93a1.46,1.46,0,0,0-1.45,1.46v0a1.45,1.45,0,0,0,1.45,1.46H154.08a1.46,1.46,0,0,1,1.46,1.46v0a1.46,1.46,0,0,1-1.46,1.46H70.78a1.45,1.45,0,0,0-1.46,1.45v0a1.45,1.45,0,0,0,1.46,1.45H411.06a1.45,1.45,0,0,0,1.46-1.45v0a1.45,1.45,0,0,0-1.46-1.45H368a1.47,1.47,0,0,1-1.46-1.46v0a1.46,1.46,0,0,1,1.46-1.46H518.27a1.45,1.45,0,0,0,1.45-1.46v0a1.46,1.46,0,0,0-1.45-1.46h-4.63a1.45,1.45,0,0,1-1.46-1.45v0a1.45,1.45,0,0,1,1.46-1.45h29.6a1.46,1.46,0,0,0,1.46-1.46v0a1.46,1.46,0,0,0-1.46-1.46H37a1.46,1.46,0,0,0-1.46,1.46v0A1.46,1.46,0,0,0,37,434.38Z"/><rect class="cls-4" x="523.06" y="437.31" width="12.81" height="2.94" rx="1.46"/><path class="cls-4" d="M548.26,432.92h0a1.47,1.47,0,0,0,1.46,1.46h3a1.46,1.46,0,0,0,1.46-1.46h0a1.46,1.46,0,0,0-1.46-1.46h-3A1.46,1.46,0,0,0,548.26,432.92Z"/><rect class="cls-4" x="22.06" y="431.44" width="10.01" height="2.94" rx="1.46"/><rect class="cls-4" x="53.01" y="443.19" width="11.99" height="2.94" rx="1.46"/><path class="cls-4" d="M464.85,446.12h-45.4a1.46,1.46,0,0,1-1.47-1.46h0a1.47,1.47,0,0,1,1.47-1.47h45.4a1.46,1.46,0,0,1,1.46,1.47h0A1.46,1.46,0,0,1,464.85,446.12Z"/><path class="cls-4" d="M493.47,446.12H474.7a1.46,1.46,0,0,1-1.47-1.46h0a1.47,1.47,0,0,1,1.47-1.47h18.77a1.47,1.47,0,0,1,1.47,1.47h0A1.46,1.46,0,0,1,493.47,446.12Z"/><path class="cls-13" d="M204.17,194.33h0a30.7,30.7,0,0,1,21.73,19.86l15.3,44.54,24.25,7.75-3.25,26-23.9-4.58a34.35,34.35,0,0,1-25.07-20.08l-14.11-32.49Z"/><path class="cls-14" d="M275.92,295.32l3.28-26.27a1.73,1.73,0,0,0-1.36-1.91L267.52,265a1.74,1.74,0,0,0-2.07,1.48h0l-3.25,26,0,.28a1.73,1.73,0,0,0,1.36,1.91l10.32,2.13A1.73,1.73,0,0,0,275.92,295.32Z"/><path class="cls-15" d="M279,270.86l40.72,11.75a23,23,0,0,1,11.86-7.35,22.46,22.46,0,0,1,13.72,1,6.5,6.5,0,0,1,2.51,1.6,2.72,2.72,0,0,1,.6,2.77c-.49,1.15-1.85,1.6-3.07,1.84a24.83,24.83,0,0,1-10.37-.24c-1.25,6.87-1.85,13.91-3.1,20.78A25.61,25.61,0,0,1,317,297.8l-40.95-3.72Z"/><path class="cls-14" d="M202.81,205.35l-3.69,30,4.07,9.38A49.8,49.8,0,0,0,202.81,205.35Z"/><path class="cls-16" d="M360.83,210.54c-17.15,8.79-28.44,24.38-33.44,32.88a5,5,0,0,0,1.57,6.71c6.57,4.36,14.6,6.9,17.59,7.8Z"/><path class="cls-17" d="M360.83,210.54c9.43,16.8,10.24,36,9.71,45.87a5,5,0,0,1-5,4.73c-7.88,0-16-2.31-19-3.21Z"/><path class="cls-18" d="M350.23,235.17c-4.23,3.56-10,9.87-7.79,16.69a17.89,17.89,0,0,1-.12,10.57l-4.47,14.84,5.27,1.58L347.59,264a17.92,17.92,0,0,1,5.74-8.88c5.57-4.49,4.29-12.91,2.73-18.21A3.65,3.65,0,0,0,350.23,235.17Z"/><path class="cls-19" d="M341.83,273.81c-2.35-.71-4.47-.59-4.73.27l-18.72,62.14,8.52,2.56,18.72-62.14C345.88,275.79,344.18,274.52,341.83,273.81Z"/><path class="cls-20" d="M326.9,338.78c-.25.86-2.37,1-4.72.27s-4.05-2-3.8-2.83,2.38-1,4.73-.27S327.16,337.93,326.9,338.78Z"/><path class="cls-21" d="M350.4,289.52a7.14,7.14,0,0,0-1.07-1,5.57,5.57,0,0,0,1-.69,4,4,0,0,0,1.2-4.2,4.35,4.35,0,0,0-2.74-2.42,11.73,11.73,0,0,0-3.74-.43c-1.64,0-3.27,0-4.91.15-1.46.09-2.91.22-4.36.38a7.05,7.05,0,0,0-2.81.56c-1.59,1-1.14,3,0,4.16a4.25,4.25,0,0,0-1,.72,3,3,0,0,0-.71,3.13,4.05,4.05,0,0,0,1.27,1.64,6.06,6.06,0,0,0-1.54,1.35,3.33,3.33,0,0,0-.71,2.91,4.86,4.86,0,0,0,1.27,1.91l.42.43c-.74,0-1.31.49-1.55,1.82a6.37,6.37,0,0,0,.81,4,14.6,14.6,0,0,0,2.5,3.1,13.14,13.14,0,0,0,4,3,5.63,5.63,0,0,0,4.86-.06,3.25,3.25,0,0,0,1.57-4.62h.05a5.61,5.61,0,0,0,3.76-.82,4.66,4.66,0,0,0,1.94-3.47,5.24,5.24,0,0,0-1.29-3.79s0,0,0,0a3.92,3.92,0,0,0,.74-.22,4.19,4.19,0,0,0,2.45-3.41A5.48,5.48,0,0,0,350.4,289.52Z"/><path class="cls-15" d="M345.77,287.72a47,47,0,0,0-12.39-1.49A47.07,47.07,0,0,0,345.77,287.72Z"/><path class="cls-15" d="M346.37,296.68c-1.84-.77-4.25-1.65-6.65-2.55s-4.79-1.82-6.68-2.45a28.69,28.69,0,0,0,13.33,5Z"/><path class="cls-15" d="M343.24,305.47l-5.5-3.43-5.43-3.54a23.1,23.1,0,0,0,10.93,7Z"/><path class="cls-13" d="M151.67,184.31h0A43,43,0,0,0,116.87,209l-33.2,71.71a23.34,23.34,0,0,0-1.47,15.48h87l25-49.35a96.23,96.23,0,0,0,10.13-50.54l-.15-2L185,189.61Z"/><path class="cls-14" d="M142.28,229.73l39.65,41.13-3.93,8-2.32-1.42A68.74,68.74,0,0,1,147,242.52Z"/><path class="cls-14" d="M167,287.34c-4.82,0-10.29-.11-16.06-.48a174.68,174.68,0,0,1-17.86-2.06,172.3,172.3,0,0,1-17.54-4c-5.57-1.55-10.75-3.29-15.31-4.85a67.83,67.83,0,0,0,14.17,8.09,80.4,80.4,0,0,0,36.55,6.21A67.73,67.73,0,0,0,167,287.34Z"/><path class="cls-14" d="M152.39,283.7c-3.52-1.29-7.51-2.78-11.63-4.58a130.43,130.43,0,0,1-12.5-6.28,125.59,125.59,0,0,1-11.7-7.66c-3.64-2.65-6.93-5.35-9.81-7.75a51.18,51.18,0,0,0,8.09,9.8,61,61,0,0,0,25,14.4A51.56,51.56,0,0,0,152.39,283.7Z"/><path class="cls-22" d="M82.2,296.23l-.35,15a38,38,0,0,0,9.81,26.36l53.46,59.1-7.34-2L128.2,425l17.58,7.72a30.43,30.43,0,0,0,26-.72h0a30.44,30.44,0,0,0,14.37-38.81l-17.7-42.69,66.75-29.25L234,364H267.7L276,319.81a33.36,33.36,0,0,0-8.6-29.19h0a32.17,32.17,0,0,0-30.19-9.27L169.2,296.23Z"/><polygon class="cls-18" points="169.2 296.23 82.04 303.01 82.2 296.23 169.2 296.23"/><polygon class="cls-23" points="168.45 350.48 159.51 328.92 179.07 308.48 169.29 331.23 168.45 350.48"/><path class="cls-23" d="M235.2,321.23l1.41-23-3.4,4.9a20.09,20.09,0,0,0-1.76,19.79h0Z"/><path class="cls-23" d="M145.12,396.73l13.71,14.38-7.21-2.61A13.15,13.15,0,0,1,143,396.14h0Z"/><path class="cls-24" d="M64.59,412.36C71,385.69,78.85,377.92,82.3,375.71c-1-.09-2-.14-3-.14,0,0-10,1.5-18.5,36.79-4.52,18.78-.5,26.69,7.39,24.95C62.93,435.89,60.87,427.81,64.59,412.36Z"/><path class="cls-25" d="M97.45,380.57a34.35,34.35,0,0,0-15.15-4.86c-3.45,2.21-11.29,10-17.71,36.65-3.72,15.45-1.66,23.53,3.58,24.95,6.93-1.54,16.86-10.55,26.61-26.2l31.37,20.35,12.1-38.2Z"/><polygon class="cls-24" points="126.15 431.46 128.2 424.98 132.38 426.81 126.15 431.46"/><path class="cls-24" d="M292.67,426.9H224.31a35.17,35.17,0,0,0,.14,4.56H293.7l-.06-.44A21,21,0,0,0,292.67,426.9Z"/><path class="cls-25" d="M278.57,413.73,262,409.23,271.2,364H228.45l1.18,44.25a42.26,42.26,0,0,0-5.32,18.67h68.36A20.65,20.65,0,0,0,278.57,413.73Z"/><path class="cls-23" d="M160.85,401.09a.5.5,0,0,1-.37-.17l-49.95-56.63c-4.61-5.22-9.38-10.63-13-16.75-4.13-6.94-6.15-13.76-6-20.28a.5.5,0,0,1,.51-.49.5.5,0,0,1,.49.51c-.14,6.33,1.84,13,5.87,19.75,3.59,6,8.33,11.41,12.91,16.6l49.95,56.63a.49.49,0,0,1,0,.7A.46.46,0,0,1,160.85,401.09Z"/><path class="cls-23" d="M175.09,323.44a.5.5,0,0,1-.2-1c17.55-7.48,35.52-14.65,53.42-21.29a.49.49,0,0,1,.64.29.5.5,0,0,1-.29.65c-17.89,6.64-35.85,13.79-53.37,21.27A.51.51,0,0,1,175.09,323.44Z"/><polygon class="cls-14" points="157.3 176.93 167.87 176.93 159.09 184.06 157.3 176.93"/><path class="cls-21" d="M170.24,164.56l-11.86,17.52c2.17,7.38,10.82,17.41,17.9,17.41l1.42,12.87,1-12.63L189,183.11Z"/><path class="cls-26" d="M171,165.35a31.31,31.31,0,0,0,.7,12.17,20.89,20.89,0,0,0,12.49,13.31l4.79-7.72Z"/><path class="cls-27" d="M157.3,176.93a57.2,57.2,0,0,0,19,22.56c-3.19,3.94-6.3,8.3-9.49,12.24-5-9-10.11-18.41-15.12-27.42C153.14,182.52,155.49,179.61,157.3,176.93Z"/><polygon class="cls-27" points="178.7 199.73 189.87 208.32 184.98 189.61 178.7 199.73"/><path class="cls-28" d="M165.52,151.36a8.48,8.48,0,0,1,5,4.87,20.83,20.83,0,0,1,1.4,7,21.84,21.84,0,0,0,2.24-14.12c6.83-4.82,10.91-13.35,9.78-21.63,11.41-3.11,24.94-1.64,36.52.74-.84-7.1-6.46-15-12.87-18.17a36.21,36.21,0,0,0-50.09,45l.06-.17A6.94,6.94,0,0,1,165.52,151.36Z"/><path class="cls-21" d="M220.44,128.23c-11.58-2.38-25.11-3.85-36.52-.74,1.13,8.28-2.95,16.81-9.78,21.63a21.84,21.84,0,0,1-2.24,14.12,20.83,20.83,0,0,0-1.4-7,8.48,8.48,0,0,0-5-4.87,6.94,6.94,0,0,0-8,3.5l-.06.17a7.55,7.55,0,0,0,1.77,8.5c2.33,2.13,6.22,3.14,9.09,1.81a23.66,23.66,0,0,0,42.58,10.2c3.25-4.52,4.8-10,6-15.45C219.41,148.71,220.61,139.88,220.44,128.23Z"/><path class="cls-29" d="M174.14,149.12c6.83-4.82,10.91-13.35,9.78-21.63,11.41-3.11,24.94-1.64,36.52.74-.84-7.1-6.46-15-12.87-18.17A36.17,36.17,0,0,0,156,149.7l18.3.5C174.24,149.84,174.21,149.47,174.14,149.12Z"/><path class="cls-15" d="M183.92,127.49c1.13,8.28-2.95,16.81-9.78,21.63.07.35.1.72.15,1.08l44.35,1.19a120.36,120.36,0,0,0,1.8-23.16C208.86,125.85,195.33,124.38,183.92,127.49Z"/><path class="cls-15" d="M159.66,157.52a3.08,3.08,0,0,1,2.55-1.75,4.14,4.14,0,0,1,3,1,6.42,6.42,0,0,1,1.78,2.67,2.92,2.92,0,0,1-.12,2.8,2,2,0,0,1-1.81.68,2.89,2.89,0,0,1-1.73-1,3.76,3.76,0,0,1-.27-4.57A3.53,3.53,0,0,0,159.66,157.52Z"/><path class="cls-28" d="M198,147.86H185a9.81,9.81,0,0,1,4-4,6.33,6.33,0,0,1,5.21-.32C195.81,144.17,197.83,146.07,198,147.86Z"/><path class="cls-29" d="M195.84,154.6a2,2,0,1,1-2-2.18A2.08,2.08,0,0,1,195.84,154.6Z"/><path class="cls-28" d="M208.56,147.86h9.89a9,9,0,0,0-3-4,3.77,3.77,0,0,0-3.95-.32A6.21,6.21,0,0,0,208.56,147.86Z"/><path class="cls-29" d="M210.73,154.6a2,2,0,1,0,2-2.18A2.08,2.08,0,0,0,210.73,154.6Z"/><path class="cls-15" d="M207.61,163h-6.88a3.65,3.65,0,0,0,3.22,2.47A4.27,4.27,0,0,0,207.61,163Z"/><path class="cls-12" d="M207.13,168.41,189,167.9a9.75,9.75,0,0,0,4.81,6.53,9.41,9.41,0,0,0,8,.27A10.06,10.06,0,0,0,207.13,168.41Z"/><path class="cls-30" d="M119.15,142.39,265,146.32l-39.48-16.86-9.16-29c-11-8.67-32.18-7.36-43-2.7l-13.76,28.72Z"/><polygon class="cls-20" points="222.54 120.03 164.09 117.18 159.65 126.45 225.52 129.46 222.54 120.03"/><path class="cls-13" d="M158.38,198l52.35,66.25,6.1-2.75,14.62,24.59L221,292.25a17.27,17.27,0,0,1-21.25-2.86l-57.51-59.66Z"/><path class="cls-14" d="M244.16,278.51l-14.63-24.59a2,2,0,0,0-2.69-.68l-9.33,5.55a2,2,0,0,0-.68,2.69h0l14.62,24.59a2,2,0,0,0,2.69.68l9.33-5.55A2,2,0,0,0,244.16,278.51Z"/><path class="cls-21" d="M230.49,255.54l39.34-18.93a29,29,0,0,1,9.81-24.23,8.36,8.36,0,0,1,2.59-1.62,3.45,3.45,0,0,1,3,.23c1.63,1,1.59,3.54.63,5.23s-2.57,2.88-3.76,4.41-1.94,3.73-.9,5.37a4,4,0,0,0,3,1.67,10.08,10.08,0,0,0,3.49-.38,46.63,46.63,0,0,0,17.7-8.53,13.2,13.2,0,0,1,3.19-2.09,3.76,3.76,0,0,1,3.65.32,3.67,3.67,0,0,1,1.13,3.39,10.88,10.88,0,0,1-1.34,3.48,4.53,4.53,0,0,1,3.74-1.55,3.25,3.25,0,0,1,2.6,2.17,5.62,5.62,0,0,1-.43,3.7,23.28,23.28,0,0,1-4,6.63,7.69,7.69,0,0,1-2.83,7.79,7.48,7.48,0,0,1-3.57,5.18,17.58,17.58,0,0,1-6,1.83,72.36,72.36,0,0,1-24.65-.27l-34,26.9Z"/><path class="cls-15" d="M293.45,233.51a18.95,18.95,0,0,0,18.15-9.69,33.35,33.35,0,0,1-18.15,9.69Z"/><path class="cls-15" d="M295.83,239.88a21.35,21.35,0,0,0,17.59-4.38,52.26,52.26,0,0,1-17.59,4.38Z"/><path class="cls-15" d="M297.54,244.21a12.82,12.82,0,0,0,12.89-1.13,24.54,24.54,0,0,1-12.89,1.13Z"/><path class="cls-14" d="M210.58,264.85l-.25-.31L158,198.29a.5.5,0,1,1,.78-.62l52.11,66,2.71-1.23a.5.5,0,0,1,.66.25.51.51,0,0,1-.25.67Z"/><path class="cls-14" d="M210.15,286.33c.26-3.05.26-6.63.35-10.21s.25-7.16.13-10.22a18.38,18.38,0,0,0-.48,20.43Z"/><path class="cls-14" d="M201.32,278.57c1.42-1.88,2.92-4.16,4.56-6.36s3.36-4.32,4.75-6.22a13.11,13.11,0,0,0-9.31,12.58Z"/><rect class="cls-12" x="289.98" y="376.71" width="56.81" height="13.67"/><polygon class="cls-12" points="332.02 431.44 304.74 431.44 292.78 390.38 343.98 390.38 332.02 431.44"/><polygon class="cls-8" points="332.45 376.71 332.45 390.38 343.98 390.38 346.78 390.38 346.78 376.71 332.45 376.71"/><polygon class="cls-8" points="324.21 431.44 332.02 431.44 343.98 390.38 332.45 390.38 324.21 431.44"/><polygon class="cls-9" points="292.78 390.38 331.45 395.38 332.45 390.38 292.78 390.38"/><polygon class="cls-10" points="343.98 390.38 332.45 390.38 331.45 395.38 342.12 396.76 343.98 390.38"/><path class="cls-19" d="M293.28,376.71h50.2L324,363.9a10.24,10.24,0,0,0-11.24,0Z"/><path class="cls-12" d="M518.3,392.64a3.69,3.69,0,0,1-2.6,4.29l-1.07.3-69.88,20a3.68,3.68,0,0,1-4.52-2.4h0a3.69,3.69,0,0,1,2.18-4.6l69.64-26.71a3.7,3.7,0,0,1,5,2.71Z"/><path class="cls-20" d="M451.54,406.72l10.62-17.05a16.33,16.33,0,0,1,16.4-7.51l26.25,4.13Z"/><path class="cls-12" d="M518.68,431.48H448.13A10.77,10.77,0,0,0,446.75,418L445.69,417l68.94-19.72,4.49,9a10.8,10.8,0,0,1,.83,7.35l-2.15,8.88a6.76,6.76,0,0,0,1.9,6.49h0A1.48,1.48,0,0,1,518.68,431.48Z"/><path class="cls-8" d="M519.7,428.93a6.76,6.76,0,0,1-1.9-6.49l2.15-8.88a10.8,10.8,0,0,0-.83-7.35l-4.49-9L445.69,417l1.06,1.07a11.19,11.19,0,0,1,1.22,1.47l62.82-14.59,2.51,3.71a6.06,6.06,0,0,1,.74,5.28l-2.27,7a6.08,6.08,0,0,0,1,5.55l3.84,5.05h2.12a1.48,1.48,0,0,0,1-2.55Z"/><path class="cls-20" d="M353.79,431.44h88.34L407.85,408.9a18,18,0,0,0-19.78,0Z"/><path class="cls-19" d="M321.69,431.44h50.19L352.4,418.63a10.24,10.24,0,0,0-11.24,0Z"/></g></g></svg>