<svg width="109" height="109" viewBox="0 0 109 109" fill="none" xmlns="http://www.w3.org/2000/svg">
<path fill-rule="evenodd" clip-rule="evenodd" d="M54.5 0C69.3 0 71.16 0.0600018 76.97 0.330002C81.4916 0.416512 85.9655 1.27206 90.2 2.86C93.819 4.26301 97.1057 6.40518 99.8503 9.14976C102.595 11.8943 104.737 15.181 106.14 18.8C107.725 23.025 108.58 27.4885 108.67 32C108.94 37.81 109 39.67 109 54.47C109 69.27 108.94 71.13 108.67 76.94C108.584 81.4616 107.728 85.9355 106.14 90.17C104.737 93.789 102.595 97.0757 99.8503 99.8202C97.1057 102.565 93.819 104.707 90.2 106.11C85.9768 107.705 81.5132 108.57 77 108.67C71.19 108.94 69.33 109 54.53 109C39.73 109 37.87 108.94 32.06 108.67C27.5384 108.583 23.0645 107.728 18.83 106.14C15.211 104.737 11.9243 102.595 9.17975 99.8502C6.43517 97.1057 4.29302 93.819 2.89001 90.2C1.29517 85.9768 0.429491 81.5132 0.329987 77C0.0599866 71.19 0 69.33 0 54.53C0 39.73 0.0599866 37.87 0.329987 32.06C0.416497 27.5384 1.27205 23.0645 2.85999 18.83C4.25949 15.2055 6.40011 11.913 9.14487 9.16303C11.8896 6.4131 15.1781 4.26632 18.8 2.86C23.025 1.2754 27.4885 0.419904 32 0.330002C37.84 0.0600018 39.7 0 54.5 0ZM76.5 10.14C70.76 9.88 69.03 9.82 54.5 9.82C39.97 9.82 38.22 9.88 32.5 10.14C29.0385 10.1754 25.6087 10.8046 22.36 12C20.0055 12.9078 17.8672 14.2986 16.0829 16.0829C14.2986 17.8672 12.9078 20.0055 12 22.36C10.8034 25.6018 10.1709 29.0246 10.13 32.48C9.87 38.22 9.81 39.95 9.81 54.48C9.81 69.01 9.87 70.76 10.13 76.48C10.1664 79.9488 10.7989 83.3856 12 86.64C12.9078 88.9945 14.2986 91.1328 16.0829 92.9171C17.8672 94.7014 20.0055 96.0922 22.36 97C25.6018 98.1966 29.0246 98.8291 32.48 98.87C38.22 99.13 39.95 99.19 54.48 99.19C69.01 99.19 70.76 99.13 76.48 98.87C79.9488 98.8336 83.3856 98.2011 86.64 97C88.9945 96.0922 91.1328 94.7014 92.9171 92.9171C94.7014 91.1328 96.0922 88.9945 97 86.64C98.1966 83.3982 98.8291 79.9754 98.87 76.52C99.13 70.78 99.19 69.05 99.19 54.52C99.19 39.99 99.13 38.24 98.87 32.52C98.8336 29.0512 98.2011 25.6144 97 22.36C96.0922 20.0055 94.7014 17.8672 92.9171 16.0829C91.1328 14.2986 88.9945 12.9078 86.64 12C83.3976 10.8068 79.9748 10.1777 76.52 10.14H76.5ZM54.5 72.67C58.0937 72.67 61.6067 71.6043 64.5947 69.6078C67.5827 67.6113 69.9117 64.7735 71.2869 61.4534C72.6621 58.1332 73.022 54.4798 72.3209 50.9552C71.6198 47.4306 69.8893 44.193 67.3481 41.6519C64.807 39.1108 61.5694 37.3802 58.0448 36.6791C54.5202 35.978 50.8668 36.3379 47.5466 37.7131C44.2265 39.0884 41.3888 41.4172 39.3922 44.4053C37.3957 47.3933 36.33 50.9063 36.33 54.5C36.3326 59.3182 38.2478 63.9382 41.6548 67.3452C45.0617 70.7522 49.6818 72.6673 54.5 72.67V72.67ZM54.5 26.51C60.0379 26.51 65.4514 28.1522 70.056 31.2289C74.6605 34.3055 78.2494 38.6785 80.3686 43.7949C82.4879 48.9112 83.0424 54.5411 81.962 59.9725C80.8816 65.404 78.2149 70.3931 74.299 74.309C70.3831 78.2249 65.394 80.8916 59.9625 81.972C54.5311 83.0524 48.9012 82.4979 43.7849 80.3786C38.6685 78.2594 34.2955 74.6705 31.2188 70.066C28.1422 65.4614 26.5 60.0479 26.5 54.51C26.5 47.0839 29.45 39.962 34.701 34.711C39.952 29.46 47.0739 26.51 54.5 26.51V26.51ZM90.13 25.41C90.13 26.7035 89.7464 27.9679 89.0278 29.0434C88.3092 30.1189 87.2878 30.9572 86.0927 31.4522C84.8977 31.9472 83.5828 32.0767 82.3141 31.8243C81.0455 31.572 79.8802 30.9491 78.9655 30.0345C78.0509 29.1198 77.428 27.9545 77.1757 26.6859C76.9233 25.4173 77.0528 24.1023 77.5478 22.9072C78.0428 21.7122 78.8811 20.6908 79.9566 19.9722C81.0321 19.2536 82.2965 18.87 83.59 18.87C85.3245 18.87 86.988 19.559 88.2145 20.7855C89.441 22.012 90.13 23.6755 90.13 25.41V25.41Z" fill="#FCB3A8"/>
</svg>
