<svg width="117" height="97" viewBox="0 0 117 97" fill="none" xmlns="http://www.w3.org/2000/svg">
<path fill-rule="evenodd" clip-rule="evenodd" d="M8.31001 41.65C39.57 28.03 60.4134 19.05 70.84 14.71C100.62 2.33 106.84 0.180003 110.84 0.100003C112.323 0.0711698 113.778 0.508361 115 1.35C115.857 2.08923 116.404 3.12503 116.53 4.25C116.745 5.6491 116.806 7.06768 116.71 8.48001C115.1 25.48 108.11 66.57 104.56 85.56C103.06 93.56 100.1 96.29 97.23 96.56C91.01 97.13 86.23 92.44 80.23 88.49C70.79 82.3 65.46 78.49 56.3 72.41C45.71 65.41 52.58 61.6 58.61 55.34C60.19 53.7 87.61 28.74 88.15 26.48C88.2212 26.1463 88.213 25.8005 88.1262 25.4705C88.0393 25.1405 87.8763 24.8355 87.65 24.58C87.3218 24.3749 86.9502 24.2491 86.5648 24.2126C86.1795 24.1762 85.7909 24.23 85.43 24.37C84.49 24.5767 69.4167 34.54 40.21 54.26C35.93 57.2 32.0534 58.6333 28.58 58.56C24.75 58.47 17.39 56.39 11.91 54.56C5.19998 52.38 -0.0899714 51.23 0.330029 47.56C0.576695 45.64 3.23668 43.67 8.31001 41.65Z" fill="#56B132"/>
</svg>
