<svg width="108" height="108" viewBox="0 0 108 108" fill="none" xmlns="http://www.w3.org/2000/svg">
<path d="M0.909973 108L8.46002 80.44C2.61902 70.2977 0.287024 58.5117 1.82556 46.9093C3.3641 35.3068 8.68717 24.536 16.9697 16.2665C25.2522 7.99703 36.0314 2.69085 47.6362 1.17056C59.2411 -0.34974 71.0234 2.00078 81.1565 7.85772C91.2896 13.7147 99.2076 22.7509 103.683 33.5655C108.158 44.3801 108.941 56.369 105.909 67.6736C102.878 78.9783 96.2021 88.9672 86.9164 96.0918C77.6307 103.216 66.254 107.079 54.55 107.08V107.08C45.6719 107.075 36.9363 104.847 29.14 100.6L0.909973 108ZM30.41 91L32.03 92C38.8423 96.0342 46.6129 98.1651 54.53 98.17V98.17C64.3342 98.1719 73.861 94.9156 81.6127 88.9129C89.3645 82.9103 94.9016 74.5017 97.3535 65.009C99.8055 55.5164 99.0332 45.4781 95.1581 36.4722C91.2831 27.4664 84.525 20.0036 75.9463 15.2573C67.3676 10.511 57.4548 8.75014 47.7663 10.2517C38.0778 11.7532 29.163 16.432 22.4235 23.5524C15.6839 30.6728 11.5017 39.831 10.5345 49.5874C9.56723 59.3437 11.8697 69.1449 17.08 77.45L18.08 79.12L13.61 95.43L30.41 91Z" fill="#56B132"/>
<path fill-rule="evenodd" clip-rule="evenodd" d="M81.34 66.54C81.01 65.98 80.12 65.65 78.79 64.99C77.46 64.33 70.93 61.11 69.71 60.66C68.49 60.21 67.61 60 66.71 61.33C65.81 62.66 63.28 65.65 62.51 66.54C61.74 67.43 60.95 67.54 59.63 66.87C55.7322 65.3047 52.1355 63.075 49 60.28C46.0946 57.5925 43.6041 54.4887 41.61 51.07C40.83 49.74 41.52 49.07 42.19 48.36C42.86 47.65 43.52 46.8 44.19 46.03C44.7398 45.3592 45.188 44.6112 45.52 43.81C45.695 43.4426 45.7766 43.0377 45.7574 42.6312C45.7382 42.2247 45.6188 41.8293 45.41 41.48C45.08 40.82 42.41 34.28 41.31 31.62C40.21 28.96 39.14 29.38 38.31 29.33C37.48 29.28 36.65 29.33 35.77 29.33C35.0866 29.3413 34.413 29.4957 33.793 29.7834C33.1729 30.071 32.62 30.4855 32.17 31C30.6786 32.414 29.4958 34.1211 28.6956 36.0141C27.8953 37.907 27.4951 39.945 27.52 42C27.52 48.54 32.28 54.86 32.95 55.75C33.62 56.64 42.32 70.06 55.65 75.81C58.1249 76.8779 60.6552 77.8125 63.23 78.61C65.9411 79.4333 68.8066 79.6147 71.6 79.14C74.15 78.76 79.46 75.92 80.6 72.82C81.74 69.72 81.67 67.09 81.34 66.54Z" fill="#56B132"/>
</svg>
