<svg width="106" height="105" viewBox="0 0 106 105" fill="none" xmlns="http://www.w3.org/2000/svg">
<mask id="mask0_44_973" style="mask-type:alpha" maskUnits="userSpaceOnUse" x="0" y="0" width="106" height="105">
<path d="M105.585 52.3327C105.585 23.4485 82.17 0.0332101 53.2858 0.0332114C24.4016 0.0332127 0.986325 23.4485 0.986326 52.3327C0.986327 81.2169 24.4016 104.632 53.2858 104.632C82.17 104.632 105.585 81.2169 105.585 52.3327Z" fill="#F08046"/>
</mask>
<g mask="url(#mask0_44_973)">
<path d="M105.585 52.3327C105.585 23.4485 82.17 0.0332101 53.2858 0.0332114C24.4016 0.0332127 0.986325 23.4485 0.986326 52.3327C0.986327 81.2169 24.4016 104.632 53.2858 104.632C82.17 104.632 105.585 81.2169 105.585 52.3327Z" fill="#F08046"/>
<path d="M63.3 68.2631H43.3V81.4883H63.3V68.2631Z" fill="#F9C2A7"/>
<path d="M48.2 77.7657C51.2 78.9413 54.5 79.627 57.8 79.627C59.7 79.627 61.6 79.4311 63.4 79.1372V68.2631H43.4V75.1206C44.7 76.2962 46.5 77.1779 48.2 77.7657Z" fill="#E6B49B"/>
<path d="M74.3 43.7717C74.4 43.2819 75.2 42.4981 75.5 42.2042C76.3 41.6164 77.1 42.2042 77.3 42.988C77.5 43.6737 77.5 44.4574 77.6 45.1432C77.7 46.9066 77.5 48.572 76.7 50.1394C76.2 51.217 75.4 52.0007 74.4 52.6865C74.4 52.6865 73.4 53.1763 73.2 52.0007C73.1 52.0007 74.3 43.7717 74.3 43.7717Z" fill="#F9C2A7"/>
<path d="M74.1 44.7515C74.1 44.3596 74.7 43.8698 75 43.6738C75.6 43.282 76.1 43.6738 76.3 44.2616C76.4 44.7515 76.5 45.3393 76.5 45.8291C76.6 47.1026 76.4 48.2782 75.8 49.4538C75.4 50.2375 74.8 50.8253 74.2 51.3151C74.2 51.3151 73.5 51.707 73.3 50.8253C73.3 50.7273 74.1 44.7515 74.1 44.7515Z" fill="#E1B099"/>
<path d="M31.9001 43.7717C31.8001 43.2819 31.0001 42.4981 30.7001 42.2042C29.9001 41.6164 29.1001 42.2042 28.9001 42.988C28.7001 43.6737 28.7001 44.4574 28.6001 45.1432C28.5001 46.9066 28.7001 48.572 29.5001 50.1394C30.0001 51.217 30.8001 52.0007 31.8001 52.6865C31.8001 52.6865 32.8001 53.1763 33.0001 52.0007C33.0001 52.0007 31.9001 43.7717 31.9001 43.7717Z" fill="#F9C2A7"/>
<path d="M32.1 44.7515C32.1 44.3596 31.5 43.8698 31.2 43.6738C30.6 43.282 30.1 43.6738 29.9 44.2616C29.8 44.7515 29.7 45.3393 29.7 45.8291C29.6 47.1026 29.8 48.2782 30.4 49.4538C30.8 50.2375 31.4 50.8253 32 51.3151C32 51.3151 32.7 51.707 32.9 50.8253C32.9 50.7273 32.1 44.7515 32.1 44.7515Z" fill="#E1B099"/>
<path d="M74.9001 45.3393C74.9001 50.8253 74.0001 56.3114 71.4001 61.1117C69.1001 65.2262 65.8 68.557 62.1 71.2021C59.2 73.3573 56 75.9044 52.3 75.5125C48.4 75.2186 45.4 71.8878 42.6 69.2428C38.6 65.6181 35.5 61.1117 33.5 55.7236C32.3 52.4907 31.8 48.7681 31.8 45.2413C31.8 27.5096 41.5001 16.4396 53.4001 16.4396C65.2001 16.4396 74.9001 27.6076 74.9001 45.3393Z" fill="#F9C2A7"/>
<path d="M88.3 87.4643L63.3 81.0966H53.3H43.3L18.3 87.4643C18.3 87.4643 6.70002 91.6768 5.40002 105H53.3H101.2C99.9 91.6768 88.3 87.4643 88.3 87.4643Z" fill="#F9C2A7"/>
<path d="M88.3 87.4643L63.3 81.0966H53.3H43.3L18.3 87.4643C18.3 87.4643 6.70002 91.6768 5.40002 105H53.3H101.2C99.9 91.6768 88.3 87.4643 88.3 87.4643Z" fill="white"/>
<path d="M88.3 87.4642L69.8 82.7619L53.3 104.902L37 82.6639L18.3 87.4642C18.3 87.4642 6.70002 91.6767 5.40002 105H53.3H101.2C99.9 91.6767 88.3 87.4642 88.3 87.4642Z" fill="#3F0700"/>
<path d="M51.1 93.832L46.5 104.902H59.6L55.1 93.832H51.1Z" fill="#1DB2A8"/>
<path d="M53 81.2925L47.2 88.9338L51.2 93.832H53.2L55.2 93.734L59.1 88.7378L53 81.2925Z" fill="#1DB2A8"/>
<path d="M56.9 87.9542C56.2 89.4236 54.8 91.089 52.9 90.6972C50.9 90.3053 50 88.444 50.5 86.5827C50.9 84.8193 52.1 83.2518 52.8 81.5864L47.2 88.9338L51.3 93.8321L55.3 93.7341L59.2 88.7379L57.5 86.6806C57.3 87.1704 57.1 87.5623 56.9 87.9542Z" fill="#DADADA"/>
<path d="M53.3 104.902L37 82.6639L23.9 85.9947L40.6 97.5546L36.3 99.318L44.1 104.902H53.3Z" fill="#290000"/>
<path d="M53.3 105L69.7 82.6639L82.7 85.9947L66 97.5546L70.3001 99.416L62.6 105H53.3Z" fill="#290000"/>
<path d="M33.5 81.4883L43.3 76.9819L53.3 81.0965L63.3 76.9819L73.7 81.4883L58.9 91.1869L53.3 83.2517L47.2 91.1869L33.5 81.4883Z" fill="#E9E9E9"/>
<path d="M66 67.9692C66 67.9692 71.4 62.973 72.6 58.5646C72.6 58.5646 66.2 64.2466 64 63.6588L66 67.9692Z" fill="#1E0E00"/>
<path d="M42.2 69.4387C42.2 69.4387 35.9 64.1486 34.2 57.585C34.2 57.585 41.4 65.7161 43.6 65.1283L42.2 69.4387Z" fill="#1E0E00"/>
<path d="M57.1 60.7197C60.6 60.7197 62.6 61.9933 62.6 61.9933C65.7 63.4627 66.5 67.3813 66.5 67.3813C66.5 67.3813 64.4 69.7325 61.7 71.3C55.8 76.1002 53.1 75.5125 53.1 75.5125C49.7 75.5125 47.4 73.4552 47.4 73.4552L41.9 69.2427C41.2 64.4424 45.5 61.9933 45.5 61.9933C48.1 60.7197 48.5 60.9157 48.5 60.9157C48.5 60.9157 52.4 60.4258 53.3 61.9933C53.3 61.9933 54.3 60.7197 56.9 60.7197" fill="#251403"/>
<path d="M53.8 64.7364C53.8 64.7364 51.4 63.5609 47.8 64.8344C47.8 64.8344 53.2001 70.4184 59.2001 64.9324C59.3001 64.9324 56.1 63.3649 53.8 64.7364Z" fill="#F9C2A7"/>
<path d="M75.1 19.1826C80 15.7538 79.4 10.3657 79.4 10.3657C76.6 13.4026 72.4 13.7945 72.4 13.7945C76.7 11.2474 74.6 6.05526 74.6 6.05526C73.3 8.99421 67.3 10.6596 67.3 10.6596C70.2 8.79828 68.4 4.48781 68.4 4.48781C66.4 7.81863 60.3 9.2881 60.3 9.2881C64.3 7.03491 64.7 3.90002 64.7 3.90002C61.2 6.93694 51.5 8.40642 51.5 8.40642C51.5 8.40642 40.9 9.38607 38.2 18.007C30.4 19.0846 30.4 32.016 30.9 38.8736L31.4 47.2986H33.1C32.3 43.282 33.1 37.7959 33.1 37.7959C34.3 33.8773 34.9 31.5262 35.7 29.9587C37.5 26.0401 40.4 24.8646 42.2 24.4727L43.9 24.3747C51.5 23.2971 53.8 28.5872 53.8 28.5872C55 25.5503 59 24.7666 59 24.7666C70.6 23.2971 72.2 32.2119 72.2 32.2119L73.5 37.8939C73.7 39.7552 74 44.1637 73.4 47.2986H75.1L75.6 38.8736C75.6 38.5797 75.6 38.3837 75.6 38.1878C76.6 33.5834 77.3 25.9422 75.1 19.1826Z" fill="#1E0E00"/>
</g>
</svg>
