<svg width="106" height="106" viewBox="0 0 106 106" fill="none" xmlns="http://www.w3.org/2000/svg">
<mask id="mask0_44_916" style="mask-type:alpha" maskUnits="userSpaceOnUse" x="0" y="0" width="106" height="106">
<path d="M105.189 52.8887C105.189 24.0043 81.7731 0.588901 52.8887 0.588902C24.0043 0.588903 0.588864 24.0043 0.588865 52.8888C0.588866 81.7732 24.0043 105.189 52.8887 105.189C81.7731 105.189 105.189 81.7732 105.189 52.8887Z" fill="#658833"/>
</mask>
<g mask="url(#mask0_44_916)">
<path d="M105.189 52.8887C105.189 24.0043 81.7731 0.588901 52.8887 0.588902C24.0043 0.588903 0.588864 24.0043 0.588865 52.8888C0.588866 81.7732 24.0043 105.189 52.8887 105.189C81.7731 105.189 105.189 81.7732 105.189 52.8887Z" fill="#658833"/>
<path d="M28.9165 48.8668C28.6165 49.2573 27.7165 84.7921 34.1165 92.1138H70.3165C70.3165 92.1138 80.2165 64.877 73.5165 48.8668H28.7165" fill="#49130F"/>
<path d="M63.4165 68.3914H43.4165V81.5704H63.4165V68.3914Z" fill="#F9C2A7"/>
<path d="M48.3166 77.8608C51.3166 79.0323 54.6166 79.7156 57.9166 79.8132C59.8166 79.8132 61.7166 79.618 63.5166 79.3251V68.3914H43.5166V75.225C44.8166 76.3964 46.6166 77.2751 48.3166 77.8608Z" fill="#E6B49B"/>
<path d="M75.1165 43.5951C75.2165 43.107 76.0165 42.326 76.4165 42.0331C77.2165 41.4474 78.1165 42.0331 78.3165 42.8141C78.5165 43.4975 78.5165 44.2784 78.6165 44.9618C78.7165 46.719 78.5165 48.4762 77.6165 50.0382C77.1165 51.1121 76.2165 51.9907 75.2165 52.5764C75.2165 52.5764 74.1165 53.0645 73.9165 51.893C74.0165 51.9907 75.1165 43.5951 75.1165 43.5951Z" fill="#F9C2A7"/>
<path d="M75.0165 44.5714C75.0165 44.1809 75.7165 43.6928 75.9165 43.4975C76.5165 43.107 77.1165 43.4975 77.3165 44.0833C77.5165 44.5714 77.5165 45.1571 77.5165 45.6452C77.6165 46.9143 77.4165 48.0858 76.8165 49.2573C76.4165 50.0383 75.8165 50.624 75.1165 51.1121C75.1165 51.1121 74.3165 51.5026 74.2165 50.624C74.1165 50.624 75.0165 44.669 75.0165 44.5714Z" fill="#E1B099"/>
<path d="M31.2165 43.5951C31.1165 43.107 30.3165 42.326 29.9165 42.0331C29.1165 41.4474 28.2165 42.0331 28.0165 42.8141C27.8165 43.4975 27.8165 44.2784 27.7165 44.9618C27.6165 46.719 27.8165 48.4762 28.7165 50.0382C29.2165 51.1121 30.1165 51.9907 31.1165 52.5764C31.1165 52.5764 32.2165 53.0645 32.4165 51.893C32.4165 51.9907 31.2165 43.5951 31.2165 43.5951Z" fill="#F9C2A7"/>
<path d="M31.4165 44.5714C31.4165 44.1809 30.7165 43.6928 30.5165 43.4975C29.9165 43.107 29.3165 43.4975 29.1165 44.0833C28.9165 44.5714 28.9165 45.1571 28.9165 45.6452C28.8165 46.9143 29.0165 48.0858 29.6165 49.2573C30.0165 50.0383 30.6165 50.624 31.3165 51.1121C31.3165 51.1121 32.1165 51.5026 32.2165 50.624C32.2165 50.624 31.4165 44.669 31.4165 44.5714Z" fill="#E1B099"/>
<path d="M75.8166 45.1572C75.8166 50.7217 74.8166 56.2862 72.2166 61.0697C69.9166 65.2675 66.4166 68.5867 62.6166 71.2225C59.6166 73.3702 56.3166 75.9084 52.4166 75.6155C48.4166 75.3226 45.2166 71.9058 42.3166 69.3676C38.2166 65.658 34.9166 61.1673 32.9166 55.798C31.7166 52.4789 31.1166 48.7692 31.1166 45.1572C31.1166 27.2922 41.1166 16.0656 53.5166 16.0656C65.8166 16.0656 75.8166 27.2922 75.8166 45.1572Z" fill="#F9C2A7"/>
<path d="M83.9165 87.5254L62.1165 81.1799H53.4165H44.7166L22.9165 87.5254C22.9165 87.5254 12.8166 91.7232 11.7166 105H53.4165H95.1165C94.0165 91.7232 83.9165 87.5254 83.9165 87.5254Z" fill="#F9C2A7"/>
<path d="M83.9165 87.5254L71.9165 84.011L53.4165 101.974L34.9165 84.011L22.9165 87.5254C22.9165 87.5254 12.8166 91.7232 11.7166 105H53.4165H95.1165C94.0165 91.7232 83.9165 87.5254 83.9165 87.5254Z" fill="#1A7290"/>
<path d="M38.3165 23.192C38.3165 23.192 49.1165 39.8856 75.8165 42.7166C75.8165 42.7166 80.9165 23.7778 62.1165 14.5036C62.0165 14.406 47.6165 8.64623 38.3165 23.192Z" fill="#712222"/>
<path d="M41.0165 26.5112C41.0165 26.5112 34.0165 30.9042 31.0165 43.1071C31.0165 43.1071 27.8165 20.0681 44.5165 17.1394L41.0165 26.5112Z" fill="#432918"/>
<path d="M68.3166 40.7641C68.3166 40.7641 75.5166 85.2802 64.1166 97.8735C64.1166 97.8735 78.6166 95.8235 79.3166 76.2989C79.3166 76.2989 81.9166 36.5664 72.1166 22.8992L68.3166 40.7641Z" fill="#712222"/>
<path d="M37.7165 97.7759C37.7165 97.7759 21.0165 95.8234 25.6165 45.8405C25.6165 45.8405 26.7165 18.018 43.4165 17.4323L42.4165 27.9755C42.4165 27.9755 32.8165 30.8066 34.1165 52.7717C34.1165 52.7717 33.1165 88.1112 37.7165 97.7759Z" fill="#712222"/>
</g>
</svg>
