<svg width="106" height="106" viewBox="0 0 106 106" fill="none" xmlns="http://www.w3.org/2000/svg">
<mask id="mask0_44_917" style="mask-type:alpha" maskUnits="userSpaceOnUse" x="0" y="0" width="106" height="106">
<path d="M105.256 52.9535C105.256 24.0676 81.8394 0.650875 52.9535 0.650877C24.0675 0.650878 0.650875 24.0676 0.650877 52.9535C0.650878 81.8394 24.0676 105.256 52.9535 105.256C81.8394 105.256 105.256 81.8394 105.256 52.9535Z" fill="#0D3953"/>
</mask>
<g mask="url(#mask0_44_917)">
<path d="M105.256 52.9536C105.256 24.0677 81.8394 0.650997 52.9535 0.650999C24.0675 0.651 0.650875 24.0677 0.650877 52.9536C0.650878 81.8396 24.0676 105.256 52.9535 105.256C81.8394 105.256 105.256 81.8395 105.256 52.9536Z" fill="#0D3953"/>
<path d="M62.9565 67.6985H42.9565V81.1985H62.9565V67.6985Z" fill="#F9C2A7"/>
<path d="M47.8565 77.4985C50.8565 78.6985 54.1565 79.3985 57.4565 79.3985C59.3565 79.3985 61.2565 79.1985 63.0565 78.8985V67.6985H43.0565V74.6985C44.3565 75.9985 46.1565 76.7985 47.8565 77.4985Z" fill="#E6B49B"/>
<path d="M75.1565 42.6985C75.2565 42.1985 76.0565 41.3985 76.4565 41.0985C77.2565 40.4985 78.1565 41.0985 78.3565 41.8985C78.5565 42.5985 78.5565 43.3985 78.6565 44.0985C78.7565 45.8985 78.5565 47.5985 77.6565 49.1985C77.1565 50.2985 76.2565 51.0985 75.2565 51.7985C75.2565 51.7985 74.1565 52.2985 73.9565 51.0985C73.9565 51.1985 75.0565 42.6985 75.1565 42.6985Z" fill="#F9C2A7"/>
<path d="M74.9566 43.7985C74.9566 43.3985 75.6566 42.8985 75.8566 42.6985C76.4566 42.2985 77.0566 42.6985 77.2566 43.2985C77.4566 43.7985 77.4566 44.3985 77.4566 44.8985C77.5566 46.1985 77.3566 47.3985 76.7566 48.5985C76.3566 49.3985 75.7566 49.9985 75.0566 50.4985C75.0566 50.4985 74.2566 50.8985 74.1566 49.9985C74.0566 49.8985 74.9566 43.7985 74.9566 43.7985Z" fill="#E1B099"/>
<path d="M30.3565 42.6985C30.2565 42.1985 29.4565 41.3985 29.0565 41.0985C28.2565 40.4985 27.3565 41.0985 27.1565 41.8985C26.9565 42.5985 26.9565 43.3985 26.8565 44.0985C26.7565 45.8985 26.9565 47.5985 27.8565 49.1985C28.3565 50.2985 29.2565 51.0985 30.2565 51.7985C30.2565 51.7985 31.3565 52.2985 31.5565 51.0985C31.5565 51.1985 30.3565 42.6985 30.3565 42.6985Z" fill="#F9C2A7"/>
<path d="M30.5565 43.7985C30.5565 43.3985 29.8565 42.8985 29.6565 42.6985C29.0565 42.2985 28.4565 42.6985 28.2565 43.2985C28.0565 43.7985 28.0565 44.3985 28.0565 44.8985C27.9565 46.1985 28.1565 47.3985 28.7565 48.5985C29.1565 49.3985 29.7565 49.9985 30.4565 50.4985C30.4565 50.4985 31.2565 50.8985 31.3565 49.9985C31.3565 49.8985 30.5565 43.7985 30.5565 43.7985Z" fill="#E1B099"/>
<path d="M75.7565 44.2985C75.7565 49.8985 74.7565 55.4985 72.0565 60.3985C69.6565 64.5985 66.1565 67.9985 62.2565 70.6985C59.1565 72.8985 55.8565 75.4985 51.8565 75.0985C47.7565 74.7985 44.5565 71.3985 41.5565 68.6985C37.3565 64.9985 34.0565 60.3985 31.9565 54.8985C30.6565 51.5985 30.1565 47.7985 30.1565 44.1985C30.1565 26.0985 40.3565 14.7985 52.9565 14.7985C65.5565 14.8985 75.7565 26.2985 75.7565 44.2985Z" fill="#F9C2A7"/>
<path d="M87.9565 87.2985L62.9565 80.7985H52.9565H42.9565L17.9565 87.2985C17.9565 87.2985 6.35652 91.5985 5.05652 105.198H52.9565H100.857C99.5565 91.5985 87.9565 87.2985 87.9565 87.2985Z" fill="#F9C2A7"/>
<path d="M87.9565 87.2985L62.9565 80.7985H52.9565H42.9565L17.9565 87.2985C17.9565 87.2985 6.35652 91.5985 5.05652 105.198H52.9565H100.857C99.5565 91.5985 87.9565 87.2985 87.9565 87.2985Z" fill="white"/>
<path d="M87.9565 87.2985L69.4565 82.4985L52.9565 105.199L36.6565 82.4985L17.9565 87.3985C17.9565 87.3985 6.35652 91.6985 5.05652 105.299H52.9565H100.857C99.5565 91.5985 87.9565 87.2985 87.9565 87.2985Z" fill="#002638"/>
<path d="M50.7565 93.7985L46.1565 105.198H59.2565L54.7565 93.7985H50.7565Z" fill="#F9B233"/>
<path d="M52.6566 80.9985L46.8566 88.8985L50.8566 93.8985L52.8566 93.7985H54.8566L58.7566 88.6985L52.6566 80.9985Z" fill="#F9B233"/>
<path d="M56.5566 87.8986C55.7566 89.3986 54.4566 91.0986 52.5566 90.6986C50.5566 90.2986 49.6566 88.3986 50.1566 86.4986C50.5566 84.6986 51.7566 83.0986 52.4566 81.3986L46.8566 88.8986L50.9566 93.8986L54.9566 93.7986L58.8566 88.6986L57.1566 86.5986C56.9566 87.0986 56.7566 87.4986 56.5566 87.8986Z" fill="#DADADA"/>
<path d="M76.0565 42.0985C76.0565 42.0985 72.3565 59.4985 59.8565 64.4985C59.8565 64.4985 58.2565 68.3985 53.1565 68.3985C47.9565 68.3985 46.4565 64.4985 46.4565 64.4985C33.9565 59.4985 30.2565 42.0985 30.2565 42.0985C29.1565 61.5985 43.1565 69.9985 43.1565 69.9985C50.7565 76.1985 53.1565 75.1985 53.1565 75.1985C53.1565 75.1985 55.5565 76.2985 63.1565 69.9985C63.1565 69.9985 77.0565 62.0985 76.0565 42.0985Z" fill="#432918"/>
<path d="M52.9565 58.6985C52.9565 58.6985 47.7565 57.0985 46.4565 64.4985C46.4565 64.4985 44.9565 64.2985 42.6565 62.4985C42.6565 62.3985 46.1565 53.7985 52.9565 58.6985Z" fill="#432918"/>
<path d="M53.4565 58.6985C53.4565 58.6985 58.6565 57.0985 59.9565 64.4985C59.9565 64.4985 61.4565 64.2985 63.7565 62.4985C63.7565 62.3985 60.2565 53.7985 53.4565 58.6985Z" fill="#432918"/>
<path d="M30.2565 42.0985C30.2565 42.0985 33.5565 21.7985 44.0565 23.7985C44.0565 23.7985 53.4565 29.6985 61.3565 23.6985C61.3565 23.6985 70.8565 23.3985 76.1565 42.1985C76.1565 42.1985 77.4565 22.0985 63.0565 14.9985C63.0565 14.9985 49.7565 8.89851 38.3565 17.9985C38.2565 17.8985 27.4565 26.3985 30.2565 42.0985Z" fill="#432918"/>
<path d="M52.9565 105.199L36.6565 82.4985L23.5565 85.8985L40.2565 97.5985L35.9565 99.4985L43.7565 105.199H52.9565Z" fill="#001A2A"/>
<path d="M52.9565 105.199L69.3565 82.4985L82.3565 85.8985L65.6565 97.6985L69.9565 99.5985L62.2565 105.199H52.9565Z" fill="#001A2A"/>
<path d="M33.1565 81.2985L42.9565 76.6985L52.9565 80.8985L62.9565 76.6985L73.3565 81.2985L58.5565 91.1985L52.9565 83.0985L46.8565 91.1985L33.1565 81.2985Z" fill="#EDEDED"/>
</g>
</svg>
