<svg width="150" height="132" viewBox="0 0 150 132" fill="none" xmlns="http://www.w3.org/2000/svg">
<g clip-path="url(#clip0_45_974)">
<path d="M121.5 114.8C137 113.3 148.8 100.2 148.8 84.7V50.6C148.8 36.6 139.2 24.7 126.1 21.3L116.5 2L104.5 19.3L46.9 15C29.4 13.7 14.4 27.6 14.4 45.2V92.1C14.4 110 29.8 124 47.7 122.2L121.5 114.8Z" stroke="#231F20" stroke-width="2" stroke-miterlimit="10"/>
<path d="M144.803 118.065C146.944 108.924 141.27 99.7776 132.129 97.636C122.988 95.4944 113.842 101.169 111.7 110.31C109.559 119.45 115.233 128.597 124.374 130.738C133.515 132.88 142.661 127.206 144.803 118.065Z" fill="#F5F5F5"/>
<path d="M17 45.1C26.3888 45.1 34 37.4888 34 28.1C34 18.7111 26.3888 11.1 17 11.1C7.61116 11.1 0 18.7111 0 28.1C0 37.4888 7.61116 45.1 17 45.1Z" fill="#F5F5F5"/>
<path d="M5.60001 36.5V31.9C5.60001 29.4999 5.90001 27.5 6.50001 25.9C7.10001 24.3 8.10001 23 9.50001 21.9C10.9 20.8 12.5 20.1 14.3 19.7V23.4C13 24.1 12.3 25.0999 12.2 26.2999H14.3V36.5H5.60001ZM17.2 36.5V31.9C17.2 29.4999 17.5 27.5 18.1 25.9C18.7 24.3 19.7 23 21.1 21.9C22.5 20.8 24.1 20.1 25.9 19.7V23.4C24.6 24.1 23.9 25.0999 23.8 26.2999H25.9V36.5H17.2Z" fill="black"/>
<path d="M126.8 107.2V111.8C126.8 114.2 126.5 116.2 125.9 117.8C125.3 119.4 124.3 120.7 122.9 121.8C121.5 122.9 119.9 123.6 118.1 124V120.3C119.4 119.6 120.1 118.6 120.3 117.4H118.1V107.2H126.8V107.2ZM138.4 107.2V111.8C138.4 114.2 138.1 116.2 137.5 117.8C136.9 119.4 135.9 120.7 134.5 121.8C133.1 122.9 131.5 123.6 129.7 124V120.3C131 119.6 131.7 118.6 131.8 117.4H129.7V107.2H138.4V107.2Z" fill="black"/>
</g>
<defs>
<clipPath id="clip0_45_974">
<rect width="149.8" height="131.2" fill="white"/>
</clipPath>
</defs>
</svg>
