<svg width="186" height="117" viewBox="0 0 186 117" fill="none" xmlns="http://www.w3.org/2000/svg">
<g clip-path="url(#clip0_47_992)">
<path d="M70 116.3C54 116.3 38.3 110.1 25.3 98.6C12.3 87 3.3 71.5 0.699999 55.9C-3.2 31.8 8.8 13.7 33 7.6C44.8 4.6 53.5 7.9 62.8 11.5C70.7 14.5 78.8 17.6 89.2 16.5C100.9 15.2 111.9 10 122.5 5C124.3 4.2 126.1 3.3 127.9 2.5C138.6 -2.4 151.4 0.0999994 163 9.5C176.7 20.5 188.4 41.7 184.2 60.6C182 70.5 174.5 83.6 151.2 89.3C116.3 97.9 104.3 104.8 96.4 109.3C90.1 112.9 85.9 115.3 74.7 116.2C73.2 116.3 71.6 116.3 70 116.3ZM42 8C39.3 8 36.4 8.3 33.4 9.1C10.1 15 -1.6 32.4 2.3 55.6C7.4 86.4 37.7 117.4 74.7 114.5C85.5 113.7 89.3 111.5 95.7 107.8C103.7 103.2 115.8 96.4 150.9 87.7C168.7 83.3 179.7 73.8 182.7 60.1C186.8 41.8 175.4 21.3 162 10.5C150.8 1.5 138.6 -1 128.5 3.7C126.7 4.5 124.9 5.4 123.1 6.2C112.3 11.3 101.2 16.5 89.3 17.8C78.6 19 70.2 15.8 62.2 12.7C55.7 10.4 49.4 8 42 8Z" fill="#56B132" fill-opacity="0.5"/>
<path d="M37.2 16.8999V17.9999C33.9 19.8999 31.8 22.2999 31.1 25.2999C31.9 24.7999 32.7 24.4999 33.4 24.4999C34.5 24.4999 35.5 24.9999 36.3 25.8999C37.1 26.7999 37.5 27.9999 37.5 29.2999C37.5 30.7999 37 31.9999 35.9 32.9999C34.9 33.9999 33.6 34.4999 32.1 34.4999C30.6 34.4999 29.3 33.8999 28.3 32.5999C27.3 31.2999 26.8 29.6999 26.8 27.7999C26.8 25.0999 27.8 22.6999 29.9 20.5999C31.8 18.3999 34.3 17.1999 37.2 16.8999ZM50.2 16.8999V17.9999C46.9 19.8999 44.8 22.2999 44.1 25.2999C44.9 24.7999 45.7 24.4999 46.4 24.4999C47.5 24.4999 48.5 24.9999 49.3 25.8999C50.1 26.7999 50.5 27.9999 50.5 29.2999C50.5 30.7999 50 31.9999 49 32.9999C48 33.9999 46.7 34.4999 45.2 34.4999C43.7 34.4999 42.4 33.8999 41.4 32.5999C40.4 31.2999 39.9 29.6999 39.9 27.7999C39.9 25.0999 40.9 22.6999 43 20.5999C44.9 18.3999 47.3 17.1999 50.2 16.8999Z" fill="#56B132" fill-opacity="0.5"/>
<path d="M161.1 81.2001V80.1001C164.4 78.2001 166.5 75.8001 167.2 72.8001C166.4 73.3001 165.6 73.6001 164.9 73.6001C163.8 73.6001 162.8 73.1001 162 72.2001C161.2 71.3001 160.8 70.1001 160.8 68.8001C160.8 67.3001 161.3 66.1001 162.4 65.1001C163.4 64.1001 164.7 63.6001 166.2 63.6001C167.7 63.6001 169 64.2001 170 65.5001C171 66.8001 171.5 68.4001 171.5 70.3001C171.5 73.0001 170.5 75.4001 168.4 77.5001C166.4 79.7001 164 80.9001 161.1 81.2001ZM148 81.2001V80.1001C151.3 78.2001 153.4 75.8001 154.1 72.8001C153.3 73.3001 152.5 73.6001 151.8 73.6001C150.7 73.6001 149.7 73.1001 148.9 72.2001C148.1 71.3001 147.7 70.1001 147.7 68.8001C147.7 67.3001 148.2 66.1001 149.2 65.1001C150.2 64.1001 151.5 63.6001 153 63.6001C154.5 63.6001 155.8 64.2001 156.8 65.5001C157.8 66.8001 158.3 68.4001 158.3 70.3001C158.3 73.0001 157.3 75.4001 155.2 77.5001C153.4 79.7001 150.9 80.9001 148 81.2001Z" fill="#56B132" fill-opacity="0.5"/>
</g>
<defs>
<clipPath id="clip0_47_992">
<rect width="185.1" height="116.3" fill="white"/>
</clipPath>
</defs>
</svg>
